<svg width="500" height="360" viewBox="0 0 500 360" fill="none" xmlns="http://www.w3.org/2000/svg">
<g clip-path="url(#clip0_2030_9205)">
<path d="M224.907 181.462C224.907 197.286 212.529 208.946 197.337 208.946C182.145 208.946 169.766 197.286 169.766 181.462C169.766 165.527 182.145 153.978 197.337 153.978C212.529 153.978 224.907 165.527 224.907 181.462ZM212.838 181.462C212.838 171.574 205.664 164.808 197.337 164.808C189.01 164.808 181.835 171.574 181.835 181.462C181.835 191.251 189.01 198.116 197.337 198.116C205.664 198.116 212.838 191.239 212.838 181.462Z" fill="white"/>
<path d="M284.386 181.462C284.386 197.286 272.007 208.946 256.815 208.946C241.624 208.946 229.245 197.286 229.245 181.462C229.245 165.539 241.624 153.978 256.815 153.978C272.007 153.978 284.386 165.527 284.386 181.462ZM272.317 181.462C272.317 171.574 265.142 164.808 256.815 164.808C248.488 164.808 241.314 171.574 241.314 181.462C241.314 191.251 248.488 198.116 256.815 198.116C265.142 198.116 272.317 191.239 272.317 181.462Z" fill="white"/>
<path d="M341.386 155.639V204.981C341.386 225.278 329.416 233.568 315.265 233.568C301.945 233.568 293.927 224.658 290.904 217.372L301.412 212.998C303.283 217.471 307.868 222.75 315.253 222.75C324.311 222.75 329.924 217.162 329.924 206.641V202.688H329.503C326.802 206.022 321.597 208.934 315.03 208.934C301.288 208.934 288.698 196.964 288.698 181.561C288.698 166.047 301.288 153.978 315.03 153.978C321.585 153.978 326.789 156.89 329.503 160.124H329.924V155.651H341.386V155.639ZM330.779 181.561C330.779 171.884 324.323 164.808 316.108 164.808C307.781 164.808 300.805 171.884 300.805 181.561C300.805 191.14 307.781 198.116 316.108 198.116C324.323 198.116 330.779 191.14 330.779 181.561Z" fill="white"/>
<path d="M360.282 126.717V207.261H348.511V126.717H360.282Z" fill="white"/>
<path d="M406.155 190.508L415.523 196.753C412.499 201.226 405.213 208.934 392.624 208.934C377.011 208.934 365.351 196.865 365.351 181.45C365.351 165.106 377.11 153.966 391.273 153.966C405.536 153.966 412.512 165.316 414.792 171.45L416.043 174.573L379.303 189.789C382.116 195.303 386.49 198.116 392.624 198.116C398.77 198.116 403.033 195.093 406.155 190.508ZM377.321 180.62L401.88 170.422C400.53 166.989 396.465 164.598 391.682 164.598C385.548 164.598 377.011 170.013 377.321 180.62Z" fill="white"/>
<path d="M125.207 174.312V162.652H164.5C164.884 164.684 165.082 167.088 165.082 169.69C165.082 178.439 162.691 189.256 154.983 196.964C147.487 204.77 137.908 208.934 125.22 208.934C101.701 208.934 81.9243 189.777 81.9243 166.258C81.9243 142.739 101.701 123.582 125.22 123.582C138.23 123.582 147.499 128.688 154.463 135.342L146.235 143.57C141.241 138.886 134.476 135.243 125.207 135.243C108.033 135.243 94.6006 149.084 94.6006 166.258C94.6006 183.432 108.033 197.273 125.207 197.273C136.347 197.273 142.691 192.8 146.756 188.736C150.052 185.44 152.22 180.731 153.075 174.3L125.207 174.312Z" fill="white"/>
</g>
<defs>
<clipPath id="clip0_2030_9205">
<rect width="337.043" height="114" fill="white" transform="translate(81.478 123)"/>
</clipPath>
</defs>
</svg>
