<svg width="500" height="360" viewBox="0 0 500 360" fill="none" xmlns="http://www.w3.org/2000/svg">
<path d="M285.214 292.185C283.272 292.185 281.544 292.042 280.23 291.701V273.483C281.269 273.274 283.272 272.997 285.895 272.997C292.531 272.997 296.895 275.97 296.895 282.243C296.895 288.564 292.532 292.185 285.214 292.185Z" fill="white"/>
<path d="M207.504 310.626C205.146 310.626 202.942 310.626 201.424 310.338V273.274C203.015 272.931 205.369 272.657 208.47 272.657C221.188 272.657 227.419 279.542 227.344 290.729C227.343 303.383 220.357 310.688 207.504 310.626Z" fill="white"/>
<path d="M265.997 123.976L266.264 123.603C266.507 123.412 266.754 123.224 267.003 123.035C267.931 122.328 268.875 121.609 269.678 120.728H269.817C269.707 120.694 269.585 120.725 269.461 120.757C269.317 120.794 269.169 120.832 269.029 120.771C268.482 120.521 268.394 120.035 268.394 119.477L266.036 117.024L265.908 116.66C265.758 117.049 265.487 117.314 265.206 117.59C265.151 117.644 265.096 117.698 265.042 117.753C265.045 117.819 265.043 117.891 265.04 117.966C265.032 118.251 265.022 118.577 265.314 118.741C266.079 118.994 267.075 119.499 267.246 120.402C267.142 120.686 266.894 120.961 266.647 121.236C266.152 121.785 265.658 122.333 266.32 122.95C266.499 123.204 266.342 123.37 266.188 123.534C266.063 123.668 265.939 123.8 265.997 123.976Z" fill="white"/>
<path d="M252.282 92.6571C252.572 92.8185 252.777 92.6804 252.988 92.5377C253.101 92.4614 253.216 92.3838 253.347 92.3498C253.85 92.4041 254.25 92.8258 254.569 93.1619C254.587 93.1805 254.604 93.1989 254.621 93.2169C254.898 93.3407 255.169 93.2256 255.424 93.1169C255.483 93.0917 255.542 93.0669 255.599 93.0455C255.713 92.1975 256.324 91.8628 256.963 91.5134C257.531 91.2024 258.121 90.8798 258.4 90.1732L258.035 90.3091C257.974 90.2219 257.875 90.1853 257.781 90.1501C257.641 90.0981 257.511 90.0494 257.523 89.8445C257.572 89.7964 257.623 89.7445 257.676 89.6907C257.972 89.3884 258.329 89.0251 258.669 88.9159C256.95 87.83 255.166 86.9057 253.205 86.4106C252.903 86.3394 252.595 86.2933 252.288 86.2473C251.814 86.1763 251.341 86.1056 250.899 85.9435C251.104 86.5563 251.096 87.3293 251.087 88.1148C251.08 88.7401 251.073 89.3733 251.173 89.9402L252.544 90.3975C252.753 90.0599 253.078 89.8596 253.399 89.6623C253.716 89.4669 254.029 89.2744 254.218 88.9543C254.464 88.7421 254.753 88.9543 254.952 89.1854C255.016 89.7049 254.874 90.2262 254.718 90.7262C254.415 91.3373 253.869 91.6342 253.33 91.9273C252.947 92.1355 252.568 92.3417 252.282 92.6571Z" fill="white"/>
<path d="M272.716 105.62C271.906 108.209 270.966 110.734 269.351 112.992C269.196 113.193 269.04 113.413 268.882 113.637C268.404 114.316 267.9 115.03 267.29 115.345L269.03 116.89C269.089 116.829 269.087 116.742 269.086 116.652C269.085 116.603 269.084 116.553 269.093 116.507C269.093 116.276 269.2 116.004 269.488 116.037C270.036 116.027 270.234 116.408 270.439 116.804C270.549 117.016 270.66 117.231 270.828 117.393C270.78 117.74 270.898 118.052 271.013 118.357C271.141 118.696 271.265 119.025 271.153 119.382C275.989 114.247 278.409 107.959 278.852 100.993L279.115 100.685C277.967 100.798 276.778 100.783 275.587 100.768C274.986 100.76 274.385 100.753 273.788 100.761L273.362 100.63C273.439 101.385 273.338 102.125 273.237 102.865C273.181 103.276 273.124 103.687 273.099 104.1L273.721 104.791C273.906 105.062 273.839 105.47 273.593 105.677C273.319 105.859 272.979 105.84 272.716 105.62Z" fill="white"/>
<path d="M268.102 88.544C267.605 87.5935 266.875 86.7214 266.16 85.8669C265.948 85.6142 265.738 85.3631 265.536 85.1119L265.443 85.3503C264.9 85.9178 264.34 86.4915 263.776 87.0689C262.507 88.3694 261.218 89.6892 260.052 91.0024C260.161 91.2286 260.351 91.4456 260.573 91.5572C260.605 91.3448 260.676 91.143 260.748 90.94C260.832 90.7036 260.917 90.4655 260.94 90.2067C261.303 89.6969 261.827 89.8579 262.324 90.0111C262.445 90.0483 262.565 90.085 262.68 90.1116C263.22 89.9853 263.741 90.0818 264.27 90.1798C264.641 90.2483 265.015 90.3176 265.402 90.3116C265.761 90.4865 265.95 90.8092 266.137 91.1278C266.311 91.4253 266.483 91.7192 266.79 91.8858C266.96 92.131 266.823 92.4291 266.593 92.6218C266.704 93.4355 266.969 93.2101 267.31 92.9201C267.575 92.6949 267.886 92.4307 268.205 92.584C268.297 92.6185 268.395 92.6389 268.495 92.6595C268.726 92.7073 268.962 92.756 269.119 92.9839C269.177 93.2816 269.386 93.4047 269.586 93.5229C269.79 93.6431 269.986 93.7582 270.005 94.0461C269.962 94.2511 269.793 94.3508 269.626 94.4495C269.56 94.4885 269.494 94.5272 269.436 94.5723C269.525 94.8462 269.397 95.0731 269.268 95.3025C269.126 95.5536 268.983 95.8077 269.119 96.1301C269.883 96.2758 270.142 95.7104 270.395 95.1558C270.511 94.9029 270.625 94.6522 270.786 94.4723C270.738 94.3041 270.692 94.1351 270.646 93.966C270.42 93.1316 270.193 92.2959 269.721 91.5572C269.407 91.492 269.155 91.2718 268.903 91.0508C268.648 90.8276 268.391 90.6036 268.07 90.5378C267.317 90.2379 267.56 89.8337 267.824 89.3956C267.99 89.1193 268.164 88.8295 268.102 88.544Z" fill="white"/>
<path d="M250.995 128.838C251.896 128.531 252.889 128.449 253.885 128.366C254.462 128.318 255.04 128.27 255.602 128.178C255.555 128.16 255.507 128.143 255.46 128.126C255.204 128.034 254.95 127.943 254.755 127.678C253.855 127.618 253.429 126.68 253.15 125.956C253.043 125.559 253.23 125.213 253.417 124.869C253.471 124.77 253.524 124.671 253.571 124.57C253.338 124.086 252.798 124.114 252.254 124.143C251.913 124.161 251.571 124.179 251.303 124.07C251.249 124.025 251.199 123.974 251.149 123.923C251.025 123.795 250.901 123.668 250.713 123.639L250.995 124.07C250.995 124.598 251.016 125.13 251.038 125.663C251.081 126.728 251.124 127.795 250.995 128.838Z" fill="white"/>
<path d="M252.23 113.783C252.5 113.834 252.519 114.018 252.54 114.207C252.557 114.367 252.574 114.529 252.742 114.619C253.097 114.502 253.415 114.629 253.715 114.748C254.077 114.892 254.412 115.025 254.754 114.709C254.729 114.031 255.292 113.902 255.809 113.784C255.984 113.744 256.153 113.705 256.293 113.647C257.162 113.127 258.135 112.432 258.04 111.274L257.894 111.105C257.437 111.105 257.152 111.379 256.847 111.672C256.757 111.758 256.666 111.846 256.567 111.93C256.273 112.098 256.059 111.92 255.856 111.751C255.681 111.605 255.515 111.466 255.313 111.565C255.332 111.66 255.429 111.703 255.512 111.736C255.616 111.877 255.658 112.163 255.512 112.303C255.118 112.66 254.85 112.483 254.567 112.296C254.376 112.17 254.178 112.04 253.93 112.063V112.303C253.954 112.432 253.895 112.646 253.708 112.566C253.503 112.234 253.193 112.139 252.888 112.045C252.607 111.959 252.331 111.874 252.146 111.608C251.904 111.472 251.667 111.644 251.497 111.797C251.441 111.921 251.298 111.933 251.163 111.945C250.98 111.961 250.813 111.975 250.901 112.266C250.616 112.366 250.483 112.594 250.346 112.828C250.256 112.982 250.164 113.14 250.025 113.264C249.705 113.21 249.482 113.376 249.259 113.542C249.062 113.689 248.864 113.836 248.599 113.829C248.618 113.866 248.625 113.913 248.631 113.959C248.643 114.051 248.655 114.141 248.767 114.15C249.12 114.305 249.463 114.339 249.89 114.286C250.231 113.734 250.713 113.789 251.218 113.846C251.557 113.884 251.906 113.924 252.23 113.783Z" fill="white"/>
<path d="M257.898 106.245C257.926 106.531 257.969 106.917 258.211 107.162C258.593 107.106 258.697 107.35 258.798 107.59C258.894 107.819 258.989 108.044 259.323 108C259.559 107.929 259.518 107.78 259.473 107.618C259.445 107.513 259.414 107.403 259.456 107.304C259.385 106.916 259.11 106.76 258.82 106.596C258.676 106.515 258.529 106.431 258.4 106.316C258.366 106.227 258.413 106.147 258.458 106.071C258.469 106.052 258.48 106.032 258.49 106.014C258.221 105.862 258.088 106.02 257.918 106.221C257.911 106.229 257.905 106.237 257.898 106.245Z" fill="white"/>
<path d="M257.027 79.6122C255.19 78.9602 253.197 78.6607 251.2 78.3605C251.081 78.3427 250.962 78.3248 250.843 78.3068L251.037 78.7282L250.997 83.9534L251.501 83.8559C254.678 84.2967 257.591 85.3253 260.109 87.3855L260.247 87.7953C260.766 87.0508 261.456 86.3719 262.145 85.6937C262.585 85.2611 263.024 84.8287 263.419 84.3796L264.385 83.8175L263.923 83.6272C261.809 81.8536 259.52 80.5079 257.027 79.6122Z" fill="white"/>
<path d="M221.351 101.148L221.77 104.701C221.837 105.259 221.977 105.807 222.116 106.352C222.319 107.145 222.519 107.931 222.494 108.731C222.566 108.632 222.597 108.497 222.629 108.362C222.69 108.103 222.752 107.84 223.095 107.803C222.993 107.604 223.075 107.418 223.155 107.239C223.245 107.037 223.331 106.843 223.147 106.647C223.161 106.573 223.174 106.499 223.187 106.425C223.34 105.572 223.492 104.719 224.241 104.103C224.736 104.082 225 103.744 225.264 103.405C225.527 103.07 225.789 102.734 226.277 102.705C226.65 102.691 226.916 103.068 227.119 103.355C227.186 103.45 227.247 103.536 227.302 103.594C226.679 102.848 226.712 101.612 226.869 100.76L226.447 100.957C225.87 100.944 225.286 100.951 224.702 100.957C223.48 100.97 222.26 100.983 221.116 100.819L221.351 101.148Z" fill="white"/>
<path d="M255.741 110.177C255.92 109.987 256.179 109.876 256.43 109.768C256.815 109.602 257.181 109.444 257.207 109.024C256.614 108.929 256.279 109.209 255.894 109.531C255.844 109.572 255.794 109.615 255.741 109.657C255.731 109.681 255.716 109.709 255.7 109.739C255.621 109.888 255.514 110.091 255.741 110.177Z" fill="white"/>
<path d="M267.94 100.495L268.528 101.088C268.818 101.287 268.871 101.595 268.923 101.9C268.978 102.217 269.031 102.529 269.351 102.708C269.958 103.02 270.252 103.658 270.52 104.238C270.581 104.369 270.64 104.497 270.701 104.618C270.773 104.508 270.799 104.38 270.823 104.256C270.837 104.188 270.851 104.121 270.871 104.058C270.992 103.576 271.05 103.066 271.107 102.555C271.176 101.943 271.245 101.33 271.423 100.762C271.327 100.767 271.229 100.772 271.131 100.777C270.051 100.834 268.861 100.897 267.94 100.495Z" fill="white"/>
<path d="M260.204 114.014C260.446 114.077 260.66 114.231 260.876 114.385C261.239 114.645 261.606 114.908 262.119 114.75C262.416 114.584 262.796 114.602 263.17 114.62C263.67 114.644 264.16 114.667 264.423 114.247C264.372 113.754 264.649 113.353 264.927 112.95C265.052 112.769 265.177 112.587 265.273 112.397L265.497 112.337C265.752 112.602 265.83 112.956 265.903 113.292C265.941 113.465 265.978 113.633 266.037 113.783C266.366 113.425 266.654 113.043 266.94 112.663C267.116 112.43 267.291 112.198 267.474 111.972C268.739 110.117 269.818 108.131 270.273 106.014C269.759 106.03 269.238 106.118 268.765 106.276C268.58 106.265 268.382 106.294 268.183 106.323C267.781 106.381 267.372 106.44 267.051 106.181C266.885 106.031 266.764 106.262 266.79 106.417C266.773 106.441 266.756 106.467 266.739 106.492C266.556 106.763 266.36 107.055 265.957 106.936C265.704 106.822 265.637 106.593 265.573 106.372C265.55 106.294 265.528 106.216 265.497 106.145C265.512 106.308 265.473 106.456 265.435 106.603C265.423 106.649 265.411 106.696 265.4 106.743C265.126 107.032 264.973 107.317 264.813 107.618C264.74 107.753 264.666 107.891 264.579 108.034C264.364 108.271 264.078 108.337 263.794 108.403C263.546 108.461 263.298 108.518 263.1 108.688C263.046 109.331 262.542 109.434 262.047 109.536C261.826 109.581 261.608 109.626 261.431 109.718C261.407 109.787 261.449 109.82 261.497 109.858C261.527 109.882 261.56 109.908 261.582 109.946C261.857 110.022 262.219 110.022 262.411 109.751C262.908 109.885 263.032 109.546 263.165 109.185C263.247 108.961 263.332 108.729 263.511 108.594C263.639 108.576 263.764 108.528 263.89 108.481C264.158 108.38 264.426 108.279 264.707 108.465C265.138 108.98 265.23 109.732 265.171 110.409C264.914 110.664 264.873 111.009 264.831 111.359C264.798 111.64 264.764 111.923 264.617 112.164C264.654 112.481 264.484 112.711 264.316 112.94C264.144 113.174 263.973 113.407 264.023 113.729C263.78 114.015 263.349 114.06 262.965 114.06C261.46 113.481 259.859 113.109 258.171 112.953C258.017 113.013 257.923 113.148 257.944 113.324C258.326 113.525 258.751 113.621 259.177 113.718C259.526 113.797 259.876 113.876 260.204 114.014Z" fill="white"/>
<path d="M248.767 130.919L248.965 130.627L248.369 130.784C240.89 130.267 234.275 127.607 228.811 122.291L228.749 122.524L224.8 126.518C230.78 131.732 237.532 135.09 245.241 136.153C245.735 136.236 246.258 136.267 246.783 136.299C247.565 136.345 248.352 136.393 249.058 136.612L248.767 136.153V130.919Z" fill="white"/>
<path d="M241.039 110.117C243.099 111.822 245.397 112.875 247.95 113.323C248.005 113.106 248.001 112.865 247.997 112.626C247.991 112.293 247.986 111.963 248.141 111.703C248.333 111.275 248.844 111.294 249.235 111.368C249.462 111.351 249.604 111.065 249.462 110.865C249.108 110.796 249.085 110.518 249.062 110.235C249.049 110.076 249.035 109.915 248.963 109.788C248.975 109.706 249.042 109.667 249.108 109.628C249.195 109.576 249.28 109.526 249.235 109.381C249.033 109.222 249.09 109.054 249.147 108.883C249.201 108.724 249.256 108.561 249.1 108.402C249.144 108.371 249.183 108.329 249.222 108.286C249.266 108.239 249.31 108.191 249.361 108.157C248.337 108.589 247.257 108.087 246.314 107.649C246.186 107.589 246.06 107.531 245.937 107.476C245.853 107.426 245.761 107.377 245.668 107.327C245.205 107.076 244.688 106.795 244.597 106.276C244.054 107.167 243.179 108.008 242.317 108.838C241.872 109.265 241.431 109.69 241.039 110.117Z" fill="white"/>
<path d="M239.067 104.101C238.88 104.001 238.854 104.025 238.702 104.191C238.682 104.191 238.66 104.192 238.638 104.194C238.56 104.198 238.477 104.202 238.418 104.158C238.418 103.509 237.991 103.471 237.547 103.432C237.237 103.404 236.92 103.376 236.732 103.141C236.995 103.627 237.197 104.15 237.401 104.673C237.613 105.219 237.825 105.766 238.106 106.275C238.283 106.725 238.566 107.126 238.848 107.525C239.123 107.914 239.396 108.302 239.569 108.73C239.799 108.288 240.179 107.9 240.559 107.513C240.777 107.291 240.994 107.069 241.183 106.837C241.221 106.551 241.16 106.297 240.996 106.087C240.93 105.922 240.916 105.73 240.902 105.537C240.882 105.251 240.861 104.964 240.672 104.758C240.399 104.856 240.489 105.055 240.583 105.263C240.657 105.426 240.733 105.595 240.639 105.725C240.43 105.859 240.198 105.678 240.184 105.487C239.739 105.415 239.393 105.022 239.256 104.617C239.505 104.462 239.376 104.367 239.236 104.264C239.169 104.214 239.099 104.162 239.067 104.101Z" fill="white"/>
<path d="M242.751 104.661C242.63 105.139 242.31 105.561 241.96 105.911L242.019 105.949C242.169 105.842 242.305 105.707 242.441 105.573C242.724 105.293 243.006 105.015 243.404 104.989L242.751 104.661Z" fill="white"/>
<path d="M248.315 123.414C243.651 123.181 239.569 121.466 235.942 118.739C235.986 118.917 236.104 119.071 236.222 119.226C236.41 119.473 236.601 119.722 236.496 120.075C236.169 120.601 235.499 120.611 234.967 120.601C234.326 120.497 233.785 120.736 233.243 120.975C232.853 121.147 232.462 121.32 232.033 121.366C231.527 121.522 231.199 121.263 230.871 121.003C230.586 120.778 230.302 120.554 229.903 120.601C235.229 125.281 241.326 128.213 248.468 128.601L249.006 128.968L248.769 128.313V123.217L248.315 123.414Z" fill="white"/>
<path d="M227.601 120.904C227.042 120.508 226.538 119.906 226.063 119.338C225.981 119.24 225.899 119.143 225.819 119.049C225.184 118.877 224.526 118.434 224.204 117.82C224.113 117.714 224.106 117.571 224.101 117.434C224.094 117.287 224.088 117.148 223.979 117.067L223.738 117.356C223.272 117.583 223.014 117.315 222.745 117.034C222.627 116.912 222.507 116.788 222.367 116.701C222.109 116.562 222.016 116.272 221.93 116.002C221.816 115.645 221.713 115.324 221.25 115.443C221.042 115.434 220.93 115.268 220.819 115.104C220.768 115.027 220.716 114.951 220.656 114.891C220.137 114.941 219.885 114.551 219.642 114.174C219.538 114.012 219.435 113.852 219.313 113.731C219.287 113.79 219.278 113.855 219.27 113.92C219.253 114.047 219.236 114.173 219.086 114.248C218.573 114.366 218.286 113.987 217.996 113.605C217.851 113.413 217.704 113.219 217.528 113.089C217.484 113.108 217.444 113.138 217.404 113.169C217.321 113.232 217.236 113.296 217.102 113.267C216.65 112.863 216.34 112.279 216.316 111.648C215.77 111.02 215.915 110.085 216.04 109.279C216.059 109.156 216.078 109.036 216.094 108.921C216.136 108.837 216.205 108.767 216.274 108.697C216.396 108.574 216.515 108.454 216.472 108.271C216.65 107.863 217.074 107.823 217.476 107.804C217.63 107.885 217.784 108.035 217.855 108.175C217.932 108.127 218.038 108.109 218.142 108.092C218.377 108.054 218.601 108.017 218.451 107.629C218.773 107.343 219.261 107.241 219.703 107.165C219.819 107.312 219.912 107.467 220.005 107.623C220.159 107.878 220.313 108.135 220.568 108.36L220.3 107.939C219.839 106.048 219.477 104.121 219.37 102.073C219.379 102.024 219.338 101.986 219.298 101.95C219.245 101.9 219.195 101.854 219.278 101.789L219.314 101.844C219.322 101.691 219.323 101.545 219.324 101.408C219.326 101.164 219.328 100.948 219.371 100.763L218.854 100.958L213.523 100.921C213.831 107.089 215.457 112.705 218.225 117.862C219.206 119.698 220.518 121.404 221.827 123.105C222.332 123.76 222.835 124.415 223.319 125.076L227.136 121.099L227.601 120.904Z" fill="white"/>
<path d="M233.735 75.854C233.233 76.2035 232.748 76.5981 232.264 76.9925C231.6 77.5332 230.936 78.0736 230.227 78.4977C231.17 79.0959 232.001 79.9622 232.828 80.8245C233.248 81.263 233.667 81.7005 234.1 82.1011L234.235 82.47C237.5 79.3263 241.466 77.4947 245.748 76.6063C246.052 76.5755 246.356 76.523 246.661 76.4705C247.369 76.3484 248.077 76.2263 248.767 76.3777C248.753 76.0006 248.735 75.6206 248.717 75.239C248.647 73.7595 248.576 72.2565 248.727 70.8116C243.17 71.1451 238.195 72.8413 233.735 75.854Z" fill="white"/>
<path d="M229.171 95.9959C229.087 96.3679 229.056 96.7639 229.025 97.1611C228.978 97.7536 228.93 98.3488 228.709 98.8708C229.389 98.5562 230.36 98.6781 231.107 98.7732C230.863 98.6433 230.871 98.4105 230.88 98.1755C230.887 97.9924 230.894 97.808 230.781 97.6702C230.78 97.6626 230.779 97.655 230.778 97.6473C230.721 97.1772 230.651 96.5909 231.107 96.2819C231.079 95.8509 231.314 95.5345 231.548 95.2201C231.743 94.9577 231.938 94.6968 231.977 94.3717C232.096 93.9021 232.457 93.8901 232.826 93.8779C233.091 93.8691 233.36 93.8601 233.546 93.6809C233.744 93.5733 233.689 93.4148 233.634 93.2574C233.609 93.1846 233.584 93.1121 233.584 93.0449C233.826 92.7117 234.152 92.599 234.474 92.4877C234.663 92.4224 234.85 92.3577 235.018 92.2492C235.35 91.7493 235.771 91.2085 236.306 90.9085C236.898 90.9269 237.192 90.5081 237.485 90.0905C237.762 89.6943 238.04 89.2992 238.569 89.2793C237.357 88.3555 236.193 87.179 235.09 86.0645C234.834 85.8057 234.581 85.5503 234.332 85.3021C231.69 88.4891 229.881 91.9974 229.171 95.9959Z" fill="white"/>
<path d="M229.903 103.825C229.93 103.65 229.815 103.54 229.699 103.43C229.584 103.321 229.469 103.212 229.493 103.039C229.624 102.784 229.664 102.473 229.704 102.165C229.777 101.607 229.848 101.057 230.456 100.857C230.419 100.864 230.381 100.87 230.343 100.877C229.721 100.985 229.16 101.083 228.622 100.686L228.894 101.148C228.911 101.622 228.991 102.087 229.072 102.552C229.208 103.336 229.343 104.117 229.171 104.93C229.236 104.821 229.286 104.699 229.338 104.576C229.458 104.287 229.582 103.99 229.903 103.825Z" fill="white"/>
<path d="M235.189 117.753L235.118 117.622L235.189 117.86V117.753Z" fill="white"/>
<path d="M228.809 80.1128L226.735 82.7663C223.342 87.4489 221.727 92.8693 221.249 98.7763L226.507 98.6763L227.004 98.8738C226.86 98.7765 226.839 98.6402 226.817 98.5029C226.807 98.4389 226.797 98.3747 226.775 98.3141C227.201 92.8126 229.113 87.9129 232.887 83.8193C231.434 82.5523 230.07 81.1993 228.836 79.7513L228.809 80.1128Z" fill="white"/>
<path d="M245.009 116.195C245.43 115.745 245.928 115.445 246.448 115.252C245.152 115.519 243.971 114.865 242.841 114.24C242.487 114.044 242.138 113.851 241.791 113.69C241.577 113.529 241.346 113.376 241.112 113.222C240.446 112.781 239.761 112.328 239.393 111.644C238.257 113.033 236.919 114.478 235.581 115.579C235.945 115.602 236.211 115.866 236.48 116.132C236.644 116.294 236.809 116.457 236.997 116.567C239.876 118.975 243.46 120.137 246.791 120.964L245.882 120.535C245.796 120.438 245.706 120.338 245.613 120.237C244.958 119.517 244.202 118.685 244.171 117.725C244.661 117.555 244.763 117.118 244.863 116.691C244.904 116.518 244.944 116.347 245.009 116.195Z" fill="white"/>
<path d="M231.891 100.857L231.742 101.877C231.613 102.208 231.33 102.221 231.044 102.234C230.81 102.245 230.574 102.256 230.421 102.441C230.172 102.825 230.43 103.23 230.643 103.537C230.346 104.224 230.755 104.65 231.173 105.085C231.507 105.431 231.846 105.783 231.834 106.278C232.08 106.595 232.087 106.974 232.094 107.352C232.102 107.805 232.111 108.256 232.53 108.593C232.574 108.924 232.583 109.286 232.592 109.657C232.618 110.695 232.645 111.808 233.451 112.53L233.645 113.731C233.76 114.158 233.492 114.307 233.229 114.453C232.983 114.589 232.741 114.723 232.817 115.079C233.028 114.976 233.088 115.207 233.115 115.314C233.119 115.327 233.122 115.339 233.124 115.348V115.31C234.602 113.595 236.306 111.78 238.049 110.258L237.325 109.523C235.961 107.474 234.888 105.292 234.37 102.902L233.816 102.616C233.805 102.892 233.741 103.142 233.677 103.389C233.6 103.692 233.523 103.991 233.546 104.33L233.355 104.561C233.074 104.551 232.865 104.386 232.647 104.214C232.554 104.14 232.46 104.066 232.358 104.002C232.347 103.974 232.334 103.944 232.32 103.912C232.229 103.702 232.108 103.424 232.395 103.273C232.587 103.256 232.717 103.311 232.86 103.402C232.958 103.279 232.973 103.124 232.99 102.962C233.002 102.847 233.014 102.728 233.056 102.616C233.074 102.429 233.02 102.249 232.967 102.074C232.889 101.813 232.814 101.564 232.985 101.32C233.354 101.284 233.624 101.727 233.774 101.975C234.044 102.059 234.272 101.92 234.493 101.784C234.574 101.735 234.654 101.686 234.735 101.649C234.735 101.542 234.783 101.423 234.83 101.304C234.93 101.058 235.028 100.813 234.692 100.687C234.935 100.019 234.811 99.3229 234.695 98.6651C234.679 98.5793 234.664 98.4942 234.65 98.4098C234.458 97.7999 233.799 97.8773 233.29 97.937C233.267 97.9398 233.243 97.9426 233.22 97.9452C232.299 98.24 232.557 98.7751 232.841 99.3623C233.037 99.7661 233.244 100.195 233.087 100.587C232.959 100.916 232.709 100.873 232.442 100.828C232.255 100.796 232.058 100.763 231.891 100.857Z" fill="white"/>
<path d="M281.047 100.762L280.727 100.529L280.915 101.05C280.614 107.473 278.483 113.144 274.83 118.191C274.656 118.401 274.484 118.623 274.31 118.847C273.785 119.524 273.244 120.222 272.574 120.672C274.037 121.828 275.649 123.566 276.85 124.903L276.999 124.612C282.872 117.876 286.208 110.074 286.573 101.049L286.808 100.587L286.521 100.727L281.047 100.762Z" fill="white"/>
<path d="M229.078 77.1405L229.17 76.8734C234.772 71.7432 241.292 68.9233 248.766 68.5758L248.598 68.116L248.539 63.4791L248.698 62.9432C240.984 63.2505 234.138 65.8942 228.067 70.2933C227.539 70.6583 227.039 71.1081 226.54 71.5562C225.93 72.1052 225.322 72.6517 224.668 73.0371H224.831C226.228 74.057 227.555 75.4929 228.758 76.7938C228.865 76.9106 228.972 77.0263 229.078 77.1405Z" fill="white"/>
<path d="M248.508 78.455C243.636 78.8074 239.408 80.8463 235.71 83.9211C236.613 84.5456 237.452 85.4102 238.274 86.2568C238.785 86.7823 239.288 87.3009 239.796 87.7507C239.891 87.6221 239.99 87.4861 240.085 87.3294C241.908 86.024 243.795 84.8284 245.94 84.2857C246.263 84.2517 246.586 84.1761 246.911 84.1001C247.54 83.9532 248.175 83.8047 248.831 83.9522C248.625 82.1371 248.625 80.1366 248.831 78.2648L248.508 78.455Z" fill="white"/>
<path d="M248.767 86.0954C245.684 86.5027 242.843 87.5648 240.585 89.975H240.999C241.202 90.177 241.457 90.2727 241.709 90.3675C242.037 90.4907 242.36 90.6122 242.559 90.9633C242.655 91.156 242.543 91.2295 242.428 91.3054C242.336 91.3665 242.241 91.4291 242.249 91.5566C242.286 91.5874 242.327 91.6088 242.369 91.6301C242.441 91.6667 242.513 91.7034 242.559 91.7877C242.805 91.875 242.848 91.7471 242.895 91.6082C242.917 91.5425 242.94 91.4744 242.985 91.4255C243.255 91.1496 243.398 91.3422 243.557 91.5567C243.674 91.7162 243.801 91.8877 243.996 91.8877C244.323 91.6731 244.782 91.6542 245.01 92.0212C245.138 91.9102 245.322 91.8861 245.503 91.8625C245.763 91.8284 246.014 91.7956 246.07 91.5042C246.328 91.2295 246.414 90.8927 246.498 90.5655C246.61 90.1294 246.717 89.7102 247.221 89.4775C247.399 89.574 247.364 89.714 247.326 89.8675C247.298 89.9787 247.269 90.097 247.318 90.211C247.57 90.3171 247.838 90.2389 248.1 90.1627C248.448 90.0612 248.784 89.963 249.058 90.3085C248.666 89.1711 248.711 87.7796 248.754 86.4967C248.758 86.3616 248.763 86.2277 248.767 86.0954Z" fill="white"/>
<path d="M248.965 94.7436C248.441 95.6266 247.585 95.8788 246.751 96.1248C246.678 96.1462 246.606 96.1675 246.534 96.1892C246.451 96.2897 246.402 96.4298 246.352 96.5708C246.25 96.8609 246.146 97.1542 245.748 97.1111C245.683 97.2561 245.567 97.3804 245.45 97.505C245.218 97.7508 244.986 97.9981 245.151 98.4092C244.965 98.7984 244.943 99.2591 244.92 99.7191C244.905 100.03 244.89 100.341 244.825 100.629C244.113 101.079 243.974 100.588 243.829 100.075C243.744 99.7728 243.656 99.4625 243.447 99.3335L243.243 99.6622C243.028 99.7195 242.872 99.5835 242.713 99.4335C242.543 99.3622 242.249 99.3098 242.097 99.4713C242.04 99.5692 241.976 99.6628 241.912 99.7559C241.698 100.068 241.488 100.376 241.562 100.819C241.51 100.978 241.358 101.038 241.218 101.095C241.055 101.16 240.908 101.219 240.951 101.419C241.586 101.4 242.268 101.286 242.885 101.148C243.145 101.215 243.376 101.132 243.611 101.048C243.779 100.987 243.95 100.926 244.135 100.919C244.279 100.996 244.469 101.148 244.402 101.379H244.559C244.859 101.148 244.987 100.793 244.859 100.457C244.891 100.147 245.152 100.072 245.391 100.003C245.467 99.9807 245.541 99.9593 245.605 99.9311C245.77 100.008 245.757 100.144 245.744 100.286C245.737 100.357 245.731 100.43 245.747 100.498C246.327 100.715 246.026 101.076 245.733 101.43C245.592 101.6 245.452 101.768 245.413 101.918C245.339 102.037 245.313 102.205 245.287 102.374C245.233 102.726 245.178 103.08 244.688 103.001C244.558 102.963 244.468 102.825 244.501 102.667H244.402C244.383 102.982 244.615 103.401 244.918 103.537C245.118 103.37 245.245 103.16 245.368 102.957C245.572 102.62 245.763 102.305 246.248 102.244C246.426 102.053 246.406 101.814 246.387 101.578C246.363 101.291 246.34 101.008 246.67 100.819C246.912 100.813 247.158 100.783 247.404 100.754C248.165 100.662 248.919 100.571 249.52 101.182C249.508 101.252 249.493 101.314 249.48 101.372C249.426 101.6 249.39 101.751 249.619 101.977C249.572 102.083 249.529 102.191 249.486 102.299C249.348 102.644 249.209 102.99 248.928 103.273C249.02 103.52 248.949 103.828 248.724 104.002C248.557 104.758 247.945 104.797 247.321 104.836C246.972 104.858 246.619 104.881 246.337 105.028C247.545 105.95 249.003 106.295 250.57 106.184C251.07 106.161 251.134 105.775 251.201 105.373C251.245 105.111 251.29 104.843 251.456 104.662C251.625 103.802 252.186 103.863 252.766 103.927C253.096 103.963 253.432 104 253.705 103.866C253.715 103.845 253.726 103.824 253.736 103.803C254.01 103.251 254.28 102.706 254.349 102.075C253.875 101.768 253.686 101.182 253.835 100.629C253.729 100.484 253.661 100.3 253.593 100.115C253.453 99.7325 253.311 99.3463 252.829 99.2933C252.727 99.1409 252.812 98.9409 252.912 98.836C252.903 98.5824 253.047 98.4316 253.189 98.2817C253.286 98.1798 253.382 98.0783 253.43 97.9452C253.035 97.6842 253.091 97.1366 253.13 96.7597C253.134 96.7201 253.138 96.6824 253.141 96.6471C252.691 96.7779 252.484 96.4793 252.273 96.1725C252.13 95.966 251.985 95.7557 251.761 95.6704C251.63 95.2388 251.181 95.1525 250.807 95.0808C250.793 95.0781 250.78 95.0755 250.766 95.0728C250.192 95.3487 249.917 95.0107 249.624 94.6513C249.447 94.4332 249.263 94.2073 249.002 94.1058C248.993 94.0791 248.982 94.0509 248.971 94.0216C248.892 93.818 248.793 93.5629 249.002 93.4126C249.232 93.2168 249.509 93.2631 249.787 93.3094C249.928 93.333 250.069 93.3566 250.205 93.3486L249.885 93.1772C249.58 92.8321 248.905 93.0461 248.505 93.1772C248.729 93.4009 248.768 93.7276 248.807 94.0569C248.836 94.2975 248.864 94.5395 248.965 94.7436Z" fill="white"/>
<path d="M219.407 98.8354L219.277 98.0781C219.643 91.9212 221.594 86.4435 225.032 81.5469C225.317 81.2186 225.577 80.8638 225.837 80.5092C226.359 79.7961 226.881 79.0841 227.601 78.591C226.858 77.8924 226.099 77.1239 225.328 76.3442C224.803 75.8132 224.273 75.2769 223.739 74.754L223.609 74.2303C218.138 80.3463 214.771 87.3294 213.791 95.3015C213.684 95.8706 213.665 96.4477 213.646 97.0276C213.626 97.6294 213.606 98.2342 213.488 98.836C215.402 98.6781 217.487 98.6781 219.407 98.8354Z" fill="white"/>
<path d="M271.296 121.892C270.909 122.64 270.203 123.195 269.504 123.744C269.214 123.972 268.925 124.199 268.66 124.439C268.187 124.915 267.601 125.25 267.021 125.58C266.073 126.12 265.142 126.651 264.747 127.778C264.496 128.008 264.307 128.288 264.119 128.566C263.807 129.028 263.499 129.485 262.915 129.7C262.709 130.238 262.294 130.445 261.873 130.655C261.569 130.807 261.261 130.961 261.028 131.243C260.002 132.168 259.207 131.536 258.387 130.884C257.923 130.515 257.45 130.139 256.923 130.036L253.992 130.555C253.637 130.555 253.283 130.599 252.932 130.642C252.272 130.724 251.622 130.805 250.995 130.591C251.136 132.553 251.136 134.678 250.995 136.65L251.359 136.417C260.607 136.017 268.583 132.482 275.43 126.23L271.388 122.35L271.296 121.892Z" fill="white"/>
<path d="M250.899 68.0709C250.899 68.0456 250.901 68.0207 250.904 67.9962C250.922 67.8556 250.991 67.7302 251.079 67.6185C251.349 67.4563 251.567 67.6947 251.678 67.8807C251.683 67.9262 251.69 67.977 251.698 68.0309C251.736 68.3011 251.784 68.6472 251.593 68.7764C251.72 68.7949 251.814 68.7508 251.906 68.7076C251.981 68.6725 252.055 68.638 252.144 68.638C256.536 68.9666 260.606 70.2549 264.252 72.3389V72.2463C264.261 72.2418 264.27 72.2374 264.279 72.233C265.025 71.866 265.965 71.4035 266.723 72.0511C267.263 71.8494 267.545 72.1539 267.836 72.4683C268.042 72.6917 268.254 72.92 268.565 72.9755C269.47 73.5163 270.488 74.526 270.601 75.5832C270.676 75.7422 270.827 75.8789 270.978 76.0152C271.161 76.1811 271.344 76.3464 271.387 76.5502C271.836 75.593 272.609 74.8382 273.407 74.0589C273.703 73.77 274.002 73.4778 274.29 73.1706L274.932 72.8968C269.143 67.3454 262.261 64.2748 254.578 63.2151C254.086 63.1293 253.571 63.0969 253.055 63.0645C252.297 63.0169 251.536 62.9691 250.842 62.7505C251.076 64.2521 251.013 66.3002 250.904 67.9962C250.903 68.0212 250.901 68.0461 250.899 68.0709Z" fill="white"/>
<path d="M250.899 76.3734C251.38 76.2055 251.868 76.2848 252.354 76.3639C252.605 76.4048 252.857 76.4456 253.106 76.4521C256.866 77.0691 260.421 78.2812 263.419 80.6177C263.389 80.5851 263.359 80.5522 263.328 80.5189C262.992 80.155 262.612 79.7442 262.539 79.2269C262.605 79.1507 262.676 79.1342 262.773 79.1507C262.795 78.8187 262.611 78.5763 262.427 78.3344C262.279 78.1391 262.13 77.9442 262.091 77.7026C262.179 77.5929 262.318 77.4764 262.51 77.5313C263.156 78.1508 263.708 78.8269 264.193 79.5129C264.6 79.3517 264.929 79.5915 265.23 79.8104C265.244 79.8208 265.258 79.8312 265.273 79.8415C265.569 80.0182 265.608 80.308 265.646 80.5978C265.679 80.8468 265.713 81.0959 265.909 81.2731C265.944 81.8211 266.28 82.2531 266.612 82.6798C266.971 83.1414 267.326 83.5967 267.287 84.1857C267.293 84.3408 267.405 84.3361 267.522 84.3312C267.607 84.3276 267.695 84.3239 267.744 84.3833L268.894 85.8051C268.681 86.0813 268.859 86.41 269.093 86.5911C269.368 86.7216 269.58 86.5902 269.795 86.4563C269.98 86.3413 270.168 86.2244 270.402 86.2697C270.876 86.5395 270.706 86.839 270.536 87.1396C270.437 87.3139 270.339 87.4886 270.365 87.6581C270.46 87.6635 270.563 87.6409 270.668 87.6181C270.882 87.5713 271.101 87.5237 271.255 87.7178C271.325 88.0264 271.113 88.2528 270.921 88.4572C270.848 88.5352 270.778 88.6099 270.727 88.6848C270.727 88.9993 270.924 89.0274 271.151 89.06C271.229 89.0711 271.31 89.0826 271.388 89.1061C271.728 89.0897 271.947 89.5159 271.85 89.8043C272.388 90.3677 272.23 90.955 272.069 91.5502C271.944 92.0146 271.818 92.4839 272.02 92.9504C272.321 93.6388 271.947 94.315 271.516 94.8393C271.53 95.3715 271.234 95.7729 270.937 96.1744C270.76 96.4147 270.582 96.6549 270.471 96.9233L269.489 97.1136C269.22 97.3805 269.345 97.6792 269.459 97.9512C269.566 98.2087 269.664 98.4421 269.408 98.6019L271.558 98.6421L271.324 98.4135C271.025 97.5654 271.094 96.4179 271.614 95.6698C271.724 95.4407 271.805 95.1967 271.886 94.9512C272.053 94.451 272.221 93.9446 272.633 93.5455C272.665 93.5367 272.705 93.5147 272.748 93.491C272.88 93.4181 273.042 93.328 273.13 93.5455C273.172 94.2003 273.113 94.9509 272.808 95.532C273.321 96.2698 273.349 97.1976 273.377 98.1216C273.382 98.3069 273.388 98.4921 273.398 98.6757C275.299 98.5592 277.159 98.5257 279.023 98.5421L278.852 98.1732C278.561 94.6076 277.836 91.2255 276.355 88.1818C276.192 88.1915 276.047 88.25 275.902 88.3085C275.69 88.3945 275.477 88.4807 275.204 88.4129C275.053 88.358 274.953 88.2056 274.975 88.0294C274.642 87.7112 274.362 87.3494 274.082 86.9878C273.717 86.5159 273.352 86.0441 272.87 85.6692C272.325 85.7241 271.947 85.4047 271.571 85.0865C271.262 84.8255 270.955 84.5654 270.557 84.5138C270.224 84.3738 270.131 84.0624 270.046 83.7781C269.932 83.3948 269.832 83.0609 269.179 83.2632C268.625 83.0273 268.083 82.6035 267.972 81.9676C267.972 80.9646 267.78 79.8811 266.885 79.2263C266.526 79.0971 266.277 79.2813 266.025 79.4689C265.788 79.6442 265.548 79.8225 265.209 79.75C264.963 79.6219 264.95 79.3673 264.936 79.1151C264.929 78.9786 264.921 78.8428 264.877 78.7282C264.834 78.6309 264.769 78.5429 264.704 78.4544C264.574 78.2765 264.442 78.0967 264.48 77.8374C264.956 77.2059 264.622 76.9146 264.267 76.6053C263.951 76.33 263.619 76.0405 263.826 75.4845C263.752 74.9518 263.39 74.6229 263.021 74.2872C262.8 74.0868 262.577 73.884 262.411 73.634C259.435 72.281 256.464 71.3616 253.106 70.9524C252.823 70.9116 252.547 70.9056 252.278 70.8997C251.764 70.8885 251.276 70.8779 250.81 70.6262L250.995 70.986C250.98 71.6186 250.987 72.2654 250.993 72.9115C251.004 74.0992 251.016 75.2843 250.899 76.3734Z" fill="white"/>
<path d="M271.878 78.3599C272.149 78.4227 272.291 78.6538 272.435 78.8872C272.509 79.0073 272.583 79.1281 272.676 79.2269C273.426 79.6325 273.878 80.2576 274.328 80.8801C274.713 81.4125 275.096 81.943 275.664 82.3328C275.922 82.8756 276.305 83.3707 276.686 83.8642C277.328 84.694 277.967 85.5195 278.003 86.5606C279.669 90.2689 280.801 94.1869 280.915 98.5476L280.768 98.7738C280.938 98.7738 281.09 98.6976 281.223 98.6049L286.751 98.5025C286.507 98.1408 286.496 97.6664 286.484 97.1946C286.479 96.9641 286.473 96.7342 286.44 96.5185C285.711 87.9324 282.07 80.5774 276.355 74.0974C275.555 75.1751 274.542 76.1956 273.526 77.2199C273.195 77.5539 272.863 77.8883 272.538 78.2251L271.878 78.3599Z" fill="white"/>
<path d="M251.678 67.1539C251.846 66.8466 252.287 66.9564 252.516 67.0539L255.275 65.8607C256.383 65.9534 257.609 66.0893 258.269 67.0179V67.1539C257.575 67.7276 256.695 68.1898 255.777 67.8039C254.507 68.0563 252.741 68.7898 251.721 67.4801C251.678 67.385 251.565 67.2466 251.678 67.1539Z" fill="white"/>
<path d="M268.163 70.6598C268.542 70.7811 268.895 70.9524 269.03 71.3622C268.924 71.7932 269.435 72.167 269.122 72.5127C268.083 72.784 267.988 71.6103 267.188 71.3195C267.074 71.1622 267.037 70.9671 267.051 70.7573C267.417 70.3141 267.759 71.05 268.163 70.6598Z" fill="white"/>
<path fill-rule="evenodd" clip-rule="evenodd" d="M322 33H178.076V177.822H322V33ZM206.121 73.3011C207.48 71.5865 209.227 70.3909 211.18 69.8927C208.399 71.816 207.789 74.8697 207.182 77.9092C206.963 79.0064 206.744 80.1018 206.424 81.1414C206.25 81.7903 206.02 82.4179 205.789 83.0464C205.507 83.816 205.224 84.5869 205.044 85.3997L205.146 85.4808C205.78 83.7967 206.888 82.2224 208.261 80.8506C209.114 80.061 210.094 79.365 211.078 78.6663C213.219 77.146 215.379 75.6125 216.287 73.0718C216.23 78.2258 211.948 82.27 207.868 85.171C206.168 86.6575 204.547 88.358 203.623 90.261C203.575 89.6215 203.623 88.9773 203.671 88.3212C203.721 87.6528 203.771 86.9721 203.722 86.2716C203.28 81.7749 202.956 76.6399 206.121 73.3011ZM215.763 71.6545L215.763 71.6539C217.472 69.1958 219.21 66.6963 221.536 64.6455C221.267 64.7508 220.996 64.8557 220.724 64.9612C217.114 66.359 213.248 67.8564 211.088 71.6475C210.131 72.938 209.722 74.4569 209.312 75.9754C209.025 77.0411 208.738 78.1066 208.261 79.0928C209.026 78.3741 209.824 77.715 210.62 77.0579C212.047 75.8793 213.465 74.7072 214.672 73.2102C215.038 72.6966 215.4 72.1765 215.763 71.6545ZM198.436 88.6842C198.313 84.1278 200.193 80.4079 202.849 77.0118C202.864 77.0021 202.88 76.9903 202.896 76.9782C202.945 76.94 202.999 76.8987 203.069 76.9094C201.097 79.9279 201.564 83.4773 202.032 87.0304C202.255 88.725 202.478 90.4205 202.437 92.0596L202.053 97.2495C202.067 97.2603 202.077 97.2816 202.088 97.3047C202.113 97.3589 202.143 97.4228 202.242 97.3831C202.355 97.0043 202.412 96.6039 202.469 96.2024C202.498 95.9976 202.528 95.7925 202.564 95.5899C203.202 91.7259 206.321 88.8994 209.285 86.2131C209.534 85.9869 209.783 85.7617 210.029 85.5369C210.708 84.7912 211.286 84.0101 211.641 83.134C211.392 85.2107 210.737 87.3136 209.875 89.2452C208.994 90.9776 207.842 92.5976 206.69 94.2182C204.634 97.1093 202.577 100.003 202.053 103.54C201.874 101.187 201.062 99.097 200.25 97.0066C199.238 94.4033 198.226 91.7991 198.436 88.6842ZM196.374 94.4556C196.322 94.6927 196.27 94.9294 196.216 95.1649C195.529 98.8567 196.201 102.767 197.224 106.147C197.943 108.646 199.673 110.724 201.403 112.802C202.61 114.252 203.817 115.702 204.681 117.295L204.97 117.526C204.661 115.423 204.504 113.146 205.103 111.146C205.363 110.212 205.634 109.286 205.906 108.361C206.573 106.085 207.238 103.815 207.726 101.457C207.797 100.962 207.877 100.456 207.958 99.9448L207.958 99.9437L207.958 99.9425L207.958 99.9416C208.302 97.7649 208.663 95.4794 208.418 93.4516C208.077 94.7948 207.67 96.1069 206.978 97.2861C204.123 101.629 201.287 106.782 203.261 112.336L203.248 112.351C203.199 112.406 203.141 112.471 203.07 112.434C202.591 111.316 202.352 110.095 202.112 108.872C201.959 108.091 201.806 107.309 201.59 106.551C201.137 104.758 200.366 103.071 199.595 101.384C198.117 98.1496 196.641 94.9195 197.414 90.9609C196.904 92.0525 196.638 93.2584 196.374 94.4556ZM196.026 106.935C196.317 110.945 199.114 113.767 201.939 116.619C203.617 118.313 205.305 120.017 206.486 121.986C206.665 122.246 206.839 122.512 207.014 122.779C207.566 123.625 208.124 124.479 208.879 125.165C208.796 124.809 208.58 124.477 208.361 124.141C208.168 123.845 207.972 123.545 207.863 123.22C206.748 121.002 206.35 118.361 206.618 115.677C206.73 114.509 206.975 113.371 207.221 112.233C207.661 110.193 208.1 108.155 207.77 105.95C209.441 109.585 209.802 113.758 210.162 117.93C210.4 120.692 210.639 123.453 211.258 126.057C211.499 126.91 211.89 127.707 212.28 128.502C212.544 129.04 212.807 129.577 213.024 130.13C211.983 129.416 210.874 128.709 209.74 127.987L209.739 127.987L209.739 127.986C204.643 124.739 199.056 121.178 196.982 115.311C195.913 112.837 195.799 109.772 196.026 106.935ZM209.47 130.079C205.46 128.148 201.476 126.228 199.44 121.597C200.307 126.925 204.433 131.769 209.052 134.626C211.705 136.493 214.905 137.011 218.109 137.53C220.007 137.838 221.907 138.146 223.695 138.734C220.343 136.022 219.109 132.302 217.881 128.598C217.482 127.396 217.084 126.196 216.614 125.032C215.326 122.114 213.389 119.454 211.258 116.891C212.311 119.004 212.669 121.406 213.028 123.808C213.467 126.756 213.907 129.703 215.629 132.115C216.488 133.55 217.88 134.811 219.108 135.923L219.142 135.954L219.085 136.017C217.982 135.49 216.933 134.74 215.96 133.87C214.022 132.272 211.742 131.174 209.47 130.079ZM207.632 135.125C211.156 139.169 216.237 139.484 221.285 139.797C223.539 139.936 225.786 140.076 227.886 140.546C228.183 140.59 228.474 140.657 228.764 140.724C229.407 140.872 230.047 141.019 230.748 140.913C230.32 140.638 229.802 140.526 229.279 140.412C228.813 140.31 228.343 140.208 227.926 139.989C224.3 138.7 222.775 135.601 221.259 132.521C220.546 131.072 219.835 129.627 218.908 128.376C221.784 130.291 224.293 132.726 226.871 135.227C227.617 135.95 228.368 136.679 229.136 137.402C231.593 139.56 234.536 140.561 237.645 141.206C237.241 141.351 236.764 141.395 236.285 141.439C235.884 141.475 235.481 141.512 235.116 141.608C234.329 141.805 233.528 142.019 232.718 142.235L232.717 142.235C227.786 143.553 222.482 144.97 217.391 143.225C213.541 142.011 209.568 138.948 207.632 135.125ZM260.699 145.219C265.188 148.649 271.196 150.909 276.949 148.744C279.537 147.819 282.032 146.174 283.852 143.879C280.303 146.433 274.934 146.854 270.786 145.311L266.321 143.518C261.984 141.205 256.292 140.296 251.269 141.61C250.618 142.199 249.953 141.956 249.274 141.707C248.911 141.574 248.543 141.44 248.172 141.431C242.085 140.102 236.767 142.476 231.67 144.751C231.097 145.007 230.527 145.261 229.959 145.509C225.776 147.167 220.297 146.896 216.609 144.345C218.437 146.643 220.861 148.055 223.375 149.018C228.063 150.89 233.624 149.616 237.502 146.896C238.357 146.412 239.18 145.809 240.007 145.204C242.39 143.46 244.799 141.696 248.04 142.725C243.599 144.814 239.526 147.729 235.843 151.469L238.153 153.379C240.828 149.773 244.399 146.815 248.011 144.514C248.128 144.451 248.247 144.386 248.366 144.32C249.039 143.949 249.75 143.556 250.478 143.461C254.91 145.635 258.883 149.372 262.453 153.243C263.22 152.623 264.023 151.95 264.655 151.238C260.94 147.629 256.885 144.814 252.515 142.77C253.234 142.556 254.065 142.516 254.91 142.539C256.76 142.413 258.148 143.413 259.535 144.412C259.92 144.689 260.305 144.966 260.699 145.219ZM283.126 142.768C278.339 144.58 273.543 143.41 268.865 142.268C267.216 141.866 265.581 141.467 263.966 141.203L262.775 141.046V141.015C265.729 140.339 268.604 139.448 270.967 137.302C271.772 136.523 272.556 135.739 273.334 134.961C275.909 132.388 278.416 129.883 281.381 127.849C280.341 129.19 279.64 130.736 278.941 132.274C277.718 134.97 276.504 137.644 273.498 139.155C272.819 139.6 272.042 139.833 271.274 140.063C270.712 140.232 270.154 140.399 269.641 140.648C270.66 140.67 271.626 140.461 272.598 140.251C273.272 140.105 273.949 139.958 274.649 139.888C276.158 139.651 277.72 139.528 279.283 139.405C284.276 139.012 289.283 138.619 292.658 134.487C291.005 138.265 286.89 141.434 283.126 142.768ZM276.676 138.424C278.52 137.794 280.467 137.43 282.415 137.067C283.859 136.797 285.304 136.528 286.705 136.149C293.1 134.101 299.869 127.675 300.716 120.832C299.933 122.854 298.296 124.721 296.511 126.15C294.62 127.579 292.56 128.61 290.5 129.641C287.718 131.033 284.936 132.426 282.567 134.798C282.468 134.865 282.369 134.939 282.269 135.014C281.929 135.267 281.575 135.531 281.182 135.553C282.723 134.195 284.123 132.528 285.1 130.823C286.427 128.553 286.796 125.887 287.165 123.221C287.499 120.807 287.833 118.394 288.879 116.276C287.967 117.275 287.233 118.351 286.499 119.428C286.148 119.942 285.797 120.457 285.427 120.963C283.956 123.205 283.132 125.732 282.309 128.257C281.104 131.951 279.901 135.641 276.676 138.424ZM294.861 124.474C294.231 124.888 293.598 125.296 292.966 125.703C291.04 126.942 289.115 128.181 287.269 129.619V129.4C289.43 125.787 289.742 121.403 290.053 117.018C290.285 113.766 290.516 110.513 291.502 107.574L292.368 105.259C292.111 107.573 292.53 109.699 292.952 111.843C293.315 113.681 293.68 115.532 293.623 117.527C293.481 120.135 292.638 122.45 291.274 124.529H291.502C292.172 123.646 292.79 122.742 293.408 121.838C294.488 120.258 295.57 118.675 296.938 117.198C300.273 113.961 303.666 110.644 304.109 106.147C305.238 113.649 301.057 120.223 294.861 124.474ZM295.224 116.893C296.298 115.205 297.561 113.596 298.824 111.987C299.754 110.803 300.683 109.618 301.538 108.402C304.364 103.191 305.138 95.7484 302.553 90.1725C303.324 94.4002 301.717 98.0086 300.152 101.521C299.967 101.937 299.783 102.351 299.603 102.764C298.792 104.617 298.355 106.631 297.917 108.646C297.712 109.593 297.506 110.541 297.262 111.472L297.027 111.736L296.935 111.644C296.999 111.336 297.073 111.033 297.147 110.729C297.38 109.771 297.615 108.809 297.525 107.712C297.717 104.267 296.058 101.593 294.4 98.9207C293.197 96.9809 291.995 95.0423 291.502 92.8114L291.459 94.7979C291.89 99.9902 293.254 104.792 294.802 109.517C295.693 111.686 295.44 114.488 295.233 116.785L295.224 116.893ZM298.349 78.3599C301.75 82.9925 302.501 90.3616 300.018 95.6679C299.109 97.9233 298.448 100.319 298.088 102.808C297.986 102.568 297.93 102.277 297.874 101.982C297.831 101.758 297.788 101.531 297.723 101.322C296.977 98.4545 295.152 96.0409 293.328 93.6284C291.85 91.6741 290.373 89.7205 289.47 87.527C288.84 85.9216 288.3 84.2662 287.997 82.5255C288.963 84.3263 290.57 85.7358 292.176 87.1446C294.131 88.8585 296.084 90.5712 296.878 92.9858C297.243 93.6763 297.371 94.466 297.499 95.2505C297.578 95.7405 297.657 96.2286 297.794 96.6892C297.872 96.6892 297.95 96.6319 297.95 96.5557C297.318 92.0188 297.505 87.2715 298.125 82.7992C298.088 80.3677 297.856 78.0142 296.511 76.1399C297.115 76.4917 297.488 77.0714 297.858 77.645C298.016 77.8905 298.174 78.1349 298.349 78.3599ZM296.19 83.6087C296.302 81.5685 296.413 79.5338 295.958 77.4734C295.188 73.8821 291.952 69.9665 288.221 69.1946C289.741 70.2189 290.873 71.8195 291.46 73.4413C291.841 74.7154 292.156 76.0148 292.471 77.3132C293.081 79.8257 293.69 82.3343 294.77 84.6473L294.67 84.7522C294.467 84.4236 294.297 84.0717 294.125 83.7163C293.78 83.0025 293.429 82.2751 292.79 81.6963C291.573 80.0935 289.97 78.9964 288.391 77.9156C286.284 76.4734 284.219 75.06 283.169 72.5127C283.623 75.1729 284.423 77.6855 286.289 79.7507C287.5 81.0649 288.92 82.1748 290.335 83.2814C292.662 85.1006 294.977 86.911 296.339 89.6061L296.379 89.5726C295.975 87.5607 296.083 85.5822 296.19 83.6087ZM285.983 68.1709C288.799 70.6982 290.067 73.9821 290.898 77.3789L291.353 78.4556C287.269 75.5095 283.568 71.5298 280.957 67.3447L277.77 64.0986C278.471 64.3973 279.185 64.666 279.899 64.9348C282.043 65.7414 284.188 66.5488 285.983 68.1709ZM250.076 60.8635C243.752 60.9775 237.94 62.3902 232.627 65.0266C223.169 69.5641 215.442 79.4196 212.868 89.1799C208.63 105.62 214.365 122.281 228.385 131.939C238.471 139.215 254.55 140.608 265.862 135.032C275.915 130.786 284.546 120.344 287.177 110.022C289.762 101.286 288.628 90.6298 284.641 82.8919C278.348 69.4233 264.536 60.8824 250.076 60.8635ZM265.997 123.976L266.264 123.603C266.507 123.412 266.754 123.224 267.003 123.035C267.931 122.328 268.875 121.609 269.678 120.728H269.817C269.707 120.694 269.585 120.725 269.461 120.757C269.317 120.794 269.169 120.832 269.029 120.771C268.482 120.521 268.394 120.035 268.394 119.477L266.036 117.024L265.908 116.66C265.758 117.049 265.487 117.314 265.206 117.59C265.151 117.644 265.096 117.698 265.042 117.753C265.045 117.819 265.043 117.891 265.04 117.966C265.032 118.251 265.022 118.577 265.314 118.741C266.079 118.994 267.075 119.499 267.246 120.402C267.142 120.686 266.894 120.961 266.647 121.236C266.152 121.785 265.658 122.333 266.32 122.95C266.499 123.204 266.342 123.37 266.188 123.534C266.063 123.668 265.939 123.8 265.997 123.976ZM252.988 92.5377C253.101 92.4614 253.216 92.3838 253.347 92.3498C253.85 92.4041 254.25 92.8258 254.569 93.1619C254.587 93.1805 254.604 93.1989 254.621 93.2169C254.898 93.3407 255.169 93.2256 255.424 93.1169C255.483 93.0917 255.542 93.0669 255.599 93.0455C255.713 92.1975 256.324 91.8628 256.963 91.5134C257.531 91.2024 258.121 90.8798 258.4 90.1732L258.035 90.3091C257.974 90.2219 257.875 90.1853 257.781 90.1501C257.641 90.0981 257.511 90.0494 257.523 89.8445C257.572 89.7964 257.623 89.7445 257.676 89.6907C257.972 89.3884 258.329 89.0251 258.669 88.9159C256.95 87.83 255.166 86.9057 253.205 86.4106C252.903 86.3394 252.595 86.2933 252.288 86.2473C251.814 86.1763 251.341 86.1056 250.899 85.9435C251.104 86.5563 251.096 87.3293 251.087 88.1148C251.08 88.7401 251.073 89.3733 251.173 89.9402L252.544 90.3975C252.753 90.0599 253.078 89.8596 253.399 89.6623C253.716 89.4669 254.029 89.2744 254.218 88.9543C254.464 88.7421 254.753 88.9543 254.952 89.1854C255.016 89.7049 254.874 90.2262 254.718 90.7262C254.415 91.3373 253.869 91.6342 253.33 91.9273C252.947 92.1355 252.568 92.3417 252.282 92.6571C252.572 92.8185 252.777 92.6804 252.988 92.5377ZM272.716 105.62C271.906 108.209 270.966 110.734 269.351 112.992C269.196 113.193 269.04 113.413 268.882 113.637C268.404 114.316 267.9 115.03 267.29 115.345L269.03 116.89C269.089 116.829 269.087 116.742 269.086 116.652C269.085 116.603 269.084 116.553 269.093 116.507C269.093 116.276 269.2 116.004 269.488 116.037C270.036 116.027 270.234 116.408 270.439 116.804C270.549 117.016 270.66 117.231 270.828 117.393C270.78 117.74 270.898 118.052 271.013 118.357C271.141 118.696 271.265 119.025 271.153 119.382C275.989 114.247 278.409 107.959 278.852 100.993L279.115 100.685C277.967 100.798 276.778 100.783 275.587 100.768C274.986 100.76 274.385 100.753 273.788 100.761L273.362 100.63C273.439 101.385 273.338 102.125 273.237 102.865C273.181 103.276 273.124 103.687 273.099 104.1L273.721 104.791C273.906 105.062 273.839 105.47 273.593 105.677C273.319 105.859 272.979 105.84 272.716 105.62ZM266.16 85.8669C265.948 85.6142 265.738 85.3631 265.536 85.1119L265.443 85.3503C264.9 85.9178 264.34 86.4915 263.776 87.0689C262.507 88.3694 261.218 89.6892 260.052 91.0024C260.161 91.2286 260.351 91.4456 260.573 91.5572C260.605 91.3448 260.676 91.143 260.748 90.94C260.832 90.7036 260.917 90.4655 260.94 90.2067C261.303 89.6969 261.827 89.8579 262.324 90.0111C262.445 90.0483 262.565 90.085 262.68 90.1116C263.22 89.9853 263.741 90.0818 264.27 90.1798C264.641 90.2483 265.015 90.3176 265.402 90.3116C265.761 90.4865 265.95 90.8092 266.137 91.1278C266.311 91.4253 266.483 91.7192 266.79 91.8858C266.96 92.131 266.823 92.4291 266.593 92.6218C266.704 93.4355 266.969 93.2101 267.31 92.9201C267.575 92.6949 267.886 92.4307 268.205 92.584C268.297 92.6185 268.395 92.6389 268.495 92.6595C268.726 92.7073 268.962 92.756 269.119 92.9839C269.177 93.2816 269.386 93.4047 269.586 93.5229C269.79 93.6431 269.986 93.7582 270.005 94.0461C269.962 94.2511 269.793 94.3508 269.626 94.4495C269.56 94.4885 269.494 94.5272 269.436 94.5723C269.525 94.8462 269.397 95.0731 269.268 95.3025C269.126 95.5536 268.983 95.8077 269.119 96.1301C269.883 96.2758 270.142 95.7104 270.395 95.1558C270.511 94.9029 270.625 94.6522 270.786 94.4723C270.738 94.3041 270.692 94.1351 270.646 93.966C270.42 93.1316 270.193 92.2959 269.721 91.5572C269.407 91.492 269.155 91.2718 268.903 91.0508C268.648 90.8276 268.391 90.6036 268.07 90.5378C267.317 90.2379 267.56 89.8337 267.824 89.3956C267.99 89.1193 268.164 88.8295 268.102 88.544C267.605 87.5935 266.875 86.7214 266.16 85.8669ZM253.885 128.366C254.462 128.318 255.04 128.27 255.602 128.178C255.555 128.16 255.507 128.143 255.46 128.126C255.204 128.034 254.95 127.943 254.755 127.678C253.855 127.618 253.429 126.68 253.15 125.956C253.043 125.559 253.23 125.213 253.417 124.869C253.471 124.77 253.524 124.671 253.571 124.57C253.338 124.086 252.798 124.114 252.254 124.143C251.913 124.161 251.571 124.179 251.303 124.07C251.249 124.025 251.199 123.974 251.149 123.923C251.025 123.795 250.901 123.668 250.713 123.639L250.995 124.07C250.995 124.598 251.016 125.13 251.038 125.663C251.081 126.728 251.124 127.795 250.995 128.838C251.896 128.531 252.889 128.449 253.885 128.366ZM252.54 114.207C252.557 114.367 252.574 114.529 252.742 114.619C253.097 114.502 253.415 114.629 253.715 114.748C254.077 114.892 254.412 115.025 254.754 114.709C254.729 114.031 255.292 113.902 255.809 113.784C255.984 113.744 256.153 113.705 256.293 113.647C257.162 113.127 258.135 112.432 258.04 111.274L257.894 111.105C257.437 111.105 257.152 111.379 256.847 111.672C256.757 111.758 256.666 111.846 256.567 111.93C256.273 112.098 256.059 111.92 255.856 111.751C255.681 111.605 255.515 111.466 255.313 111.565C255.332 111.66 255.429 111.703 255.512 111.736C255.616 111.877 255.658 112.163 255.512 112.303C255.118 112.66 254.85 112.483 254.567 112.296C254.376 112.17 254.178 112.04 253.93 112.063V112.303C253.954 112.432 253.895 112.646 253.708 112.566C253.503 112.234 253.193 112.139 252.888 112.045C252.607 111.959 252.331 111.874 252.146 111.608C251.904 111.472 251.667 111.644 251.497 111.797C251.441 111.921 251.298 111.933 251.163 111.945C250.98 111.961 250.813 111.975 250.901 112.266C250.616 112.366 250.483 112.594 250.346 112.828C250.256 112.982 250.164 113.14 250.025 113.264C249.705 113.21 249.482 113.376 249.259 113.542C249.062 113.689 248.864 113.836 248.599 113.829C248.618 113.866 248.625 113.913 248.631 113.959C248.643 114.051 248.655 114.141 248.767 114.15C249.12 114.305 249.463 114.339 249.89 114.286C250.231 113.734 250.713 113.789 251.218 113.846C251.557 113.884 251.906 113.924 252.23 113.783C252.5 113.834 252.519 114.018 252.54 114.207ZM257.898 106.245C257.926 106.531 257.969 106.917 258.211 107.162C258.593 107.106 258.697 107.35 258.798 107.59C258.894 107.819 258.989 108.044 259.323 108C259.559 107.929 259.518 107.78 259.473 107.618C259.445 107.513 259.414 107.403 259.456 107.304C259.385 106.916 259.11 106.76 258.82 106.596C258.676 106.515 258.529 106.431 258.4 106.316C258.366 106.227 258.413 106.147 258.458 106.071C258.469 106.052 258.48 106.032 258.49 106.014C258.221 105.862 258.088 106.02 257.918 106.221C257.911 106.229 257.905 106.237 257.898 106.245ZM251.2 78.3605C251.081 78.3427 250.962 78.3248 250.843 78.3068L251.037 78.7282L250.997 83.9534L251.501 83.8559C254.678 84.2967 257.591 85.3253 260.109 87.3855L260.247 87.7953C260.766 87.0508 261.456 86.3719 262.145 85.6937C262.585 85.2611 263.024 84.8287 263.419 84.3796L264.385 83.8175L263.923 83.6272C261.809 81.8536 259.52 80.5079 257.027 79.6122C255.19 78.9602 253.197 78.6607 251.2 78.3605ZM221.351 101.148L221.77 104.701C221.837 105.259 221.977 105.807 222.116 106.352C222.319 107.145 222.519 107.931 222.494 108.731C222.566 108.632 222.597 108.497 222.629 108.362C222.69 108.103 222.752 107.84 223.095 107.803C222.993 107.604 223.075 107.418 223.155 107.239C223.245 107.037 223.331 106.843 223.147 106.647C223.161 106.573 223.174 106.499 223.187 106.425C223.34 105.572 223.492 104.719 224.241 104.103C224.736 104.082 225 103.744 225.264 103.405C225.527 103.07 225.789 102.734 226.277 102.705C226.65 102.691 226.916 103.068 227.119 103.355C227.186 103.45 227.247 103.536 227.302 103.594C226.679 102.848 226.712 101.612 226.869 100.76L226.447 100.957C225.87 100.944 225.286 100.951 224.702 100.957C223.48 100.97 222.26 100.983 221.116 100.819L221.351 101.148ZM256.43 109.768C256.815 109.602 257.181 109.444 257.207 109.024C256.614 108.929 256.279 109.209 255.894 109.531C255.844 109.572 255.794 109.615 255.741 109.657C255.731 109.681 255.716 109.709 255.7 109.739C255.621 109.888 255.514 110.091 255.741 110.177C255.92 109.987 256.179 109.876 256.43 109.768ZM267.94 100.495L268.528 101.088C268.818 101.287 268.871 101.595 268.923 101.9C268.978 102.217 269.031 102.529 269.351 102.708C269.958 103.02 270.252 103.658 270.52 104.238C270.581 104.369 270.64 104.497 270.701 104.618C270.773 104.508 270.799 104.38 270.823 104.256C270.837 104.188 270.851 104.121 270.871 104.058C270.992 103.576 271.05 103.066 271.107 102.555C271.176 101.943 271.245 101.33 271.423 100.762C271.327 100.767 271.229 100.772 271.131 100.777C270.051 100.834 268.861 100.897 267.94 100.495ZM260.876 114.385C261.239 114.645 261.606 114.908 262.119 114.75C262.416 114.584 262.796 114.602 263.17 114.62C263.67 114.644 264.16 114.667 264.423 114.247C264.372 113.754 264.649 113.353 264.927 112.95C265.052 112.769 265.177 112.587 265.273 112.397L265.497 112.337C265.752 112.602 265.83 112.956 265.903 113.292C265.941 113.465 265.978 113.633 266.037 113.783C266.366 113.425 266.654 113.043 266.94 112.663C267.116 112.43 267.291 112.198 267.474 111.972C268.739 110.117 269.818 108.131 270.273 106.014C269.759 106.03 269.238 106.118 268.765 106.276C268.58 106.265 268.382 106.294 268.183 106.323C267.781 106.381 267.372 106.44 267.051 106.181C266.885 106.031 266.764 106.262 266.79 106.417C266.773 106.441 266.756 106.467 266.739 106.492C266.556 106.763 266.36 107.055 265.957 106.936C265.704 106.822 265.637 106.593 265.573 106.372C265.55 106.294 265.528 106.216 265.497 106.145C265.512 106.308 265.473 106.456 265.435 106.603C265.423 106.649 265.411 106.696 265.4 106.743C265.126 107.032 264.973 107.317 264.813 107.618C264.74 107.753 264.666 107.891 264.579 108.034C264.364 108.271 264.078 108.337 263.794 108.403C263.546 108.461 263.298 108.518 263.1 108.688C263.046 109.331 262.542 109.434 262.047 109.536C261.826 109.581 261.608 109.626 261.431 109.718C261.407 109.787 261.449 109.82 261.497 109.858C261.527 109.882 261.56 109.908 261.582 109.946C261.857 110.022 262.219 110.022 262.411 109.751C262.908 109.885 263.032 109.546 263.165 109.185C263.247 108.961 263.332 108.729 263.511 108.594C263.639 108.576 263.764 108.528 263.89 108.481C264.158 108.38 264.426 108.279 264.707 108.465C265.138 108.98 265.23 109.732 265.171 110.409C264.914 110.664 264.873 111.009 264.831 111.359C264.798 111.64 264.764 111.923 264.617 112.164C264.654 112.481 264.484 112.711 264.316 112.94C264.144 113.174 263.973 113.407 264.023 113.729C263.78 114.015 263.349 114.06 262.965 114.06C261.46 113.481 259.859 113.109 258.171 112.953C258.017 113.013 257.923 113.148 257.944 113.324C258.326 113.525 258.751 113.621 259.177 113.718C259.526 113.797 259.876 113.876 260.204 114.014C260.446 114.077 260.66 114.231 260.876 114.385ZM248.767 130.919L248.965 130.627L248.369 130.784C240.89 130.267 234.275 127.607 228.811 122.291L228.749 122.524L224.8 126.518C230.78 131.732 237.532 135.09 245.241 136.153C245.735 136.236 246.258 136.267 246.783 136.299C247.565 136.345 248.352 136.393 249.058 136.612L248.767 136.153V130.919ZM241.039 110.117C243.099 111.822 245.397 112.875 247.95 113.323C248.005 113.106 248.001 112.865 247.997 112.626C247.991 112.293 247.986 111.963 248.141 111.703C248.333 111.275 248.844 111.294 249.235 111.368C249.462 111.351 249.604 111.065 249.462 110.865C249.108 110.796 249.085 110.518 249.062 110.235C249.049 110.076 249.035 109.915 248.963 109.788C248.975 109.706 249.042 109.667 249.108 109.628C249.195 109.576 249.28 109.526 249.235 109.381C249.033 109.222 249.09 109.054 249.147 108.883C249.201 108.724 249.256 108.561 249.1 108.402C249.144 108.371 249.183 108.329 249.222 108.286C249.266 108.239 249.31 108.191 249.361 108.157C248.337 108.589 247.257 108.087 246.314 107.649C246.186 107.589 246.06 107.531 245.937 107.476C245.853 107.426 245.761 107.377 245.668 107.327C245.205 107.076 244.688 106.795 244.597 106.276C244.054 107.167 243.179 108.008 242.317 108.838C241.872 109.265 241.431 109.69 241.039 110.117ZM239.067 104.101C238.88 104.001 238.854 104.025 238.702 104.191C238.682 104.191 238.66 104.192 238.638 104.194C238.56 104.198 238.477 104.202 238.418 104.158C238.418 103.509 237.991 103.471 237.547 103.432C237.237 103.404 236.92 103.376 236.732 103.141C236.995 103.627 237.197 104.15 237.401 104.673C237.613 105.219 237.825 105.766 238.106 106.275C238.283 106.725 238.566 107.126 238.848 107.525C239.123 107.914 239.396 108.302 239.569 108.73C239.799 108.288 240.179 107.9 240.559 107.513C240.777 107.291 240.994 107.069 241.183 106.837C241.221 106.551 241.16 106.297 240.996 106.087C240.93 105.922 240.916 105.73 240.902 105.537C240.882 105.251 240.861 104.964 240.672 104.758C240.399 104.856 240.489 105.055 240.583 105.263C240.657 105.426 240.733 105.595 240.639 105.725C240.43 105.859 240.198 105.678 240.184 105.487C239.739 105.415 239.393 105.022 239.256 104.617C239.505 104.462 239.376 104.367 239.236 104.264C239.169 104.214 239.099 104.162 239.067 104.101ZM242.751 104.661C242.63 105.139 242.31 105.561 241.96 105.911L242.019 105.949C242.169 105.842 242.305 105.707 242.441 105.573C242.724 105.293 243.006 105.015 243.404 104.989L242.751 104.661ZM248.315 123.414C243.651 123.181 239.569 121.466 235.942 118.739C235.986 118.917 236.104 119.071 236.222 119.226C236.41 119.473 236.601 119.722 236.496 120.075C236.169 120.601 235.499 120.611 234.967 120.601C234.326 120.497 233.785 120.736 233.243 120.975C232.853 121.147 232.462 121.32 232.033 121.366C231.527 121.522 231.199 121.263 230.871 121.003C230.586 120.778 230.302 120.554 229.903 120.601C235.229 125.281 241.326 128.213 248.468 128.601L249.006 128.968L248.769 128.313V123.217L248.315 123.414ZM226.063 119.338C225.981 119.24 225.899 119.143 225.819 119.049C225.184 118.877 224.526 118.434 224.204 117.82C224.113 117.714 224.106 117.571 224.101 117.434C224.094 117.287 224.088 117.148 223.979 117.067L223.738 117.356C223.272 117.583 223.014 117.315 222.745 117.034C222.627 116.912 222.507 116.788 222.367 116.701C222.109 116.562 222.016 116.272 221.93 116.002C221.816 115.645 221.713 115.324 221.25 115.443C221.042 115.434 220.93 115.268 220.819 115.104C220.768 115.027 220.716 114.951 220.656 114.891C220.137 114.941 219.885 114.551 219.642 114.174C219.538 114.012 219.435 113.852 219.313 113.731C219.287 113.79 219.278 113.855 219.27 113.92C219.253 114.047 219.236 114.173 219.086 114.248C218.573 114.366 218.286 113.987 217.996 113.605C217.851 113.413 217.704 113.219 217.528 113.089C217.484 113.108 217.444 113.138 217.404 113.169C217.321 113.232 217.236 113.296 217.102 113.267C216.65 112.863 216.34 112.279 216.316 111.648C215.77 111.02 215.915 110.085 216.04 109.279C216.059 109.156 216.078 109.036 216.094 108.921C216.136 108.837 216.205 108.767 216.274 108.697C216.396 108.574 216.515 108.454 216.472 108.271C216.65 107.863 217.074 107.823 217.476 107.804C217.63 107.885 217.784 108.035 217.855 108.175C217.932 108.127 218.038 108.109 218.142 108.092C218.377 108.054 218.601 108.017 218.451 107.629C218.773 107.343 219.261 107.241 219.703 107.165C219.819 107.312 219.912 107.467 220.005 107.623C220.159 107.878 220.313 108.135 220.568 108.36L220.3 107.939C219.839 106.048 219.477 104.121 219.37 102.073C219.379 102.024 219.338 101.986 219.298 101.95C219.245 101.9 219.195 101.854 219.278 101.789L219.314 101.844C219.322 101.691 219.323 101.545 219.324 101.408C219.326 101.164 219.328 100.948 219.371 100.763L218.854 100.958L213.523 100.921C213.831 107.089 215.457 112.705 218.225 117.862C219.206 119.698 220.518 121.404 221.827 123.105C222.332 123.76 222.835 124.415 223.319 125.076L227.136 121.099L227.601 120.904C227.042 120.508 226.538 119.906 226.063 119.338ZM232.264 76.9925C231.6 77.5332 230.936 78.0736 230.227 78.4977C231.17 79.0959 232.001 79.9622 232.828 80.8245C233.248 81.263 233.667 81.7005 234.1 82.1011L234.235 82.47C237.5 79.3263 241.466 77.4947 245.748 76.6063C246.052 76.5755 246.356 76.523 246.661 76.4705C247.369 76.3484 248.077 76.2263 248.767 76.3777C248.753 76.0006 248.735 75.6206 248.717 75.239C248.647 73.7595 248.576 72.2565 248.727 70.8116C243.17 71.1451 238.195 72.8413 233.735 75.854C233.233 76.2035 232.748 76.5981 232.264 76.9925ZM229.025 97.1611C228.978 97.7536 228.93 98.3488 228.709 98.8708C229.389 98.5562 230.36 98.6781 231.107 98.7732C230.863 98.6433 230.871 98.4105 230.88 98.1755C230.887 97.9924 230.894 97.808 230.781 97.6702L230.778 97.6473C230.721 97.1772 230.651 96.5909 231.107 96.2819C231.079 95.8509 231.314 95.5345 231.548 95.2201C231.743 94.9577 231.938 94.6968 231.977 94.3717C232.096 93.9021 232.457 93.8901 232.826 93.8779C233.091 93.8691 233.36 93.8601 233.546 93.6809C233.744 93.5733 233.689 93.4148 233.634 93.2574C233.609 93.1846 233.584 93.1121 233.584 93.0449C233.826 92.7117 234.152 92.599 234.474 92.4877C234.663 92.4224 234.85 92.3577 235.018 92.2492C235.35 91.7493 235.771 91.2085 236.306 90.9085C236.898 90.9269 237.192 90.5081 237.485 90.0905C237.762 89.6943 238.04 89.2992 238.569 89.2793C237.357 88.3555 236.193 87.179 235.09 86.0645C234.834 85.8057 234.581 85.5503 234.332 85.3021C231.69 88.4891 229.881 91.9974 229.171 95.9959C229.087 96.3679 229.056 96.7639 229.025 97.1611ZM229.699 103.43C229.584 103.321 229.469 103.212 229.493 103.039C229.624 102.784 229.664 102.473 229.704 102.165C229.777 101.607 229.848 101.057 230.456 100.857C230.419 100.864 230.381 100.87 230.343 100.877C229.721 100.985 229.16 101.083 228.622 100.686L228.894 101.148C228.911 101.622 228.991 102.087 229.072 102.552C229.208 103.336 229.343 104.117 229.171 104.93C229.236 104.821 229.286 104.699 229.338 104.576C229.458 104.287 229.582 103.99 229.903 103.825C229.93 103.65 229.815 103.54 229.699 103.43ZM235.189 117.753L235.118 117.622L235.189 117.86V117.753ZM228.809 80.1128L226.735 82.7663C223.342 87.4489 221.727 92.8693 221.249 98.7763L226.507 98.6763L227.004 98.8738C226.86 98.7765 226.839 98.6402 226.817 98.5029C226.807 98.4389 226.797 98.3747 226.775 98.3141C227.201 92.8126 229.113 87.9129 232.887 83.8193C231.434 82.5523 230.07 81.1993 228.836 79.7513L228.809 80.1128ZM245.009 116.195C245.43 115.745 245.928 115.445 246.448 115.252C245.152 115.519 243.971 114.865 242.841 114.24C242.487 114.044 242.138 113.851 241.791 113.69C241.577 113.529 241.346 113.376 241.112 113.222C240.446 112.781 239.761 112.328 239.393 111.644C238.257 113.033 236.919 114.478 235.581 115.579C235.945 115.602 236.211 115.866 236.48 116.132C236.644 116.294 236.809 116.457 236.997 116.567C239.876 118.975 243.46 120.137 246.791 120.964L245.882 120.535C245.796 120.438 245.706 120.338 245.613 120.237C244.958 119.517 244.202 118.685 244.171 117.725C244.661 117.555 244.763 117.118 244.863 116.691C244.904 116.518 244.944 116.347 245.009 116.195ZM231.891 100.857L231.742 101.877C231.613 102.208 231.33 102.221 231.044 102.234C230.81 102.245 230.574 102.256 230.421 102.441C230.172 102.825 230.43 103.23 230.643 103.537C230.346 104.224 230.755 104.65 231.173 105.085C231.507 105.431 231.846 105.783 231.834 106.278C232.08 106.595 232.087 106.974 232.094 107.352C232.102 107.805 232.111 108.256 232.53 108.593C232.574 108.924 232.583 109.286 232.592 109.657C232.618 110.695 232.645 111.808 233.451 112.53L233.645 113.731C233.76 114.158 233.492 114.307 233.229 114.453C232.983 114.589 232.741 114.723 232.817 115.079C233.028 114.976 233.088 115.207 233.115 115.314C233.119 115.327 233.122 115.339 233.124 115.348V115.31C234.602 113.595 236.306 111.78 238.049 110.258L237.325 109.523C235.961 107.474 234.888 105.292 234.37 102.902L233.816 102.616C233.805 102.892 233.741 103.142 233.677 103.389C233.6 103.692 233.523 103.991 233.546 104.33L233.355 104.561C233.074 104.551 232.865 104.386 232.647 104.214C232.554 104.14 232.46 104.066 232.358 104.002C232.347 103.974 232.334 103.944 232.32 103.912C232.229 103.702 232.108 103.424 232.395 103.273C232.587 103.256 232.717 103.311 232.86 103.402C232.958 103.279 232.973 103.124 232.99 102.962C233.002 102.847 233.014 102.728 233.056 102.616C233.074 102.429 233.02 102.249 232.967 102.074C232.889 101.813 232.814 101.564 232.985 101.32C233.354 101.284 233.624 101.727 233.774 101.975C234.044 102.059 234.272 101.92 234.493 101.784C234.574 101.735 234.654 101.686 234.735 101.649C234.735 101.542 234.783 101.423 234.83 101.304C234.93 101.058 235.028 100.813 234.692 100.687C234.935 100.019 234.811 99.3229 234.695 98.6651C234.679 98.5793 234.664 98.4942 234.65 98.4098C234.458 97.7999 233.799 97.8773 233.29 97.937C233.267 97.9398 233.243 97.9426 233.22 97.9452C232.299 98.24 232.557 98.7751 232.841 99.3623C233.037 99.7661 233.244 100.195 233.087 100.587C232.959 100.916 232.709 100.873 232.442 100.828C232.255 100.796 232.058 100.763 231.891 100.857ZM281.047 100.762L280.727 100.529L280.915 101.05C280.614 107.473 278.483 113.144 274.83 118.191C274.656 118.401 274.484 118.623 274.31 118.847C273.785 119.524 273.244 120.222 272.574 120.672C274.037 121.828 275.649 123.566 276.85 124.903L276.999 124.612C282.872 117.876 286.208 110.074 286.573 101.049L286.808 100.587L286.521 100.727L281.047 100.762ZM229.078 77.1405L229.17 76.8734C234.772 71.7432 241.292 68.9233 248.766 68.5758L248.598 68.116L248.539 63.4791L248.698 62.9432C240.984 63.2505 234.138 65.8942 228.067 70.2933C227.539 70.6583 227.039 71.1081 226.54 71.5562C225.93 72.1052 225.322 72.6517 224.668 73.0371H224.831C226.228 74.057 227.555 75.4929 228.758 76.7938C228.865 76.9106 228.972 77.0263 229.078 77.1405ZM248.508 78.455C243.636 78.8074 239.408 80.8463 235.71 83.9211C236.613 84.5456 237.452 85.4102 238.274 86.2568C238.785 86.7823 239.288 87.3009 239.796 87.7507C239.891 87.6221 239.99 87.4861 240.085 87.3294C241.908 86.024 243.795 84.8284 245.94 84.2857C246.263 84.2517 246.586 84.1761 246.911 84.1001C247.54 83.9532 248.175 83.8047 248.831 83.9522C248.625 82.1371 248.625 80.1366 248.831 78.2648L248.508 78.455ZM248.767 86.0954C245.684 86.5027 242.843 87.5648 240.585 89.975H240.999C241.202 90.177 241.457 90.2727 241.709 90.3675C242.037 90.4907 242.36 90.6122 242.559 90.9633C242.655 91.156 242.543 91.2295 242.428 91.3054C242.336 91.3665 242.241 91.4291 242.249 91.5566C242.286 91.5874 242.327 91.6088 242.369 91.6301C242.441 91.6667 242.513 91.7034 242.559 91.7877C242.805 91.875 242.848 91.7471 242.895 91.6082C242.917 91.5425 242.94 91.4744 242.985 91.4255C243.255 91.1496 243.398 91.3422 243.557 91.5567C243.674 91.7162 243.801 91.8877 243.996 91.8877C244.323 91.6731 244.782 91.6542 245.01 92.0212C245.138 91.9102 245.322 91.8861 245.503 91.8625C245.763 91.8284 246.014 91.7956 246.07 91.5042C246.328 91.2295 246.414 90.8927 246.498 90.5655C246.61 90.1294 246.717 89.7102 247.221 89.4775C247.399 89.574 247.364 89.714 247.326 89.8675C247.298 89.9787 247.269 90.097 247.318 90.211C247.57 90.3171 247.838 90.2389 248.1 90.1627C248.448 90.0612 248.784 89.963 249.058 90.3085C248.666 89.1711 248.711 87.7796 248.754 86.4967C248.758 86.3616 248.763 86.2277 248.767 86.0954ZM246.751 96.1248C246.678 96.1462 246.606 96.1675 246.534 96.1892C246.451 96.2897 246.402 96.4298 246.352 96.5708C246.25 96.8609 246.146 97.1542 245.748 97.1111C245.683 97.2561 245.567 97.3804 245.45 97.505C245.218 97.7508 244.986 97.9981 245.151 98.4092C244.965 98.7984 244.943 99.2591 244.92 99.7191C244.905 100.03 244.89 100.341 244.825 100.629C244.113 101.079 243.974 100.588 243.829 100.075C243.744 99.7728 243.656 99.4625 243.447 99.3335L243.243 99.6622C243.028 99.7195 242.872 99.5835 242.713 99.4335C242.543 99.3622 242.249 99.3098 242.097 99.4713C242.04 99.5692 241.976 99.6628 241.912 99.7559C241.698 100.068 241.488 100.376 241.562 100.819C241.51 100.978 241.358 101.038 241.218 101.095C241.055 101.16 240.908 101.219 240.951 101.419C241.586 101.4 242.268 101.286 242.885 101.148C243.145 101.215 243.376 101.132 243.611 101.048C243.779 100.987 243.95 100.926 244.135 100.919C244.279 100.996 244.469 101.148 244.402 101.379H244.559C244.859 101.148 244.987 100.793 244.859 100.457C244.891 100.147 245.152 100.072 245.391 100.003C245.467 99.9807 245.541 99.9593 245.605 99.9311C245.77 100.008 245.757 100.144 245.744 100.286C245.737 100.357 245.731 100.43 245.747 100.498C246.327 100.715 246.026 101.076 245.733 101.43C245.592 101.6 245.452 101.768 245.413 101.918C245.339 102.037 245.313 102.205 245.287 102.374C245.233 102.726 245.178 103.08 244.688 103.001C244.558 102.963 244.468 102.825 244.501 102.667H244.402C244.383 102.982 244.615 103.401 244.918 103.537C245.118 103.37 245.245 103.16 245.368 102.957C245.572 102.62 245.763 102.305 246.248 102.244C246.426 102.053 246.406 101.814 246.387 101.578C246.363 101.291 246.34 101.008 246.67 100.819C246.912 100.813 247.158 100.783 247.404 100.754C248.165 100.662 248.919 100.571 249.52 101.182C249.508 101.252 249.493 101.314 249.48 101.372C249.426 101.6 249.39 101.751 249.619 101.977C249.572 102.083 249.529 102.191 249.486 102.299C249.348 102.644 249.209 102.99 248.928 103.273C249.02 103.52 248.949 103.828 248.724 104.002C248.557 104.758 247.945 104.797 247.321 104.836C246.972 104.858 246.619 104.881 246.337 105.028C247.545 105.95 249.003 106.295 250.57 106.184C251.07 106.161 251.134 105.775 251.201 105.373C251.245 105.111 251.29 104.843 251.456 104.662C251.625 103.802 252.186 103.863 252.766 103.927C253.096 103.963 253.432 104 253.705 103.866L253.736 103.803C254.01 103.251 254.28 102.706 254.349 102.075C253.875 101.768 253.686 101.182 253.835 100.629C253.729 100.484 253.661 100.3 253.593 100.115C253.453 99.7325 253.311 99.3463 252.829 99.2933C252.727 99.1409 252.812 98.9409 252.912 98.836C252.903 98.5824 253.047 98.4316 253.189 98.2817C253.286 98.1798 253.382 98.0783 253.43 97.9452C253.035 97.6842 253.091 97.1366 253.13 96.7597C253.134 96.7201 253.138 96.6824 253.141 96.6471C252.691 96.7779 252.484 96.4793 252.273 96.1725C252.13 95.966 251.985 95.7557 251.761 95.6704C251.63 95.2388 251.181 95.1525 250.807 95.0808C250.793 95.0781 250.78 95.0755 250.766 95.0728C250.192 95.3487 249.917 95.0107 249.624 94.6513C249.447 94.4332 249.263 94.2073 249.002 94.1058C248.993 94.0791 248.982 94.0509 248.971 94.0216C248.892 93.818 248.793 93.5629 249.002 93.4126C249.232 93.2168 249.509 93.2631 249.787 93.3094C249.928 93.333 250.069 93.3566 250.205 93.3486L249.885 93.1772C249.58 92.8321 248.905 93.0461 248.505 93.1772C248.729 93.4009 248.768 93.7276 248.807 94.0569C248.836 94.2975 248.864 94.5395 248.965 94.7436C248.441 95.6266 247.585 95.8788 246.751 96.1248ZM219.407 98.8354L219.277 98.0781C219.643 91.9212 221.594 86.4435 225.032 81.5469C225.317 81.2186 225.577 80.8638 225.837 80.5092C226.359 79.7961 226.881 79.0841 227.601 78.591C226.858 77.8924 226.099 77.1239 225.328 76.3442C224.803 75.8132 224.273 75.2769 223.739 74.754L223.609 74.2303C218.138 80.3463 214.771 87.3294 213.791 95.3015C213.684 95.8706 213.665 96.4477 213.646 97.0276C213.626 97.6294 213.606 98.2342 213.488 98.836C215.402 98.6781 217.487 98.6781 219.407 98.8354ZM269.504 123.744C269.214 123.972 268.925 124.199 268.66 124.439C268.187 124.915 267.601 125.25 267.021 125.58C266.073 126.12 265.142 126.651 264.747 127.778C264.496 128.008 264.307 128.288 264.119 128.566C263.807 129.028 263.499 129.485 262.915 129.7C262.709 130.238 262.294 130.445 261.873 130.655C261.569 130.807 261.261 130.961 261.028 131.243C260.002 132.168 259.207 131.536 258.387 130.884C257.923 130.515 257.45 130.139 256.923 130.036L253.992 130.555C253.637 130.555 253.283 130.599 252.932 130.642C252.272 130.724 251.622 130.805 250.995 130.591C251.136 132.553 251.136 134.678 250.995 136.65L251.359 136.417C260.607 136.017 268.583 132.482 275.43 126.23L271.388 122.35L271.296 121.892C270.909 122.64 270.203 123.195 269.504 123.744ZM250.899 68.0709C250.899 68.0456 250.901 68.0207 250.904 67.9962L250.899 68.0709ZM250.842 62.7505C251.076 64.2521 251.013 66.3002 250.904 67.9962C250.922 67.8556 250.991 67.7302 251.079 67.6185C251.349 67.4563 251.567 67.6947 251.678 67.8807C251.683 67.9262 251.69 67.977 251.698 68.0309C251.736 68.3011 251.784 68.6472 251.593 68.7764C251.72 68.7949 251.814 68.7508 251.906 68.7076C251.981 68.6725 252.055 68.638 252.144 68.638C256.536 68.9666 260.606 70.2549 264.252 72.3389V72.2463L264.279 72.233C265.025 71.866 265.965 71.4035 266.723 72.0511C267.263 71.8494 267.545 72.1539 267.836 72.4683C268.042 72.6917 268.254 72.92 268.565 72.9755C269.47 73.5163 270.488 74.526 270.601 75.5832C270.676 75.7422 270.827 75.8789 270.978 76.0152C271.161 76.1811 271.344 76.3464 271.387 76.5502C271.836 75.593 272.609 74.8382 273.407 74.0589C273.703 73.77 274.002 73.4778 274.29 73.1706L274.932 72.8968C269.143 67.3454 262.261 64.2748 254.578 63.2151C254.086 63.1293 253.571 63.0969 253.055 63.0645C252.297 63.0169 251.536 62.9691 250.842 62.7505ZM252.354 76.3639C252.605 76.4048 252.857 76.4456 253.106 76.4521C256.866 77.0691 260.421 78.2812 263.419 80.6177C263.389 80.5851 263.359 80.5522 263.328 80.5189C262.992 80.155 262.612 79.7442 262.539 79.2269C262.605 79.1507 262.676 79.1342 262.773 79.1507C262.795 78.8187 262.611 78.5763 262.427 78.3344C262.279 78.1391 262.13 77.9442 262.091 77.7026C262.179 77.5929 262.318 77.4764 262.51 77.5313C263.156 78.1508 263.708 78.8269 264.193 79.5129C264.6 79.3517 264.929 79.5915 265.23 79.8104C265.244 79.8208 265.258 79.8312 265.273 79.8415C265.569 80.0182 265.608 80.308 265.646 80.5978C265.679 80.8468 265.713 81.0959 265.909 81.2731C265.944 81.8211 266.28 82.2531 266.612 82.6798C266.971 83.1414 267.326 83.5967 267.287 84.1857C267.293 84.3408 267.405 84.3361 267.522 84.3312C267.607 84.3276 267.695 84.3239 267.744 84.3833L268.894 85.8051C268.681 86.0813 268.859 86.41 269.093 86.5911C269.368 86.7216 269.58 86.5902 269.795 86.4563C269.98 86.3413 270.168 86.2244 270.402 86.2697C270.876 86.5395 270.706 86.839 270.536 87.1396C270.437 87.3139 270.339 87.4886 270.365 87.6581C270.46 87.6635 270.563 87.6409 270.668 87.6181C270.882 87.5713 271.101 87.5237 271.255 87.7178C271.325 88.0264 271.113 88.2528 270.921 88.4572C270.848 88.5352 270.778 88.6099 270.727 88.6848C270.727 88.9993 270.924 89.0274 271.151 89.06C271.229 89.0711 271.31 89.0826 271.388 89.1061C271.728 89.0897 271.947 89.5159 271.85 89.8043C272.388 90.3677 272.23 90.955 272.069 91.5502C271.944 92.0146 271.818 92.4839 272.02 92.9504C272.321 93.6388 271.947 94.315 271.516 94.8393C271.53 95.3715 271.234 95.7729 270.937 96.1744C270.76 96.4147 270.582 96.6549 270.471 96.9233L269.489 97.1136C269.22 97.3805 269.345 97.6792 269.459 97.9512C269.566 98.2087 269.664 98.4421 269.408 98.6019L271.558 98.6421L271.324 98.4135C271.025 97.5654 271.094 96.4179 271.614 95.6698C271.724 95.4407 271.805 95.1967 271.886 94.9512C272.053 94.451 272.221 93.9446 272.633 93.5455C272.665 93.5367 272.705 93.5147 272.748 93.491C272.88 93.4181 273.042 93.328 273.13 93.5455C273.172 94.2003 273.113 94.9509 272.808 95.532C273.321 96.2698 273.349 97.1976 273.377 98.1216C273.382 98.3069 273.388 98.4921 273.398 98.6757C275.299 98.5592 277.159 98.5257 279.023 98.5421L278.852 98.1732C278.561 94.6076 277.836 91.2255 276.355 88.1818C276.192 88.1915 276.047 88.25 275.902 88.3085C275.69 88.3945 275.477 88.4807 275.204 88.4129C275.053 88.358 274.953 88.2056 274.975 88.0294C274.642 87.7112 274.362 87.3494 274.082 86.9878C273.717 86.5159 273.352 86.0441 272.87 85.6692C272.325 85.7241 271.947 85.4047 271.571 85.0865C271.262 84.8255 270.955 84.5654 270.557 84.5138C270.224 84.3738 270.131 84.0624 270.046 83.7781C269.932 83.3948 269.832 83.0609 269.179 83.2632C268.625 83.0273 268.083 82.6035 267.972 81.9676C267.972 80.9646 267.78 79.8811 266.885 79.2263C266.526 79.0971 266.277 79.2813 266.025 79.4689C265.788 79.6442 265.548 79.8225 265.209 79.75C264.963 79.6219 264.95 79.3673 264.936 79.1151C264.929 78.9786 264.921 78.8428 264.877 78.7282C264.834 78.6309 264.769 78.5429 264.704 78.4544C264.574 78.2765 264.442 78.0967 264.48 77.8374C264.956 77.2059 264.622 76.9146 264.267 76.6053C263.951 76.33 263.619 76.0405 263.826 75.4845C263.752 74.9518 263.39 74.6229 263.021 74.2872C262.8 74.0868 262.577 73.884 262.411 73.634C259.435 72.281 256.464 71.3616 253.106 70.9524C252.823 70.9116 252.547 70.9056 252.278 70.8997C251.764 70.8885 251.276 70.8779 250.81 70.6262L250.995 70.986C250.98 71.6186 250.987 72.2654 250.993 72.9115C251.004 74.0992 251.016 75.2843 250.899 76.3734C251.38 76.2055 251.868 76.2848 252.354 76.3639ZM272.435 78.8872C272.509 79.0073 272.583 79.1281 272.676 79.2269C273.426 79.6325 273.878 80.2576 274.328 80.8801C274.713 81.4125 275.096 81.943 275.664 82.3328C275.922 82.8756 276.305 83.3707 276.686 83.8642C277.328 84.694 277.967 85.5195 278.003 86.5606C279.669 90.2689 280.801 94.1869 280.915 98.5476L280.768 98.7738C280.938 98.7738 281.09 98.6976 281.223 98.6049L286.751 98.5025C286.507 98.1408 286.496 97.6664 286.484 97.1946C286.479 96.9641 286.473 96.7342 286.44 96.5185C285.711 87.9324 282.07 80.5774 276.355 74.0974C275.555 75.1751 274.542 76.1956 273.526 77.2199C273.195 77.5539 272.863 77.8883 272.538 78.2251L271.878 78.3599C272.149 78.4227 272.291 78.6538 272.435 78.8872Z" fill="white"/>
<path fill-rule="evenodd" clip-rule="evenodd" d="M252.155 182.226H321.929V252.424H252.155V182.226ZM274.812 201.409C275.162 207.322 275.233 240.773 275.233 240.773V240.774H269.563V193.897H276.204C276.204 193.897 297.208 227.981 299.353 232.843L299.566 232.78C299.017 226.514 298.884 193.897 298.884 193.897H304.543V240.774H298.458C298.458 240.774 277.316 206.415 275.025 201.342L274.812 201.409Z" fill="white"/>
<path fill-rule="evenodd" clip-rule="evenodd" d="M252.155 256.735H321.929V326.929H252.155V256.735ZM285.756 267.911C291.71 267.911 296.055 269.306 298.832 271.811C301.381 274.028 302.97 277.428 302.97 281.609C302.97 285.842 301.729 289.18 299.305 291.629C296.128 295.014 290.953 296.774 285.074 296.774C283.273 296.774 281.623 296.707 280.23 296.362V315.139H274.215V268.889C277.119 268.334 280.924 267.911 285.756 267.911ZM285.214 292.185C283.272 292.185 281.544 292.042 280.23 291.701V273.483C281.269 273.274 283.272 272.997 285.895 272.997C292.531 272.997 296.895 275.97 296.895 282.243C296.895 288.564 292.532 292.185 285.214 292.185Z" fill="white"/>
<path fill-rule="evenodd" clip-rule="evenodd" d="M178 256.804H247.779V327H178V256.804ZM208.197 267.842C216.841 267.842 222.985 269.799 227.064 273.622C231.278 277.446 233.695 282.941 233.695 290.522C233.695 298.165 231.278 304.441 227.007 308.745C222.57 313.132 215.378 315.473 206.329 315.473C201.975 315.473 198.445 315.35 195.334 314.93V268.825C199.08 268.263 203.422 267.842 208.197 267.842ZM207.504 310.626C205.146 310.626 202.942 310.626 201.424 310.338V273.274C203.015 272.931 205.369 272.657 208.47 272.657C221.188 272.657 227.419 279.542 227.344 290.729C227.343 303.383 220.357 310.688 207.504 310.626Z" fill="white"/>
<path fill-rule="evenodd" clip-rule="evenodd" d="M178.076 182.226H247.85V252.424H178.076V182.226ZM195.77 221.338V193.727H201.862V221.543C201.862 231.977 206.486 236.433 212.708 236.433C219.554 236.433 224.048 231.856 224.048 221.543V193.727H230.129V221.126C230.129 235.514 222.589 241.368 212.503 241.368C202.955 241.368 195.77 235.947 195.77 221.338Z" fill="white"/>
</svg>
