<svg width="500" height="360" viewBox="0 0 500 360" fill="none" xmlns="http://www.w3.org/2000/svg">
<path d="M268.775 256.069L271.708 226.419H291.918L294.851 256.069H329.859L303.978 71H259.648L233.833 256.069H268.775ZM281.813 117.332L289.506 198.919H274.121L281.813 117.332Z" fill="white"/>
<path d="M196.804 256.069H227.9V185.951C227.9 169.204 216.101 164.708 208.669 163.6C220.143 161.384 227.705 153.89 227.705 141.769V95.1763C227.705 79.8625 217.535 71.0652 202.346 71.0652H144.326V256.134H178.355V177.545H185.657C193.48 177.545 196.739 181.65 196.739 189.34L196.804 256.069ZM196.804 138.446C196.804 146.201 193.61 150.241 185.722 150.241H178.421V98.4997H185.722C193.545 98.4997 196.804 102.605 196.804 110.295V138.446Z" fill="white"/>
<path d="M151.171 268.059C154.822 268.059 156.712 269.623 156.712 271.839C156.712 274.055 154.756 275.553 151.106 275.553H150.78V275.619C153.648 275.684 154.756 276.335 155.865 278.616L157.169 281.288C158.016 282.982 159.45 282.396 159.45 282.982C159.45 283.113 159.32 283.243 159.059 283.243H154.691L152.018 277.639C151.367 276.335 150.91 275.879 149.411 275.879H148.954V280.571C148.954 281.549 149.02 282.135 149.672 282.526C150.193 282.787 150.715 282.656 150.715 282.982C150.715 283.243 150.584 283.243 150.258 283.243H144.456C144.13 283.243 144 283.243 144 282.982C144 282.656 144.587 282.787 145.043 282.526C145.695 282.2 145.76 281.549 145.76 280.571V270.145C145.825 269.493 145.434 268.907 144.913 268.711C144.456 268.581 144 268.646 144 268.32C144 268.125 144.13 267.994 144.456 267.994H151.171V268.059ZM148.954 275.358H150.063C152.214 275.358 153.257 274.25 153.257 271.969C153.257 269.689 152.279 268.516 150.389 268.516H149.02L148.954 275.358Z" fill="white"/>
<path d="M169.75 278.29C169.75 281.353 167.469 283.569 164.144 283.569C160.819 283.569 158.603 281.353 158.603 278.29C158.603 275.228 160.884 273.012 164.144 273.012C167.469 272.947 169.75 275.228 169.75 278.29ZM161.667 278.29C161.667 281.549 162.449 283.178 164.144 283.178C165.839 283.178 166.686 281.549 166.686 278.29C166.686 275.032 165.839 273.403 164.144 273.403C162.449 273.403 161.667 275.032 161.667 278.29Z" fill="white"/>
<path d="M174.248 273.273C174.574 273.273 174.77 273.273 174.77 273.533C174.77 273.924 173.792 273.664 173.792 274.446C173.792 274.641 173.857 274.837 173.923 274.967L176.269 280.506L177.834 276.922C178.03 276.466 178.16 275.944 178.225 275.358C178.225 273.729 176.726 273.924 176.726 273.533C176.726 273.273 176.921 273.273 177.247 273.273H180.507C180.898 273.273 181.028 273.273 181.028 273.468C181.028 273.664 180.702 273.729 180.376 273.924C179.724 274.25 179.073 275.162 178.421 276.726L174.314 286.045C173.727 287.283 172.814 288 171.836 288C170.924 288 170.207 287.283 170.141 286.371C170.076 285.654 170.663 285.002 171.38 285.002H171.445C172.554 285.002 172.619 286.566 173.205 286.566C173.401 286.566 173.662 286.371 173.857 285.915L174.9 283.569L171.054 275.293C170.207 273.403 169.294 273.99 169.294 273.468C169.294 273.338 169.424 273.273 169.62 273.273H174.248Z" fill="white"/>
<path d="M189.308 281.679C189.308 282.2 189.438 282.461 189.764 282.461C190.22 282.461 190.546 281.874 190.807 281.874C190.937 281.874 191.002 281.94 191.002 282.005C191.002 282.265 189.764 283.504 188.395 283.504C187.482 283.569 186.635 282.852 186.504 281.94C185.135 282.917 183.962 283.438 182.854 283.438C181.485 283.438 180.507 282.591 180.507 281.353C180.507 280.115 181.485 279.268 183.636 278.421L186.504 277.248V274.055C186.504 273.599 186.244 273.468 185.852 273.468C184.875 273.468 184.027 273.99 183.897 274.771C183.636 276.401 183.245 277.378 182.006 277.378C181.419 277.443 180.898 276.987 180.833 276.401C180.833 276.335 180.833 276.335 180.833 276.27C180.833 275.619 181.354 274.902 182.332 274.25C183.571 273.403 185.005 272.947 186.504 272.947C188.33 272.947 189.308 273.794 189.308 275.293V281.679ZM185.2 278.356C183.831 278.942 183.31 279.529 183.31 280.702C183.31 281.874 183.701 282.461 184.418 282.461C185.2 282.331 185.918 281.94 186.439 281.418V277.769L185.2 278.356Z" fill="white"/>
<path d="M195.501 281.027C195.501 282.005 195.631 282.396 196.283 282.656C196.674 282.787 197 282.722 197 282.982C197 283.243 196.804 283.243 196.478 283.243H191.459C191.328 283.243 191.198 283.178 191.198 282.982C191.198 282.982 191.198 282.982 191.198 282.917C191.198 282.656 191.524 282.722 191.915 282.591C192.502 282.331 192.697 281.94 192.697 280.962V270.014C192.697 269.037 192.502 268.711 191.785 268.385C191.394 268.255 191.133 268.255 191.133 267.994C191.133 267.603 192.567 267.734 195.631 266.626L195.501 281.027Z" fill="white"/>
<path d="M213.95 281.158C214.145 281.809 214.601 282.331 215.188 282.591C215.579 282.722 216.036 282.722 216.036 283.047C216.036 283.178 215.905 283.308 215.645 283.308H209.647C209.386 283.308 209.256 283.243 209.256 283.047C209.256 282.526 210.886 282.982 210.886 281.874C210.886 281.614 210.82 281.353 210.69 281.093L209.451 277.769H204.497L203.975 279.268C203.845 279.724 203.715 280.18 203.715 280.636C203.649 281.418 204.106 282.2 204.823 282.591C205.279 282.787 205.736 282.722 205.736 283.047C205.736 283.243 205.605 283.308 205.344 283.308H200.129C199.868 283.308 199.738 283.243 199.738 283.113C199.738 282.982 200.064 282.787 200.52 282.591C201.954 281.94 202.802 280.636 203.715 278.421L206.648 270.927C206.453 270.34 205.866 270.405 205.866 270.08C205.866 269.884 206.583 269.623 207.431 268.516C207.952 267.799 207.952 267.408 208.278 267.408C208.604 267.408 208.604 267.668 208.8 268.125L213.95 281.158ZM204.627 277.248H209.191L206.909 271.318L204.627 277.248Z" fill="white"/>
<path d="M225.162 276.401C225.162 277.508 224.576 278.16 223.793 278.16C223.011 278.16 222.359 277.443 222.359 276.661C222.359 276.596 222.359 276.596 222.359 276.531C222.359 276.01 222.49 275.488 222.49 275.097C222.555 274.25 221.838 273.468 220.99 273.468C220.925 273.468 220.86 273.468 220.795 273.468C219.295 273.468 218.122 274.967 218.122 277.248C218.122 279.854 219.817 281.679 221.968 281.679C224.119 281.679 224.706 279.789 225.032 279.789C225.162 279.789 225.162 279.854 225.162 280.05C225.097 280.571 224.902 281.027 224.641 281.483C223.793 282.917 222.229 283.764 220.599 283.699C217.861 283.699 215.579 281.484 215.514 278.747C215.514 278.681 215.514 278.681 215.514 278.616C215.384 275.684 217.665 273.208 220.599 273.077C220.664 273.077 220.729 273.077 220.795 273.077C223.402 272.947 225.162 274.706 225.162 276.401Z" fill="white"/>
<path d="M235.397 281.679C235.397 282.2 235.528 282.461 235.854 282.461C236.245 282.461 236.636 281.874 236.897 281.874C237.027 281.874 237.092 281.94 237.092 282.005C237.092 282.265 235.854 283.504 234.419 283.504C233.507 283.569 232.659 282.852 232.529 281.94C231.16 282.917 229.986 283.438 228.878 283.438C227.509 283.438 226.531 282.591 226.531 281.353C226.531 280.115 227.509 279.268 229.661 278.421L232.529 277.248V274.055C232.529 273.599 232.268 273.468 231.877 273.468C230.899 273.468 230.052 273.99 229.921 274.771C229.661 276.401 229.269 277.378 227.966 277.378C227.379 277.443 226.857 276.987 226.792 276.401C226.792 276.335 226.792 276.335 226.792 276.27C226.792 275.619 227.314 274.902 228.292 274.25C229.53 273.403 230.964 272.947 232.464 272.947C234.289 272.947 235.267 273.794 235.267 275.293L235.397 281.679ZM231.355 278.356C229.986 278.942 229.465 279.529 229.465 280.702C229.465 281.874 229.856 282.461 230.573 282.461C231.355 282.331 232.073 281.94 232.594 281.418V277.769L231.355 278.356Z" fill="white"/>
<path d="M247.979 280.115C247.979 280.962 248.044 281.483 248.631 281.809C249.087 282.005 249.544 281.874 249.544 282.2C249.544 282.656 247.914 282.396 245.176 283.569V281.874C243.872 282.982 242.764 283.569 241.525 283.569C239.309 283.569 237.744 281.744 237.744 278.942C237.744 275.423 240.221 272.947 243.416 272.947C244.002 272.947 244.589 273.012 245.176 273.208V270.08C245.176 269.102 244.98 268.776 244.263 268.45C243.872 268.32 243.611 268.32 243.611 268.059C243.611 267.668 244.98 267.734 247.979 266.691V280.115ZM243.22 273.403C241.656 273.403 240.613 275.032 240.613 277.899C240.613 280.702 241.656 282.2 243.22 282.2C243.937 282.2 244.654 281.874 245.111 281.288V276.401C245.176 274.446 244.654 273.403 243.22 273.403Z" fill="white"/>
<path d="M252.999 277.574C253.129 280.05 254.694 281.614 256.715 281.614C258.931 281.614 259.453 279.724 259.779 279.724C259.909 279.724 259.909 279.789 259.909 279.985C259.844 280.506 259.648 280.962 259.387 281.418C258.605 282.787 257.106 283.699 255.476 283.634C252.673 283.634 250.326 281.418 250.326 278.551C250.326 278.486 250.326 278.486 250.326 278.421C250.261 275.488 252.608 273.077 255.541 272.947C255.606 272.947 255.606 272.947 255.672 272.947C258.084 272.947 260.039 274.837 260.105 277.248V277.313C260.105 277.378 260.105 277.443 260.105 277.508H252.999V277.574ZM257.301 276.661C257.301 274.511 256.649 273.403 255.411 273.403C254.172 273.403 253.064 274.771 252.934 277.052H257.301C257.301 276.857 257.301 276.726 257.301 276.661Z" fill="white"/>
<path d="M264.929 274.706C266.428 273.599 267.667 272.947 268.84 272.947C270.014 272.817 271.122 273.599 271.383 274.771C272.947 273.533 274.251 272.947 275.424 272.947C277.184 272.947 278.032 273.99 278.032 276.01V281.027C278.032 282.005 278.162 282.396 278.814 282.656C279.205 282.787 279.531 282.722 279.531 282.982C279.531 283.243 279.336 283.243 279.01 283.243H274.251C274.121 283.243 273.99 283.178 273.99 282.982C273.99 282.982 273.99 282.982 273.99 282.917C273.99 282.656 274.316 282.722 274.707 282.591C275.294 282.331 275.49 281.94 275.49 280.962V276.01C275.49 274.771 274.968 274.185 273.99 274.185C273.077 274.25 272.23 274.706 271.578 275.358C271.643 276.075 271.643 276.531 271.643 276.661V281.027C271.643 282.005 271.774 282.396 272.426 282.656C272.817 282.787 273.143 282.722 273.143 282.982C273.143 283.243 272.947 283.243 272.621 283.243H267.862C267.732 283.243 267.601 283.178 267.601 282.982C267.601 282.982 267.601 282.982 267.601 282.917C267.601 282.656 267.927 282.722 268.319 282.591C268.905 282.331 269.101 281.94 269.101 280.962V276.01C269.101 274.771 268.579 274.185 267.601 274.185C266.689 274.25 265.907 274.641 265.255 275.293V280.962C265.255 281.94 265.385 282.331 265.972 282.591C266.363 282.722 266.689 282.656 266.689 282.917C266.689 283.178 266.493 283.178 266.167 283.178H261.408C261.278 283.178 261.148 283.113 261.148 282.917C261.148 282.917 261.148 282.917 261.148 282.852C261.148 282.591 261.474 282.656 261.865 282.526C262.451 282.265 262.647 281.874 262.647 280.897V276.335C262.647 275.358 262.386 275.032 261.734 274.706C261.343 274.576 261.082 274.576 261.082 274.315C261.082 273.924 262.517 274.12 265.32 272.817L264.929 274.706Z" fill="white"/>
<path d="M283.638 273.273C283.964 273.273 284.16 273.273 284.16 273.533C284.16 273.924 283.182 273.664 283.182 274.446C283.182 274.641 283.247 274.837 283.312 274.967L285.659 280.506L287.224 276.922C287.419 276.466 287.55 275.944 287.615 275.358C287.615 273.729 286.116 273.924 286.116 273.533C286.116 273.273 286.311 273.273 286.637 273.273H289.897C290.223 273.273 290.418 273.273 290.418 273.468C290.418 273.664 290.092 273.729 289.766 273.924C289.114 274.25 288.462 275.162 287.811 276.726L283.638 286.045C283.052 287.283 282.139 288 281.161 288C280.248 288 279.531 287.283 279.466 286.371C279.401 285.654 279.988 285.002 280.705 285.002H280.77C281.878 285.002 281.943 286.566 282.53 286.566C282.726 286.566 282.986 286.371 283.182 285.915L284.225 283.569L280.379 275.293C279.531 273.403 278.619 273.99 278.619 273.468C278.619 273.338 278.749 273.273 278.945 273.273H283.638Z" fill="white"/>
<path d="M303.978 278.29C303.978 281.353 301.696 283.569 298.371 283.569C295.047 283.569 292.83 281.353 292.83 278.29C292.83 275.228 295.112 273.012 298.371 273.012C301.631 273.012 303.978 275.228 303.978 278.29ZM295.894 278.29C295.894 281.549 296.676 283.178 298.371 283.178C300.066 283.178 300.914 281.549 300.914 278.29C300.914 275.032 300.066 273.403 298.371 273.403C296.676 273.403 295.894 275.032 295.894 278.29Z" fill="white"/>
<path d="M311.54 273.273L311.149 274.315H309.389V280.962C309.389 281.94 309.519 282.331 310.171 282.591C310.562 282.722 310.888 282.656 310.888 282.917C310.888 283.178 310.692 283.178 310.367 283.178H305.347C305.216 283.178 305.086 283.113 305.086 282.917C305.086 282.917 305.086 282.917 305.086 282.852C305.086 282.591 305.412 282.656 305.803 282.526C306.39 282.265 306.585 281.874 306.585 280.897V274.25H305.021C306.26 273.468 306.585 272.23 307.172 270.666C308.15 268.059 308.998 266.561 310.627 266.561C311.801 266.561 312.648 267.538 312.648 268.646C312.713 269.428 312.127 270.145 311.344 270.21C310.758 270.21 310.301 269.623 310.301 268.581C310.301 268.45 310.367 268.255 310.367 268.19C310.367 267.603 310.171 267.343 309.78 267.343C309.389 267.343 308.737 267.994 308.737 268.972C308.737 270.34 309.389 271.709 309.454 273.208L311.54 273.273Z" fill="white"/>
<path d="M343.809 273.273H346.678L346.287 274.315H343.809V280.311C343.809 281.679 344.2 282.396 345.178 282.396C346.352 282.396 346.743 281.288 347.134 281.288C347.199 281.288 347.33 281.418 347.33 281.549C347.33 282.07 346.026 283.569 343.94 283.569C342.114 283.569 340.941 282.591 340.941 280.962V274.315H339.442C341.332 273.273 342.897 271.709 343.94 269.819L343.809 273.273Z" fill="white"/>
<path d="M355.283 276.401C355.283 276.596 355.218 276.726 355.087 276.726C354.761 276.726 354.827 276.14 354.37 275.228C353.914 274.12 352.871 273.403 351.697 273.403C350.654 273.403 349.937 273.99 349.937 274.771C349.937 275.814 350.98 276.14 352.871 276.922C354.761 277.704 356 278.356 356 280.05C356 281.94 354.37 283.569 351.502 283.569C350.263 283.569 349.025 283.373 347.916 282.917C347.851 280.962 347.786 279.789 347.786 279.398C347.786 279.203 347.851 279.072 347.982 279.072C348.307 279.072 348.242 279.594 348.568 280.441C349.285 282.2 350.328 283.047 351.763 283.047C353.066 283.047 353.849 282.331 353.849 281.418C353.849 280.506 353.066 280.05 351.632 279.463C349.481 278.616 347.851 278.03 347.851 276.075C347.851 274.315 349.351 272.882 351.763 272.882C352.936 272.882 354.044 273.142 355.153 273.468C355.218 275.228 355.283 276.14 355.283 276.401Z" fill="white"/>
<path d="M319.298 277.248H323.861L321.579 271.318L319.298 277.248ZM328.685 281.158C329.141 282.331 329.989 282.852 330.902 282.722C331.814 282.591 331.945 282.07 331.945 280.897V276.335C331.945 275.358 331.749 275.032 331.032 274.706C330.641 274.576 330.38 274.576 330.38 274.315C330.38 273.924 331.814 273.99 334.748 272.947V275.944C335.4 273.989 336.443 272.947 337.616 272.947C338.464 272.882 339.181 273.533 339.246 274.38C339.246 274.446 339.246 274.446 339.246 274.511C339.311 275.293 338.724 275.944 338.007 276.01C337.03 276.01 337.03 275.032 336.378 275.032C335.595 275.032 334.878 276.01 334.878 278.225V281.027C334.878 282.005 335.009 282.396 335.595 282.656C335.986 282.787 336.312 282.722 336.312 282.982C336.312 283.243 336.117 283.243 335.791 283.243H324.317C324.057 283.243 323.926 283.178 323.926 282.982C323.926 282.461 325.556 282.917 325.556 281.809C325.556 281.549 325.491 281.223 325.36 281.027L324.122 277.704H319.167L318.646 279.203C318.515 279.659 318.385 280.115 318.385 280.571C318.32 281.353 318.776 282.135 319.493 282.461C319.95 282.656 320.406 282.591 320.406 282.917C320.406 283.113 320.276 283.178 320.015 283.178H314.8C314.539 283.178 314.408 283.113 314.408 282.982C314.408 282.852 314.734 282.656 315.191 282.461C316.625 281.809 317.472 280.506 318.385 278.29L321.319 270.796C321.123 270.21 320.536 270.275 320.536 269.949C320.536 269.754 321.253 269.493 322.101 268.385C322.622 267.668 322.622 267.277 322.948 267.277C323.274 267.277 323.274 267.538 323.47 267.994C323.405 268.125 328.164 279.854 328.685 281.158Z" fill="white"/>
</svg>
