<svg width="500" height="360" viewBox="0 0 500 360" fill="none" xmlns="http://www.w3.org/2000/svg">
<g clip-path="url(#clip0_2030_8865)">
<path d="M297.212 223C278.938 223 271.018 214.669 267.927 209.705C264.391 203.959 263.933 196.18 263.933 190.039V149.876C263.933 149.488 263.939 149.099 263.946 148.699C264.012 144.512 264.078 140.556 257.632 140.349H255.581V137H288.626L288.649 140.374L288.06 140.368C285.595 140.343 283.718 141.005 282.384 142.334C280.802 143.917 279.996 146.454 279.996 149.876V194.056C279.996 209.014 286.442 216.598 299.155 216.598C306.348 216.598 312.397 214.456 316.181 210.567C322.294 204.19 322.783 195.925 322.783 185.78V149.755C322.783 144.427 322.26 140.356 315.645 140.356H313.925V137H338.297V140.356H337.269C332.387 140.356 329.56 141.891 329.56 149.755V186.393C329.564 211.028 318.982 223 297.212 223Z" fill="white"/>
<path d="M379.029 221.216H345.954V217.879L346.513 217.86C354.265 217.636 354.661 215.136 354.661 207.952V149.827C354.661 142.352 354.373 140.58 346.837 140.356L346.278 140.337V137H380.021C399.955 137 410.384 148.79 410.384 160.434C410.384 173.759 398.608 184.196 383.58 184.196L376.135 184.087V178.189C376.135 178.189 378.955 178.158 379.984 178.158C389.233 178.158 393.99 171.101 393.99 160.598C393.99 149.658 387.038 142.303 376.695 142.303L370.045 142.285V209.305C370.045 216.343 371.307 217.618 378.476 217.854L379.035 217.873V221.216H379.029Z" fill="white"/>
<path d="M257.709 221.216H233.878L208.38 182.09V177.315L208.898 177.26C217.839 176.308 226.235 171.114 226.235 159.384C226.235 149.542 219.217 142.674 209.168 142.674H202.289V209.305C202.289 216.562 205.59 217.284 210.257 217.502L210.803 217.527V221.21H178.469V217.824L179.016 217.794C186.028 217.399 187.02 215.627 187.02 209.299V148.905C186.761 141.43 186.304 140.471 179.04 140.356L178.475 140.349V137H213.306C226.589 137 242.104 142.892 242.104 159.506C242.104 169.408 236.157 176.514 224.418 180.634L237.649 200.343C239.091 202.575 244.395 209.068 246.771 211.714C251.299 216.629 254.558 217.308 256.717 217.757L257.709 217.97V221.216Z" fill="white"/>
<path d="M172.733 221.216H141.18V217.927L141.739 217.909C145.594 217.775 147.981 216.926 147.981 213.128C147.981 211.428 146.664 208.104 145.954 206.313L140.825 193.935H112.327L107.089 205.974C105.351 209.948 104.846 211.386 104.846 213.249C104.846 215.986 104.846 217.794 111.19 217.909L111.755 217.921V221.222H89V217.927L89.5653 217.915C94.0755 217.812 96.4207 215.5 99.6079 208.018L130.476 137H133.645L133.795 137.352L164.753 210.907C166.984 216.386 167.513 217.685 172.186 217.879L172.739 217.903V221.216H172.733ZM114.666 188.237H138.516L126.855 159.694L114.666 188.237Z" fill="white"/>
</g>
<defs>
<clipPath id="clip0_2030_8865">
<rect width="322" height="86" fill="white" transform="translate(89 137)"/>
</clipPath>
</defs>
</svg>
