<svg width="500" height="360" viewBox="0 0 500 360" fill="none" xmlns="http://www.w3.org/2000/svg">
<path d="M289.775 168.25C286.903 152.585 272.804 146.841 260.01 146.841C242.255 146.841 229.723 157.545 229.723 172.167C229.723 182.089 236.772 188.877 250.61 192.794L251.655 193.055C266.276 197.754 271.498 199.321 271.498 205.587C271.498 207.676 270.715 209.504 269.409 210.809C267.321 212.637 264.449 213.681 261.315 213.681C260.271 213.681 250.61 213.42 249.827 204.543H228.939C230.245 222.036 246.433 229.869 261.315 229.869C270.976 229.869 280.114 226.736 285.859 220.992C290.819 216.292 293.43 210.026 293.43 203.237C293.43 186.266 278.548 182.611 265.493 179.216C256.355 176.606 251.916 173.995 251.916 170.339C251.916 166.684 254.788 163.29 261.054 163.29C266.798 163.29 269.148 165.901 269.932 168.512C269.932 168.25 289.775 168.25 289.775 168.25Z" fill="white"/>
<path d="M59.7495 227.519V169.295L81.1594 148.668H113.013L134.423 169.295V227.519H113.013V169.295H80.8983V227.519H59.7495Z" fill="white"/>
<path d="M355.05 227.519H329.462L308.575 206.893V168.25H295.781V149.19H308.575V129.869H329.462V148.929H355.05V168.512H329.462V207.154H355.05V227.519Z" fill="white"/>
<path d="M360.011 188.355C360.011 164.595 375.938 147.624 396.825 147.624C405.964 147.624 414.319 151.279 419.802 157.807H420.063V148.929H440.951V227.258H420.585V218.12H420.324C415.102 225.169 406.747 229.086 396.564 229.086C375.938 228.825 360.011 212.637 360.011 188.355ZM421.368 188.355C421.368 175.561 412.752 166.423 401.525 166.423C390.037 166.423 381.16 175.039 381.16 188.355C381.16 200.887 389.254 209.765 401.525 209.765C412.23 210.026 421.368 201.41 421.368 188.355Z" fill="white"/>
<path d="M201.264 178.433H164.45C167.061 169.556 174.11 163.812 182.987 163.812C191.343 163.812 199.436 168.512 201.264 178.433ZM222.674 193.838C223.457 191.227 223.457 186.788 222.935 182.35C220.324 160.679 203.092 147.102 182.726 147.102C159.75 147.102 142.256 164.856 142.256 188.355C142.256 211.854 159.75 229.608 183.51 229.608C200.481 229.608 216.147 220.47 221.369 204.282H199.436C196.303 209.243 190.298 212.115 183.51 212.115C172.021 212.115 164.45 204.543 163.144 193.577C163.405 193.838 222.674 193.838 222.674 193.838Z" fill="white"/>
</svg>
