<svg width="91" height="92" viewBox="0 0 91 92" fill="none" xmlns="http://www.w3.org/2000/svg">
<path fill-rule="evenodd" clip-rule="evenodd" d="M0.186279 0.949219H90.2882V91.0512H0.186279V0.949219ZM41.6312 20.6119C39.7952 20.6119 38.3792 19.4719 38.2592 17.6599H39.6392C39.7112 18.6319 40.5632 19.3759 41.6312 19.3759C42.6752 19.3759 43.3592 18.8839 43.3592 18.1399C43.3592 17.4679 42.8792 17.0959 42.2192 16.9039L40.7312 16.4719C39.5672 16.1479 38.5952 15.5599 38.5952 14.0839C38.5952 12.7159 39.8192 11.7679 41.5592 11.7679C43.3232 11.7679 44.5592 12.7279 44.6792 14.2639H43.2992C43.1792 13.5439 42.5552 12.9919 41.5592 12.9919C40.5992 12.9919 40.0232 13.3999 40.0232 14.0719C40.0232 14.6719 40.4552 14.9719 41.0912 15.1519L42.6032 15.5839C43.8032 15.9199 44.7872 16.5079 44.7872 18.1039C44.7872 19.6159 43.5392 20.6119 41.6312 20.6119ZM47.6941 20.5159V13.0879H45.0061V11.8639H51.7741V13.0879H49.0861V20.5159H47.6941ZM56.0327 20.6119C54.0407 20.6119 52.6727 19.4839 52.6727 17.4439V11.8639H54.0647V17.4799C54.0647 18.7039 54.8687 19.3759 56.0327 19.3759C57.2087 19.3759 58.0247 18.7039 58.0247 17.4799V11.8639H59.4167V17.4439C59.4167 19.4839 58.0367 20.6119 56.0327 20.6119ZM61.0065 20.5159V11.8639H63.7065C66.1065 11.8639 68.0985 13.3399 68.0985 16.1839C68.0985 19.0399 66.1065 20.5159 63.7065 20.5159H61.0065ZM63.6225 19.2799C65.1825 19.2799 66.6705 18.4159 66.6705 16.1839C66.6705 13.9639 65.1825 13.0999 63.6225 13.0999H62.3985V19.2799H63.6225ZM69.3385 20.5159V11.8639H70.7305V20.5159H69.3385ZM76.2854 20.6119C73.7894 20.6119 71.9654 18.7399 71.9654 16.1839C71.9654 13.6399 73.7894 11.7679 76.2854 11.7679C78.7694 11.7679 80.5934 13.6279 80.5934 16.1839C80.5934 18.7519 78.7694 20.6119 76.2854 20.6119ZM76.2854 19.3759C77.9654 19.3759 79.1774 18.0319 79.1774 16.1839C79.1774 14.3479 77.9654 12.9919 76.2854 12.9919C74.5934 12.9919 73.3814 14.3479 73.3814 16.1839C73.3814 18.0319 74.5934 19.3759 76.2854 19.3759ZM11.2143 60.1772C11.2143 73.1772 20.0023 79.3652 29.3103 79.3652C37.2143 79.3652 43.6103 74.8932 45.0143 66.9372H40.5943C39.6063 72.3972 35.3423 75.5172 29.3103 75.5172C21.3543 75.5172 15.6343 70.0572 15.6343 60.1772C15.6343 50.3492 21.3543 44.8892 29.3103 44.8892C35.2903 44.8892 39.8143 48.1132 40.5943 53.5732H45.0143C43.7663 45.5652 37.2663 41.0412 29.3103 41.0412C20.0543 41.0412 11.2143 47.2292 11.2143 60.1772ZM48.3813 65.4292C48.3813 73.2292 52.9573 79.3652 61.2253 79.3652C65.3333 79.3652 68.9733 77.3372 70.1173 74.8412V78.9492H74.1213V41.0412H70.1173V56.0692C68.4533 53.4172 64.7613 51.5452 61.2253 51.5452C53.0093 51.5452 48.3813 57.6292 48.3813 65.4292ZM70.5333 65.4292C70.5333 71.6692 66.8933 75.7772 61.5373 75.7772C56.1293 75.7772 52.5413 71.6172 52.5413 65.4292C52.5413 59.2412 56.1293 55.1332 61.5373 55.1332C66.8933 55.1332 70.5333 59.2412 70.5333 65.4292Z" fill="#EEEEEE"/>
</svg>
