<svg width="91" height="92" viewBox="0 0 91 92" fill="none" xmlns="http://www.w3.org/2000/svg">
<path fill-rule="evenodd" clip-rule="evenodd" d="M0.489014 0.949219H90.591V91.0512H0.489014V0.949219ZM41.9339 20.6119C40.0979 20.6119 38.6819 19.4719 38.5619 17.6599H39.9419C40.0139 18.6319 40.8659 19.3759 41.9339 19.3759C42.9779 19.3759 43.6619 18.8839 43.6619 18.1399C43.6619 17.4679 43.1819 17.0959 42.5219 16.9039L41.0339 16.4719C39.8699 16.1479 38.8979 15.5599 38.8979 14.0839C38.8979 12.7159 40.1219 11.7679 41.8619 11.7679C43.6259 11.7679 44.8619 12.7279 44.9819 14.2639H43.6019C43.4819 13.5439 42.8579 12.9919 41.8619 12.9919C40.9019 12.9919 40.3259 13.3999 40.3259 14.0719C40.3259 14.6719 40.7579 14.9719 41.3939 15.1519L42.9059 15.5839C44.1059 15.9199 45.0899 16.5079 45.0899 18.1039C45.0899 19.6159 43.8419 20.6119 41.9339 20.6119ZM47.9968 20.5159V13.0879H45.3088V11.8639H52.0768V13.0879H49.3888V20.5159H47.9968ZM56.3355 20.6119C54.3435 20.6119 52.9755 19.4839 52.9755 17.4439V11.8639H54.3675V17.4799C54.3675 18.7039 55.1715 19.3759 56.3355 19.3759C57.5115 19.3759 58.3275 18.7039 58.3275 17.4799V11.8639H59.7195V17.4439C59.7195 19.4839 58.3395 20.6119 56.3355 20.6119ZM61.3092 20.5159V11.8639H64.0092C66.4092 11.8639 68.4012 13.3399 68.4012 16.1839C68.4012 19.0399 66.4092 20.5159 64.0092 20.5159H61.3092ZM63.9252 19.2799C65.4852 19.2799 66.9732 18.4159 66.9732 16.1839C66.9732 13.9639 65.4852 13.0999 63.9252 13.0999H62.7012V19.2799H63.9252ZM69.6412 20.5159V11.8639H71.0332V20.5159H69.6412ZM76.5881 20.6119C74.0921 20.6119 72.2681 18.7399 72.2681 16.1839C72.2681 13.6399 74.0921 11.7679 76.5881 11.7679C79.0721 11.7679 80.8961 13.6279 80.8961 16.1839C80.8961 18.7519 79.0721 20.6119 76.5881 20.6119ZM76.5881 19.3759C78.2681 19.3759 79.4801 18.0319 79.4801 16.1839C79.4801 14.3479 78.2681 12.9919 76.5881 12.9919C74.8961 12.9919 73.6841 14.3479 73.6841 16.1839C73.6841 18.0319 74.8961 19.3759 76.5881 19.3759ZM11.517 59.6041C11.517 72.6041 20.305 78.7921 29.613 78.7921C37.517 78.7921 43.913 74.3201 45.317 66.3641H40.897C39.909 71.8241 35.645 74.9441 29.613 74.9441C21.657 74.9441 15.937 69.4841 15.937 59.6041C15.937 49.7761 21.657 44.3161 29.613 44.3161C35.593 44.3161 40.117 47.5401 40.897 53.0001H45.317C44.069 44.9921 37.569 40.4681 29.613 40.4681C20.357 40.4681 11.517 46.6561 11.517 59.6041ZM52.324 70.9921C52.324 76.2961 55.34 78.7921 60.124 78.7921C61.58 78.7921 63.14 78.4281 63.296 78.3761V74.7361C63.14 74.7881 61.788 75.1521 60.332 75.1521C57.784 75.1521 56.276 73.8001 56.276 70.8361V54.8721H63.296V51.3881H56.276V43.1201H52.324V51.3881H47.176V54.8721H52.324V70.9921Z" fill="#EEEEEE"/>
</svg>
