<svg width="90" height="90" viewBox="0 0 90 90" fill="none" xmlns="http://www.w3.org/2000/svg">
<path fill-rule="evenodd" clip-rule="evenodd" d="M0 0H89.9999V89.9999H0V0ZM41.3533 19.6529C39.5173 19.6529 38.1013 18.5129 37.9813 16.7009H39.3613C39.4333 17.6729 40.2853 18.4169 41.3533 18.4169C42.3973 18.4169 43.0813 17.9249 43.0813 17.1809C43.0813 16.5089 42.6013 16.1369 41.9413 15.9449L40.4533 15.5129C39.2893 15.1889 38.3173 14.6009 38.3173 13.1249C38.3173 11.7569 39.5413 10.8089 41.2813 10.8089C43.0453 10.8089 44.2813 11.7689 44.4013 13.3049H43.0213C42.9013 12.5849 42.2773 12.0329 41.2813 12.0329C40.3213 12.0329 39.7453 12.4409 39.7453 13.1129C39.7453 13.7129 40.1773 14.0129 40.8133 14.1929L42.3253 14.6249C43.5253 14.9609 44.5093 15.5489 44.5093 17.1449C44.5093 18.6569 43.2613 19.6529 41.3533 19.6529ZM47.4162 19.5569V12.1289H44.7282V10.9049H51.4962V12.1289H48.8082V19.5569H47.4162ZM55.7549 19.6529C53.7629 19.6529 52.3949 18.5249 52.3949 16.4849V10.9049H53.7869V16.5209C53.7869 17.7449 54.5909 18.4169 55.7549 18.4169C56.9309 18.4169 57.7469 17.7449 57.7469 16.5209V10.9049H59.1389V16.4849C59.1389 18.5249 57.7589 19.6529 55.7549 19.6529ZM60.7287 19.5569V10.9049H63.4287C65.8287 10.9049 67.8207 12.3809 67.8207 15.2249C67.8207 18.0809 65.8287 19.5569 63.4287 19.5569H60.7287ZM63.3447 18.3209C64.9047 18.3209 66.3927 17.4569 66.3927 15.2249C66.3927 13.0049 64.9047 12.1409 63.3447 12.1409H62.1207V18.3209H63.3447ZM69.0607 19.5569V10.9049H70.4527V19.5569H69.0607ZM76.0076 19.6529C73.5116 19.6529 71.6876 17.7809 71.6876 15.2249C71.6876 12.6809 73.5116 10.8089 76.0076 10.8089C78.4916 10.8089 80.3156 12.6689 80.3156 15.2249C80.3156 17.7929 78.4916 19.6529 76.0076 19.6529ZM76.0076 18.4169C77.6876 18.4169 78.8996 17.0729 78.8996 15.2249C78.8996 13.3889 77.6876 12.0329 76.0076 12.0329C74.3156 12.0329 73.1036 13.3889 73.1036 15.2249C73.1036 17.0729 74.3156 18.4169 76.0076 18.4169ZM11.0178 58.6203C11.0178 71.6203 19.8058 77.8083 29.1138 77.8083C37.0178 77.8083 43.4138 73.3363 44.8178 65.3803H40.3978C39.4098 70.8403 35.1458 73.9603 29.1138 73.9603C21.1578 73.9603 15.4378 68.5003 15.4378 58.6203C15.4378 48.7923 21.1578 43.3323 29.1138 43.3323C35.0938 43.3323 39.6178 46.5563 40.3978 52.0163H44.8178C43.5698 44.0083 37.0698 39.4843 29.1138 39.4843C19.8578 39.4843 11.0178 45.6723 11.0178 58.6203ZM51.8248 70.0083C51.8248 75.3123 54.8408 77.8083 59.6248 77.8083C61.0808 77.8083 62.6408 77.4443 62.7968 77.3923V73.7523C62.6408 73.8043 61.2888 74.1683 59.8328 74.1683C57.2848 74.1683 55.7768 72.8163 55.7768 69.8523V53.8883H62.7968V50.4043H55.7768V42.1363H51.8248V50.4043H46.6768V53.8883H51.8248V70.0083Z" fill="#EEEEEE"/>
</svg>
