<svg width="91" height="92" viewBox="0 0 91 92" fill="none" xmlns="http://www.w3.org/2000/svg">
<path fill-rule="evenodd" clip-rule="evenodd" d="M0.186279 0.949219H90.2882V91.0512H0.186279V0.949219ZM41.6312 20.6119C39.7952 20.6119 38.3792 19.4719 38.2592 17.6599H39.6392C39.7112 18.6319 40.5632 19.3759 41.6312 19.3759C42.6752 19.3759 43.3592 18.8839 43.3592 18.1399C43.3592 17.4679 42.8792 17.0959 42.2192 16.9039L40.7312 16.4719C39.5672 16.1479 38.5952 15.5599 38.5952 14.0839C38.5952 12.7159 39.8192 11.7679 41.5592 11.7679C43.3232 11.7679 44.5592 12.7279 44.6792 14.2639H43.2992C43.1792 13.5439 42.5552 12.9919 41.5592 12.9919C40.5992 12.9919 40.0232 13.3999 40.0232 14.0719C40.0232 14.6719 40.4552 14.9719 41.0912 15.1519L42.6032 15.5839C43.8032 15.9199 44.7872 16.5079 44.7872 18.1039C44.7872 19.6159 43.5392 20.6119 41.6312 20.6119ZM47.6941 20.5159V13.0879H45.0061V11.8639H51.7741V13.0879H49.0861V20.5159H47.6941ZM56.0327 20.6119C54.0407 20.6119 52.6727 19.4839 52.6727 17.4439V11.8639H54.0647V17.4799C54.0647 18.7039 54.8687 19.3759 56.0327 19.3759C57.2087 19.3759 58.0247 18.7039 58.0247 17.4799V11.8639H59.4167V17.4439C59.4167 19.4839 58.0367 20.6119 56.0327 20.6119ZM61.0065 20.5159V11.8639H63.7065C66.1065 11.8639 68.0985 13.3399 68.0985 16.1839C68.0985 19.0399 66.1065 20.5159 63.7065 20.5159H61.0065ZM63.6225 19.2799C65.1825 19.2799 66.6705 18.4159 66.6705 16.1839C66.6705 13.9639 65.1825 13.0999 63.6225 13.0999H62.3985V19.2799H63.6225ZM69.3385 20.5159V11.8639H70.7305V20.5159H69.3385ZM76.2854 20.6119C73.7894 20.6119 71.9654 18.7399 71.9654 16.1839C71.9654 13.6399 73.7894 11.7679 76.2854 11.7679C78.7694 11.7679 80.5934 13.6279 80.5934 16.1839C80.5934 18.7519 78.7694 20.6119 76.2854 20.6119ZM76.2854 19.3759C77.9654 19.3759 79.1774 18.0319 79.1774 16.1839C79.1774 14.3479 77.9654 12.9919 76.2854 12.9919C74.5934 12.9919 73.3814 14.3479 73.3814 16.1839C73.3814 18.0319 74.5934 19.3759 76.2854 19.3759ZM13.1903 40.8841V78.3761H17.4543V60.8001H33.3143V56.9521H17.4543V44.7321H36.8503V40.8841H13.1903ZM42.1722 54.8721V78.3761H46.1242V54.8721H53.1442V51.3881H46.1242V48.3201C46.1242 45.3561 47.8922 44.0041 49.9722 44.0041C51.1162 44.0041 52.3122 44.1601 53.1442 44.3681V40.7801C52.0522 40.5201 50.9082 40.4161 49.7642 40.4161C45.3962 40.4161 42.1722 42.9121 42.1722 48.2161V51.3881H37.0762V54.8721H42.1722Z" fill="#EEEEEE"/>
</svg>
