<svg width="91" height="92" viewBox="0 0 91 92" fill="none" xmlns="http://www.w3.org/2000/svg">
<path fill-rule="evenodd" clip-rule="evenodd" d="M0.186279 0.949219H90.2882V91.0512H0.186279V0.949219ZM41.6312 20.6119C39.7952 20.6119 38.3792 19.4719 38.2592 17.6599H39.6392C39.7112 18.6319 40.5632 19.3759 41.6312 19.3759C42.6752 19.3759 43.3592 18.8839 43.3592 18.1399C43.3592 17.4679 42.8792 17.0959 42.2192 16.9039L40.7312 16.4719C39.5672 16.1479 38.5952 15.5599 38.5952 14.0839C38.5952 12.7159 39.8192 11.7679 41.5592 11.7679C43.3232 11.7679 44.5592 12.7279 44.6792 14.2639H43.2992C43.1792 13.5439 42.5552 12.9919 41.5592 12.9919C40.5992 12.9919 40.0232 13.3999 40.0232 14.0719C40.0232 14.6719 40.4552 14.9719 41.0912 15.1519L42.6032 15.5839C43.8032 15.9199 44.7872 16.5079 44.7872 18.1039C44.7872 19.6159 43.5392 20.6119 41.6312 20.6119ZM47.6941 20.5159V13.0879H45.0061V11.8639H51.7741V13.0879H49.0861V20.5159H47.6941ZM56.0327 20.6119C54.0407 20.6119 52.6727 19.4839 52.6727 17.4439V11.8639H54.0647V17.4799C54.0647 18.7039 54.8687 19.3759 56.0327 19.3759C57.2087 19.3759 58.0247 18.7039 58.0247 17.4799V11.8639H59.4167V17.4439C59.4167 19.4839 58.0367 20.6119 56.0327 20.6119ZM61.0065 20.5159V11.8639H63.7065C66.1065 11.8639 68.0985 13.3399 68.0985 16.1839C68.0985 19.0399 66.1065 20.5159 63.7065 20.5159H61.0065ZM63.6225 19.2799C65.1825 19.2799 66.6705 18.4159 66.6705 16.1839C66.6705 13.9639 65.1825 13.0999 63.6225 13.0999H62.3985V19.2799H63.6225ZM69.3385 20.5159V11.8639H70.7305V20.5159H69.3385ZM76.2854 20.6119C73.7894 20.6119 71.9654 18.7399 71.9654 16.1839C71.9654 13.6399 73.7894 11.7679 76.2854 11.7679C78.7694 11.7679 80.5934 13.6279 80.5934 16.1839C80.5934 18.7519 78.7694 20.6119 76.2854 20.6119ZM76.2854 19.3759C77.9654 19.3759 79.1774 18.0319 79.1774 16.1839C79.1774 14.3479 77.9654 12.9919 76.2854 12.9919C74.5934 12.9919 73.3814 14.3479 73.3814 16.1839C73.3814 18.0319 74.5934 19.3759 76.2854 19.3759ZM10.7133 59.604C10.7133 70.732 18.4093 78.792 29.0693 78.792C39.6253 78.792 47.3733 70.784 47.3733 59.604C47.3733 48.476 39.6253 40.468 29.0693 40.468C18.4093 40.468 10.7133 48.528 10.7133 59.604ZM42.9533 59.604C42.9533 68.496 37.1293 74.944 29.0173 74.944C20.9573 74.944 15.1333 68.496 15.1333 59.604C15.1333 50.764 20.9573 44.316 29.0173 44.316C37.1293 44.316 42.9533 50.764 42.9533 59.604ZM51.1823 64.856C51.1823 72.656 55.7583 78.792 64.0263 78.792C68.1343 78.792 71.7743 76.764 72.9183 74.268V78.376H76.9223V40.468H72.9183V55.496C71.2543 52.844 67.5623 50.972 64.0263 50.972C55.8103 50.972 51.1823 57.056 51.1823 64.856ZM73.3343 64.856C73.3343 71.096 69.6943 75.204 64.3383 75.204C58.9303 75.204 55.3423 71.044 55.3423 64.856C55.3423 58.668 58.9303 54.56 64.3383 54.56C69.6943 54.56 73.3343 58.668 73.3343 64.856Z" fill="#EEEEEE"/>
</svg>
