<svg width="90" height="90" viewBox="0 0 90 90" fill="none" xmlns="http://www.w3.org/2000/svg">
<path fill-rule="evenodd" clip-rule="evenodd" d="M0 0H89.9999V89.9999H0V0ZM41.3533 19.6529C39.5173 19.6529 38.1013 18.5129 37.9813 16.7009H39.3613C39.4333 17.6729 40.2853 18.4169 41.3533 18.4169C42.3973 18.4169 43.0813 17.9249 43.0813 17.1809C43.0813 16.5089 42.6013 16.1369 41.9413 15.9449L40.4533 15.5129C39.2893 15.1889 38.3173 14.6009 38.3173 13.1249C38.3173 11.7569 39.5413 10.8089 41.2813 10.8089C43.0453 10.8089 44.2813 11.7689 44.4013 13.3049H43.0213C42.9013 12.5849 42.2773 12.0329 41.2813 12.0329C40.3213 12.0329 39.7453 12.4409 39.7453 13.1129C39.7453 13.7129 40.1773 14.0129 40.8133 14.1929L42.3253 14.6249C43.5253 14.9609 44.5093 15.5489 44.5093 17.1449C44.5093 18.6569 43.2613 19.6529 41.3533 19.6529ZM47.4162 19.5569V12.1289H44.7282V10.9049H51.4962V12.1289H48.8082V19.5569H47.4162ZM55.7549 19.6529C53.7629 19.6529 52.3949 18.5249 52.3949 16.4849V10.9049H53.7869V16.5209C53.7869 17.7449 54.5909 18.4169 55.7549 18.4169C56.9309 18.4169 57.7469 17.7449 57.7469 16.5209V10.9049H59.1389V16.4849C59.1389 18.5249 57.7589 19.6529 55.7549 19.6529ZM60.7287 19.5569V10.9049H63.4287C65.8287 10.9049 67.8207 12.3809 67.8207 15.2249C67.8207 18.0809 65.8287 19.5569 63.4287 19.5569H60.7287ZM63.3447 18.3209C64.9047 18.3209 66.3927 17.4569 66.3927 15.2249C66.3927 13.0049 64.9047 12.1409 63.3447 12.1409H62.1207V18.3209H63.3447ZM69.0607 19.5569V10.9049H70.4527V19.5569H69.0607ZM76.0076 19.6529C73.5116 19.6529 71.6876 17.7809 71.6876 15.2249C71.6876 12.6809 73.5116 10.8089 76.0076 10.8089C78.4916 10.8089 80.3156 12.6689 80.3156 15.2249C80.3156 17.7929 78.4916 19.6529 76.0076 19.6529ZM76.0076 18.4169C77.6876 18.4169 78.8996 17.0729 78.8996 15.2249C78.8996 13.3889 77.6876 12.0329 76.0076 12.0329C74.3156 12.0329 73.1036 13.3889 73.1036 15.2249C73.1036 17.0729 74.3156 18.4169 76.0076 18.4169ZM10.5173 58.6203C10.5173 69.7483 18.2133 77.8083 28.8733 77.8083C39.4293 77.8083 47.1773 69.8003 47.1773 58.6203C47.1773 47.4923 39.4293 39.4843 28.8733 39.4843C18.2133 39.4843 10.5173 47.5443 10.5173 58.6203ZM42.7573 58.6203C42.7573 67.5123 36.9333 73.9603 28.8213 73.9603C20.7613 73.9603 14.9373 67.5123 14.9373 58.6203C14.9373 49.7803 20.7613 43.3323 28.8213 43.3323C36.9333 43.3323 42.7573 49.7803 42.7573 58.6203ZM50.9863 63.8723C50.9863 71.6723 55.5623 77.8083 63.8303 77.8083C67.9383 77.8083 71.5783 75.7803 72.7223 73.2843V77.3923H76.7263V39.4843H72.7223V54.5123C71.0583 51.8603 67.3663 49.9883 63.8303 49.9883C55.6143 49.9883 50.9863 56.0723 50.9863 63.8723ZM73.1383 63.8723C73.1383 70.1123 69.4983 74.2203 64.1423 74.2203C58.7343 74.2203 55.1463 70.0603 55.1463 63.8723C55.1463 57.6843 58.7343 53.5763 64.1423 53.5763C69.4983 53.5763 73.1383 57.6843 73.1383 63.8723Z" fill="#EEEEEE"/>
</svg>
