<svg width="90" height="90" viewBox="0 0 90 90" fill="none" xmlns="http://www.w3.org/2000/svg">
<path fill-rule="evenodd" clip-rule="evenodd" d="M0 0H89.9999V89.9999H0V0ZM56.046 19.5572L59.394 10.9052H60.87L64.23 19.5572H62.73L61.95 17.4932H58.266L57.498 19.5572H56.046ZM58.722 16.2812H61.494L60.102 12.6092L58.722 16.2812ZM65.0763 19.5572V10.9052H68.7003C70.4043 10.9052 71.4723 11.8772 71.4723 13.4612C71.4723 14.4452 70.9683 15.2732 70.0923 15.6572C70.7043 15.9332 71.0043 16.3772 71.1723 17.1572L71.4603 18.5612C71.5203 18.8972 71.6283 19.2932 71.7963 19.5572H70.2963C70.1643 19.3532 70.0803 19.0772 70.0443 18.8252L69.8043 17.4452C69.6243 16.4372 69.0723 16.0052 67.7523 16.0052H66.4683V19.5572H65.0763ZM68.5203 14.7692C69.4803 14.7692 70.0443 14.2892 70.0443 13.4612C70.0443 12.6332 69.4803 12.1412 68.5203 12.1412H66.4683V14.7692H68.5203ZM76.6273 19.6532C74.3832 19.6532 72.3792 18.1892 72.3792 15.2252C72.3792 12.2732 74.4193 10.8092 76.6273 10.8092C78.5953 10.8092 80.1553 11.9012 80.4072 13.8452H78.9433C78.7633 12.7412 77.8272 12.0332 76.6152 12.0332C75.0072 12.0332 73.7952 13.1732 73.7952 15.2252C73.7952 17.2892 75.0072 18.4172 76.6152 18.4172C77.8392 18.4172 78.7393 17.7572 78.9433 16.6172H80.4193C80.0953 18.6212 78.5352 19.6532 76.6273 19.6532ZM31.1938 43.7483C21.3658 53.3683 15.9578 65.7443 15.2298 77.3923H19.4938C20.1178 66.6803 25.3178 54.2523 35.6138 43.8003V39.9003H9.71781V43.7483H31.1938ZM38.0732 62.9523C38.0732 71.5923 43.8732 77.7123 52.2732 77.7123C60.1932 77.7123 65.3132 72.2323 65.3132 63.6723V62.6723H50.2332V65.5523H61.8732C61.7932 70.5923 57.9532 74.7523 52.2732 74.7523C45.8732 74.7523 41.4332 69.8323 41.4332 62.9523C41.4332 55.4323 45.9132 51.1923 52.2732 51.1923C56.8332 51.1923 60.8332 53.5923 61.4732 57.8723H64.8332C63.8332 51.6323 58.3532 48.2323 52.2732 48.2323C43.8732 48.2323 38.0732 54.3523 38.0732 62.9523Z" fill="#EEEEEE"/>
</svg>
