<svg width="90" height="90" viewBox="0 0 90 90" fill="none" xmlns="http://www.w3.org/2000/svg">
<path fill-rule="evenodd" clip-rule="evenodd" d="M0 0H89.9999V89.9999H0V0ZM56.046 19.5572L59.394 10.9052H60.87L64.23 19.5572H62.73L61.95 17.4932H58.266L57.498 19.5572H56.046ZM58.722 16.2812H61.494L60.102 12.6092L58.722 16.2812ZM65.0763 19.5572V10.9052H68.7003C70.4043 10.9052 71.4723 11.8772 71.4723 13.4612C71.4723 14.4452 70.9683 15.2732 70.0923 15.6572C70.7043 15.9332 71.0043 16.3772 71.1723 17.1572L71.4603 18.5612C71.5203 18.8972 71.6283 19.2932 71.7963 19.5572H70.2963C70.1643 19.3532 70.0803 19.0772 70.0443 18.8252L69.8043 17.4452C69.6243 16.4372 69.0723 16.0052 67.7523 16.0052H66.4683V19.5572H65.0763ZM68.5203 14.7692C69.4803 14.7692 70.0443 14.2892 70.0443 13.4612C70.0443 12.6332 69.4803 12.1412 68.5203 12.1412H66.4683V14.7692H68.5203ZM76.6273 19.6532C74.3832 19.6532 72.3792 18.1892 72.3792 15.2252C72.3792 12.2732 74.4193 10.8092 76.6273 10.8092C78.5953 10.8092 80.1553 11.9012 80.4072 13.8452H78.9433C78.7633 12.7412 77.8272 12.0332 76.6152 12.0332C75.0072 12.0332 73.7952 13.1732 73.7952 15.2252C73.7952 17.2892 75.0072 18.4172 76.6152 18.4172C77.8392 18.4172 78.7393 17.7572 78.9433 16.6172H80.4193C80.0953 18.6212 78.5352 19.6532 76.6273 19.6532ZM12.9938 39.9003V77.3923H27.1378C34.8858 77.3923 39.2538 73.5963 39.2538 66.5243C39.2538 61.6883 36.8618 58.3083 32.6498 56.8523C35.8738 55.5523 37.6938 52.8483 37.6938 49.5203C37.6938 43.2803 33.5338 39.9003 26.3058 39.9003H12.9938ZM34.8858 66.4203C34.8858 71.0483 31.8698 73.5443 26.2538 73.5443H17.2578V59.3483H26.2538C31.8698 59.3483 34.8858 61.8443 34.8858 66.4203ZM33.2738 49.6243C33.2738 53.4203 30.7778 55.5003 26.0978 55.5003H17.2578V43.6443H26.0978C30.7258 43.6443 33.2738 45.7763 33.2738 49.6243ZM55.9519 49.9883C47.9959 49.9883 43.0559 56.0723 43.0559 63.8723C43.0559 71.7243 48.0999 77.8083 56.0559 77.8083C61.9839 77.8083 66.8199 74.7403 67.8079 68.8643H63.9599C63.3359 72.3483 60.0079 74.2723 56.0559 74.2723C50.8559 74.2723 47.3199 70.5803 47.1119 64.3923H67.9119C67.9119 64.3923 68.0159 63.4043 68.0159 62.5723C68.0679 55.4483 63.3879 49.9883 55.9519 49.9883ZM63.7519 61.0123H47.3719C48.2039 56.3843 51.3239 53.4203 55.9519 53.4203C60.6839 53.4203 63.4399 56.6443 63.7519 61.0123Z" fill="#EEEEEE"/>
</svg>
