<svg width="91" height="91" viewBox="0 0 91 91" fill="none" xmlns="http://www.w3.org/2000/svg">
<path fill-rule="evenodd" clip-rule="evenodd" d="M0.0548096 0.862305H90.1568V90.9643H0.0548096V0.862305ZM56.1924 20.4292L59.5404 11.7772H61.0164L64.3764 20.4292H62.8764L62.0964 18.3652H58.4124L57.6444 20.4292H56.1924ZM58.8684 17.1532H61.6404L60.2484 13.4812L58.8684 17.1532ZM65.2227 20.4292V11.7772H68.8467C70.5507 11.7772 71.6187 12.7492 71.6187 14.3332C71.6187 15.3172 71.1147 16.1452 70.2387 16.5292C70.8507 16.8052 71.1507 17.2492 71.3187 18.0292L71.6067 19.4332C71.6667 19.7692 71.7747 20.1652 71.9426 20.4292H70.4426C70.3107 20.2252 70.2267 19.9492 70.1907 19.6972L69.9507 18.3172C69.7707 17.3092 69.2187 16.8772 67.8987 16.8772H66.6147V20.4292H65.2227ZM68.6667 15.6412C69.6267 15.6412 70.1907 15.1612 70.1907 14.3332C70.1907 13.5052 69.6267 13.0132 68.6667 13.0132H66.6147V15.6412H68.6667ZM76.7736 20.5252C74.5296 20.5252 72.5256 19.0612 72.5256 16.0972C72.5256 13.1452 74.5656 11.6812 76.7736 11.6812C78.7416 11.6812 80.3016 12.7732 80.5536 14.7172H79.0896C78.9096 13.6132 77.9736 12.9052 76.7616 12.9052C75.1536 12.9052 73.9416 14.0452 73.9416 16.0972C73.9416 18.1612 75.1536 19.2892 76.7616 19.2892C77.9856 19.2892 78.8856 18.6292 79.0896 17.4892H80.5656C80.2416 19.4932 78.6816 20.5252 76.7736 20.5252ZM13.0588 40.7971V78.2891H27.2028C34.9508 78.2891 39.3188 74.4931 39.3188 67.4211C39.3188 62.5851 36.9268 59.2051 32.7148 57.7491C35.9388 56.4491 37.7588 53.7451 37.7588 50.4171C37.7588 44.1771 33.5988 40.7971 26.3708 40.7971H13.0588ZM34.9508 67.3171C34.9508 71.9451 31.9348 74.4411 26.3188 74.4411H17.3228V60.2451H26.3188C31.9348 60.2451 34.9508 62.7411 34.9508 67.3171ZM33.3388 50.5211C33.3388 54.3171 30.8428 56.3971 26.1628 56.3971H17.3228V44.5411H26.1628C30.7908 44.5411 33.3388 46.6731 33.3388 50.5211ZM56.0169 50.8851C48.0609 50.8851 43.1209 56.9691 43.1209 64.7691C43.1209 72.6211 48.1649 78.7051 56.1209 78.7051C62.0489 78.7051 66.8849 75.6371 67.8729 69.7611H64.0249C63.4009 73.2451 60.0729 75.1691 56.1209 75.1691C50.9209 75.1691 47.3849 71.4771 47.1769 65.2891H67.9769C67.9769 65.2891 68.0809 64.3011 68.0809 63.4691C68.1329 56.3451 63.4529 50.8851 56.0169 50.8851ZM63.8169 61.9091H47.4369C48.2689 57.2811 51.3889 54.3171 56.0169 54.3171C60.7489 54.3171 63.5049 57.5411 63.8169 61.9091Z" fill="#EEEEEE"/>
</svg>
