<svg width="91" height="91" viewBox="0 0 91 91" fill="none" xmlns="http://www.w3.org/2000/svg">
<path fill-rule="evenodd" clip-rule="evenodd" d="M0.0222168 0.862305H90.1242V90.9643H0.0222168V0.862305ZM56.1598 20.4292L59.5078 11.7772H60.9838L64.3438 20.4292H62.8438L62.0638 18.3652H58.3798L57.6118 20.4292H56.1598ZM58.8358 17.1532H61.6078L60.2158 13.4812L58.8358 17.1532ZM65.1901 20.4292V11.7772H68.8141C70.5181 11.7772 71.5861 12.7492 71.5861 14.3332C71.5861 15.3172 71.0821 16.1452 70.2061 16.5292C70.8181 16.8052 71.1181 17.2492 71.2861 18.0292L71.5741 19.4332C71.6341 19.7692 71.7421 20.1652 71.9101 20.4292H70.4101C70.2781 20.2252 70.1941 19.9492 70.1581 19.6972L69.9181 18.3172C69.7381 17.3092 69.1861 16.8772 67.8661 16.8772H66.5821V20.4292H65.1901ZM68.6341 15.6412C69.5941 15.6412 70.1581 15.1612 70.1581 14.3332C70.1581 13.5052 69.5941 13.0132 68.6341 13.0132H66.5821V15.6412H68.6341ZM76.741 20.5252C74.497 20.5252 72.493 19.0612 72.493 16.0972C72.493 13.1452 74.533 11.6812 76.741 11.6812C78.709 11.6812 80.269 12.7732 80.521 14.7172H79.057C78.877 13.6132 77.941 12.9052 76.729 12.9052C75.121 12.9052 73.909 14.0452 73.909 16.0972C73.909 18.1612 75.121 19.2892 76.729 19.2892C77.953 19.2892 78.853 18.6292 79.057 17.4892H80.533C80.209 19.4932 78.649 20.5252 76.741 20.5252ZM13.0262 40.7971V78.2891H36.1662V74.3891H17.2902V40.7971H13.0262ZM37.0453 64.7691C37.0453 73.1411 42.2973 78.7051 50.0973 78.7051C55.9733 78.7051 60.4453 75.5331 61.6413 68.7211H57.6893C56.9613 72.9331 54.0493 75.1171 50.1493 75.1171C44.7413 75.1171 41.2053 71.0091 41.2053 64.7691C41.2053 58.5811 44.6893 54.4731 50.1493 54.4731C54.0493 54.4731 57.0133 56.9171 57.6373 60.6091H61.5373C60.5493 54.2651 56.0253 50.8851 50.0973 50.8851C42.2973 50.8851 37.0453 56.4491 37.0453 64.7691Z" fill="#EEEEEE"/>
</svg>
