<svg width="90" height="90" viewBox="0 0 90 90" fill="none" xmlns="http://www.w3.org/2000/svg">
<path fill-rule="evenodd" clip-rule="evenodd" d="M0 0H89.9999V89.9999H0V0ZM56.046 19.5572L59.394 10.9052H60.87L64.23 19.5572H62.73L61.95 17.4932H58.266L57.498 19.5572H56.046ZM58.722 16.2812H61.494L60.102 12.6092L58.722 16.2812ZM65.0763 19.5572V10.9052H68.7003C70.4043 10.9052 71.4723 11.8772 71.4723 13.4612C71.4723 14.4452 70.9683 15.2732 70.0923 15.6572C70.7043 15.9332 71.0043 16.3772 71.1723 17.1572L71.4603 18.5612C71.5203 18.8972 71.6283 19.2932 71.7963 19.5572H70.2963C70.1643 19.3532 70.0803 19.0772 70.0443 18.8252L69.8043 17.4452C69.6243 16.4372 69.0723 16.0052 67.7523 16.0052H66.4683V19.5572H65.0763ZM68.5203 14.7692C69.4803 14.7692 70.0443 14.2892 70.0443 13.4612C70.0443 12.6332 69.4803 12.1412 68.5203 12.1412H66.4683V14.7692H68.5203ZM76.6273 19.6532C74.3832 19.6532 72.3792 18.1892 72.3792 15.2252C72.3792 12.2732 74.4193 10.8092 76.6273 10.8092C78.5953 10.8092 80.1553 11.9012 80.4072 13.8452H78.9433C78.7633 12.7412 77.8272 12.0332 76.6152 12.0332C75.0072 12.0332 73.7952 13.1732 73.7952 15.2252C73.7952 17.2892 75.0072 18.4172 76.6152 18.4172C77.8392 18.4172 78.7393 17.7572 78.9433 16.6172H80.4193C80.0953 18.6212 78.5352 19.6532 76.6273 19.6532ZM12.9938 39.9003V77.3923H36.1338V73.4923H17.2578V39.9003H12.9938ZM37.0129 63.8723C37.0129 72.2443 42.2649 77.8083 50.0649 77.8083C55.9409 77.8083 60.4129 74.6363 61.6089 67.8243H57.6569C56.9289 72.0363 54.0169 74.2203 50.1169 74.2203C44.7089 74.2203 41.1729 70.1123 41.1729 63.8723C41.1729 57.6843 44.6569 53.5763 50.1169 53.5763C54.0169 53.5763 56.9809 56.0203 57.6049 59.7123H61.5049C60.5169 53.3683 55.9929 49.9883 50.0649 49.9883C42.2649 49.9883 37.0129 55.5523 37.0129 63.8723Z" fill="#EEEEEE"/>
</svg>
