<svg width="90" height="90" viewBox="0 0 90 90" fill="none" xmlns="http://www.w3.org/2000/svg">
<path fill-rule="evenodd" clip-rule="evenodd" d="M0 0H89.9999V89.9999H0V0ZM56.046 19.5572L59.394 10.9052H60.87L64.23 19.5572H62.73L61.95 17.4932H58.266L57.498 19.5572H56.046ZM58.722 16.2812H61.494L60.102 12.6092L58.722 16.2812ZM65.0763 19.5572V10.9052H68.7003C70.4043 10.9052 71.4723 11.8772 71.4723 13.4612C71.4723 14.4452 70.9683 15.2732 70.0923 15.6572C70.7043 15.9332 71.0043 16.3772 71.1723 17.1572L71.4603 18.5612C71.5203 18.8972 71.6283 19.2932 71.7963 19.5572H70.2963C70.1643 19.3532 70.0803 19.0772 70.0443 18.8252L69.8043 17.4452C69.6243 16.4372 69.0723 16.0052 67.7523 16.0052H66.4683V19.5572H65.0763ZM68.5203 14.7692C69.4803 14.7692 70.0443 14.2892 70.0443 13.4612C70.0443 12.6332 69.4803 12.1412 68.5203 12.1412H66.4683V14.7692H68.5203ZM76.6273 19.6532C74.3832 19.6532 72.3792 18.1892 72.3792 15.2252C72.3792 12.2732 74.4193 10.8092 76.6273 10.8092C78.5953 10.8092 80.1553 11.9012 80.4072 13.8452H78.9433C78.7633 12.7412 77.8272 12.0332 76.6152 12.0332C75.0072 12.0332 73.7952 13.1732 73.7952 15.2252C73.7952 17.2892 75.0072 18.4172 76.6152 18.4172C77.8392 18.4172 78.7393 17.7572 78.9433 16.6172H80.4193C80.0953 18.6212 78.5352 19.6532 76.6273 19.6532ZM12.6088 43.1684V77.0554H16.4628V54.7304C16.4628 51.4404 16.2748 49.3254 16.2748 49.3254C16.2748 49.3254 17.0268 51.3464 18.3428 54.3074L28.5418 77.0554H32.0198L42.1718 54.3074C43.4878 51.3464 44.2398 49.3254 44.2398 49.3254C44.2398 49.3254 44.0518 51.4404 44.0518 54.7304V77.0554H47.9058V43.1684H43.2998L32.2078 67.9844C30.8918 70.9454 30.3278 72.9664 30.3278 72.9664C30.3278 72.9664 29.7638 70.9454 28.4478 67.9844L17.3558 43.1684H12.6088ZM52.2897 60.0884C52.2897 70.4284 56.5667 77.4314 65.0267 77.4314C73.4397 77.4314 77.7637 70.4754 77.7637 60.0884C77.7637 49.7484 73.4397 42.7924 65.0267 42.7924C56.5667 42.7924 52.2897 49.7954 52.2897 60.0884ZM73.8157 60.0884C73.8157 68.3604 70.7607 73.9534 65.0267 73.9534C59.2927 73.9534 56.2377 68.4074 56.2377 60.0884C56.2377 51.8164 59.2927 46.2704 65.0267 46.2704C70.7607 46.2704 73.8157 51.8634 73.8157 60.0884Z" fill="#EEEEEE"/>
</svg>
