<svg width="91" height="91" viewBox="0 0 91 91" fill="none" xmlns="http://www.w3.org/2000/svg">
<path fill-rule="evenodd" clip-rule="evenodd" d="M0.613525 0.862305H90.7155V90.9643H0.613525V0.862305ZM56.7511 20.4292L60.0991 11.7772H61.5751L64.9351 20.4292H63.4351L62.6551 18.3652H58.9711L58.2031 20.4292H56.7511ZM59.4271 17.1532H62.1991L60.8071 13.4812L59.4271 17.1532ZM65.7814 20.4292V11.7772H69.4054C71.1094 11.7772 72.1774 12.7492 72.1774 14.3332C72.1774 15.3172 71.6734 16.1452 70.7974 16.5292C71.4094 16.8052 71.7094 17.2492 71.8774 18.0292L72.1654 19.4332C72.2254 19.7692 72.3334 20.1652 72.5014 20.4292H71.0014C70.8694 20.2252 70.7854 19.9492 70.7494 19.6972L70.5094 18.3172C70.3294 17.3092 69.7774 16.8772 68.4574 16.8772H67.1734V20.4292H65.7814ZM69.2254 15.6412C70.1854 15.6412 70.7494 15.1612 70.7494 14.3332C70.7494 13.5052 70.1854 13.0132 69.2254 13.0132H67.1734V15.6412H69.2254ZM77.3323 20.5252C75.0883 20.5252 73.0843 19.0612 73.0843 16.0972C73.0843 13.1452 75.1243 11.6812 77.3323 11.6812C79.3003 11.6812 80.8603 12.7732 81.1123 14.7172H79.6483C79.4683 13.6132 78.5323 12.9052 77.3203 12.9052C75.7123 12.9052 74.5003 14.0452 74.5003 16.0972C74.5003 18.1612 75.7123 19.2892 77.3203 19.2892C78.5443 19.2892 79.4443 18.6292 79.6483 17.4892H81.1243C80.8003 19.4932 79.2403 20.5252 77.3323 20.5252ZM13.2325 44.0694V77.9564H17.0865V55.6314C17.0865 52.3414 16.8985 50.2264 16.8985 50.2264C16.8985 50.2264 17.6505 52.2474 18.9665 55.2084L29.1655 77.9564H32.6435L42.7955 55.2084C44.1115 52.2474 44.8635 50.2264 44.8635 50.2264C44.8635 50.2264 44.6755 52.3414 44.6755 55.6314V77.9564H48.5295V44.0694H43.9235L32.8315 68.8854C31.5155 71.8464 30.9515 73.8674 30.9515 73.8674C30.9515 73.8674 30.3875 71.8464 29.0715 68.8854L17.9795 44.0694H13.2325ZM52.9134 60.9894C52.9134 71.3294 57.1904 78.3324 65.6504 78.3324C74.0634 78.3324 78.3874 71.3764 78.3874 60.9894C78.3874 50.6494 74.0634 43.6934 65.6504 43.6934C57.1904 43.6934 52.9134 50.6964 52.9134 60.9894ZM74.4394 60.9894C74.4394 69.2614 71.3844 74.8544 65.6504 74.8544C59.9164 74.8544 56.8614 69.3084 56.8614 60.9894C56.8614 52.7174 59.9164 47.1714 65.6504 47.1714C71.3844 47.1714 74.4394 52.7644 74.4394 60.9894Z" fill="#EEEEEE"/>
</svg>
