<svg width="91" height="91" viewBox="0 0 91 91" fill="none" xmlns="http://www.w3.org/2000/svg">
<path fill-rule="evenodd" clip-rule="evenodd" d="M0.786621 0.862305H90.8886V90.9643H0.786621V0.862305ZM56.9242 20.4292L60.2722 11.7772H61.7482L65.1082 20.4292H63.6082L62.8282 18.3652H59.1442L58.3762 20.4292H56.9242ZM59.6002 17.1532H62.3722L60.9802 13.4812L59.6002 17.1532ZM65.9545 20.4292V11.7772H69.5785C71.2825 11.7772 72.3505 12.7492 72.3505 14.3332C72.3505 15.3172 71.8465 16.1452 70.9705 16.5292C71.5825 16.8052 71.8825 17.2492 72.0505 18.0292L72.3385 19.4332C72.3985 19.7692 72.5065 20.1652 72.6745 20.4292H71.1745C71.0425 20.2252 70.9585 19.9492 70.9225 19.6972L70.6825 18.3172C70.5025 17.3092 69.9505 16.8772 68.6305 16.8772H67.3465V20.4292H65.9545ZM69.3985 15.6412C70.3585 15.6412 70.9225 15.1612 70.9225 14.3332C70.9225 13.5052 70.3585 13.0132 69.3985 13.0132H67.3465V15.6412H69.3985ZM77.5054 20.5252C75.2614 20.5252 73.2574 19.0612 73.2574 16.0972C73.2574 13.1452 75.2974 11.6812 77.5054 11.6812C79.4734 11.6812 81.0334 12.7732 81.2854 14.7172H79.8214C79.6414 13.6132 78.7054 12.9052 77.4934 12.9052C75.8854 12.9052 74.6734 14.0452 74.6734 16.0972C74.6734 18.1612 75.8854 19.2892 77.4934 19.2892C78.7174 19.2892 79.6174 18.6292 79.8214 17.4892H81.2974C80.9734 19.4932 79.4134 20.5252 77.5054 20.5252ZM13.7906 40.7971V78.2891H18.0546V52.9131C18.0546 49.1171 17.7946 46.5691 17.7946 46.5691C17.7946 46.5691 18.9386 48.8571 21.0186 52.0291L37.8146 78.2891H42.7026V40.7971H38.4386V66.2251C38.4386 70.0211 38.6986 72.5691 38.6986 72.5691C38.6986 72.5691 37.5546 70.2811 35.4746 67.1091L18.6786 40.7971H13.7906ZM50.0375 51.3011V78.2891H54.0415V51.3011H50.0375ZM49.6735 40.7971V46.2571H54.4055V40.7971H49.6735Z" fill="#EEEEEE"/>
</svg>
