<svg width="90" height="90" viewBox="0 0 90 90" fill="none" xmlns="http://www.w3.org/2000/svg">
<path fill-rule="evenodd" clip-rule="evenodd" d="M0 0H89.9999V89.9999H0V0ZM56.046 19.5572L59.394 10.9052H60.87L64.23 19.5572H62.73L61.95 17.4932H58.266L57.498 19.5572H56.046ZM58.722 16.2812H61.494L60.102 12.6092L58.722 16.2812ZM65.0763 19.5572V10.9052H68.7003C70.4043 10.9052 71.4723 11.8772 71.4723 13.4612C71.4723 14.4452 70.9683 15.2732 70.0923 15.6572C70.7043 15.9332 71.0043 16.3772 71.1723 17.1572L71.4603 18.5612C71.5203 18.8972 71.6283 19.2932 71.7963 19.5572H70.2963C70.1643 19.3532 70.0803 19.0772 70.0443 18.8252L69.8043 17.4452C69.6243 16.4372 69.0723 16.0052 67.7523 16.0052H66.4683V19.5572H65.0763ZM68.5203 14.7692C69.4803 14.7692 70.0443 14.2892 70.0443 13.4612C70.0443 12.6332 69.4803 12.1412 68.5203 12.1412H66.4683V14.7692H68.5203ZM76.6273 19.6532C74.3832 19.6532 72.3792 18.1892 72.3792 15.2252C72.3792 12.2732 74.4193 10.8092 76.6273 10.8092C78.5953 10.8092 80.1553 11.9012 80.4072 13.8452H78.9433C78.7633 12.7412 77.8272 12.0332 76.6152 12.0332C75.0072 12.0332 73.7952 13.1732 73.7952 15.2252C73.7952 17.2892 75.0072 18.4172 76.6152 18.4172C77.8392 18.4172 78.7393 17.7572 78.9433 16.6172H80.4193C80.0953 18.6212 78.5352 19.6532 76.6273 19.6532ZM12.9938 39.9003V77.3923H17.2578V61.4283H27.8658C35.1978 61.4283 39.6178 57.2683 39.6178 50.6123C39.6178 43.9563 35.1978 39.9003 27.8658 39.9003H12.9938ZM35.2498 50.6123C35.2498 54.9283 32.3378 57.5283 27.5538 57.5283H17.2578V43.7483H27.5538C32.3378 43.7483 35.2498 46.3483 35.2498 50.6123ZM41.3293 63.8723C41.3293 72.2443 46.5813 77.8083 54.3813 77.8083C60.2573 77.8083 64.7293 74.6363 65.9253 67.8243H61.9733C61.2453 72.0363 58.3333 74.2203 54.4333 74.2203C49.0253 74.2203 45.4893 70.1123 45.4893 63.8723C45.4893 57.6843 48.9733 53.5763 54.4333 53.5763C58.3333 53.5763 61.2973 56.0203 61.9213 59.7123H65.8213C64.8333 53.3683 60.3093 49.9883 54.3813 49.9883C46.5813 49.9883 41.3293 55.5523 41.3293 63.8723Z" fill="#EEEEEE"/>
</svg>
