<svg width="91" height="91" viewBox="0 0 91 91" fill="none" xmlns="http://www.w3.org/2000/svg">
<path fill-rule="evenodd" clip-rule="evenodd" d="M0.322876 0.862305H90.4248V90.9643H0.322876V0.862305ZM56.4604 20.4292L59.8084 11.7772H61.2844L64.6444 20.4292H63.1444L62.3644 18.3652H58.6804L57.9124 20.4292H56.4604ZM59.1364 17.1532H61.9084L60.5164 13.4812L59.1364 17.1532ZM65.4907 20.4292V11.7772H69.1147C70.8187 11.7772 71.8867 12.7492 71.8867 14.3332C71.8867 15.3172 71.3827 16.1452 70.5067 16.5292C71.1187 16.8052 71.4187 17.2492 71.5867 18.0292L71.8747 19.4332C71.9347 19.7692 72.0427 20.1652 72.2107 20.4292H70.7107C70.5787 20.2252 70.4947 19.9492 70.4587 19.6972L70.2187 18.3172C70.0387 17.3092 69.4867 16.8772 68.1667 16.8772H66.8827V20.4292H65.4907ZM68.9347 15.6412C69.8947 15.6412 70.4587 15.1612 70.4587 14.3332C70.4587 13.5052 69.8947 13.0132 68.9347 13.0132H66.8827V15.6412H68.9347ZM77.0417 20.5252C74.7977 20.5252 72.7937 19.0612 72.7937 16.0972C72.7937 13.1452 74.8337 11.6812 77.0417 11.6812C79.0097 11.6812 80.5697 12.7732 80.8217 14.7172H79.3577C79.1777 13.6132 78.2417 12.9052 77.0297 12.9052C75.4217 12.9052 74.2097 14.0452 74.2097 16.0972C74.2097 18.1612 75.4217 19.2892 77.0297 19.2892C78.2537 19.2892 79.1537 18.6292 79.3577 17.4892H80.8337C80.5097 19.4932 78.9497 20.5252 77.0417 20.5252ZM13.3269 40.7971V78.2891H17.5909V62.3251H28.1989C35.5309 62.3251 39.9509 58.1651 39.9509 51.5091C39.9509 44.8531 35.5309 40.7971 28.1989 40.7971H13.3269ZM35.5829 51.5091C35.5829 55.8251 32.6709 58.4251 27.8869 58.4251H17.5909V44.6451H27.8869C32.6709 44.6451 35.5829 47.2451 35.5829 51.5091ZM41.6624 64.7691C41.6624 73.1411 46.9144 78.7051 54.7144 78.7051C60.5904 78.7051 65.0624 75.5331 66.2584 68.7211H62.3064C61.5784 72.9331 58.6664 75.1171 54.7664 75.1171C49.3584 75.1171 45.8224 71.0091 45.8224 64.7691C45.8224 58.5811 49.3064 54.4731 54.7664 54.4731C58.6664 54.4731 61.6304 56.9171 62.2544 60.6091H66.1544C65.1664 54.2651 60.6424 50.8851 54.7144 50.8851C46.9144 50.8851 41.6624 56.4491 41.6624 64.7691Z" fill="#EEEEEE"/>
</svg>
