<svg width="91" height="91" viewBox="0 0 91 91" fill="none" xmlns="http://www.w3.org/2000/svg">
<path fill-rule="evenodd" clip-rule="evenodd" d="M0.824219 0.862305H90.9262V90.9643H0.824219V0.862305ZM56.9618 20.4292L60.3098 11.7772H61.7858L65.1458 20.4292H63.6458L62.8658 18.3652H59.1818L58.4138 20.4292H56.9618ZM59.6378 17.1532H62.4098L61.0178 13.4812L59.6378 17.1532ZM65.9921 20.4292V11.7772H69.6161C71.3201 11.7772 72.3881 12.7492 72.3881 14.3332C72.3881 15.3172 71.8841 16.1452 71.0081 16.5292C71.6201 16.8052 71.9201 17.2492 72.0881 18.0292L72.3761 19.4332C72.4361 19.7692 72.5441 20.1652 72.7121 20.4292H71.2121C71.0801 20.2252 70.9961 19.9492 70.9601 19.6972L70.7201 18.3172C70.5401 17.3092 69.9881 16.8772 68.6681 16.8772H67.3841V20.4292H65.9921ZM69.4361 15.6412C70.3961 15.6412 70.9601 15.1612 70.9601 14.3332C70.9601 13.5052 70.3961 13.0132 69.4361 13.0132H67.3841V15.6412H69.4361ZM77.543 20.5252C75.299 20.5252 73.295 19.0612 73.295 16.0972C73.295 13.1452 75.335 11.6812 77.543 11.6812C79.511 11.6812 81.071 12.7732 81.323 14.7172H79.859C79.679 13.6132 78.743 12.9052 77.531 12.9052C75.923 12.9052 74.711 14.0452 74.711 16.0972C74.711 18.1612 75.923 19.2892 77.531 19.2892C78.755 19.2892 79.655 18.6292 79.859 17.4892H81.335C81.011 19.4932 79.451 20.5252 77.543 20.5252ZM13.8282 40.7971V78.2891H18.0922V62.1691H25.1642C31.5082 62.1691 34.0562 64.1451 34.8882 68.8251L36.0322 75.3251C36.1882 76.2091 36.4482 77.3531 37.1242 78.2891H41.5962C40.8533 77.1004 40.535 75.6287 40.2817 74.4581C40.2691 74.3997 40.2566 74.3419 40.2442 74.2851L38.9962 67.8891C38.2682 64.0931 36.9682 62.1691 34.0042 61.0771C38.2162 59.5691 40.4522 56.1371 40.4522 51.5091C40.4522 44.8011 36.0322 40.7971 28.7002 40.7971H13.8282ZM36.0842 51.5091C36.0842 55.7731 33.1722 58.3211 28.3882 58.3211H18.0922V44.6451H28.3882C33.1722 44.6451 36.0842 47.2451 36.0842 51.5091ZM46.5204 51.3011V78.2891H50.5244V66.4331C50.5244 59.1011 54.0084 54.5251 59.2084 54.5251C63.1604 54.5251 65.5524 57.2291 65.5524 60.9731V78.2891H69.5564V60.3491C69.5564 54.6291 65.5524 50.8851 59.9884 50.8851C55.9844 50.8851 52.5524 53.0691 50.5244 56.6571V51.3011H46.5204Z" fill="#EEEEEE"/>
</svg>
