<svg width="90" height="90" viewBox="0 0 90 90" fill="none" xmlns="http://www.w3.org/2000/svg">
<path fill-rule="evenodd" clip-rule="evenodd" d="M0 0H89.9999V89.9999H0V0ZM56.046 19.5572L59.394 10.9052H60.87L64.23 19.5572H62.73L61.95 17.4932H58.266L57.498 19.5572H56.046ZM58.722 16.2812H61.494L60.102 12.6092L58.722 16.2812ZM65.0763 19.5572V10.9052H68.7003C70.4043 10.9052 71.4723 11.8772 71.4723 13.4612C71.4723 14.4452 70.9683 15.2732 70.0923 15.6572C70.7043 15.9332 71.0043 16.3772 71.1723 17.1572L71.4603 18.5612C71.5203 18.8972 71.6283 19.2932 71.7963 19.5572H70.2963C70.1643 19.3532 70.0803 19.0772 70.0443 18.8252L69.8043 17.4452C69.6243 16.4372 69.0723 16.0052 67.7523 16.0052H66.4683V19.5572H65.0763ZM68.5203 14.7692C69.4803 14.7692 70.0443 14.2892 70.0443 13.4612C70.0443 12.6332 69.4803 12.1412 68.5203 12.1412H66.4683V14.7692H68.5203ZM76.6273 19.6532C74.3832 19.6532 72.3792 18.1892 72.3792 15.2252C72.3792 12.2732 74.4193 10.8092 76.6273 10.8092C78.5953 10.8092 80.1553 11.9012 80.4072 13.8452H78.9433C78.7633 12.7412 77.8272 12.0332 76.6152 12.0332C75.0072 12.0332 73.7952 13.1732 73.7952 15.2252C73.7952 17.2892 75.0072 18.4172 76.6152 18.4172C77.8392 18.4172 78.7393 17.7572 78.9433 16.6172H80.4193C80.0953 18.6212 78.5352 19.6532 76.6273 19.6532ZM12.9938 39.9003V77.3923H17.2578V61.2723H24.3298C30.6738 61.2723 33.2218 63.2483 34.0538 67.9283L35.1978 74.4283C35.3538 75.3123 35.6138 76.4563 36.2898 77.3923H40.7618C40.0189 76.2037 39.7005 74.732 39.4473 73.5613C39.4347 73.5029 39.4222 73.4452 39.4098 73.3883L38.1618 66.9923C37.4338 63.1963 36.1338 61.2723 33.1698 60.1803C37.3818 58.6723 39.6178 55.2403 39.6178 50.6123C39.6178 43.9043 35.1978 39.9003 27.8658 39.9003H12.9938ZM35.2498 50.6123C35.2498 54.8763 32.3378 57.4243 27.5538 57.4243H17.2578V43.7483H27.5538C32.3378 43.7483 35.2498 46.3483 35.2498 50.6123ZM45.686 50.4043V77.3923H49.69V65.5363C49.69 58.2043 53.174 53.6283 58.374 53.6283C62.326 53.6283 64.718 56.3323 64.718 60.0763V77.3923H68.722V59.4523C68.722 53.7323 64.718 49.9883 59.154 49.9883C55.15 49.9883 51.718 52.1723 49.69 55.7603V50.4043H45.686Z" fill="#EEEEEE"/>
</svg>
