<svg width="500" height="360" viewBox="0 0 500 360" fill="none" xmlns="http://www.w3.org/2000/svg">
<path d="M436.239 201.678V193.703H434.478C434.347 195.076 434.282 195.73 433.173 195.73C432.651 195.73 432.39 195.599 431.738 195.207C430.694 194.618 428.998 194.03 426.846 194.03C420.975 194.03 418.497 198.344 418.497 202.397C418.497 208.541 422.932 209.979 426.911 211.286C429.455 212.005 433.891 212.593 433.891 215.861C433.891 217.888 431.868 219.849 428.607 219.849C426.585 219.849 424.432 219.064 422.867 217.561C420.714 215.6 420.388 213.312 419.997 211.351H418.17V220.764H419.997C419.932 220.372 419.866 219.13 420.975 219.13C421.432 219.13 422.019 219.456 422.997 220.045C423.324 220.306 425.607 221.548 428.477 221.548C435.195 221.548 438 216.254 438 212.136C438 206.384 433.238 205.011 430.238 204.161L428.411 203.639C426.65 203.246 424.628 202.462 424.041 202.004C423.324 201.351 422.867 200.37 422.867 199.455C422.867 197.494 424.628 195.795 427.237 195.795C428.803 195.795 430.629 196.318 431.868 197.233C433.695 198.606 434.021 200.044 434.478 201.678H436.239Z" fill="white"/>
<path d="M398.471 200.959C398.667 198.409 399.058 195.468 403.429 195.468C407.473 195.468 407.669 198.475 407.799 200.697V204.292H398.406L398.471 200.959ZM404.733 219.587C398.537 219.587 398.341 213.378 398.276 211.025C398.21 209.325 398.276 207.691 398.276 206.122H416.018C415.561 203.312 415.17 200.566 412.691 197.887C410.343 195.337 406.886 194.03 403.429 194.03C395.34 194.03 389.665 199.913 389.665 207.691C389.665 215.273 395.079 221.548 403.885 221.548C411.452 221.548 414.257 216.384 415.692 213.639L414.192 212.855C412.626 215.404 410.017 219.587 404.733 219.587Z" fill="white"/>
<path d="M375.967 183.311C375.967 185.794 377.924 187.821 380.403 187.821C382.947 187.821 384.904 185.794 384.904 183.311C384.904 180.827 382.947 178.801 380.403 178.801C377.924 178.801 375.967 180.827 375.967 183.311Z" fill="white"/>
<path d="M373.163 196.383H377.402V219.195H373.163V220.764H389.144V219.195H385.165V194.226C382.229 194.422 380.599 194.488 379.098 194.618C377.468 194.684 375.967 194.749 373.163 194.749V196.383Z" fill="white"/>
<path d="M358.682 219.456C356.334 219.456 354.051 217.43 352.876 215.142C351.702 212.855 351.572 210.306 351.572 207.822C351.572 200.893 353.855 198.606 355.29 197.494C356.203 196.841 357.247 196.318 358.421 196.318C361.356 196.318 362.335 198.867 362.791 200.566C363.378 202.723 363.444 204.946 363.509 207.234C363.639 214.75 362.856 219.456 358.682 219.456ZM359.921 194.03C355.616 194.03 353.594 196.514 351.898 198.54L352.029 194.226C348.05 194.749 347.462 194.749 339.961 194.749V196.449H344.005V237.301H339.961V239H356.921V237.301H351.898V217.038C353.594 219.064 355.747 221.548 360.313 221.548C365.531 221.548 368.205 218.345 369.379 216.777C371.793 213.508 372.119 210.502 372.119 208.214C372.119 198.083 365.205 194.03 359.921 194.03Z" fill="white"/>
<path d="M325.546 220.241C322.806 220.241 321.11 218.607 320.393 217.103C319.871 216.254 319.218 214.946 319.218 207.56C319.218 202.07 319.349 195.599 325.48 195.599C327.959 195.599 329.786 196.775 330.829 198.998C331.155 199.782 331.547 200.697 331.612 207.299C331.677 213.378 331.677 220.241 325.546 220.241ZM340.026 207.234C339.439 197.364 331.155 194.03 325.546 194.03C319.153 194.03 310.608 198.017 310.608 207.626C310.608 214.62 315.696 221.483 325.676 221.483C334.743 221.483 338.461 215.404 339.309 212.985C339.961 211.221 340.157 209.129 340.026 207.234Z" fill="white"/>
<path d="M297.106 194.226C293.062 194.618 289.018 194.749 284.908 194.749V196.383H289.148V219.195H284.908V220.764H302.129V219.195H296.975V207.364C296.975 204.88 297.432 201.482 299.454 198.736C299.454 198.736 301.411 196.187 302.259 196.187C302.716 196.187 303.172 196.514 303.172 196.841C303.172 197.037 302.977 197.168 302.846 197.429C302.455 197.952 302.063 198.606 302.063 199.717C302.063 201.547 303.498 203.442 306.042 203.442C309.173 203.442 310.152 200.959 310.152 199.194C310.152 196.775 308.586 194.03 304.738 194.03C302.194 194.03 300.367 195.076 298.932 196.775C298.215 197.56 297.628 198.54 296.975 199.586L297.106 194.226Z" fill="white"/>
<path d="M263.187 176.447C262.143 176.578 260.904 176.774 257.447 176.97C254.903 177.101 252.75 177.101 251.12 177.101V178.801H255.555V219.195H251.12V220.764H266.97V219.195H263.122V207.822C263.187 204.292 263.252 200.305 266.84 197.887C267.753 197.168 268.992 196.775 270.362 196.775C273.754 196.775 274.08 199.586 274.015 202.723V219.195H270.623V220.764H285.821V219.195H281.712V202.462C281.712 200.436 281.777 198.344 280.081 196.318C279.168 195.337 277.276 194.03 273.558 194.03C267.623 194.03 264.622 197.56 263.187 199.325V176.447Z" fill="white"/>
<path d="M244.597 184.291H242.836C239.248 192.135 235.4 194.096 232.595 195.403V196.383H237.03L236.965 214.162C236.965 216.907 237.03 221.548 243.292 221.548C249.75 221.548 251.25 217.038 252.098 214.097L250.337 213.704C249.619 216.188 248.641 218.215 246.749 218.215C244.662 218.215 244.597 215.927 244.597 214.423V196.383H250.011V194.749H244.597V184.291Z" fill="white"/>
<path d="M211.852 194.226C207.221 194.422 203.633 194.749 199.85 194.749V196.383H204.09V219.195H199.85V220.764H215.831V219.195H211.852V207.56C211.852 204.75 211.852 203.639 212.048 202.527C212.961 198.998 216.418 196.906 218.571 196.906C222.419 196.906 222.419 200.24 222.419 203.704V219.195H218.897V220.764H234.16V219.195H230.116V202.527C230.116 199.782 230.116 195.926 225.093 194.488C223.397 194.03 221.962 194.03 221.506 194.03C220.266 194.03 218.636 194.226 216.809 194.945C214.265 195.991 213.222 197.168 211.852 198.802V194.226Z" fill="white"/>
<path d="M185.826 216.842C185.043 217.43 184.13 217.888 183.086 217.888C180.868 217.888 178.846 216.188 178.846 213.051C178.846 207.56 184.26 207.234 187.522 207.037V211.809C187.522 213.443 187.587 215.404 185.826 216.842ZM198.35 216.973C197.828 217.365 197.241 217.953 196.458 217.953C195.023 217.953 194.958 216.123 194.958 214.685V202.201C194.958 199.978 195.023 196.972 190.783 195.141C188.957 194.422 186.804 194.03 184.586 194.03C178.52 194.03 173.693 196.841 173.693 200.828C173.693 202.789 175.128 204.227 177.15 204.227C179.303 204.227 180.738 202.593 180.738 200.763C180.738 200.305 180.607 199.847 180.412 199.521C180.216 198.998 179.825 198.606 179.629 198.148C179.499 197.887 179.433 197.691 179.433 197.429C179.433 196.906 180.412 195.664 183.217 195.664C187.326 195.664 187.522 197.756 187.522 200.37V205.273C183.673 205.665 178.585 206.122 175.128 208.672C172.389 210.632 171.541 213.182 171.541 215.208C171.541 217.103 172.454 221.483 178.846 221.483C183.673 221.483 186.282 218.607 187.522 217.169C188.37 218.803 189.739 221.483 193.262 221.483C196.328 221.483 198.219 219.522 199.328 218.345L198.35 216.973Z" fill="white"/>
<path d="M165.866 176.447C163.844 176.84 161.365 177.036 159.147 177.101C156.929 177.166 154.842 177.166 153.668 177.166V178.866H158.038V219.195H153.668V220.764H169.975V219.195H165.866V176.447Z" fill="white"/>
<path d="M139.383 183.311C139.383 185.794 141.34 187.821 143.884 187.821C146.362 187.821 148.319 185.794 148.319 183.311C148.319 180.827 146.362 178.801 143.884 178.801C141.34 178.801 139.383 180.827 139.383 183.311Z" fill="white"/>
<path d="M136.578 196.383H140.818V219.195H136.578V220.764H152.559V219.195H148.58V194.226C145.645 194.422 144.014 194.488 142.514 194.618C140.883 194.684 139.383 194.749 136.578 194.749V196.383Z" fill="white"/>
<path d="M112.835 176.447C111.791 176.578 110.552 176.774 107.029 176.97C104.485 177.101 102.398 177.101 100.702 177.101V178.801H105.203V219.195H100.702V220.764H116.553V219.195H112.77V207.822C112.835 204.292 112.9 200.305 116.422 197.887C117.336 197.168 118.575 196.775 119.945 196.775C123.402 196.775 123.663 199.586 123.597 202.723V219.195H120.206V220.764H135.404V219.195H131.36V202.462C131.36 200.436 131.425 198.344 129.664 196.318C128.816 195.337 126.859 194.03 123.141 194.03C117.205 194.03 114.27 197.56 112.835 199.325V176.447Z" fill="white"/>
<path d="M88.5044 196.841C86.8085 198.148 84.2646 198.409 83.2209 198.409H77.4808V178.474H83.0252C84.9821 178.474 87.7217 178.604 89.5481 181.023C90.7222 182.657 90.9831 185.141 90.9831 188.54C90.9831 193.899 89.4829 196.122 88.5044 196.841ZM96.4623 179.52C93.1357 177.036 89.0915 176.97 85.6996 176.84H63V178.474H68.2835V219.195H63V220.764H83.2861V219.195H77.4808V200.24H85.8953C89.2219 200.24 93.3314 199.913 96.5276 197.56C100.637 194.553 100.833 190.37 100.833 188.801C100.833 185.272 99.3324 181.677 96.4623 179.52Z" fill="white"/>
<path d="M331.547 157.492C327.437 157.492 327.242 154.093 327.242 149.191C327.242 144.812 327.242 141.021 331.481 141.021C332.003 141.021 333.96 141.021 334.939 143.112C335.526 144.485 335.526 145.858 335.526 149.453C335.526 153.897 335.526 157.492 331.547 157.492ZM338.591 171.545C339.896 171.545 343.027 171.48 343.027 174.944C343.027 178.801 338.591 182.199 331.221 182.199C324.372 182.199 322.023 178.67 322.023 175.859C322.023 173.768 323.002 172.722 324.111 171.545H338.591ZM342.505 143.504C342.831 143.504 342.896 143.504 343.353 144.093C343.744 144.616 344.462 144.877 345.179 144.877C347.006 144.877 347.854 143.57 347.854 142.132C347.854 140.302 346.484 139.256 344.919 139.256C344.136 139.256 343.223 139.583 342.44 140.106C341.266 140.955 340.94 142.197 340.679 143.112C338.918 141.609 336.569 139.583 331.677 139.583C326.067 139.583 319.74 142.72 319.74 149.518C319.74 153.701 322.349 155.727 323.915 157.035C322.48 157.558 317.588 159.257 317.588 164.944C317.588 165.859 317.718 167.623 319.284 169.258C320.458 170.565 321.371 170.826 322.676 171.022C320.98 171.676 317.653 172.787 317.653 176.251C317.653 180.108 322.284 184.16 331.221 184.16C339.7 184.16 346.027 179.977 346.027 172.395C346.027 170.499 345.767 168.865 344.527 167.101C342.244 163.898 339.961 163.963 335.526 163.963H324.828C322.741 163.963 320.98 163.898 320.98 161.872C320.98 159.911 323.393 158.603 325.285 157.884C326.589 158.473 328.285 159.257 331.677 159.257C337.939 159.257 343.223 155.858 343.223 149.191C343.223 147.099 342.505 145.923 341.853 144.681C342.049 143.766 342.179 143.504 342.505 143.504Z" fill="white"/>
<path d="M305.064 139.713C301.02 140.171 296.91 140.302 292.801 140.302V141.936H297.041V164.682H292.801V166.316H310.021V164.682H304.868V152.851C304.868 150.368 305.39 147.034 307.347 144.289C307.347 144.289 309.369 141.74 310.217 141.74C310.673 141.74 311.065 142.066 311.065 142.328C311.065 142.524 310.869 142.72 310.804 142.982C310.413 143.504 309.956 144.158 309.956 145.269C309.956 147.099 311.391 148.93 313.935 148.93C317.131 148.93 318.11 146.446 318.11 144.746C318.11 142.263 316.479 139.583 312.63 139.583C310.086 139.583 308.26 140.628 306.89 142.263C306.107 143.112 305.586 144.093 304.933 145.073L305.064 139.713Z" fill="white"/>
<path d="M274.732 146.446C274.993 143.962 275.385 140.955 279.69 140.955C283.734 140.955 283.93 144.027 284.125 146.184V149.845H274.667L274.732 146.446ZM280.994 165.14C274.798 165.14 274.602 158.93 274.537 156.577C274.472 154.878 274.537 153.244 274.537 151.609H292.344C291.888 148.799 291.431 146.119 288.952 143.439C286.604 140.89 283.212 139.583 279.69 139.583C271.667 139.583 265.992 145.465 265.992 153.244C265.992 160.76 271.406 167.035 280.212 167.035C287.713 167.035 290.583 161.872 292.018 159.192L290.453 158.407C288.887 160.891 286.278 165.14 280.994 165.14Z" fill="white"/>
<path d="M250.011 165.009C247.793 165.009 245.38 163.702 243.879 161.349C242.314 158.93 241.988 155.466 241.988 153.374C241.988 151.675 242.249 148.276 243.618 145.792C244.923 143.439 247.597 141.478 250.011 141.478C253.859 141.478 254.512 145.008 254.772 146.25C255.033 148.015 255.164 150.891 255.164 152.721C255.164 159.584 254.968 165.009 250.011 165.009ZM251.25 139.583C246.488 139.583 244.205 142.066 242.314 144.093V122C239.705 122.458 236.835 122.654 235.595 122.654H230.181V124.418H234.552V164.682H230.181V166.316H242.249V162.394C243.879 164.421 246.488 167.035 251.381 167.035C254.903 167.035 258.099 165.924 260.774 162.46C263.578 158.93 263.774 155.401 263.774 153.636C263.774 143.57 256.86 139.583 251.25 139.583Z" fill="white"/>
<path d="M192.414 139.713C188.957 140.171 187.652 140.302 180.542 140.302V141.936H184.652V164.682H180.542V166.316H196.197V164.682H192.349V151.479C192.544 148.603 192.675 146.511 194.175 144.681C195.219 143.439 196.849 142.393 198.741 142.393C202.068 142.393 202.459 145.335 202.459 148.864V164.682H199.067V166.316H213.678V164.682H209.96V152.59C209.96 149.256 210.091 146.446 212.374 144.223C213.613 143.047 215.113 142.328 216.483 142.328C220.006 142.328 220.006 145.4 220.006 148.603V164.682H216.614V166.316H231.551V164.682H227.703V148.407C227.507 145.008 227.442 139.583 219.288 139.583C213.222 139.583 210.874 143.374 209.96 144.877C208.525 142.263 206.96 139.517 201.35 139.517C196.523 139.517 194.24 142.197 192.414 144.289V139.713Z" fill="white"/>
<path d="M165.474 165.728C162.735 165.728 161.039 164.159 160.321 162.656C159.799 161.806 159.212 160.499 159.212 153.047C159.212 147.557 159.343 141.086 165.409 141.086C167.888 141.086 169.779 142.263 170.758 144.55C171.149 145.335 171.475 146.184 171.541 152.786C171.606 158.93 171.606 165.728 165.474 165.728ZM180.02 152.721C179.368 142.916 171.149 139.583 165.474 139.583C159.147 139.583 150.537 143.57 150.537 153.178C150.537 160.172 155.69 167.035 165.67 167.035C174.672 167.035 178.39 160.956 179.238 158.538C179.955 156.708 180.151 154.682 180.02 152.721Z" fill="white"/>
<path d="M133.773 165.728C131.034 165.728 129.338 164.159 128.62 162.656C128.098 161.806 127.511 160.499 127.511 153.047C127.511 147.557 127.576 141.086 133.708 141.086C136.187 141.086 138.013 142.263 139.057 144.55C139.383 145.335 139.774 146.184 139.839 152.786C139.905 158.93 139.905 165.728 133.773 165.728ZM148.319 152.721C147.667 142.916 139.383 139.583 133.773 139.583C127.446 139.583 118.836 143.57 118.836 153.178C118.836 160.172 123.924 167.035 133.969 167.035C142.97 167.035 146.688 160.956 147.536 158.538C148.254 156.708 148.384 154.682 148.319 152.721Z" fill="white"/>
<path d="M114.074 122C112.052 122.392 109.573 122.588 107.356 122.654C105.138 122.654 103.05 122.654 101.876 122.654V124.418H106.247V164.682H101.876V166.316H118.184V164.682H114.074V122Z" fill="white"/>
<path d="M90.0047 161.741C88.374 164.421 85.8301 164.682 83.808 164.682H77.6112V144.354H83.3514C85.1778 144.354 87.7869 144.55 89.6133 146.773C91.0484 148.603 91.3093 151.479 91.3093 154.682C91.3093 157.361 91.1136 159.845 90.0047 161.741ZM77.6112 124.092H82.4382C87.526 124.092 90.1352 125.334 90.1352 133.569C90.1352 140.89 87.526 142.589 82.6991 142.589H77.6112V124.092ZM92.5486 144.093C91.0484 143.701 89.5481 143.57 87.9174 143.374C89.3524 143.178 90.7874 142.916 92.1572 142.524C96.3971 141.217 99.3976 138.079 99.3976 133.242C99.3976 130.105 98.2887 126.772 94.375 124.484C90.9831 122.588 87.0042 122.458 83.3514 122.392H63.1305V123.961H68.414V164.682H63.1305V166.316H82.5034C89.0263 166.251 96.8537 166.251 100.18 159.976C101.224 158.08 101.42 156.185 101.42 154.682C101.42 148.341 96.8537 145.204 92.5486 144.093Z" fill="white"/>
</svg>
