<svg width="500" height="360" viewBox="0 0 500 360" fill="none" xmlns="http://www.w3.org/2000/svg">
<path d="M195.306 199.199C191.668 203.737 186.889 206.007 180.966 206.007C178.488 206.007 176.219 205.587 174.16 204.751C172.099 203.914 170.338 202.756 168.873 201.275C167.408 199.794 166.265 198.024 165.445 195.964C164.624 193.905 164.213 191.635 164.213 189.157C164.213 186.71 164.616 184.449 165.421 182.372C166.225 180.296 167.367 178.495 168.849 176.965C170.328 175.437 172.099 174.246 174.16 173.393C176.219 172.54 178.488 172.113 180.966 172.113C183.767 172.113 186.358 172.581 188.74 173.514C191.121 174.448 193.134 176.073 194.774 178.39L189.126 184.087C188.225 182.864 187.146 181.882 185.892 181.141C184.636 180.402 183.204 180.032 181.595 180.032C180.242 180.032 179.036 180.257 177.974 180.707C176.912 181.158 176.018 181.786 175.294 182.59C174.57 183.395 174.015 184.337 173.628 185.415C173.242 186.493 173.049 187.66 173.049 188.915C173.049 190.202 173.249 191.394 173.652 192.488C174.054 193.582 174.626 194.532 175.367 195.335C176.107 196.141 176.999 196.769 178.046 197.219C179.091 197.67 180.259 197.895 181.546 197.895C183.413 197.895 184.933 197.566 186.109 196.905C187.283 196.246 188.434 195.208 189.561 193.791L195.306 199.199Z" fill="white"/>
<path d="M213.073 197.944C214.328 197.944 215.447 197.71 216.429 197.243C217.411 196.777 218.239 196.141 218.915 195.335C219.591 194.532 220.106 193.582 220.46 192.488C220.814 191.394 220.991 190.235 220.991 189.011C220.991 187.789 220.814 186.63 220.46 185.535C220.106 184.442 219.591 183.491 218.915 182.687C218.239 181.882 217.411 181.247 216.429 180.78C215.447 180.314 214.328 180.079 213.073 180.079C211.818 180.079 210.699 180.314 209.718 180.78C208.736 181.247 207.908 181.882 207.231 182.687C206.555 183.491 206.04 184.442 205.686 185.535C205.331 186.63 205.155 187.789 205.155 189.011C205.155 190.235 205.331 191.394 205.686 192.488C206.04 193.582 206.555 194.532 207.231 195.335C207.908 196.141 208.736 196.777 209.718 197.243C210.699 197.71 211.818 197.944 213.073 197.944ZM213.073 205.957C210.66 205.957 208.43 205.531 206.386 204.679C204.342 203.826 202.572 202.65 201.076 201.154C199.579 199.657 198.412 197.872 197.575 195.795C196.738 193.719 196.32 191.458 196.32 189.011C196.32 186.566 196.738 184.305 197.575 182.228C198.412 180.152 199.579 178.366 201.076 176.869C202.572 175.373 204.342 174.206 206.386 173.369C208.43 172.533 210.66 172.113 213.073 172.113C215.488 172.113 217.724 172.533 219.785 173.369C221.844 174.206 223.614 175.373 225.095 176.869C226.576 178.366 227.733 180.152 228.571 182.228C229.408 184.305 229.826 186.566 229.826 189.011C229.826 191.458 229.408 193.719 228.571 195.795C227.733 197.872 226.576 199.657 225.095 201.154C223.614 202.65 221.844 203.826 219.785 204.679C217.724 205.531 215.488 205.957 213.073 205.957Z" fill="white"/>
<path d="M234.388 172.982H242.547L250.369 187.032L258.045 172.982H266.252L267.749 205.186H259.107L258.334 186.308L252.686 197.316H248.003L241.727 186.308L241.099 205.186H232.891L234.388 172.982Z" fill="white"/>
<path d="M272.781 172.982H280.94L288.762 187.032L296.438 172.982H304.646L306.143 205.186H297.5L296.728 186.308L291.079 197.316H286.396L280.119 186.308L279.492 205.186H271.284L272.781 172.982Z" fill="white"/>
<path d="M309.955 172.982H318.501V191.86C318.501 193.631 318.911 195.079 319.731 196.205C320.553 197.332 321.912 197.895 323.812 197.895C325.71 197.895 327.063 197.324 327.867 196.181C328.672 195.039 329.075 193.598 329.075 191.86V172.982H337.716V192.632C337.716 194.693 337.379 196.552 336.702 198.209C336.026 199.866 335.068 201.275 333.83 202.433C332.59 203.592 331.126 204.478 329.437 205.089C327.746 205.7 325.888 206.007 323.859 206.007C321.832 206.007 319.965 205.7 318.259 205.089C316.553 204.478 315.081 203.601 313.842 202.458C312.602 201.315 311.645 199.916 310.969 198.257C310.293 196.599 309.955 194.725 309.955 192.632V172.982Z" fill="white"/>
<path d="M342.511 172.982H350.284L362.644 190.943V172.982H371.094V205.186H363.802L350.96 186.694V205.186H342.511V172.982Z" fill="white"/>
<path d="M376.17 172.982H384.716V205.186H376.17V172.982Z" fill="white"/>
<path d="M398.477 180.465H388.579V172.982H416.919V180.465H407.119V205.186H398.477V180.465Z" fill="white"/>
<path d="M429.714 192.343L418.272 172.982H428.072L434.349 184.473L440.239 172.982H449.749L438.259 192.295V205.186H429.714V192.343Z" fill="white"/>
<path d="M165.625 212.754H184.964V216.724H170.055V226.14H181.409V230.063H170.055V243.541H165.625V212.754Z" fill="white"/>
<path d="M188.284 212.754H192.714V230.755C192.714 232.14 192.838 233.41 193.084 234.563C193.33 235.717 193.753 236.71 194.353 237.541C194.953 238.371 195.753 239.011 196.753 239.456C197.753 239.902 199.022 240.126 200.561 240.126C202.069 240.126 203.323 239.902 204.323 239.456C205.322 239.011 206.123 238.371 206.724 237.541C207.323 236.71 207.746 235.717 207.993 234.563C208.238 233.41 208.362 232.14 208.362 230.755V212.754H212.793V231.817C212.793 233.571 212.547 235.21 212.055 236.733C211.561 238.256 210.815 239.579 209.816 240.702C208.814 241.825 207.546 242.71 206.008 243.356C204.469 244.003 202.653 244.326 200.561 244.326C198.468 244.326 196.653 244.003 195.114 243.356C193.576 242.71 192.299 241.825 191.284 240.702C190.268 239.579 189.514 238.256 189.022 236.733C188.53 235.21 188.284 233.571 188.284 231.817V212.754Z" fill="white"/>
<path d="M217.461 212.754H221.939L238.74 236.802V212.754H243.079V243.541H238.648L221.801 219.447V243.541H217.461V212.754Z" fill="white"/>
<path d="M257.748 239.572C261.595 239.572 264.586 238.626 266.725 236.733C268.864 234.84 269.933 232.033 269.933 228.309C269.933 224.555 268.902 221.685 266.841 219.701C264.779 217.717 261.701 216.724 257.61 216.724H252.025V239.572H257.748ZM247.593 212.754H257.887C260.317 212.754 262.556 213.054 264.602 213.654C266.648 214.254 268.41 215.193 269.887 216.47C271.364 217.747 272.518 219.355 273.349 221.294C274.18 223.233 274.596 225.54 274.596 228.217C274.596 230.802 274.18 233.056 273.349 234.979C272.518 236.902 271.364 238.502 269.887 239.779C268.41 241.057 266.641 242.003 264.58 242.617C262.518 243.234 260.271 243.541 257.841 243.541H247.593V212.754Z" fill="white"/>
<path fill-rule="evenodd" clip-rule="evenodd" d="M138.504 175.013C139.884 173.635 142.46 172.951 143.666 172.951C150.537 172.951 154.144 179.655 152.256 189.113C151.91 190.658 151.395 192.55 150.712 194.266C151.225 197.19 151.567 199.772 151.567 203.031C151.567 225.385 133.351 243.602 111.009 243.602C89.8731 243.602 76.1266 230.369 70.7969 208.365C67.8756 196.158 64.4373 189.968 56.7039 187.911C52.2396 186.709 49.3164 183.782 49.3164 179.487C49.3164 176.559 51.0342 173.814 53.9548 171.754C57.0478 169.683 61.0024 168.481 65.6422 168.481C74.5772 168.481 81.6273 172.951 85.9193 177.417C89.1826 167.101 91.9375 160.405 95.5481 152.322C90.2131 140.629 88.8419 132.378 88.8419 127.392C88.8419 121.38 91.7639 114.326 98.8108 114.326C103.274 114.326 107.402 118.454 111.352 127.219C114.227 123.579 118.016 120.762 121.456 120.762C127.128 120.762 130.079 125.066 130.079 130.905C130.079 136.565 127.048 143.147 124.227 149.272C123.278 151.333 122.352 153.342 121.574 155.246L124.929 163.327C127.331 162.293 130.085 162.116 132.665 162.983C136.79 164.531 139.024 168.992 138.504 175.013ZM111.009 238.449C92.9702 238.449 80.5923 225.902 75.7782 207.16C72.5156 194.266 68.3894 185.677 57.9089 182.925C56.704 182.58 54.4699 181.723 54.4699 179.487C54.4699 177.07 58.4245 173.635 65.6423 173.635C74.2032 173.635 81.2842 178.89 86.0937 185.875L89.7658 184.506C90.3122 177.465 93.8992 167.834 100.187 154.385C108.089 137.368 116.124 125.769 121.456 125.919C123.156 125.965 125.184 127.982 125.184 130.905C125.184 136.412 121.39 144.061 117.14 152.627C115.951 155.025 114.725 157.495 113.538 160.01C112.988 161.165 110.514 166.611 110.514 166.611L114.069 168.148C115.233 166.193 117.643 161.485 117.968 160.698L120.631 166.59C114.962 171.407 109.979 182.747 109.979 191.691C109.979 198.223 112.899 202.302 117.198 203.674C121.147 204.886 124.929 203.725 127.852 200.282C128.542 204.416 131.288 207.981 136.619 207.981C141.332 207.981 144.421 205.277 146.762 200.632C147.615 222.29 129.74 238.449 111.009 238.449ZM130.904 167.777C134.492 169.437 134.77 176.908 131.161 185.841C128.237 194.444 124.032 199.697 120.116 199.724C117.024 199.744 114.448 197.538 114.448 191.691C114.448 180.689 123.485 164.353 130.904 167.777ZM136.619 203.674C142.022 203.674 146.41 195.645 147.615 188.421C148.647 182.235 147.102 177.594 143.666 177.594C139.886 177.594 134.857 185.328 132.965 192.717C131.767 196.846 131.461 203.674 136.619 203.674ZM93.8232 127.392C93.8232 123.786 95.3681 119.486 98.8109 119.486C101.214 119.486 104.132 123.27 107.572 130.829C104.653 134.614 101.556 139.598 98.467 145.79C95.3681 137.71 93.8232 131.692 93.8232 127.392Z" fill="white"/>
<path d="M129.357 224.639C114.053 233.329 99.8228 227.781 94.4492 211.931L98.9017 209.845C103.277 222.756 115.883 226.293 127.548 220.22L129.357 224.639Z" fill="white"/>
<path d="M125.188 191.522C125.188 193.734 123.404 195.516 121.198 195.516C118.994 195.516 117.205 193.734 117.205 191.522C117.205 189.324 118.994 187.533 121.198 187.533C123.404 187.533 125.188 189.324 125.188 191.522Z" fill="white"/>
<path d="M142.002 196.355C142.002 198.339 140.395 199.946 138.41 199.946C136.428 199.946 134.818 198.339 134.818 196.355C134.818 194.373 136.428 192.762 138.41 192.762C140.395 192.762 142.002 194.373 142.002 196.355Z" fill="white"/>
<path d="M135.376 127.01C135.592 127.01 135.749 126.957 135.846 126.853C135.947 126.748 135.994 126.607 135.994 126.433C135.994 126.251 135.941 126.115 135.836 126.023C135.733 125.933 135.565 125.888 135.333 125.888H134.684V127.01H135.376ZM133.982 125.301H135.407C135.638 125.301 135.835 125.335 135.998 125.4C136.162 125.468 136.3 125.551 136.409 125.658C136.517 125.761 136.595 125.879 136.644 126.009C136.693 126.137 136.717 126.266 136.717 126.392C136.717 126.628 136.658 126.843 136.539 127.035C136.42 127.229 136.239 127.373 135.994 127.471L136.895 129.001H136.098L135.272 127.565H134.684V129.001H133.982V125.301ZM135.25 130.122C135.661 130.122 136.043 130.048 136.393 129.898C136.741 129.748 137.045 129.539 137.299 129.273C137.554 129.009 137.754 128.696 137.896 128.336C138.04 127.976 138.112 127.591 138.112 127.176C138.112 126.765 138.04 126.379 137.896 126.019C137.754 125.658 137.554 125.346 137.299 125.08C137.045 124.816 136.741 124.606 136.393 124.451C136.043 124.297 135.665 124.22 135.259 124.22C134.848 124.22 134.467 124.297 134.118 124.451C133.768 124.606 133.464 124.816 133.206 125.08C132.948 125.346 132.746 125.658 132.602 126.019C132.459 126.379 132.389 126.765 132.389 127.176C132.389 127.591 132.459 127.976 132.602 128.336C132.746 128.696 132.946 129.009 133.2 129.273C133.454 129.539 133.758 129.748 134.106 129.898C134.457 130.048 134.838 130.122 135.25 130.122ZM135.25 130.825C134.739 130.825 134.262 130.73 133.819 130.542C133.376 130.354 132.991 130.094 132.665 129.762C132.341 129.429 132.083 129.041 131.895 128.598C131.707 128.154 131.613 127.677 131.613 127.166C131.613 126.655 131.707 126.179 131.895 125.736C132.083 125.292 132.341 124.906 132.665 124.577C132.991 124.25 133.376 123.99 133.819 123.796C134.262 123.606 134.743 123.508 135.259 123.508C135.77 123.508 136.245 123.606 136.686 123.796C137.127 123.99 137.51 124.25 137.834 124.577C138.159 124.906 138.415 125.292 138.604 125.736C138.793 126.179 138.888 126.655 138.888 127.166C138.888 127.677 138.793 128.154 138.604 128.598C138.415 129.041 138.159 129.429 137.834 129.762C137.51 130.094 137.124 130.354 136.68 130.542C136.236 130.73 135.761 130.825 135.25 130.825Z" fill="white"/>
</svg>
