<svg width="90" height="90" viewBox="0 0 90 90" fill="none" xmlns="http://www.w3.org/2000/svg">
<path fill-rule="evenodd" clip-rule="evenodd" d="M0 0H89.9999V89.9999H0V0ZM59.2287 19.5572V10.9052H60.6207V18.3092H64.7847V19.5572H59.2287ZM64.9992 19.5572L68.3472 10.9052H69.8232L73.1832 19.5572H71.6832L70.9032 17.4932H67.2192L66.4512 19.5572H64.9992ZM67.6752 16.2812H70.4472L69.0552 12.6092L67.6752 16.2812ZM74.0294 19.5572V10.9052H77.2694C78.8894 10.9052 79.9454 11.6852 79.9454 13.1252C79.9454 13.9052 79.5134 14.5292 78.8534 14.8172C79.7534 15.1532 80.3414 15.8972 80.3414 17.0132C80.3414 18.6692 79.2254 19.5572 77.4134 19.5572H74.0294ZM77.1734 18.3212C78.3374 18.3212 78.9254 17.8532 78.9254 16.9532C78.9254 16.0652 78.3374 15.5732 77.1734 15.5732H75.4214V18.3212H77.1734ZM77.1134 14.3612C78.0614 14.3612 78.5414 13.9532 78.5414 13.2212C78.5414 12.4892 78.0494 12.0692 77.1014 12.0692H75.4214V14.3612H77.1134ZM12.9938 39.9003V77.3923H27.1378C34.8858 77.3923 39.2538 73.5963 39.2538 66.5243C39.2538 61.6883 36.8618 58.3083 32.6498 56.8523C35.8738 55.5523 37.6938 52.8483 37.6938 49.5203C37.6938 43.2803 33.5338 39.9003 26.3058 39.9003H12.9938ZM34.8858 66.4203C34.8858 71.0483 31.8698 73.5443 26.2538 73.5443H17.2578V59.3483H26.2538C31.8698 59.3483 34.8858 61.8443 34.8858 66.4203ZM33.2738 49.6243C33.2738 53.4203 30.7778 55.5003 26.0978 55.5003H17.2578V43.6443H26.0978C30.7258 43.6443 33.2738 45.7763 33.2738 49.6243ZM44.6159 72.2443C44.6159 75.5203 46.7999 77.6523 50.2839 77.6523C51.3759 77.6523 52.1559 77.4443 52.1559 77.4443V74.0643C52.1559 74.0643 51.6879 74.1683 50.9599 74.1683C49.4519 74.1683 48.6199 73.1803 48.6199 71.7763V39.4843H44.6159V72.2443Z" fill="#EEEEEE"/>
</svg>
