<svg width="92" height="91" viewBox="0 0 92 91" fill="none" xmlns="http://www.w3.org/2000/svg">
<path fill-rule="evenodd" clip-rule="evenodd" d="M0.933594 0.482422H91.0356V90.5844H0.933594V0.482422ZM60.2538 20.0493V11.3973H61.6458V18.8013H65.8098V20.0493H60.2538ZM66.0243 20.0493L69.3723 11.3973H70.8483L74.2083 20.0493H72.7083L71.9283 17.9853H68.2443L67.4763 20.0493H66.0243ZM68.7003 16.7733H71.4723L70.0803 13.1013L68.7003 16.7733ZM75.0546 20.0493V11.3973H78.2946C79.9146 11.3973 80.9706 12.1773 80.9706 13.6173C80.9706 14.3973 80.5386 15.0213 79.8786 15.3093C80.7786 15.6453 81.3666 16.3893 81.3666 17.5053C81.3666 19.1613 80.2506 20.0493 78.4386 20.0493H75.0546ZM78.1986 18.8133C79.3626 18.8133 79.9506 18.3453 79.9506 17.4453C79.9506 16.5573 79.3626 16.0653 78.1986 16.0653H76.4466V18.8133H78.1986ZM78.1386 14.8533C79.0866 14.8533 79.5666 14.4453 79.5666 13.7133C79.5666 12.9813 79.0746 12.5613 78.1266 12.5613H76.4466V14.8533H78.1386ZM13.9376 40.4172V77.9092H28.0816C35.8296 77.9092 40.1976 74.1132 40.1976 67.0412C40.1976 62.2052 37.8056 58.8252 33.5936 57.3692C36.8176 56.0692 38.6376 53.3652 38.6376 50.0372C38.6376 43.7972 34.4776 40.4172 27.2496 40.4172H13.9376ZM35.8296 66.9372C35.8296 71.5652 32.8136 74.0612 27.1976 74.0612H18.2016V59.8652H27.1976C32.8136 59.8652 35.8296 62.3612 35.8296 66.9372ZM34.2176 50.1412C34.2176 53.9372 31.7216 56.0172 27.0416 56.0172H18.2016V44.1612H27.0416C31.6696 44.1612 34.2176 46.2932 34.2176 50.1412ZM45.5597 72.7612C45.5597 76.0372 47.7437 78.1692 51.2277 78.1692C52.3197 78.1692 53.0997 77.9612 53.0997 77.9612V74.5812C53.0997 74.5812 52.6317 74.6852 51.9037 74.6852C50.3957 74.6852 49.5637 73.6972 49.5637 72.2932V40.0012H45.5597V72.7612Z" fill="#EEEEEE"/>
</svg>
