<svg width="90" height="90" viewBox="0 0 90 90" fill="none" xmlns="http://www.w3.org/2000/svg">
<path fill-rule="evenodd" clip-rule="evenodd" d="M0 0H89.9999V89.9999H0V0ZM59.2287 19.5572V10.9052H60.6207V18.3092H64.7847V19.5572H59.2287ZM64.9992 19.5572L68.3472 10.9052H69.8232L73.1832 19.5572H71.6832L70.9032 17.4932H67.2192L66.4512 19.5572H64.9992ZM67.6752 16.2812H70.4472L69.0552 12.6092L67.6752 16.2812ZM74.0294 19.5572V10.9052H77.2694C78.8894 10.9052 79.9454 11.6852 79.9454 13.1252C79.9454 13.9052 79.5134 14.5292 78.8534 14.8172C79.7534 15.1532 80.3414 15.8972 80.3414 17.0132C80.3414 18.6692 79.2254 19.5572 77.4134 19.5572H74.0294ZM77.1734 18.3212C78.3374 18.3212 78.9254 17.8532 78.9254 16.9532C78.9254 16.0652 78.3374 15.5732 77.1734 15.5732H75.4214V18.3212H77.1734ZM77.1134 14.3612C78.0614 14.3612 78.5414 13.9532 78.5414 13.2212C78.5414 12.4892 78.0494 12.0692 77.1014 12.0692H75.4214V14.3612H77.1134ZM11.0178 58.6203C11.0178 71.6203 19.8058 77.8083 29.1138 77.8083C37.0178 77.8083 43.4138 73.3363 44.8178 65.3803H40.3978C39.4098 70.8403 35.1458 73.9603 29.1138 73.9603C21.1578 73.9603 15.4378 68.5003 15.4378 58.6203C15.4378 48.7923 21.1578 43.3323 29.1138 43.3323C35.0938 43.3323 39.6178 46.5563 40.3978 52.0163H44.8178C43.5698 44.0083 37.0698 39.4843 29.1138 39.4843C19.8578 39.4843 11.0178 45.6723 11.0178 58.6203ZM47.6648 68.6043C47.9248 73.7523 52.1368 77.8083 58.6368 77.8083C64.7208 77.8083 68.7768 74.6363 68.7768 69.9563C68.7768 64.6003 65.3968 63.0923 61.4968 62.1043L56.6088 60.8563C54.3728 60.2843 52.9688 59.0883 52.9688 57.2683C52.9688 54.9283 54.9968 53.4723 58.0648 53.4723C61.3928 53.4723 63.8368 55.2403 64.2008 57.9443H68.2568C67.5288 53.1083 63.5768 49.9883 58.0648 49.9883C52.6048 49.9883 48.8608 53.0563 48.8608 57.2683C48.8608 61.7923 51.9808 63.5083 55.5688 64.4443L60.4568 65.7443C62.9008 66.3683 64.6168 67.5123 64.6168 69.9563C64.6168 72.2963 62.2248 74.2203 58.6368 74.2203C54.4248 74.2203 51.8768 71.6203 51.6688 68.6043H47.6648Z" fill="#EEEEEE"/>
</svg>
