<svg width="91" height="91" viewBox="0 0 91 91" fill="none" xmlns="http://www.w3.org/2000/svg">
<path fill-rule="evenodd" clip-rule="evenodd" d="M0.844727 0.482422H90.9467V90.5844H0.844727V0.482422ZM60.1649 20.0493V11.3973H61.5569V18.8013H65.7209V20.0493H60.1649ZM65.9354 20.0493L69.2834 11.3973H70.7594L74.1194 20.0493H72.6194L71.8394 17.9853H68.1554L67.3874 20.0493H65.9354ZM68.6114 16.7733H71.3834L69.9914 13.1013L68.6114 16.7733ZM74.9657 20.0493V11.3973H78.2057C79.8257 11.3973 80.8817 12.1773 80.8817 13.6173C80.8817 14.3973 80.4497 15.0213 79.7897 15.3093C80.6897 15.6453 81.2777 16.3893 81.2777 17.5053C81.2777 19.1613 80.1617 20.0493 78.3497 20.0493H74.9657ZM78.1097 18.8133C79.2737 18.8133 79.8617 18.3453 79.8617 17.4453C79.8617 16.5573 79.2737 16.0653 78.1097 16.0653H76.3577V18.8133H78.1097ZM78.0497 14.8533C78.9977 14.8533 79.4777 14.4453 79.4777 13.7133C79.4777 12.9813 78.9857 12.5613 78.0377 12.5613H76.3577V14.8533H78.0497ZM11.8727 59.1372C11.8727 72.1372 20.6607 78.3252 29.9687 78.3252C37.8727 78.3252 44.2687 73.8532 45.6727 65.8972H41.2527C40.2647 71.3572 36.0007 74.4772 29.9687 74.4772C22.0127 74.4772 16.2927 69.0172 16.2927 59.1372C16.2927 49.3092 22.0127 43.8492 29.9687 43.8492C35.9487 43.8492 40.4727 47.0732 41.2527 52.5332H45.6727C44.4247 44.5252 37.9247 40.0012 29.9687 40.0012C20.7127 40.0012 11.8727 46.1892 11.8727 59.1372ZM48.5197 69.1212C48.7797 74.2692 52.9917 78.3252 59.4917 78.3252C65.5757 78.3252 69.6317 75.1532 69.6317 70.4732C69.6317 65.1172 66.2517 63.6092 62.3517 62.6212L57.4637 61.3732C55.2277 60.8012 53.8237 59.6052 53.8237 57.7852C53.8237 55.4452 55.8517 53.9892 58.9197 53.9892C62.2477 53.9892 64.6917 55.7572 65.0557 58.4612H69.1117C68.3837 53.6252 64.4317 50.5052 58.9197 50.5052C53.4597 50.5052 49.7157 53.5732 49.7157 57.7852C49.7157 62.3092 52.8357 64.0252 56.4237 64.9612L61.3117 66.2612C63.7557 66.8852 65.4717 68.0292 65.4717 70.4732C65.4717 72.8132 63.0797 74.7372 59.4917 74.7372C55.2797 74.7372 52.7317 72.1372 52.5237 69.1212H48.5197Z" fill="#EEEEEE"/>
</svg>
