<svg width="90" height="90" viewBox="0 0 90 90" fill="none" xmlns="http://www.w3.org/2000/svg">
<g clip-path="url(#clip0_2029_8830)">
<path fill-rule="evenodd" clip-rule="evenodd" d="M0 0H89.9999V89.9999H0V0ZM59.2287 19.5572V10.9052H60.6207V18.3092H64.7847V19.5572H59.2287ZM64.9992 19.5572L68.3472 10.9052H69.8232L73.1832 19.5572H71.6832L70.9032 17.4932H67.2192L66.4512 19.5572H64.9992ZM67.6752 16.2812H70.4472L69.0552 12.6092L67.6752 16.2812ZM74.0294 19.5572V10.9052H77.2694C78.8894 10.9052 79.9454 11.6852 79.9454 13.1252C79.9454 13.9052 79.5134 14.5292 78.8534 14.8172C79.7534 15.1532 80.3414 15.8972 80.3414 17.0132C80.3414 18.6692 79.2254 19.5572 77.4134 19.5572H74.0294ZM77.1734 18.3212C78.3374 18.3212 78.9254 17.8532 78.9254 16.9532C78.9254 16.0652 78.3374 15.5732 77.1734 15.5732H75.4214V18.3212H77.1734ZM77.1134 14.3612C78.0614 14.3612 78.5414 13.9532 78.5414 13.2212C78.5414 12.4892 78.0494 12.0692 77.1014 12.0692H75.4214V14.3612H77.1134ZM12.9938 39.9003V77.3923H17.2578V52.0163C17.2578 48.2203 16.9978 45.6723 16.9978 45.6723C16.9978 45.6723 18.1418 47.9603 20.2218 51.1323L37.0178 77.3923H41.9058V39.9003H37.6418V65.3283C37.6418 69.1243 37.9018 71.6723 37.9018 71.6723C37.9018 71.6723 36.7578 69.3843 34.6778 66.2123L17.8818 39.9003H12.9938ZM60.2683 49.9883C52.3123 49.9883 47.3723 56.0723 47.3723 63.8723C47.3723 71.7243 52.4163 77.8083 60.3723 77.8083C66.3003 77.8083 71.1363 74.7403 72.1243 68.8643H68.2763C67.6523 72.3483 64.3243 74.2723 60.3723 74.2723C55.1723 74.2723 51.6363 70.5803 51.4283 64.3923H72.2283C72.2283 64.3923 72.3323 63.4043 72.3323 62.5723C72.3843 55.4483 67.7043 49.9883 60.2683 49.9883ZM68.0683 61.0123H51.6883C52.5203 56.3843 55.6403 53.4203 60.2683 53.4203C65.0003 53.4203 67.7563 56.6443 68.0683 61.0123Z" fill="#EEEEEE"/>
</g>
<defs>
<clipPath id="clip0_2029_8830">
<rect width="90" height="90" fill="white"/>
</clipPath>
</defs>
</svg>
