<svg width="91" height="91" viewBox="0 0 91 91" fill="none" xmlns="http://www.w3.org/2000/svg">
<path fill-rule="evenodd" clip-rule="evenodd" d="M0.0222168 0.482422H90.1242V90.5844H0.0222168V0.482422ZM59.3424 20.0493V11.3973H60.7344V18.8013H64.8984V20.0493H59.3424ZM65.1129 20.0493L68.4609 11.3973H69.9369L73.2969 20.0493H71.7969L71.0169 17.9853H67.3329L66.5649 20.0493H65.1129ZM67.7889 16.7733H70.5609L69.1689 13.1013L67.7889 16.7733ZM74.1432 20.0493V11.3973H77.3832C79.0032 11.3973 80.0592 12.1773 80.0592 13.6173C80.0592 14.3973 79.6272 15.0213 78.9672 15.3093C79.8672 15.6453 80.4552 16.3893 80.4552 17.5053C80.4552 19.1613 79.3392 20.0493 77.5272 20.0493H74.1432ZM77.2872 18.8133C78.4512 18.8133 79.0392 18.3453 79.0392 17.4453C79.0392 16.5573 78.4512 16.0653 77.2872 16.0653H75.5352V18.8133H77.2872ZM77.2272 14.8533C78.1752 14.8533 78.6552 14.4453 78.6552 13.7133C78.6552 12.9813 78.1632 12.5613 77.2152 12.5613H75.5352V14.8533H77.2272ZM13.0262 40.4172V77.9092H17.2902V52.5332C17.2902 48.7372 17.0302 46.1892 17.0302 46.1892C17.0302 46.1892 18.1742 48.4772 20.2542 51.6492L37.0502 77.9092H41.9382V40.4172H37.6742V65.8452C37.6742 69.6412 37.9342 72.1892 37.9342 72.1892C37.9342 72.1892 36.7902 69.9012 34.7102 66.7292L17.9142 40.4172H13.0262ZM60.3007 50.5052C52.3447 50.5052 47.4047 56.5892 47.4047 64.3892C47.4047 72.2412 52.4487 78.3252 60.4047 78.3252C66.3327 78.3252 71.1687 75.2572 72.1567 69.3812H68.3087C67.6847 72.8652 64.3567 74.7892 60.4047 74.7892C55.2047 74.7892 51.6687 71.0972 51.4607 64.9092H72.2607C72.2607 64.9092 72.3647 63.9212 72.3647 63.0892C72.4167 55.9652 67.7367 50.5052 60.3007 50.5052ZM68.1007 61.5292H51.7207C52.5527 56.9012 55.6727 53.9372 60.3007 53.9372C65.0327 53.9372 67.7887 57.1612 68.1007 61.5292Z" fill="#EEEEEE"/>
</svg>
