<svg width="90" height="90" viewBox="0 0 90 90" fill="none" xmlns="http://www.w3.org/2000/svg">
<path fill-rule="evenodd" clip-rule="evenodd" d="M0 0H89.9999V89.9999H0V0ZM59.2287 19.5572V10.9052H60.6207V18.3092H64.7847V19.5572H59.2287ZM64.9992 19.5572L68.3472 10.9052H69.8232L73.1832 19.5572H71.6832L70.9032 17.4932H67.2192L66.4512 19.5572H64.9992ZM67.6752 16.2812H70.4472L69.0552 12.6092L67.6752 16.2812ZM74.0294 19.5572V10.9052H77.2694C78.8894 10.9052 79.9454 11.6852 79.9454 13.1252C79.9454 13.9052 79.5134 14.5292 78.8534 14.8172C79.7534 15.1532 80.3414 15.8972 80.3414 17.0132C80.3414 18.6692 79.2254 19.5572 77.4134 19.5572H74.0294ZM77.1734 18.3212C78.3374 18.3212 78.9254 17.8532 78.9254 16.9532C78.9254 16.0652 78.3374 15.5732 77.1734 15.5732H75.4214V18.3212H77.1734ZM77.1134 14.3612C78.0614 14.3612 78.5414 13.9532 78.5414 13.2212C78.5414 12.4892 78.0494 12.0692 77.1014 12.0692H75.4214V14.3612H77.1134ZM12.9938 39.9003V77.3923H17.2578V61.4283H27.8658C35.1978 61.4283 39.6178 57.2683 39.6178 50.6123C39.6178 43.9563 35.1978 39.9003 27.8658 39.9003H12.9938ZM35.2498 50.6123C35.2498 54.9283 32.3378 57.5283 27.5538 57.5283H17.2578V43.7483H27.5538C32.3378 43.7483 35.2498 46.3483 35.2498 50.6123ZM46.2921 53.8883V77.3923H50.2441V53.8883H57.2641V50.4043H50.2441V47.3363C50.2441 44.3723 52.0121 43.0203 54.0921 43.0203C55.2361 43.0203 56.4321 43.1763 57.2641 43.3843V39.7963C56.1721 39.5363 55.0281 39.4323 53.8841 39.4323C49.5161 39.4323 46.2921 41.9283 46.2921 47.2323V50.4043H41.1961V53.8883H46.2921Z" fill="#EEEEEE"/>
</svg>
