<svg width="91" height="91" viewBox="0 0 91 91" fill="none" xmlns="http://www.w3.org/2000/svg">
<path fill-rule="evenodd" clip-rule="evenodd" d="M0.786621 0.482422H90.8886V90.5844H0.786621V0.482422ZM60.1068 20.0493V11.3973H61.4988V18.8013H65.6628V20.0493H60.1068ZM65.8773 20.0493L69.2253 11.3973H70.7013L74.0613 20.0493H72.5613L71.7813 17.9853H68.0973L67.3293 20.0493H65.8773ZM68.5533 16.7733H71.3253L69.9333 13.1013L68.5533 16.7733ZM74.9076 20.0493V11.3973H78.1476C79.7676 11.3973 80.8236 12.1773 80.8236 13.6173C80.8236 14.3973 80.3916 15.0213 79.7316 15.3093C80.6316 15.6453 81.2196 16.3893 81.2196 17.5053C81.2196 19.1613 80.1036 20.0493 78.2916 20.0493H74.9076ZM78.0516 18.8133C79.2156 18.8133 79.8036 18.3453 79.8036 17.4453C79.8036 16.5573 79.2156 16.0653 78.0516 16.0653H76.2996V18.8133H78.0516ZM77.9916 14.8533C78.9396 14.8533 79.4196 14.4453 79.4196 13.7133C79.4196 12.9813 78.9276 12.5613 77.9796 12.5613H76.2996V14.8533H77.9916ZM13.7906 40.4172V77.9092H18.0546V61.9452H28.6626C35.9946 61.9452 40.4146 57.7852 40.4146 51.1292C40.4146 44.4732 35.9946 40.4172 28.6626 40.4172H13.7906ZM36.0466 51.1292C36.0466 55.4452 33.1346 58.0452 28.3506 58.0452H18.0546V44.2652H28.3506C33.1346 44.2652 36.0466 46.8652 36.0466 51.1292ZM47.0889 54.4052V77.9092H51.0409V54.4052H58.0609V50.9212H51.0409V47.8532C51.0409 44.8892 52.8089 43.5372 54.8889 43.5372C56.0329 43.5372 57.2289 43.6932 58.0609 43.9012V40.3132C56.9689 40.0532 55.8249 39.9492 54.6809 39.9492C50.3129 39.9492 47.0889 42.4452 47.0889 47.7492V50.9212H41.9929V54.4052H47.0889Z" fill="#EEEEEE"/>
</svg>
