<svg width="90" height="90" viewBox="0 0 90 90" fill="none" xmlns="http://www.w3.org/2000/svg">
<path fill-rule="evenodd" clip-rule="evenodd" d="M0 0H89.9999V89.9999H0V0ZM59.2287 19.5572V10.9052H60.6207V18.3092H64.7847V19.5572H59.2287ZM64.9992 19.5572L68.3472 10.9052H69.8232L73.1832 19.5572H71.6832L70.9032 17.4932H67.2192L66.4512 19.5572H64.9992ZM67.6752 16.2812H70.4472L69.0552 12.6092L67.6752 16.2812ZM74.0294 19.5572V10.9052H77.2694C78.8894 10.9052 79.9454 11.6852 79.9454 13.1252C79.9454 13.9052 79.5134 14.5292 78.8534 14.8172C79.7534 15.1532 80.3414 15.8972 80.3414 17.0132C80.3414 18.6692 79.2254 19.5572 77.4134 19.5572H74.0294ZM77.1734 18.3212C78.3374 18.3212 78.9254 17.8532 78.9254 16.9532C78.9254 16.0652 78.3374 15.5732 77.1734 15.5732H75.4214V18.3212H77.1734ZM77.1134 14.3612C78.0614 14.3612 78.5414 13.9532 78.5414 13.2212C78.5414 12.4892 78.0494 12.0692 77.1014 12.0692H75.4214V14.3612H77.1134ZM10.3418 65.5883C11.0178 73.1803 17.1538 77.8083 24.5898 77.8083C32.6498 77.8083 37.9538 73.7003 37.9538 67.4083C37.9538 60.9603 34.0018 58.3603 29.0618 56.9563L21.7818 54.8243C18.5578 53.8883 16.2698 52.3283 16.2698 49.1563C16.2698 45.5163 19.2858 43.3323 24.3818 43.3323C29.2178 43.3323 32.2858 45.8803 32.9618 49.7283H37.2778C36.6538 43.3323 31.4538 39.4843 24.3818 39.4843C16.9458 39.4843 11.8498 43.3843 11.8498 49.1563C11.8498 55.0843 15.8538 57.4763 20.5858 58.8283L27.8138 60.9603C31.1418 61.9483 33.5858 63.8723 33.5858 67.4083C33.5858 71.3603 29.9978 73.9603 24.5898 73.9603C19.2338 73.9603 15.0218 70.4243 14.6578 65.5883H10.3418ZM41.634 63.8723C41.634 71.6723 46.21 77.8083 54.478 77.8083C58.586 77.8083 62.226 75.7803 63.37 73.2843V77.3923H67.374V39.4843H63.37V54.5123C61.706 51.8603 58.014 49.9883 54.478 49.9883C46.262 49.9883 41.634 56.0723 41.634 63.8723ZM63.786 63.8723C63.786 70.1123 60.146 74.2203 54.79 74.2203C49.382 74.2203 45.794 70.0603 45.794 63.8723C45.794 57.6843 49.382 53.5763 54.79 53.5763C60.146 53.5763 63.786 57.6843 63.786 63.8723Z" fill="#EEEEEE"/>
</svg>
