<svg width="91" height="91" viewBox="0 0 91 91" fill="none" xmlns="http://www.w3.org/2000/svg">
<path fill-rule="evenodd" clip-rule="evenodd" d="M0.72876 0.482422H90.8307V90.5844H0.72876V0.482422ZM60.0489 20.0493V11.3973H61.4409V18.8013H65.6049V20.0493H60.0489ZM65.8195 20.0493L69.1674 11.3973H70.6434L74.0034 20.0493H72.5034L71.7234 17.9853H68.0394L67.2714 20.0493H65.8195ZM68.4954 16.7733H71.2674L69.8755 13.1013L68.4954 16.7733ZM74.8497 20.0493V11.3973H78.0897C79.7097 11.3973 80.7657 12.1773 80.7657 13.6173C80.7657 14.3973 80.3337 15.0213 79.6737 15.3093C80.5737 15.6453 81.1617 16.3893 81.1617 17.5053C81.1617 19.1613 80.0457 20.0493 78.2337 20.0493H74.8497ZM77.9937 18.8133C79.1577 18.8133 79.7457 18.3453 79.7457 17.4453C79.7457 16.5573 79.1577 16.0653 77.9937 16.0653H76.2417V18.8133H77.9937ZM77.9337 14.8533C78.8817 14.8533 79.3617 14.4453 79.3617 13.7133C79.3617 12.9813 78.8697 12.5613 77.9217 12.5613H76.2417V14.8533H77.9337ZM11.0808 66.1052C11.7568 73.6972 17.8928 78.3252 25.3288 78.3252C33.3888 78.3252 38.6928 74.2172 38.6928 67.9252C38.6928 61.4772 34.7408 58.8772 29.8008 57.4732L22.5208 55.3412C19.2968 54.4052 17.0088 52.8452 17.0088 49.6732C17.0088 46.0332 20.0248 43.8492 25.1208 43.8492C29.9568 43.8492 33.0248 46.3972 33.7008 50.2452H38.0168C37.3928 43.8492 32.1928 40.0012 25.1208 40.0012C17.6848 40.0012 12.5888 43.9012 12.5888 49.6732C12.5888 55.6012 16.5928 57.9932 21.3248 59.3452L28.5528 61.4772C31.8808 62.4652 34.3248 64.3892 34.3248 67.9252C34.3248 71.8772 30.7368 74.4772 25.3288 74.4772C19.9728 74.4772 15.7608 70.9412 15.3968 66.1052H11.0808ZM42.373 64.3892C42.373 72.1892 46.949 78.3252 55.217 78.3252C59.325 78.3252 62.965 76.2972 64.109 73.8012V77.9092H68.113V40.0012H64.109V55.0292C62.445 52.3772 58.753 50.5052 55.217 50.5052C47.001 50.5052 42.373 56.5892 42.373 64.3892ZM64.525 64.3892C64.525 70.6292 60.885 74.7372 55.529 74.7372C50.121 74.7372 46.533 70.5772 46.533 64.3892C46.533 58.2012 50.121 54.0932 55.529 54.0932C60.885 54.0932 64.525 58.2012 64.525 64.3892Z" fill="#EEEEEE"/>
</svg>
