<svg width="91" height="91" viewBox="0 0 91 91" fill="none" xmlns="http://www.w3.org/2000/svg">
<path fill-rule="evenodd" clip-rule="evenodd" d="M0.377441 0.482422H90.4794V90.5844H0.377441V0.482422ZM59.6976 20.0493V11.3973H61.0896V18.8013H65.2536V20.0493H59.6976ZM65.4681 20.0493L68.8161 11.3973H70.2921L73.6521 20.0493H72.1521L71.3721 17.9853H67.6881L66.9201 20.0493H65.4681ZM68.1441 16.7733H70.9161L69.5241 13.1013L68.1441 16.7733ZM74.4984 20.0493V11.3973H77.7384C79.3584 11.3973 80.4144 12.1773 80.4144 13.6173C80.4144 14.3973 79.9824 15.0213 79.3224 15.3093C80.2224 15.6453 80.8104 16.3893 80.8104 17.5053C80.8104 19.1613 79.6944 20.0493 77.8824 20.0493H74.4984ZM77.6424 18.8133C78.8064 18.8133 79.3944 18.3453 79.3944 17.4453C79.3944 16.5573 78.8064 16.0653 77.6424 16.0653H75.8904V18.8133H77.6424ZM77.5824 14.8533C78.5304 14.8533 79.0104 14.4453 79.0104 13.7133C79.0104 12.9813 78.5184 12.5613 77.5704 12.5613H75.8904V14.8533H77.5824ZM10.6254 68.6885C11.2494 75.6965 16.9134 79.9685 23.7774 79.9685C31.2174 79.9685 36.1134 76.1765 36.1134 70.3685C36.1134 64.4165 32.4654 62.0165 27.9054 60.7205L21.1854 58.7525C18.2094 57.8885 16.0974 56.4485 16.0974 53.5205C16.0974 50.1605 18.8814 48.1445 23.5854 48.1445C28.0494 48.1445 30.8814 50.4965 31.5054 54.0485H35.4894C34.9134 48.1445 30.1134 44.5925 23.5854 44.5925C16.7214 44.5925 12.0174 48.1925 12.0174 53.5205C12.0174 58.9925 15.7134 61.2005 20.0814 62.4485L26.7534 64.4165C29.8254 65.3285 32.0814 67.1045 32.0814 70.3685C32.0814 74.0165 28.7694 76.4165 23.7774 76.4165C18.8334 76.4165 14.9454 73.1525 14.6094 68.6885H10.6254ZM40.9539 54.6725V79.5845H44.6499V67.1525C44.6499 61.6325 47.0979 57.6005 51.5619 57.6005C55.1619 57.6005 57.1779 60.0005 57.1779 63.6005V79.5845H60.8739V67.1525C60.8739 61.6325 63.3219 57.6005 67.7379 57.6005C71.3859 57.6005 73.4499 60.0005 73.4499 63.6005V79.5845H77.1459V62.9285C77.1459 57.5525 73.7859 54.2885 68.4579 54.2885C64.8579 54.2885 61.8819 56.4965 60.4899 59.6165C59.6259 56.2085 56.3619 54.2885 52.2339 54.2885C48.3939 54.2885 45.8499 56.4485 44.6499 59.6165V54.6725H40.9539Z" fill="#EEEEEE"/>
</svg>
