<svg width="90" height="90" viewBox="0 0 90 90" fill="none" xmlns="http://www.w3.org/2000/svg">
<path fill-rule="evenodd" clip-rule="evenodd" d="M0 0H89.9999V89.9999H0V0ZM59.2287 19.5572V10.9052H60.6207V18.3092H64.7847V19.5572H59.2287ZM64.9992 19.5572L68.3472 10.9052H69.8232L73.1832 19.5572H71.6832L70.9032 17.4932H67.2192L66.4512 19.5572H64.9992ZM67.6752 16.2812H70.4472L69.0552 12.6092L67.6752 16.2812ZM74.0294 19.5572V10.9052H77.2694C78.8894 10.9052 79.9454 11.6852 79.9454 13.1252C79.9454 13.9052 79.5134 14.5292 78.8534 14.8172C79.7534 15.1532 80.3414 15.8972 80.3414 17.0132C80.3414 18.6692 79.2254 19.5572 77.4134 19.5572H74.0294ZM77.1734 18.3212C78.3374 18.3212 78.9254 17.8532 78.9254 16.9532C78.9254 16.0652 78.3374 15.5732 77.1734 15.5732H75.4214V18.3212H77.1734ZM77.1134 14.3612C78.0614 14.3612 78.5414 13.9532 78.5414 13.2212C78.5414 12.4892 78.0494 12.0692 77.1014 12.0692H75.4214V14.3612H77.1134ZM10.2378 68.1652C10.8618 75.1732 16.5258 79.4452 23.3898 79.4452C30.8298 79.4452 35.7258 75.6532 35.7258 69.8452C35.7258 63.8932 32.0778 61.4932 27.5178 60.1972L20.7978 58.2292C17.8218 57.3652 15.7098 55.9252 15.7098 52.9972C15.7098 49.6372 18.4938 47.6212 23.1978 47.6212C27.6618 47.6212 30.4938 49.9732 31.1178 53.5252H35.1018C34.5258 47.6212 29.7258 44.0692 23.1978 44.0692C16.3338 44.0692 11.6298 47.6692 11.6298 52.9972C11.6298 58.4692 15.3258 60.6772 19.6938 61.9252L26.3658 63.8932C29.4378 64.8052 31.6938 66.5812 31.6938 69.8452C31.6938 73.4932 28.3818 75.8932 23.3898 75.8932C18.4458 75.8932 14.5578 72.6292 14.2218 68.1652H10.2378ZM40.5663 54.1492V79.0612H44.2623V66.6292C44.2623 61.1092 46.7103 57.0772 51.1743 57.0772C54.7743 57.0772 56.7903 59.4772 56.7903 63.0772V79.0612H60.4863V66.6292C60.4863 61.1092 62.9343 57.0772 67.3503 57.0772C70.9983 57.0772 73.0623 59.4772 73.0623 63.0772V79.0612H76.7583V62.4052C76.7583 57.0292 73.3983 53.7652 68.0703 53.7652C64.4703 53.7652 61.4943 55.9732 60.1023 59.0932C59.2383 55.6852 55.9743 53.7652 51.8463 53.7652C48.0063 53.7652 45.4623 55.9252 44.2623 59.0932V54.1492H40.5663Z" fill="#EEEEEE"/>
</svg>
