<svg width="94" height="86" viewBox="0 0 94 86" fill="none" xmlns="http://www.w3.org/2000/svg">
<path d="M1.90315 40.3477H0.521928V40.1175L4.6656 29.2979H6.24633L10.3823 40.1175V40.3477H8.99343L7.83474 37.2246H3.06184L1.90315 40.3477ZM5.37156 30.9477L3.44552 36.1119H7.45106L5.52503 30.9477H5.37156ZM11.9141 40.3477V32.5284H13.2263V33.6334H13.3798C13.7097 32.9658 14.3543 32.2982 15.9581 32.4593V33.6257C14.339 33.4569 13.2647 34.0247 13.2647 35.9891V40.3477H11.9141ZM16.7815 36.4419C16.7815 33.9019 18.2471 32.3442 20.6182 32.3442C22.8436 32.3442 23.8181 33.6948 23.9639 34.8535V35.0837H22.6901C22.598 34.3163 22.0378 33.3955 20.6259 33.3955C19.1066 33.3955 18.1474 34.5005 18.1474 36.4419C18.1474 38.3756 19.0989 39.4806 20.6259 39.4806C22.0609 39.4806 22.598 38.6058 22.7361 37.7157H24.0022V37.9459C23.8488 39.1659 22.8742 40.5318 20.6182 40.5318C18.2318 40.5318 16.7815 38.9741 16.7815 36.4419ZM25.3271 34.6002C25.3271 33.1806 26.5242 32.3519 28.4579 32.3519C30.3993 32.3519 31.5963 33.2267 31.7498 34.5542V34.7844H30.499C30.4376 33.7792 29.6626 33.3418 28.4809 33.3418C27.3222 33.3418 26.6163 33.7868 26.6163 34.5465C26.6163 35.3139 27.2762 35.5824 28.0972 35.7206L29.3557 35.9277C30.9057 36.1886 32.003 36.7028 32.003 38.153C32.003 39.6187 30.852 40.5318 28.7495 40.5318C26.6393 40.5318 25.3578 39.6187 25.166 38.1914V37.9612H26.4321C26.5242 38.9971 27.4527 39.5419 28.7495 39.5419C30.0463 39.5419 30.7139 38.9971 30.7139 38.2375C30.7139 37.4471 30.0309 37.1785 29.0411 37.0174L27.7826 36.8102C26.3554 36.5646 25.3271 35.9584 25.3271 34.6002Z" fill="#A8A8A8"/>
<path d="M4.7008 52.9563C4.7008 52.2185 4.36029 51.5829 3.36145 51.5829C2.26046 51.5829 1.53404 52.3547 1.53404 53.206V56.8608H0.796259V48.7453H1.53404V51.9007H1.55674C1.8859 51.424 2.51017 50.9359 3.54306 50.9359C4.57594 50.9359 5.43858 51.5148 5.43858 52.7974V56.8608H4.7008V52.9563ZM8.34871 57.0084C7.19097 57.0084 6.4532 56.3614 6.4532 55.3966C6.4532 54.1481 7.33853 53.7508 8.83678 53.4898C9.79022 53.3195 10.4031 53.2514 10.4031 52.559C10.4031 51.9688 10.0172 51.5715 9.08649 51.5715C7.9628 51.5715 7.56554 51.9688 7.50878 52.8201H6.72561C6.78236 51.7986 7.42933 50.9246 9.10919 50.9246C10.1761 50.9246 11.1182 51.3786 11.1182 52.7633V55.6577C11.1182 56.1231 11.1863 56.3387 11.4474 56.3387C11.4928 56.3387 11.5382 56.3387 11.6063 56.3274V56.8608C11.4814 56.8835 11.3566 56.9062 11.2204 56.9062C10.7323 56.9062 10.4485 56.7133 10.4031 55.9869H10.3804C9.98317 56.6452 9.2908 57.0084 8.34871 57.0084ZM7.22502 55.3285C7.22502 55.9982 7.59959 56.3614 8.43952 56.3614C9.61996 56.3614 10.4031 55.7371 10.4031 54.6929V53.6146C10.2329 53.853 9.61996 53.9892 8.92758 54.1027C7.80389 54.307 7.22502 54.5908 7.22502 55.3285ZM13.9455 56.8608L11.823 51.0721H12.6402L14.3768 56.1117H14.3882L16.1135 51.0721H16.908L14.7855 56.8608H13.9455ZM19.9854 57.0197C18.2147 57.0197 17.2272 55.7258 17.2272 53.9665C17.2272 52.1164 18.3169 50.9246 19.9854 50.9246C21.6539 50.9246 22.596 52.0937 22.596 53.7054C22.596 53.8643 22.596 54.0232 22.5846 54.114H17.999C18.0104 55.2831 18.6347 56.3841 19.9967 56.3841C21.1885 56.3841 21.6539 55.5669 21.7674 55.0902H22.5165C22.2327 56.1458 21.4382 57.0197 19.9854 57.0197ZM17.999 53.4671H21.8128C21.8128 52.4342 21.1431 51.5602 19.9513 51.5602C18.8276 51.5602 18.0558 52.3888 17.999 53.4671ZM28.349 57.0084C26.9416 57.0084 25.8065 55.8734 25.8065 53.9665C25.8065 52.071 26.9416 50.9359 28.349 50.9359C29.3592 50.9359 29.9608 51.4353 30.3013 52.0483H30.324V48.7453H31.0618V56.8608H30.324V55.9188H30.3013C29.9721 56.4863 29.3592 57.0084 28.349 57.0084ZM26.5784 53.9665C26.5784 55.2718 27.2367 56.3614 28.4398 56.3614C29.5522 56.3614 30.324 55.4307 30.324 53.9665C30.324 52.5136 29.5522 51.5829 28.4398 51.5829C27.2367 51.5829 26.5784 52.6725 26.5784 53.9665ZM32.4311 56.8608V51.0721H33.1689V56.8608H32.4311ZM32.3176 49.9144V48.961H33.271V49.9144H32.3176ZM35.2638 53.626V56.8608H34.526V51.0721H35.2638V52.2526H35.2865C35.5816 51.4921 36.1151 50.9359 36.9323 50.9359C37.1366 50.9359 37.2955 50.9473 37.4317 50.97V51.6964C37.3182 51.6737 37.1934 51.6624 37.0799 51.6624C36.0356 51.6624 35.2638 52.5023 35.2638 53.626ZM40.3474 57.0197C38.5767 57.0197 37.5892 55.7258 37.5892 53.9665C37.5892 52.1164 38.6789 50.9246 40.3474 50.9246C42.0159 50.9246 42.958 52.0937 42.958 53.7054C42.958 53.8643 42.958 54.0232 42.9466 54.114H38.3611C38.3724 55.2831 38.9967 56.3841 40.3587 56.3841C41.5505 56.3841 42.0159 55.5669 42.1294 55.0902H42.8785C42.5948 56.1458 41.8002 57.0197 40.3474 57.0197ZM38.3611 53.4671H42.1748C42.1748 52.4342 41.5051 51.5602 40.3133 51.5602C39.1896 51.5602 38.4178 52.3888 38.3611 53.4671ZM46.4438 57.0084C44.7866 57.0084 43.6743 55.7826 43.6743 53.9665C43.6743 52.1618 44.7866 50.9359 46.4438 50.9359C47.8512 50.9359 48.8047 51.878 48.9295 53.1039H48.1577C48.1123 52.4569 47.6469 51.5829 46.4438 51.5829C45.025 51.5829 44.4461 52.786 44.4461 53.9665C44.4461 55.1583 45.025 56.3728 46.4438 56.3728C47.6583 56.3728 48.1123 55.4988 48.1577 54.7951H48.9295C48.8501 56.0436 47.8512 57.0084 46.4438 57.0084ZM51.5689 56.9062C50.7289 56.9062 50.2068 56.6225 50.2068 55.3626V51.7191H49.3555V51.0721H50.2068V49.1426H50.9446V51.0721H52.1137V51.7191H50.9446V55.3739C50.9446 56.089 51.1035 56.2593 51.671 56.2593C51.8526 56.2593 51.9434 56.2479 52.1137 56.2366V56.8608C51.8867 56.8949 51.7505 56.9062 51.5689 56.9062ZM53.0702 56.8608V51.0721H53.808V56.8608H53.0702ZM52.9567 49.9144V48.961H53.9101V49.9144H52.9567ZM57.6282 57.0197C55.8916 57.0197 54.8473 55.7712 54.8473 53.9778C54.8473 52.1731 55.8916 50.9246 57.6282 50.9246C59.3648 50.9246 60.409 52.1731 60.409 53.9778C60.409 55.7712 59.3648 57.0197 57.6282 57.0197ZM55.6192 53.9778C55.6192 55.3058 56.2775 56.3728 57.6282 56.3728C58.9789 56.3728 59.6372 55.3058 59.6372 53.9778C59.6372 52.6385 58.9789 51.5715 57.6282 51.5715C56.2775 51.5715 55.6192 52.6385 55.6192 53.9778ZM65.3545 52.9563C65.3545 52.2185 65.014 51.5829 64.0152 51.5829C62.9142 51.5829 62.1878 52.3547 62.1878 53.206V56.8608H61.45V51.0721H62.1878V51.9007H62.2105C62.5396 51.424 63.1639 50.9359 64.1968 50.9359C65.2297 50.9359 66.0923 51.5148 66.0923 52.7974V56.8608H65.3545V52.9563ZM69.0025 57.0084C67.8447 57.0084 67.1069 56.3614 67.1069 55.3966C67.1069 54.1481 67.9923 53.7508 69.4905 53.4898C70.444 53.3195 71.0569 53.2514 71.0569 52.559C71.0569 51.9688 70.671 51.5715 69.7402 51.5715C68.6165 51.5715 68.2193 51.9688 68.1625 52.8201H67.3793C67.4361 51.7986 68.0831 50.9246 69.7629 50.9246C70.8299 50.9246 71.772 51.3786 71.772 52.7633V55.6577C71.772 56.1231 71.8401 56.3387 72.1011 56.3387C72.1465 56.3387 72.1919 56.3387 72.26 56.3274V56.8608C72.1352 56.8835 72.0103 56.9062 71.8741 56.9062C71.386 56.9062 71.1023 56.7133 71.0569 55.9869H71.0342C70.6369 56.6452 69.9445 57.0084 69.0025 57.0084ZM67.8788 55.3285C67.8788 55.9982 68.2533 56.3614 69.0933 56.3614C70.2737 56.3614 71.0569 55.7371 71.0569 54.6929V53.6146C70.8866 53.853 70.2737 53.9892 69.5813 54.1027C68.4576 54.307 67.8788 54.5908 67.8788 55.3285ZM73.2438 56.8608V48.7453H73.9816V56.8608H73.2438ZM3.15714 71.938C1.59079 71.938 0.762208 71.1775 0.671404 70.1673H1.44323C1.55674 70.7802 2.0448 71.291 3.16849 71.291C4.33759 71.291 5.02996 70.7802 5.02996 69.5998V68.5215H5.00726C4.66675 69.1231 4.03113 69.5884 3.05499 69.5884C1.67024 69.5884 0.512499 68.6804 0.512499 66.7508C0.512499 64.844 1.67024 63.9359 3.05499 63.9359C4.03113 63.9359 4.66675 64.4013 5.00726 64.9802H5.02996V64.0721H5.76774V69.4976C5.76774 71.1321 4.7462 71.938 3.15714 71.938ZM1.28433 66.7508C1.28433 68.0788 1.96535 68.9415 3.15714 68.9415C4.22408 68.9415 5.02996 68.2377 5.02996 66.7508C5.02996 65.2866 4.22408 64.5829 3.15714 64.5829C1.96535 64.5829 1.28433 65.4455 1.28433 66.7508ZM9.5774 70.0197C7.84078 70.0197 6.79655 68.7712 6.79655 66.9778C6.79655 65.1731 7.84078 63.9246 9.5774 63.9246C11.314 63.9246 12.3582 65.1731 12.3582 66.9778C12.3582 68.7712 11.314 70.0197 9.5774 70.0197ZM7.56837 66.9778C7.56837 68.3058 8.2267 69.3728 9.5774 69.3728C10.9281 69.3728 11.5864 68.3058 11.5864 66.9778C11.5864 65.6385 10.9281 64.5715 9.5774 64.5715C8.2267 64.5715 7.56837 65.6385 7.56837 66.9778ZM14.9883 70.0084C13.8305 70.0084 13.0927 69.3614 13.0927 68.3966C13.0927 67.1481 13.9781 66.7508 15.4763 66.4898C16.4298 66.3195 17.0427 66.2514 17.0427 65.559C17.0427 64.9688 16.6568 64.5715 15.726 64.5715C14.6023 64.5715 14.2051 64.9688 14.1483 65.8201H13.3652C13.4219 64.7986 14.0689 63.9246 15.7487 63.9246C16.8157 63.9246 17.7578 64.3786 17.7578 65.7633V68.6577C17.7578 69.1231 17.8259 69.3387 18.0869 69.3387C18.1323 69.3387 18.1777 69.3387 18.2458 69.3274V69.8608C18.121 69.8835 17.9961 69.9062 17.8599 69.9062C17.3718 69.9062 17.0881 69.7133 17.0427 68.9869H17.02C16.6227 69.6452 15.9303 70.0084 14.9883 70.0084ZM13.8646 68.3285C13.8646 68.9982 14.2391 69.3614 15.0791 69.3614C16.2595 69.3614 17.0427 68.7371 17.0427 67.6929V66.6146C16.8724 66.853 16.2595 66.9892 15.5671 67.1027C14.4434 67.307 13.8646 67.5908 13.8646 68.3285ZM19.2296 69.8608V61.7453H19.9674V69.8608H19.2296ZM23.4584 70.0084C21.8353 70.0084 20.95 69.1231 20.9159 67.9653H21.6877C21.7331 68.7599 22.2553 69.3614 23.4698 69.3614C24.5708 69.3614 24.9453 68.8507 24.9453 68.2831C24.9453 67.4319 24.0827 67.341 23.2768 67.1481C22.2099 66.8757 21.1316 66.6146 21.1316 65.4909C21.1316 64.5488 21.8807 63.9359 23.186 63.9359C24.6956 63.9359 25.3993 64.7418 25.5015 65.6952H24.7297C24.6275 65.1845 24.321 64.5829 23.1974 64.5829C22.3688 64.5829 21.9034 64.9007 21.9034 65.4455C21.9034 66.172 22.6866 66.2741 23.5606 66.4898C24.6502 66.7508 25.7285 67.0573 25.7285 68.2604C25.7285 69.316 24.8886 70.0084 23.4584 70.0084ZM31.6129 70.0197C29.8422 70.0197 28.8547 68.7258 28.8547 66.9665C28.8547 65.1164 29.9444 63.9246 31.6129 63.9246C33.2814 63.9246 34.2235 65.0937 34.2235 66.7054C34.2235 66.8643 34.2235 67.0232 34.2121 67.114H29.6266C29.6379 68.2831 30.2622 69.3841 31.6242 69.3841C32.816 69.3841 33.2814 68.5669 33.3949 68.0902H34.144C33.8603 69.1458 33.0657 70.0197 31.6129 70.0197ZM29.6266 66.4671H33.4403C33.4403 65.4342 32.7706 64.5602 31.5788 64.5602C30.4551 64.5602 29.6833 65.3888 29.6266 66.4671ZM38.7535 65.9563C38.7535 65.2299 38.5833 64.5829 37.6185 64.5829C36.6083 64.5829 35.9954 65.3661 35.9954 66.206V69.8608H35.2576V64.0721H35.9954V64.8894H36.0181C36.3245 64.424 36.8694 63.9359 37.7774 63.9359C38.5946 63.9359 39.1167 64.3105 39.3324 65.0029H39.3551C39.7297 64.424 40.3539 63.9359 41.2733 63.9359C42.3743 63.9359 42.9759 64.5943 42.9759 65.7974V69.8608H42.2381V65.9563C42.2381 65.2299 42.0678 64.5829 41.1144 64.5829C40.0929 64.5829 39.4913 65.3661 39.4913 66.206V69.8608H38.7535V65.9563ZM47.0041 69.997C45.9939 69.997 45.3924 69.4976 45.0519 68.8734H45.0292V69.8608H44.2914V61.7453H45.0292V65.0029H45.0519C45.3924 64.4467 45.9939 63.9246 47.0041 63.9246C48.4229 63.9246 49.558 65.0596 49.558 66.9665C49.558 68.862 48.4229 69.997 47.0041 69.997ZM45.0292 66.9665C45.0292 68.4193 45.8123 69.3501 46.9247 69.3501C48.1278 69.3501 48.7861 68.2604 48.7861 66.9665C48.7861 65.6612 48.1278 64.5602 46.9247 64.5602C45.8123 64.5602 45.0292 65.5023 45.0292 66.9665ZM53.0612 70.0197C51.2905 70.0197 50.303 68.7258 50.303 66.9665C50.303 65.1164 51.3927 63.9246 53.0612 63.9246C54.7297 63.9246 55.6718 65.0937 55.6718 66.7054C55.6718 66.8643 55.6718 67.0232 55.6604 67.114H51.0748C51.0862 68.2831 51.7105 69.3841 53.0725 69.3841C54.2643 69.3841 54.7297 68.5669 54.8432 68.0902H55.5923C55.3085 69.1458 54.514 70.0197 53.0612 70.0197ZM51.0748 66.4671H54.8886C54.8886 65.4342 54.2189 64.5602 53.0271 64.5602C51.9034 64.5602 51.1316 65.3888 51.0748 66.4671ZM58.9419 70.0084C57.5345 70.0084 56.3994 68.8734 56.3994 66.9665C56.3994 65.071 57.5345 63.9359 58.9419 63.9359C59.9521 63.9359 60.5537 64.4353 60.8942 65.0483H60.9169V61.7453H61.6547V69.8608H60.9169V68.9188H60.8942C60.565 69.4863 59.9521 70.0084 58.9419 70.0084ZM57.1713 66.9665C57.1713 68.2718 57.8296 69.3614 59.0327 69.3614C60.1451 69.3614 60.9169 68.4307 60.9169 66.9665C60.9169 65.5136 60.1451 64.5829 59.0327 64.5829C57.8296 64.5829 57.1713 65.6725 57.1713 66.9665ZM65.26 70.0084C63.8526 70.0084 62.7175 68.8734 62.7175 66.9665C62.7175 65.071 63.8526 63.9359 65.26 63.9359C66.2702 63.9359 66.8718 64.4353 67.2123 65.0483H67.235V61.7453H67.9728V69.8608H67.235V68.9188H67.2123C66.8831 69.4863 66.2702 70.0084 65.26 70.0084ZM63.4893 66.9665C63.4893 68.2718 64.1477 69.3614 65.3508 69.3614C66.4632 69.3614 67.235 68.4307 67.235 66.9665C67.235 65.5136 66.4632 64.5829 65.3508 64.5829C64.1477 64.5829 63.4893 65.6725 63.4893 66.9665ZM71.7938 70.0197C70.0231 70.0197 69.0356 68.7258 69.0356 66.9665C69.0356 65.1164 70.1253 63.9246 71.7938 63.9246C73.4623 63.9246 74.4044 65.0937 74.4044 66.7054C74.4044 66.8643 74.4044 67.0232 74.393 67.114H69.8074C69.8188 68.2831 70.4431 69.3841 71.8051 69.3841C72.9969 69.3841 73.4623 68.5669 73.5758 68.0902H74.3249C74.0412 69.1458 73.2466 70.0197 71.7938 70.0197ZM69.8074 66.4671H73.6212C73.6212 65.4342 72.9515 64.5602 71.7597 64.5602C70.636 64.5602 69.8642 65.3888 69.8074 66.4671ZM77.6745 70.0084C76.2671 70.0084 75.132 68.8734 75.132 66.9665C75.132 65.071 76.2671 63.9359 77.6745 63.9359C78.6847 63.9359 79.2863 64.4353 79.6268 65.0483H79.6495V61.7453H80.3873V69.8608H79.6495V68.9188H79.6268C79.2976 69.4863 78.6847 70.0084 77.6745 70.0084ZM75.9039 66.9665C75.9039 68.2718 76.5622 69.3614 77.7653 69.3614C78.8777 69.3614 79.6495 68.4307 79.6495 66.9665C79.6495 65.5136 78.8777 64.5829 77.7653 64.5829C76.5622 64.5829 75.9039 65.6725 75.9039 66.9665ZM84.2395 69.8608V64.0721H84.9773V69.8608H84.2395ZM84.126 62.9144V61.961H85.0794V62.9144H84.126ZM90.239 65.9563C90.239 65.2185 89.8985 64.5829 88.8996 64.5829C87.7986 64.5829 87.0722 65.3547 87.0722 66.206V69.8608H86.3344V64.0721H87.0722V64.9007H87.0949C87.4241 64.424 88.0483 63.9359 89.0812 63.9359C90.1141 63.9359 90.9768 64.5148 90.9768 65.7974V69.8608H90.239V65.9563ZM3.03229 83.0084C1.62484 83.0084 0.489798 81.8734 0.489798 79.9665C0.489798 78.071 1.62484 76.9359 3.03229 76.9359C4.04248 76.9359 4.64405 77.4353 4.98456 78.0483H5.00726V74.7453H5.74504V82.8608H5.00726V81.9188H4.98456C4.6554 82.4863 4.04248 83.0084 3.03229 83.0084ZM1.26163 79.9665C1.26163 81.2718 1.91995 82.3614 3.12309 82.3614C4.23543 82.3614 5.00726 81.4307 5.00726 79.9665C5.00726 78.5136 4.23543 77.5829 3.12309 77.5829C1.91995 77.5829 1.26163 78.6725 1.26163 79.9665ZM7.11436 82.8608V77.0721H7.85213V82.8608H7.11436ZM7.00085 75.9144V74.961H7.95429V75.9144H7.00085ZM10.7643 82.8608L8.64178 77.0721H9.45901L11.1956 82.1117H11.207L12.9322 77.0721H13.7268L11.6042 82.8608H10.7643ZM16.8041 83.0197C15.0335 83.0197 14.046 81.7258 14.046 79.9665C14.046 78.1164 15.1356 76.9246 16.8041 76.9246C18.4727 76.9246 19.4147 78.0937 19.4147 79.7054C19.4147 79.8643 19.4147 80.0232 19.4034 80.114H14.8178C14.8292 81.2831 15.4534 82.3841 16.8155 82.3841C18.0073 82.3841 18.4727 81.5669 18.5862 81.0902H19.3353C19.0515 82.1458 18.257 83.0197 16.8041 83.0197ZM14.8178 79.4671H18.6316C18.6316 78.4342 17.9619 77.5602 16.7701 77.5602C15.6464 77.5602 14.8746 78.3888 14.8178 79.4671ZM21.1866 79.626V82.8608H20.4489V77.0721H21.1866V78.2526H21.2093C21.5045 77.4921 22.0379 76.9359 22.8552 76.9359C23.0595 76.9359 23.2184 76.9473 23.3546 76.97V77.6964C23.2411 77.6737 23.1162 77.6624 23.0027 77.6624C21.9585 77.6624 21.1866 78.5023 21.1866 79.626ZM26.1297 83.0084C24.5066 83.0084 23.6213 82.1231 23.5873 80.9653H24.3591C24.4045 81.7599 24.9266 82.3614 26.1411 82.3614C27.2421 82.3614 27.6167 81.8507 27.6167 81.2831C27.6167 80.4319 26.754 80.341 25.9481 80.1481C24.8812 79.8757 23.8029 79.6146 23.8029 78.4909C23.8029 77.5488 24.552 76.9359 25.8573 76.9359C27.3669 76.9359 28.0707 77.7418 28.1728 78.6952H27.401C27.2988 78.1845 26.9924 77.5829 25.8687 77.5829C25.0401 77.5829 24.5747 77.9007 24.5747 78.4455C24.5747 79.172 25.3579 79.2741 26.2319 79.4898C27.3215 79.7508 28.3998 80.0573 28.3998 81.2604C28.3998 82.316 27.5599 83.0084 26.1297 83.0084ZM31.8013 83.0197C30.0307 83.0197 29.0432 81.7258 29.0432 79.9665C29.0432 78.1164 30.1328 76.9246 31.8013 76.9246C33.4698 76.9246 34.4119 78.0937 34.4119 79.7054C34.4119 79.8643 34.4119 80.0232 34.4006 80.114H29.815C29.8263 81.2831 30.4506 82.3841 31.8127 82.3841C33.0045 82.3841 33.4698 81.5669 33.5833 81.0902H34.3325C34.0487 82.1458 33.2542 83.0197 31.8013 83.0197ZM29.815 79.4671H33.6287C33.6287 78.4342 32.9591 77.5602 31.7673 77.5602C30.6436 77.5602 29.8717 78.3888 29.815 79.4671ZM40.3806 83.0084C38.7235 83.0084 37.6111 81.7826 37.6111 79.9665C37.6111 78.1618 38.7235 76.9359 40.3806 76.9359C41.7881 76.9359 42.7415 77.878 42.8664 79.1039H42.0945C42.0491 78.4569 41.5838 77.5829 40.3806 77.5829C38.9618 77.5829 38.383 78.786 38.383 79.9665C38.383 81.1583 38.9618 82.3728 40.3806 82.3728C41.5951 82.3728 42.0491 81.4988 42.0945 80.7951H42.8664C42.7869 82.0436 41.7881 83.0084 40.3806 83.0084ZM46.3221 83.0197C44.5855 83.0197 43.5413 81.7712 43.5413 79.9778C43.5413 78.1731 44.5855 76.9246 46.3221 76.9246C48.0587 76.9246 49.103 78.1731 49.103 79.9778C49.103 81.7712 48.0587 83.0197 46.3221 83.0197ZM44.3131 79.9778C44.3131 81.3058 44.9714 82.3728 46.3221 82.3728C47.6728 82.3728 48.3311 81.3058 48.3311 79.9778C48.3311 78.6385 47.6728 77.5715 46.3221 77.5715C44.9714 77.5715 44.3131 78.6385 44.3131 79.9778ZM54.0485 78.9563C54.0485 78.2185 53.708 77.5829 52.7091 77.5829C51.6081 77.5829 50.8817 78.3547 50.8817 79.206V82.8608H50.1439V77.0721H50.8817V77.9007H50.9044C51.2336 77.424 51.8578 76.9359 52.8907 76.9359C53.9236 76.9359 54.7862 77.5148 54.7862 78.7974V82.8608H54.0485V78.9563ZM57.7318 82.9062C56.8918 82.9062 56.3697 82.6225 56.3697 81.3626V77.7191H55.5184V77.0721H56.3697V75.1426H57.1075V77.0721H58.2766V77.7191H57.1075V81.3739C57.1075 82.089 57.2664 82.2593 57.8339 82.2593C58.0155 82.2593 58.1063 82.2479 58.2766 82.2366V82.8608C58.0496 82.8949 57.9134 82.9062 57.7318 82.9062ZM61.5518 83.0197C59.7811 83.0197 58.7936 81.7258 58.7936 79.9665C58.7936 78.1164 59.8833 76.9246 61.5518 76.9246C63.2203 76.9246 64.1624 78.0937 64.1624 79.7054C64.1624 79.8643 64.1624 80.0232 64.151 80.114H59.5655C59.5768 81.2831 60.2011 82.3841 61.5631 82.3841C62.7549 82.3841 63.2203 81.5669 63.3338 81.0902H64.0829C63.7992 82.1458 63.0047 83.0197 61.5518 83.0197ZM59.5655 79.4671H63.3792C63.3792 78.4342 62.7095 77.5602 61.5177 77.5602C60.3941 77.5602 59.6222 78.3888 59.5655 79.4671ZM64.1703 82.8608L66.4404 79.8984L64.3519 77.0721H65.2486L66.883 79.3763H66.9057L68.5288 77.0721H69.4142L67.337 79.8984L69.6185 82.8608H68.7218L66.8944 80.3978H66.8717L65.0556 82.8608H64.1703ZM71.8976 82.9062C71.0577 82.9062 70.5356 82.6225 70.5356 81.3626V77.7191H69.6843V77.0721H70.5356V75.1426H71.2733V77.0721H72.4424V77.7191H71.2733V81.3739C71.2733 82.089 71.4322 82.2593 71.9998 82.2593C72.1814 82.2593 72.2722 82.2479 72.4424 82.2366V82.8608C72.2154 82.8949 72.0792 82.9062 71.8976 82.9062ZM75.5328 83.0084C73.9097 83.0084 73.0244 82.1231 72.9904 80.9653H73.7622C73.8076 81.7599 74.3297 82.3614 75.5442 82.3614C76.6452 82.3614 77.0197 81.8507 77.0197 81.2831C77.0197 80.4319 76.1571 80.341 75.3512 80.1481C74.2843 79.8757 73.206 79.6146 73.206 78.4909C73.206 77.5488 73.9551 76.9359 75.2604 76.9359C76.77 76.9359 77.4738 77.7418 77.5759 78.6952H76.8041C76.7019 78.1845 76.3955 77.5829 75.2718 77.5829C74.4432 77.5829 73.9778 77.9007 73.9778 78.4455C73.9778 79.172 74.761 79.2741 75.635 79.4898C76.7246 79.7508 77.8029 80.0573 77.8029 81.2604C77.8029 82.316 76.963 83.0084 75.5328 83.0084Z" fill="#595959"/>
<path d="M16.3848 0.409668L16.3848 20.1216" stroke="#595959" stroke-width="0.378347"/>
</svg>
