<svg width="668" height="943" viewBox="0 0 668 943" fill="none" xmlns="http://www.w3.org/2000/svg">
<g opacity="0.7" clip-path="url(#clip0_1355_9999)">
<mask id="mask0_1355_9999" style="mask-type:alpha" maskUnits="userSpaceOnUse" x="-309" y="-31" width="899" height="833">
<rect x="-308.373" y="-30.6492" width="897.66" height="832.266" fill="url(#paint0_linear_1355_9999)"/>
</mask>
<g mask="url(#mask0_1355_9999)">
<rect width="68.534" height="68.534" transform="translate(4.81055 5.98505)" fill="#212121"/>
<path d="M12.8428 25.8384V15.9695H16.6533C18.4626 15.9695 19.5866 16.8879 19.5866 18.3682C19.5866 19.4511 18.9835 20.2872 18.0651 20.6299C19.1343 20.9725 19.8607 21.9731 19.8607 23.2067C19.8607 24.783 18.6408 25.8384 16.8315 25.8384H12.8428ZM16.5574 16.9016H13.9668V20.2187H16.4889C17.7362 20.2187 18.4626 19.5881 18.4626 18.4916C18.4626 17.4636 17.791 16.9016 16.5574 16.9016ZM16.6396 21.1233H13.9668V24.9064H16.7356C17.9418 24.9064 18.7094 24.2073 18.7094 23.0834C18.7094 21.8909 17.9007 21.1233 16.6396 21.1233ZM21.5568 25.8384V15.9695H22.6808V24.8516H27.7523V25.8384H21.5568Z" fill="#393939"/>
<path d="M12.3713 55.6656V49.7443H14.6576C15.7432 49.7443 16.4176 50.2953 16.4176 51.1835C16.4176 51.8332 16.0557 52.3349 15.5047 52.5405C16.1462 52.7461 16.5821 53.3465 16.5821 54.0866C16.5821 55.0324 15.8501 55.6656 14.7645 55.6656H12.3713ZM14.6001 50.3036H13.0457V52.2938H14.5589C15.3073 52.2938 15.7432 51.9155 15.7432 51.2575C15.7432 50.6407 15.3402 50.3036 14.6001 50.3036ZM14.6494 52.8366H13.0457V55.1064H14.707C15.4307 55.1064 15.8912 54.687 15.8912 54.0126C15.8912 53.2971 15.406 52.8366 14.6494 52.8366ZM19.2692 55.7479C18.0685 55.7479 17.2214 54.835 17.2214 53.5521C17.2214 52.2691 18.0603 51.3891 19.2857 51.3891C20.4535 51.3891 21.2019 52.1951 21.2019 53.4451C21.2019 53.5603 21.1936 53.6508 21.1772 53.7659H17.904C17.9863 54.6376 18.5126 55.1887 19.3021 55.1887C19.8367 55.1887 20.2643 54.9419 20.4535 54.5061H21.0785C20.8071 55.2791 20.1245 55.7479 19.2692 55.7479ZM19.2857 51.9484C18.5455 51.9484 18.0274 52.4336 17.9205 53.2149H20.5439C20.4617 52.4007 20.0094 51.9484 19.2857 51.9484ZM22.4419 57.3516L23.2972 55.3614L21.5702 51.4714H22.2939L23.6508 54.6376L24.9009 51.4714H25.5753L23.141 57.3516H22.4419ZM28.0239 55.7479C26.7821 55.7479 25.9515 54.8021 25.9515 53.5521C25.9515 52.2938 26.7903 51.3891 28.0239 51.3891C29.2658 51.3891 30.0964 52.2938 30.0964 53.5521C30.0964 54.8021 29.274 55.7479 28.0239 55.7479ZM28.0239 55.1887C28.871 55.1887 29.422 54.5143 29.422 53.5438C29.422 52.5816 28.871 51.9484 28.0239 51.9484C27.1851 51.9484 26.6258 52.5816 26.6258 53.5438C26.6258 54.5143 27.1851 55.1887 28.0239 55.1887ZM31.0832 55.6656V51.4714H31.7V52.2691C32.0043 51.7181 32.5964 51.3891 33.2872 51.3891C34.159 51.3891 34.7429 51.9319 34.7429 52.7461V55.6656H34.085V52.9188C34.085 52.2856 33.7642 51.9648 33.1392 51.9648C32.3168 51.9648 31.7411 52.5487 31.7411 53.3958V55.6656H31.0832ZM39.0575 55.6656V54.9173C38.8026 55.4354 38.2598 55.7479 37.5772 55.7479C36.434 55.7479 35.6939 54.8844 35.6939 53.585C35.6939 52.2691 36.4505 51.3974 37.6018 51.3974C38.2598 51.3974 38.7532 51.677 39.0164 52.1704V49.7443H39.6743V55.6656H39.0575ZM37.7005 55.1722C38.5394 55.1722 39.0493 54.5554 39.0493 53.5603C39.0493 52.5816 38.5312 51.973 37.7005 51.973C36.8699 51.973 36.3682 52.5816 36.3682 53.585C36.3682 54.5718 36.8699 55.1722 37.7005 55.1722ZM12.3713 65.6656V59.7443H13.0457V65.0735H16.0886V65.6656H12.3713ZM18.083 65.7479C17.2112 65.7479 16.6684 65.2956 16.6684 64.5636C16.6684 63.8317 17.1783 63.4451 18.1487 63.2807L19.4235 63.0668V62.8777C19.4235 62.2444 19.1439 61.9484 18.5024 61.9484C17.8691 61.9484 17.4661 62.2198 17.425 62.6885H16.7918C16.8493 61.8826 17.5155 61.3891 18.5271 61.3891C19.5633 61.3891 20.065 61.8826 20.065 62.8695V64.8844C20.065 65.1311 20.0979 65.3778 20.1554 65.6656H19.5222C19.4893 65.5012 19.4728 65.312 19.4646 65.0242C19.2426 65.4847 18.7409 65.7479 18.083 65.7479ZM17.3099 64.539C17.3099 64.9666 17.606 65.1887 18.1734 65.1887C18.9054 65.1887 19.4235 64.8186 19.4235 64.284V63.6096L18.2474 63.7906C17.6306 63.8892 17.3099 64.1031 17.3099 64.539ZM23.4056 65.7397C22.7148 65.7397 22.1967 65.4272 21.9499 64.8844V65.6656H21.3331V59.7443H21.9911V62.2033C22.2542 61.6934 22.7888 61.3891 23.4632 61.3891C24.5734 61.3891 25.3136 62.2527 25.3136 63.5521C25.3136 64.8679 24.557 65.7397 23.4056 65.7397ZM23.3069 65.164C24.1375 65.164 24.6392 64.5554 24.6392 63.5521C24.6392 62.5652 24.1375 61.9648 23.3069 61.9648C22.4681 61.9648 21.9582 62.5816 21.9582 63.5767C21.9582 64.5554 22.4763 65.164 23.3069 65.164ZM28.0641 65.7479C26.8223 65.7479 25.9916 64.8021 25.9916 63.5521C25.9916 62.2938 26.8305 61.3891 28.0641 61.3891C29.3059 61.3891 30.1366 62.2938 30.1366 63.5521C30.1366 64.8021 29.3142 65.7479 28.0641 65.7479ZM28.0641 65.1887C28.9112 65.1887 29.4622 64.5143 29.4622 63.5438C29.4622 62.5816 28.9112 61.9484 28.0641 61.9484C27.2252 61.9484 26.666 62.5816 26.666 63.5438C26.666 64.5143 27.2252 65.1887 28.0641 65.1887ZM31.1233 65.6656V61.4714H31.7401V62.2856C31.9786 61.7016 32.4803 61.3891 33.0724 61.3891C33.2122 61.3891 33.2945 61.3974 33.352 61.422V62.0553C33.2945 62.0388 33.1958 62.0306 33.056 62.0306C32.2253 62.0306 31.7812 62.5487 31.7812 63.478V65.6656H31.1233Z" fill="#393939"/>
<rect width="68.534" height="68.534" transform="translate(78.4844 5.98505)" fill="#212121"/>
<path d="M90.6972 25.9755C87.9833 25.9755 86.0232 23.851 86.0232 20.904C86.0232 17.957 87.9696 15.8325 90.6835 15.8325C92.8903 15.8325 94.5489 17.2854 94.8367 19.4785H93.7127C93.4934 17.8474 92.3558 16.8468 90.6972 16.8468C88.5727 16.8468 87.1746 18.5053 87.1746 20.904C87.1746 23.3164 88.5864 24.9612 90.6835 24.9612C92.3832 24.9612 93.5346 23.9469 93.7402 22.3295H94.8641C94.5763 24.5363 92.9315 25.9755 90.6972 25.9755ZM100.021 25.9618C97.718 25.9618 96.3062 24.7967 96.0732 22.6859H97.1697C97.3753 24.2073 98.3211 24.9749 100.007 24.9749C101.433 24.9749 102.159 24.4266 102.159 23.3849C102.159 22.494 101.679 22.0142 100.638 21.6579L98.979 21.0822C97.2931 20.4928 96.5118 19.7115 96.5118 18.4368C96.5118 16.8605 97.7866 15.8188 99.7192 15.8188C101.693 15.8188 102.927 16.9016 103.118 18.7931H102.022C101.789 17.4225 101.076 16.8057 99.6918 16.8057C98.3759 16.8057 97.6084 17.3676 97.6084 18.3271C97.6084 19.1495 98.1018 19.5881 99.1846 19.9582L100.953 20.575C102.488 21.1096 103.256 21.9868 103.256 23.3712C103.256 25.016 102.077 25.9618 100.021 25.9618Z" fill="#393939"/>
<path d="M88.5535 55.7479C86.9251 55.7479 85.7491 54.4732 85.7491 52.705C85.7491 50.9368 86.9169 49.6621 88.5453 49.6621C89.8694 49.6621 90.8645 50.5338 91.0372 51.8497H90.3628C90.2312 50.871 89.5486 50.2707 88.5535 50.2707C87.2788 50.2707 86.4399 51.2658 86.4399 52.705C86.4399 54.1524 87.287 55.1393 88.5453 55.1393C89.5651 55.1393 90.2559 54.5307 90.3793 53.5603H91.0536C90.8809 54.8844 89.894 55.7479 88.5535 55.7479ZM93.1141 55.7479C92.2423 55.7479 91.6995 55.2956 91.6995 54.5636C91.6995 53.8317 92.2094 53.4451 93.1799 53.2807L94.4546 53.0668V52.8777C94.4546 52.2444 94.175 51.9484 93.5335 51.9484C92.9003 51.9484 92.4973 52.2198 92.4562 52.6885H91.8229C91.8805 51.8826 92.5466 51.3891 93.5582 51.3891C94.5944 51.3891 95.0961 51.8826 95.0961 52.8695V54.8844C95.0961 55.1311 95.129 55.3778 95.1865 55.6656H94.5533C94.5204 55.5012 94.5039 55.312 94.4957 55.0242C94.2737 55.4847 93.772 55.7479 93.1141 55.7479ZM92.341 54.539C92.341 54.9666 92.6371 55.1887 93.2045 55.1887C93.9365 55.1887 94.4546 54.8186 94.4546 54.284V53.6096L93.2786 53.7906C92.6618 53.8892 92.341 54.1031 92.341 54.539ZM98.4367 55.7397C97.7788 55.7397 97.2854 55.46 97.0222 54.9666V57.3516H96.3643V51.4714H96.9811V52.2115C97.2442 51.6934 97.8199 51.3891 98.4943 51.3891C99.6045 51.3891 100.345 52.2527 100.345 53.5521C100.345 54.8679 99.5881 55.7397 98.4367 55.7397ZM98.338 55.164C99.1687 55.164 99.6703 54.5554 99.6703 53.5521C99.6703 52.5652 99.1687 51.9648 98.338 51.9648C97.4992 51.9648 96.9893 52.5816 96.9893 53.5767C96.9893 54.5554 97.5074 55.164 98.338 55.164ZM101.286 50.5174V49.7443H102.043V50.5174H101.286ZM101.336 55.6656V51.4714H101.994V55.6656H101.336ZM104.973 55.7397C104.035 55.7397 103.641 55.312 103.641 54.5061V52.0306H102.777V51.4714H103.641V50.4927L104.299 50.246V51.4714H105.549V52.0306H104.299V54.4978C104.299 54.9748 104.521 55.1804 105.072 55.1804C105.286 55.1804 105.45 55.1475 105.549 55.1064V55.6656C105.434 55.7068 105.228 55.7397 104.973 55.7397ZM107.53 55.7479C106.659 55.7479 106.116 55.2956 106.116 54.5636C106.116 53.8317 106.626 53.4451 107.596 53.2807L108.871 53.0668V52.8777C108.871 52.2444 108.591 51.9484 107.95 51.9484C107.316 51.9484 106.914 52.2198 106.872 52.6885H106.239C106.297 51.8826 106.963 51.3891 107.974 51.3891C109.011 51.3891 109.512 51.8826 109.512 52.8695V54.8844C109.512 55.1311 109.545 55.3778 109.603 55.6656H108.97C108.937 55.5012 108.92 55.312 108.912 55.0242C108.69 55.4847 108.188 55.7479 107.53 55.7479ZM106.757 54.539C106.757 54.9666 107.053 55.1887 107.621 55.1887C108.353 55.1887 108.871 54.8186 108.871 54.284V53.6096L107.695 53.7906C107.078 53.8892 106.757 54.1031 106.757 54.539ZM110.78 55.6656V49.7443H111.438V55.6656H110.78ZM88.0518 65.7397C86.6702 65.7397 85.8231 65.0406 85.6833 63.7741H86.3412C86.4646 64.687 87.0321 65.1475 88.0436 65.1475C88.8989 65.1475 89.3348 64.8186 89.3348 64.1935C89.3348 63.659 89.047 63.3711 88.4219 63.1573L87.4268 62.8119C86.4152 62.4583 85.9465 61.9895 85.9465 61.2246C85.9465 60.2789 86.7113 59.6538 87.8709 59.6538C89.0552 59.6538 89.7953 60.3036 89.9105 61.4385H89.2526C89.1127 60.6161 88.6851 60.246 87.8545 60.246C87.0649 60.246 86.6044 60.5832 86.6044 61.1589C86.6044 61.6523 86.9005 61.9155 87.5502 62.1375L88.6111 62.5076C89.5322 62.8283 89.9927 63.3547 89.9927 64.1853C89.9927 65.1722 89.2854 65.7397 88.0518 65.7397ZM91.3612 67.3516L92.2165 65.3614L90.4894 61.4714H91.2132L92.5701 64.6376L93.8202 61.4714H94.4946L92.0602 67.3516H91.3612ZM96.6305 65.7479C95.6025 65.7479 94.9528 65.2544 94.8706 64.3745H95.5038C95.5778 64.9173 95.989 65.2051 96.647 65.2051C97.2309 65.2051 97.5763 64.9748 97.5763 64.5718C97.5763 64.284 97.4365 64.0702 96.8772 63.9304L96.2029 63.7577C95.4298 63.5603 95.0515 63.1409 95.0515 62.5652C95.0515 61.8415 95.6272 61.3891 96.5483 61.3891C97.4611 61.3891 98.0615 61.8497 98.1437 62.631H97.5105C97.4365 62.1786 97.0828 61.9319 96.5236 61.9319C95.9808 61.9319 95.6765 62.1457 95.6765 62.5158C95.6765 62.8037 95.8657 63.0093 96.3756 63.1491L97.0335 63.33C97.8148 63.5438 98.2095 63.9797 98.2095 64.5801C98.2095 65.312 97.6174 65.7479 96.6305 65.7479ZM100.773 65.7397C99.8351 65.7397 99.4403 65.312 99.4403 64.5061V62.0306H98.5768V61.4714H99.4403V60.4927L100.098 60.246V61.4714H101.348V62.0306H100.098V64.4978C100.098 64.9748 100.32 65.1804 100.871 65.1804C101.085 65.1804 101.25 65.1475 101.348 65.1064V65.6656C101.233 65.7068 101.028 65.7397 100.773 65.7397ZM103.825 65.7479C102.625 65.7479 101.778 64.835 101.778 63.5521C101.778 62.2691 102.617 61.3891 103.842 61.3891C105.01 61.3891 105.758 62.1951 105.758 63.4451C105.758 63.5603 105.75 63.6508 105.733 63.7659H102.46C102.543 64.6376 103.069 65.1887 103.858 65.1887C104.393 65.1887 104.821 64.9419 105.01 64.5061H105.635C105.363 65.2791 104.681 65.7479 103.825 65.7479ZM103.842 61.9484C103.102 61.9484 102.584 62.4336 102.477 63.2149H105.1C105.018 62.4007 104.566 61.9484 103.842 61.9484ZM106.749 65.6656V61.4714H107.366V62.2691C107.67 61.7181 108.254 61.3891 108.871 61.3891C109.504 61.3891 109.981 61.7016 110.162 62.228C110.474 61.7099 111.066 61.3891 111.683 61.3891C112.489 61.3891 113.065 61.899 113.065 62.7132V65.6656H112.407V62.8859C112.407 62.2527 112.111 61.9648 111.576 61.9648C110.811 61.9648 110.236 62.5487 110.236 63.3958V65.6656H109.578V62.8859C109.578 62.2527 109.282 61.9648 108.747 61.9648C107.982 61.9648 107.407 62.5487 107.407 63.3958V65.6656H106.749ZM115.737 65.7479C114.709 65.7479 114.059 65.2544 113.977 64.3745H114.61C114.684 64.9173 115.096 65.2051 115.753 65.2051C116.337 65.2051 116.683 64.9748 116.683 64.5718C116.683 64.284 116.543 64.0702 115.984 63.9304L115.309 63.7577C114.536 63.5603 114.158 63.1409 114.158 62.5652C114.158 61.8415 114.734 61.3891 115.655 61.3891C116.568 61.3891 117.168 61.8497 117.25 62.631H116.617C116.543 62.1786 116.189 61.9319 115.63 61.9319C115.087 61.9319 114.783 62.1457 114.783 62.5158C114.783 62.8037 114.972 63.0093 115.482 63.1491L116.14 63.33C116.921 63.5438 117.316 63.9797 117.316 64.5801C117.316 65.312 116.724 65.7479 115.737 65.7479Z" fill="#393939"/>
<rect width="68.534" height="68.534" transform="translate(152.158 5.98505)" fill="#212121"/>
<path d="M160.191 25.8384V15.9695H164.111C166.221 15.9695 167.428 17.0524 167.428 18.848C167.428 20.6573 166.208 21.7675 164.111 21.7675H161.314V25.8384H160.191ZM164.07 16.9564H161.314V20.7806H164.07C165.522 20.7806 166.304 20.0953 166.304 18.848C166.304 17.6144 165.55 16.9564 164.07 16.9564ZM169.186 25.8384V15.9695H175.463V16.9564H170.31V20.6162H175.08V21.603H170.31V25.8384H169.186Z" fill="#393939"/>
<path d="M159.719 55.6656V49.7443H162.071C163.338 49.7443 164.061 50.394 164.061 51.4714C164.061 52.5569 163.329 53.2231 162.071 53.2231H160.393V55.6656H159.719ZM162.046 50.3364H160.393V52.631H162.046C162.918 52.631 163.387 52.2198 163.387 51.4714C163.387 50.7312 162.935 50.3364 162.046 50.3364ZM165.067 55.6656V49.7443H165.725V52.2033C166.037 51.6934 166.605 51.3891 167.271 51.3891C168.143 51.3891 168.726 51.9319 168.726 52.7461V55.6656H168.068V52.9188C168.068 52.2856 167.748 51.9648 167.123 51.9648C166.3 51.9648 165.725 52.5487 165.725 53.3958V55.6656H165.067ZM169.941 50.5174V49.7443H170.697V50.5174H169.941ZM169.99 55.6656V51.4714H170.648V55.6656H169.99ZM171.966 55.6656V49.7443H172.624V55.6656H171.966ZM175.076 55.7479C174.204 55.7479 173.662 55.2956 173.662 54.5636C173.662 53.8317 174.172 53.4451 175.142 53.2807L176.417 53.0668V52.8777C176.417 52.2444 176.137 51.9484 175.496 51.9484C174.862 51.9484 174.459 52.2198 174.418 52.6885H173.785C173.843 51.8826 174.509 51.3891 175.52 51.3891C176.557 51.3891 177.058 51.8826 177.058 52.8695V54.8844C177.058 55.1311 177.091 55.3778 177.149 55.6656H176.515C176.483 55.5012 176.466 55.312 176.458 55.0242C176.236 55.4847 175.734 55.7479 175.076 55.7479ZM174.303 54.539C174.303 54.9666 174.599 55.1887 175.167 55.1887C175.899 55.1887 176.417 54.8186 176.417 54.284V53.6096L175.241 53.7906C174.624 53.8892 174.303 54.1031 174.303 54.539ZM178.326 55.6656V51.4714H178.943V52.2691C179.248 51.7181 179.84 51.3891 180.53 51.3891C181.402 51.3891 181.986 51.9319 181.986 52.7461V55.6656H181.328V52.9188C181.328 52.2856 181.007 51.9648 180.382 51.9648C179.56 51.9648 178.984 52.5487 178.984 53.3958V55.6656H178.326ZM184.815 55.7397C183.877 55.7397 183.483 55.312 183.483 54.5061V52.0306H182.619V51.4714H183.483V50.4927L184.141 50.246V51.4714H185.391V52.0306H184.141V54.4978C184.141 54.9748 184.363 55.1804 184.914 55.1804C185.127 55.1804 185.292 55.1475 185.391 55.1064V55.6656C185.275 55.7068 185.07 55.7397 184.815 55.7397ZM186.237 55.6656V49.7443H186.895V52.2033C187.208 51.6934 187.775 51.3891 188.441 51.3891C189.313 51.3891 189.897 51.9319 189.897 52.7461V55.6656H189.239V52.9188C189.239 52.2856 188.918 51.9648 188.293 51.9648C187.471 51.9648 186.895 52.5487 186.895 53.3958V55.6656H186.237ZM191.16 55.6656V51.4714H191.777V52.2856C192.016 51.7016 192.517 51.3891 193.11 51.3891C193.249 51.3891 193.332 51.3974 193.389 51.422V52.0553C193.332 52.0388 193.233 52.0306 193.093 52.0306C192.263 52.0306 191.818 52.5487 191.818 53.478V55.6656H191.16ZM195.988 55.7479C194.746 55.7479 193.916 54.8021 193.916 53.5521C193.916 52.2938 194.754 51.3891 195.988 51.3891C197.23 51.3891 198.06 52.2938 198.06 53.5521C198.06 54.8021 197.238 55.7479 195.988 55.7479ZM195.988 55.1887C196.835 55.1887 197.386 54.5143 197.386 53.5438C197.386 52.5816 196.835 51.9484 195.988 51.9484C195.149 51.9484 194.59 52.5816 194.59 53.5438C194.59 54.5143 195.149 55.1887 195.988 55.1887ZM201.12 55.7397C200.462 55.7397 199.968 55.46 199.705 54.9666V57.3516H199.047V51.4714H199.664V52.2115C199.927 51.6934 200.503 51.3891 201.177 51.3891C202.288 51.3891 203.028 52.2527 203.028 53.5521C203.028 54.8679 202.271 55.7397 201.12 55.7397ZM201.021 55.164C201.852 55.164 202.353 54.5554 202.353 53.5521C202.353 52.5652 201.852 51.9648 201.021 51.9648C200.182 51.9648 199.672 52.5816 199.672 53.5767C199.672 54.5554 200.19 55.164 201.021 55.164ZM203.969 50.5174V49.7443H204.726V50.5174H203.969ZM204.019 55.6656V51.4714H204.677V55.6656H204.019ZM207.64 55.7479C206.488 55.7479 205.649 54.8186 205.649 53.5521C205.649 52.2938 206.488 51.3891 207.631 51.3891C208.569 51.3891 209.268 51.973 209.399 52.8612H208.791C208.676 52.3267 208.273 51.9484 207.648 51.9484C206.842 51.9484 206.324 52.5816 206.324 53.5521C206.324 54.5225 206.85 55.1887 207.656 55.1887C208.256 55.1887 208.684 54.8268 208.799 54.284H209.408C209.26 55.164 208.536 55.7479 207.64 55.7479ZM159.719 65.6656V59.7443H163.486V60.3364H160.393V62.5323H163.255V63.1244H160.393V65.6656H159.719ZM165.581 65.7479C164.75 65.7479 164.166 65.2051 164.166 64.3909V61.4714H164.824V64.2182C164.824 64.8515 165.145 65.1722 165.729 65.1722C166.51 65.1722 167.086 64.5883 167.086 63.7412V61.4714H167.744V65.6656H167.127V64.8679C166.822 65.4189 166.238 65.7479 165.581 65.7479ZM170.712 65.7397C169.774 65.7397 169.38 65.312 169.38 64.5061V62.0306H168.516V61.4714H169.38V60.4927L170.038 60.246V61.4714H171.288V62.0306H170.038V64.4978C170.038 64.9748 170.26 65.1804 170.811 65.1804C171.024 65.1804 171.189 65.1475 171.288 65.1064V65.6656C171.172 65.7068 170.967 65.7397 170.712 65.7397ZM173.459 65.7479C172.629 65.7479 172.045 65.2051 172.045 64.3909V61.4714H172.703V64.2182C172.703 64.8515 173.023 65.1722 173.607 65.1722C174.389 65.1722 174.964 64.5883 174.964 63.7412V61.4714H175.622V65.6656H175.005V64.8679C174.701 65.4189 174.117 65.7479 173.459 65.7479ZM176.937 65.6656V61.4714H177.554V62.2856C177.792 61.7016 178.294 61.3891 178.886 61.3891C179.026 61.3891 179.108 61.3974 179.166 61.422V62.0553C179.108 62.0388 179.009 62.0306 178.87 62.0306C178.039 62.0306 177.595 62.5487 177.595 63.478V65.6656H176.937ZM181.595 65.7479C180.395 65.7479 179.547 64.835 179.547 63.5521C179.547 62.2691 180.386 61.3891 181.612 61.3891C182.78 61.3891 183.528 62.1951 183.528 63.4451C183.528 63.5603 183.52 63.6508 183.503 63.7659H180.23C180.312 64.6376 180.839 65.1887 181.628 65.1887C182.163 65.1887 182.59 64.9419 182.78 64.5061H183.405C183.133 65.2791 182.451 65.7479 181.595 65.7479ZM181.612 61.9484C180.872 61.9484 180.353 62.4336 180.247 63.2149H182.87C182.788 62.4007 182.335 61.9484 181.612 61.9484ZM185.941 65.7479C184.913 65.7479 184.264 65.2544 184.181 64.3745H184.815C184.889 64.9173 185.3 65.2051 185.958 65.2051C186.542 65.2051 186.887 64.9748 186.887 64.5718C186.887 64.284 186.747 64.0702 186.188 63.9304L185.514 63.7577C184.741 63.5603 184.362 63.1409 184.362 62.5652C184.362 61.8415 184.938 61.3891 185.859 61.3891C186.772 61.3891 187.372 61.8497 187.455 62.631H186.821C186.747 62.1786 186.394 61.9319 185.834 61.9319C185.292 61.9319 184.987 62.1457 184.987 62.5158C184.987 62.8037 185.176 63.0093 185.686 63.1491L186.344 63.33C187.126 63.5438 187.52 63.9797 187.52 64.5801C187.52 65.312 186.928 65.7479 185.941 65.7479Z" fill="#393939"/>
<rect width="68.534" height="68.534" transform="translate(225.832 5.98505)" fill="#212121"/>
<path d="M233.864 25.8384V15.9695H237.784C239.895 15.9695 241.102 17.0524 241.102 18.848C241.102 20.6573 239.882 21.7675 237.784 21.7675H234.988V25.8384H233.864ZM237.743 16.9564H234.988V20.7806H237.743C239.196 20.7806 239.978 20.0953 239.978 18.848C239.978 17.6144 239.224 16.9564 237.743 16.9564ZM242.726 25.8384V15.9695H246.536C248.345 15.9695 249.469 16.8879 249.469 18.3682C249.469 19.4511 248.866 20.2872 247.948 20.6299C249.017 20.9725 249.743 21.9731 249.743 23.2067C249.743 24.783 248.524 25.8384 246.714 25.8384H242.726ZM246.44 16.9016H243.85V20.2187H246.372C247.619 20.2187 248.345 19.5881 248.345 18.4916C248.345 17.4636 247.674 16.9016 246.44 16.9016ZM246.522 21.1233H243.85V24.9064H246.618C247.824 24.9064 248.592 24.2073 248.592 23.0834C248.592 21.8909 247.783 21.1233 246.522 21.1233Z" fill="#393939"/>
<path d="M233.393 55.6656V49.7443H235.745C237.011 49.7443 237.735 50.394 237.735 51.4714C237.735 52.5569 237.003 53.2231 235.745 53.2231H234.067V55.6656H233.393ZM235.72 50.3364H234.067V52.631H235.72C236.592 52.631 237.061 52.2198 237.061 51.4714C237.061 50.7312 236.608 50.3364 235.72 50.3364ZM238.741 55.6656V51.4714H239.357V52.2856C239.596 51.7016 240.097 51.3891 240.69 51.3891C240.829 51.3891 240.912 51.3974 240.969 51.422V52.0553C240.912 52.0388 240.813 52.0306 240.673 52.0306C239.843 52.0306 239.398 52.5487 239.398 53.478V55.6656H238.741ZM243.568 55.7479C242.326 55.7479 241.496 54.8021 241.496 53.5521C241.496 52.2938 242.334 51.3891 243.568 51.3891C244.81 51.3891 245.641 52.2938 245.641 53.5521C245.641 54.8021 244.818 55.7479 243.568 55.7479ZM243.568 55.1887C244.415 55.1887 244.966 54.5143 244.966 53.5438C244.966 52.5816 244.415 51.9484 243.568 51.9484C242.729 51.9484 242.17 52.5816 242.17 53.5438C242.17 54.5143 242.729 55.1887 243.568 55.1887ZM248.7 55.7397C248.042 55.7397 247.548 55.46 247.285 54.9666V57.3516H246.627V51.4714H247.244V52.2115C247.507 51.6934 248.083 51.3891 248.757 51.3891C249.868 51.3891 250.608 52.2527 250.608 53.5521C250.608 54.8679 249.851 55.7397 248.7 55.7397ZM248.601 55.164C249.432 55.164 249.933 54.5554 249.933 53.5521C249.933 52.5652 249.432 51.9648 248.601 51.9648C247.762 51.9648 247.252 52.5816 247.252 53.5767C247.252 54.5554 247.77 55.164 248.601 55.164ZM253.334 55.7479C252.133 55.7479 251.286 54.835 251.286 53.5521C251.286 52.2691 252.125 51.3891 253.35 51.3891C254.518 51.3891 255.266 52.1951 255.266 53.4451C255.266 53.5603 255.258 53.6508 255.242 53.7659H251.968C252.051 54.6376 252.577 55.1887 253.366 55.1887C253.901 55.1887 254.329 54.9419 254.518 54.5061H255.143C254.871 55.2791 254.189 55.7479 253.334 55.7479ZM253.35 51.9484C252.61 51.9484 252.092 52.4336 251.985 53.2149H254.608C254.526 52.4007 254.074 51.9484 253.35 51.9484ZM256.257 55.6656V51.4714H256.874V52.2856C257.112 51.7016 257.614 51.3891 258.206 51.3891C258.346 51.3891 258.428 51.3974 258.486 51.422V52.0553C258.428 52.0388 258.329 52.0306 258.19 52.0306C257.359 52.0306 256.915 52.5487 256.915 53.478V55.6656H256.257ZM261.115 55.7397C260.177 55.7397 259.783 55.312 259.783 54.5061V52.0306H258.919V51.4714H259.783V50.4927L260.441 50.246V51.4714H261.691V52.0306H260.441V54.4978C260.441 54.9748 260.663 55.1804 261.214 55.1804C261.427 55.1804 261.592 55.1475 261.691 55.1064V55.6656C261.576 55.7068 261.37 55.7397 261.115 55.7397ZM262.988 57.3516L263.843 55.3614L262.116 51.4714H262.84L264.196 54.6376L265.447 51.4714H266.121L263.687 57.3516H262.988ZM270.46 55.7479C269.169 55.7479 268.314 55.0324 268.314 53.9633C268.314 53.1738 268.84 52.5241 269.712 52.2362C269.276 51.751 269.087 51.3727 269.087 50.9615C269.087 50.2049 269.72 49.6621 270.608 49.6621C271.455 49.6621 272.138 50.1637 272.138 50.9615C272.138 51.5865 271.694 52.08 270.748 52.4254L272.335 54.0537C272.541 53.6343 272.648 53.0997 272.648 52.4747H273.298C273.298 53.2889 273.117 53.9797 272.788 54.5143L273.914 55.6656H273.051L272.401 54.9995C271.916 55.4847 271.25 55.7479 270.46 55.7479ZM269.745 50.9779C269.745 51.2822 269.876 51.5125 270.362 52.0306C271.102 51.8168 271.496 51.4549 271.496 50.9861C271.496 50.5009 271.085 50.2131 270.592 50.2131C270.107 50.2131 269.745 50.4845 269.745 50.9779ZM268.98 53.9057C268.98 54.7117 269.547 55.1804 270.485 55.1804C271.118 55.1804 271.62 54.9666 271.99 54.5718L270.098 52.6392C269.366 52.8695 268.98 53.2971 268.98 53.9057ZM233.393 65.6656V59.7443H235.679C236.765 59.7443 237.439 60.2953 237.439 61.1835C237.439 61.8332 237.077 62.3349 236.526 62.5405C237.168 62.7461 237.604 63.3465 237.604 64.0866C237.604 65.0324 236.872 65.6656 235.786 65.6656H233.393ZM235.622 60.3036H234.067V62.2938H235.58C236.329 62.2938 236.765 61.9155 236.765 61.2575C236.765 60.6407 236.362 60.3036 235.622 60.3036ZM235.671 62.8366H234.067V65.1064H235.728C236.452 65.1064 236.913 64.687 236.913 64.0126C236.913 63.2971 236.428 62.8366 235.671 62.8366ZM240.291 65.7479C239.09 65.7479 238.243 64.835 238.243 63.5521C238.243 62.2691 239.082 61.3891 240.307 61.3891C241.475 61.3891 242.223 62.1951 242.223 63.4451C242.223 63.5603 242.215 63.6508 242.199 63.7659H238.926C239.008 64.6376 239.534 65.1887 240.324 65.1887C240.858 65.1887 241.286 64.9419 241.475 64.5061H242.1C241.829 65.2791 241.146 65.7479 240.291 65.7479ZM240.307 61.9484C239.567 61.9484 239.049 62.4336 238.942 63.2149H241.565C241.483 62.4007 241.031 61.9484 240.307 61.9484ZM243.463 67.3516L244.319 65.3614L242.592 61.4714H243.315L244.672 64.6376L245.922 61.4714H246.597L244.162 67.3516H243.463ZM249.045 65.7479C247.804 65.7479 246.973 64.8021 246.973 63.5521C246.973 62.2938 247.812 61.3891 249.045 61.3891C250.287 61.3891 251.118 62.2938 251.118 63.5521C251.118 64.8021 250.295 65.7479 249.045 65.7479ZM249.045 65.1887C249.893 65.1887 250.444 64.5143 250.444 63.5438C250.444 62.5816 249.893 61.9484 249.045 61.9484C248.207 61.9484 247.647 62.5816 247.647 63.5438C247.647 64.5143 248.207 65.1887 249.045 65.1887ZM252.105 65.6656V61.4714H252.721V62.2691C253.026 61.7181 253.618 61.3891 254.309 61.3891C255.18 61.3891 255.764 61.9319 255.764 62.7461V65.6656H255.106V62.9188C255.106 62.2856 254.786 61.9648 254.161 61.9648C253.338 61.9648 252.763 62.5487 252.763 63.3958V65.6656H252.105ZM260.079 65.6656V64.9173C259.824 65.4354 259.281 65.7479 258.599 65.7479C257.456 65.7479 256.715 64.8844 256.715 63.585C256.715 62.2691 257.472 61.3974 258.623 61.3974C259.281 61.3974 259.775 61.677 260.038 62.1704V59.7443H260.696V65.6656H260.079ZM258.722 65.1722C259.561 65.1722 260.071 64.5554 260.071 63.5603C260.071 62.5816 259.553 61.973 258.722 61.973C257.891 61.973 257.39 62.5816 257.39 63.585C257.39 64.5718 257.891 65.1722 258.722 65.1722Z" fill="#393939"/>
<rect width="68.534" height="68.534" transform="translate(299.508 5.98505)" fill="#212121"/>
<path d="M310.885 25.9618C308.582 25.9618 307.17 24.7967 306.937 22.6859H308.034C308.239 24.2073 309.185 24.9749 310.871 24.9749C312.296 24.9749 313.023 24.4266 313.023 23.3849C313.023 22.494 312.543 22.0142 311.501 21.6579L309.843 21.0822C308.157 20.4928 307.376 19.7115 307.376 18.4368C307.376 16.8605 308.65 15.8188 310.583 15.8188C312.557 15.8188 313.79 16.9016 313.982 18.7931H312.886C312.653 17.4225 311.94 16.8057 310.556 16.8057C309.24 16.8057 308.472 17.3676 308.472 18.3271C308.472 19.1495 308.966 19.5881 310.048 19.9582L311.817 20.575C313.352 21.1096 314.119 21.9868 314.119 23.3712C314.119 25.016 312.941 25.9618 310.885 25.9618ZM315.879 25.8384V15.9695H319.196C322.294 15.9695 324.323 17.9296 324.323 20.8766C324.323 23.8235 322.267 25.8384 319.21 25.8384H315.879ZM319.196 16.9564H317.003V24.8516H319.196C321.65 24.8516 323.171 23.2479 323.171 20.8492C323.171 18.4916 321.677 16.9564 319.196 16.9564Z" fill="#393939"/>
<path d="M309.075 55.7397C307.694 55.7397 306.847 55.0406 306.707 53.7741H307.365C307.488 54.687 308.055 55.1475 309.067 55.1475C309.922 55.1475 310.358 54.8186 310.358 54.1935C310.358 53.659 310.07 53.3711 309.445 53.1573L308.45 52.8119C307.439 52.4583 306.97 51.9895 306.97 51.2246C306.97 50.2789 307.735 49.6538 308.894 49.6538C310.079 49.6538 310.819 50.3036 310.934 51.4385H310.276C310.136 50.6161 309.709 50.246 308.878 50.246C308.088 50.246 307.628 50.5832 307.628 51.1589C307.628 51.6523 307.924 51.9155 308.574 52.1375L309.635 52.5076C310.556 52.8283 311.016 53.3547 311.016 54.1853C311.016 55.1722 310.309 55.7397 309.075 55.7397ZM313.75 55.7479C312.508 55.7479 311.678 54.8021 311.678 53.5521C311.678 52.2938 312.517 51.3891 313.75 51.3891C314.992 51.3891 315.823 52.2938 315.823 53.5521C315.823 54.8021 315 55.7479 313.75 55.7479ZM313.75 55.1887C314.597 55.1887 315.148 54.5143 315.148 53.5438C315.148 52.5816 314.597 51.9484 313.75 51.9484C312.911 51.9484 312.352 52.5816 312.352 53.5438C312.352 54.5143 312.911 55.1887 313.75 55.1887ZM318.471 55.7479C317.319 55.7479 316.48 54.8186 316.48 53.5521C316.48 52.2938 317.319 51.3891 318.462 51.3891C319.4 51.3891 320.099 51.973 320.231 52.8612H319.622C319.507 52.3267 319.104 51.9484 318.479 51.9484C317.673 51.9484 317.155 52.5816 317.155 53.5521C317.155 54.5225 317.681 55.1887 318.487 55.1887C319.088 55.1887 319.515 54.8268 319.63 54.284H320.239C320.091 55.164 319.367 55.7479 318.471 55.7479ZM321.113 50.5174V49.7443H321.87V50.5174H321.113ZM321.162 55.6656V51.4714H321.82V55.6656H321.162ZM324.841 55.7479C323.64 55.7479 322.793 54.835 322.793 53.5521C322.793 52.2691 323.632 51.3891 324.857 51.3891C326.025 51.3891 326.774 52.1951 326.774 53.4451C326.774 53.5603 326.765 53.6508 326.749 53.7659H323.476C323.558 54.6376 324.084 55.1887 324.874 55.1887C325.408 55.1887 325.836 54.9419 326.025 54.5061H326.65C326.379 55.2791 325.696 55.7479 324.841 55.7479ZM324.857 51.9484C324.117 51.9484 323.599 52.4336 323.492 53.2149H326.116C326.033 52.4007 325.581 51.9484 324.857 51.9484ZM329.394 55.7397C328.456 55.7397 328.061 55.312 328.061 54.5061V52.0306H327.198V51.4714H328.061V50.4927L328.719 50.246V51.4714H329.969V52.0306H328.719V54.4978C328.719 54.9748 328.941 55.1804 329.492 55.1804C329.706 55.1804 329.871 55.1475 329.969 55.1064V55.6656C329.854 55.7068 329.649 55.7397 329.394 55.7397ZM331.951 55.7479C331.079 55.7479 330.536 55.2956 330.536 54.5636C330.536 53.8317 331.046 53.4451 332.017 53.2807L333.292 53.0668V52.8777C333.292 52.2444 333.012 51.9484 332.37 51.9484C331.737 51.9484 331.334 52.2198 331.293 52.6885H330.66C330.717 51.8826 331.384 51.3891 332.395 51.3891C333.431 51.3891 333.933 51.8826 333.933 52.8695V54.8844C333.933 55.1311 333.966 55.3778 334.023 55.6656H333.39C333.357 55.5012 333.341 55.312 333.333 55.0242C333.111 55.4847 332.609 55.7479 331.951 55.7479ZM331.178 54.539C331.178 54.9666 331.474 55.1887 332.041 55.1887C332.773 55.1887 333.292 54.8186 333.292 54.284V53.6096L332.115 53.7906C331.499 53.8892 331.178 54.1031 331.178 54.539ZM335.201 55.6656V49.7443H335.859V55.6656H335.201ZM307.069 65.6656V59.7443H309.059C310.917 59.7443 312.135 60.9204 312.135 62.6885C312.135 64.4567 310.901 65.6656 309.067 65.6656H307.069ZM309.059 60.3364H307.743V65.0735H309.059C310.531 65.0735 311.444 64.1113 311.444 62.6721C311.444 61.2575 310.547 60.3364 309.059 60.3364ZM314.89 65.7479C313.689 65.7479 312.842 64.835 312.842 63.5521C312.842 62.2691 313.681 61.3891 314.907 61.3891C316.074 61.3891 316.823 62.1951 316.823 63.4451C316.823 63.5603 316.815 63.6508 316.798 63.7659H313.525C313.607 64.6376 314.133 65.1887 314.923 65.1887C315.458 65.1887 315.885 64.9419 316.074 64.5061H316.699C316.428 65.2791 315.745 65.7479 314.89 65.7479ZM314.907 61.9484C314.166 61.9484 313.648 62.4336 313.541 63.2149H316.165C316.083 62.4007 315.63 61.9484 314.907 61.9484ZM319.475 65.7479C318.323 65.7479 317.484 64.8186 317.484 63.5521C317.484 62.2938 318.323 61.3891 319.466 61.3891C320.404 61.3891 321.103 61.973 321.235 62.8612H320.626C320.511 62.3267 320.108 61.9484 319.483 61.9484C318.677 61.9484 318.159 62.5816 318.159 63.5521C318.159 64.5225 318.685 65.1887 319.491 65.1887C320.091 65.1887 320.519 64.8268 320.634 64.284H321.243C321.095 65.164 320.371 65.7479 319.475 65.7479ZM322.117 60.5174V59.7443H322.874V60.5174H322.117ZM322.166 65.6656V61.4714H322.824V65.6656H322.166ZM325.565 65.7479C324.537 65.7479 323.887 65.2544 323.805 64.3745H324.438C324.512 64.9173 324.923 65.2051 325.581 65.2051C326.165 65.2051 326.511 64.9748 326.511 64.5718C326.511 64.284 326.371 64.0702 325.812 63.9304L325.137 63.7577C324.364 63.5603 323.986 63.1409 323.986 62.5652C323.986 61.8415 324.561 61.3891 325.483 61.3891C326.395 61.3891 326.996 61.8497 327.078 62.631H326.445C326.371 62.1786 326.017 61.9319 325.458 61.9319C324.915 61.9319 324.611 62.1457 324.611 62.5158C324.611 62.8037 324.8 63.0093 325.31 63.1491L325.968 63.33C326.749 63.5438 327.144 63.9797 327.144 64.5801C327.144 65.312 326.552 65.7479 325.565 65.7479ZM328.044 60.5174V59.7443H328.801V60.5174H328.044ZM328.093 65.6656V61.4714H328.751V65.6656H328.093ZM331.797 65.7479C330.555 65.7479 329.724 64.8021 329.724 63.5521C329.724 62.2938 330.563 61.3891 331.797 61.3891C333.038 61.3891 333.869 62.2938 333.869 63.5521C333.869 64.8021 333.047 65.7479 331.797 65.7479ZM331.797 65.1887C332.644 65.1887 333.195 64.5143 333.195 63.5438C333.195 62.5816 332.644 61.9484 331.797 61.9484C330.958 61.9484 330.399 62.5816 330.399 63.5438C330.399 64.5143 330.958 65.1887 331.797 65.1887ZM334.856 65.6656V61.4714H335.473V62.2691C335.777 61.7181 336.369 61.3891 337.06 61.3891C337.932 61.3891 338.516 61.9319 338.516 62.7461V65.6656H337.858V62.9188C337.858 62.2856 337.537 61.9648 336.912 61.9648C336.089 61.9648 335.514 62.5487 335.514 63.3958V65.6656H334.856ZM341.186 65.7479C340.158 65.7479 339.508 65.2544 339.426 64.3745H340.059C340.133 64.9173 340.544 65.2051 341.202 65.2051C341.786 65.2051 342.132 64.9748 342.132 64.5718C342.132 64.284 341.992 64.0702 341.432 63.9304L340.758 63.7577C339.985 63.5603 339.607 63.1409 339.607 62.5652C339.607 61.8415 340.182 61.3891 341.103 61.3891C342.016 61.3891 342.617 61.8497 342.699 62.631H342.066C341.992 62.1786 341.638 61.9319 341.079 61.9319C340.536 61.9319 340.232 62.1457 340.232 62.5158C340.232 62.8037 340.421 63.0093 340.931 63.1491L341.589 63.33C342.37 63.5438 342.765 63.9797 342.765 64.5801C342.765 65.312 342.173 65.7479 341.186 65.7479Z" fill="#393939"/>
<rect width="68.534" height="68.534" transform="translate(373.182 5.98505)" fill="#212121"/>
<path d="M381.214 25.8384V15.9695H385.024C386.834 15.9695 387.958 16.8879 387.958 18.3682C387.958 19.4511 387.355 20.2872 386.436 20.6299C387.505 20.9725 388.232 21.9731 388.232 23.2067C388.232 24.783 387.012 25.8384 385.203 25.8384H381.214ZM384.928 16.9016H382.338V20.2187H384.86C386.107 20.2187 386.834 19.5881 386.834 18.4916C386.834 17.4636 386.162 16.9016 384.928 16.9016ZM385.011 21.1233H382.338V24.9064H385.107C386.313 24.9064 387.08 24.2073 387.08 23.0834C387.08 21.8909 386.272 21.1233 385.011 21.1233ZM390.008 25.8384V15.9695H393.654C395.765 15.9695 396.971 17.0524 396.971 18.7109C396.971 20.3831 395.751 21.4934 393.654 21.4934H392.681L397.492 25.8384H395.793L391.132 21.4934V25.8384H390.008ZM393.613 16.9564H391.132V20.5065H393.613C395.066 20.5065 395.847 19.8212 395.847 18.7109C395.847 17.6144 395.093 16.9564 393.613 16.9564Z" fill="#393939"/>
<path d="M380.742 55.6656V49.7443H383.029C384.114 49.7443 384.789 50.2953 384.789 51.1835C384.789 51.8332 384.427 52.3349 383.876 52.5405C384.517 52.7461 384.953 53.3465 384.953 54.0866C384.953 55.0324 384.221 55.6656 383.136 55.6656H380.742ZM382.971 50.3036H381.417V52.2938H382.93C383.678 52.2938 384.114 51.9155 384.114 51.2575C384.114 50.6407 383.711 50.3036 382.971 50.3036ZM383.02 52.8366H381.417V55.1064H383.078C383.802 55.1064 384.262 54.687 384.262 54.0126C384.262 53.2971 383.777 52.8366 383.02 52.8366ZM387.64 55.7479C386.44 55.7479 385.593 54.835 385.593 53.5521C385.593 52.2691 386.431 51.3891 387.657 51.3891C388.825 51.3891 389.573 52.1951 389.573 53.4451C389.573 53.5603 389.565 53.6508 389.548 53.7659H386.275C386.357 54.6376 386.884 55.1887 387.673 55.1887C388.208 55.1887 388.635 54.9419 388.825 54.5061H389.45C389.178 55.2791 388.496 55.7479 387.64 55.7479ZM387.657 51.9484C386.917 51.9484 386.398 52.4336 386.292 53.2149H388.915C388.833 52.4007 388.38 51.9484 387.657 51.9484ZM390.813 57.3516L391.668 55.3614L389.941 51.4714H390.665L392.022 54.6376L393.272 51.4714H393.946L391.512 57.3516H390.813ZM396.395 55.7479C395.153 55.7479 394.323 54.8021 394.323 53.5521C394.323 52.2938 395.161 51.3891 396.395 51.3891C397.637 51.3891 398.467 52.2938 398.467 53.5521C398.467 54.8021 397.645 55.7479 396.395 55.7479ZM396.395 55.1887C397.242 55.1887 397.793 54.5143 397.793 53.5438C397.793 52.5816 397.242 51.9484 396.395 51.9484C395.556 51.9484 394.997 52.5816 394.997 53.5438C394.997 54.5143 395.556 55.1887 396.395 55.1887ZM399.454 55.6656V51.4714H400.071V52.2691C400.375 51.7181 400.967 51.3891 401.658 51.3891C402.53 51.3891 403.114 51.9319 403.114 52.7461V55.6656H402.456V52.9188C402.456 52.2856 402.135 51.9648 401.51 51.9648C400.688 51.9648 400.112 52.5487 400.112 53.3958V55.6656H399.454ZM407.429 55.6656V54.9173C407.174 55.4354 406.631 55.7479 405.948 55.7479C404.805 55.7479 404.065 54.8844 404.065 53.585C404.065 52.2691 404.822 51.3974 405.973 51.3974C406.631 51.3974 407.124 51.677 407.387 52.1704V49.7443H408.045V55.6656H407.429ZM406.072 55.1722C406.91 55.1722 407.42 54.5554 407.42 53.5603C407.42 52.5816 406.902 51.973 406.072 51.973C405.241 51.973 404.739 52.5816 404.739 53.585C404.739 54.5718 405.241 55.1722 406.072 55.1722ZM412.689 55.7397C411.752 55.7397 411.357 55.312 411.357 54.5061V52.0306H410.493V51.4714H411.357V50.4927L412.015 50.246V51.4714H413.265V52.0306H412.015V54.4978C412.015 54.9748 412.237 55.1804 412.788 55.1804C413.002 55.1804 413.166 55.1475 413.265 55.1064V55.6656C413.15 55.7068 412.944 55.7397 412.689 55.7397ZM414.111 55.6656V49.7443H414.769V52.2033C415.082 51.6934 415.649 51.3891 416.315 51.3891C417.187 51.3891 417.771 51.9319 417.771 52.7461V55.6656H417.113V52.9188C417.113 52.2856 416.792 51.9648 416.167 51.9648C415.345 51.9648 414.769 52.5487 414.769 53.3958V55.6656H414.111ZM420.753 55.7479C419.553 55.7479 418.706 54.835 418.706 53.5521C418.706 52.2691 419.545 51.3891 420.77 51.3891C421.938 51.3891 422.686 52.1951 422.686 53.4451C422.686 53.5603 422.678 53.6508 422.661 53.7659H419.388C419.471 54.6376 419.997 55.1887 420.786 55.1887C421.321 55.1887 421.749 54.9419 421.938 54.5061H422.563C422.291 55.2791 421.609 55.7479 420.753 55.7479ZM420.77 51.9484C420.03 51.9484 419.512 52.4336 419.405 53.2149H422.028C421.946 52.4007 421.494 51.9484 420.77 51.9484ZM380.742 65.6656V59.7443H382.93C384.197 59.7443 384.92 60.394 384.92 61.3891C384.92 62.3925 384.188 63.0586 382.93 63.0586H382.346L385.233 65.6656H384.213L381.417 63.0586V65.6656H380.742ZM382.905 60.3364H381.417V62.4665H382.905C383.777 62.4665 384.246 62.0553 384.246 61.3891C384.246 60.7312 383.794 60.3364 382.905 60.3364ZM387.263 65.7479C386.432 65.7479 385.848 65.2051 385.848 64.3909V61.4714H386.506V64.2182C386.506 64.8515 386.827 65.1722 387.411 65.1722C388.192 65.1722 388.768 64.5883 388.768 63.7412V61.4714H389.426V65.6656H388.809V64.8679C388.504 65.4189 387.921 65.7479 387.263 65.7479ZM390.74 65.6656V59.7443H391.398V65.6656H390.74ZM394.435 65.7479C393.234 65.7479 392.387 64.835 392.387 63.5521C392.387 62.2691 393.226 61.3891 394.451 61.3891C395.619 61.3891 396.367 62.1951 396.367 63.4451C396.367 63.5603 396.359 63.6508 396.343 63.7659H393.07C393.152 64.6376 393.678 65.1887 394.468 65.1887C395.002 65.1887 395.43 64.9419 395.619 64.5061H396.244C395.973 65.2791 395.29 65.7479 394.435 65.7479ZM394.451 61.9484C393.711 61.9484 393.193 62.4336 393.086 63.2149H395.71C395.627 62.4007 395.175 61.9484 394.451 61.9484ZM398.781 65.7479C397.753 65.7479 397.103 65.2544 397.021 64.3745H397.654C397.728 64.9173 398.139 65.2051 398.797 65.2051C399.381 65.2051 399.727 64.9748 399.727 64.5718C399.727 64.284 399.587 64.0702 399.028 63.9304L398.353 63.7577C397.58 63.5603 397.202 63.1409 397.202 62.5652C397.202 61.8415 397.778 61.3891 398.699 61.3891C399.611 61.3891 400.212 61.8497 400.294 62.631H399.661C399.587 62.1786 399.233 61.9319 398.674 61.9319C398.131 61.9319 397.827 62.1457 397.827 62.5158C397.827 62.8037 398.016 63.0093 398.526 63.1491L399.184 63.33C399.965 63.5438 400.36 63.9797 400.36 64.5801C400.36 65.312 399.768 65.7479 398.781 65.7479Z" fill="#393939"/>
<rect width="68.534" height="68.534" transform="translate(446.855 5.98505)" fill="#212121"/>
<path d="M458.232 25.9618C455.929 25.9618 454.518 24.7967 454.285 22.6859H455.381C455.587 24.2073 456.533 24.9749 458.219 24.9749C459.644 24.9749 460.37 24.4266 460.37 23.3849C460.37 22.494 459.891 22.0142 458.849 21.6579L457.191 21.0822C455.505 20.4928 454.723 19.7115 454.723 18.4368C454.723 16.8605 455.998 15.8188 457.931 15.8188C459.904 15.8188 461.138 16.9016 461.33 18.7931H460.233C460 17.4225 459.288 16.8057 457.903 16.8057C456.587 16.8057 455.82 17.3676 455.82 18.3271C455.82 19.1495 456.313 19.5881 457.396 19.9582L459.164 20.575C460.699 21.1096 461.467 21.9868 461.467 23.3712C461.467 25.016 460.288 25.9618 458.232 25.9618ZM463.227 25.8384V15.9695H464.954L468.257 24.783L471.533 15.9695H473.288V25.8384H472.178V16.9701L468.888 25.8384H467.545L464.255 17.0387V25.8384H463.227ZM475.649 25.8384V15.9695H477.376L480.679 24.783L483.955 15.9695H485.71V25.8384H484.599V16.9701L481.31 25.8384H479.966L476.677 17.0387V25.8384H475.649Z" fill="#393939"/>
<path d="M456.423 45.7397C455.041 45.7397 454.194 45.0406 454.054 43.7741H454.712C454.836 44.687 455.403 45.1475 456.415 45.1475C457.27 45.1475 457.706 44.8186 457.706 44.1935C457.706 43.659 457.418 43.3711 456.793 43.1573L455.798 42.8119C454.786 42.4583 454.318 41.9895 454.318 41.2246C454.318 40.2789 455.082 39.6538 456.242 39.6538C457.426 39.6538 458.166 40.3036 458.282 41.4385H457.624C457.484 40.6161 457.056 40.246 456.226 40.246C455.436 40.246 454.975 40.5832 454.975 41.1589C454.975 41.6523 455.272 41.9155 455.921 42.1375L456.982 42.5076C457.903 42.8283 458.364 43.3547 458.364 44.1853C458.364 45.1722 457.657 45.7397 456.423 45.7397ZM461.073 45.7479C459.872 45.7479 459.025 44.835 459.025 43.5521C459.025 42.2691 459.864 41.3891 461.09 41.3891C462.257 41.3891 463.006 42.1951 463.006 43.4451C463.006 43.5603 462.998 43.6508 462.981 43.7659H459.708C459.79 44.6376 460.317 45.1887 461.106 45.1887C461.641 45.1887 462.068 44.9419 462.257 44.5061H462.882C462.611 45.2791 461.929 45.7479 461.073 45.7479ZM461.09 41.9484C460.349 41.9484 459.831 42.4336 459.724 43.2149H462.348C462.266 42.4007 461.813 41.9484 461.09 41.9484ZM463.996 45.6656V41.4714H464.613V42.2691C464.918 41.7181 465.51 41.3891 466.201 41.3891C467.072 41.3891 467.656 41.9319 467.656 42.7461V45.6656H466.998V42.9188C466.998 42.2856 466.678 41.9648 466.052 41.9648C465.23 41.9648 464.654 42.5487 464.654 43.3958V45.6656H463.996ZM470.326 45.7479C469.298 45.7479 468.649 45.2544 468.566 44.3745H469.2C469.274 44.9173 469.685 45.2051 470.343 45.2051C470.927 45.2051 471.272 44.9748 471.272 44.5718C471.272 44.284 471.132 44.0702 470.573 43.9304L469.899 43.7577C469.126 43.5603 468.747 43.1409 468.747 42.5652C468.747 41.8415 469.323 41.3891 470.244 41.3891C471.157 41.3891 471.757 41.8497 471.84 42.631H471.206C471.132 42.1786 470.779 41.9319 470.219 41.9319C469.677 41.9319 469.372 42.1457 469.372 42.5158C469.372 42.8037 469.562 43.0093 470.071 43.1491L470.729 43.33C471.511 43.5438 471.905 43.9797 471.905 44.5801C471.905 45.312 471.313 45.7479 470.326 45.7479ZM472.806 40.5174V39.7443H473.562V40.5174H472.806ZM472.855 45.6656V41.4714H473.513V45.6656H472.855ZM474.831 45.6656V41.4714H475.448V42.2691C475.752 41.7181 476.344 41.3891 477.035 41.3891C477.907 41.3891 478.49 41.9319 478.49 42.7461V45.6656H477.833V42.9188C477.833 42.2856 477.512 41.9648 476.887 41.9648C476.064 41.9648 475.489 42.5487 475.489 43.3958V45.6656H474.831ZM481.423 47.4338C480.42 47.4338 479.713 46.9322 479.573 46.1591H480.198C480.321 46.6032 480.741 46.8746 481.465 46.8746C482.32 46.8746 482.764 46.4058 482.764 45.5012V44.835C482.517 45.3531 481.966 45.6656 481.292 45.6656C480.182 45.6656 479.441 44.8103 479.441 43.5438C479.441 42.2609 480.206 41.3974 481.358 41.3974C482.057 41.3974 482.575 41.7099 482.805 42.2773V41.4714H483.422V45.5012C483.422 46.7019 482.665 47.4338 481.423 47.4338ZM481.456 45.0982C482.279 45.0982 482.797 44.4896 482.797 43.5109C482.797 42.5569 482.279 41.9648 481.456 41.9648C480.626 41.9648 480.116 42.5652 480.116 43.5356C480.116 44.4896 480.634 45.0982 481.456 45.0982ZM484.717 46.8499V46.5127C485.037 46.3894 485.169 46.1673 485.169 45.6656H484.717V44.8268H485.547V45.4929C485.547 46.192 485.292 46.669 484.717 46.8499ZM454.416 55.6656V49.7443H455.452L457.434 55.0324L459.4 49.7443H460.453V55.6656H459.787V50.3447L457.813 55.6656H457.007L455.033 50.3858V55.6656H454.416ZM463.563 55.7479C462.322 55.7479 461.491 54.8021 461.491 53.5521C461.491 52.2938 462.33 51.3891 463.563 51.3891C464.805 51.3891 465.636 52.2938 465.636 53.5521C465.636 54.8021 464.814 55.7479 463.563 55.7479ZM463.563 55.1887C464.411 55.1887 464.962 54.5143 464.962 53.5438C464.962 52.5816 464.411 51.9484 463.563 51.9484C462.725 51.9484 462.165 52.5816 462.165 53.5438C462.165 54.5143 462.725 55.1887 463.563 55.1887ZM469.674 55.6656V54.9173C469.419 55.4354 468.876 55.7479 468.194 55.7479C467.05 55.7479 466.31 54.8844 466.31 53.585C466.31 52.2691 467.067 51.3974 468.218 51.3974C468.876 51.3974 469.37 51.677 469.633 52.1704V49.7443H470.291V55.6656H469.674ZM468.317 55.1722C469.156 55.1722 469.666 54.5554 469.666 53.5603C469.666 52.5816 469.148 51.973 468.317 51.973C467.486 51.973 466.985 52.5816 466.985 53.585C466.985 54.5718 467.486 55.1722 468.317 55.1722ZM473.329 55.7479C472.128 55.7479 471.281 54.835 471.281 53.5521C471.281 52.2691 472.12 51.3891 473.345 51.3891C474.513 51.3891 475.262 52.1951 475.262 53.4451C475.262 53.5603 475.253 53.6508 475.237 53.7659H471.964C472.046 54.6376 472.572 55.1887 473.362 55.1887C473.896 55.1887 474.324 54.9419 474.513 54.5061H475.138C474.867 55.2791 474.184 55.7479 473.329 55.7479ZM473.345 51.9484C472.605 51.9484 472.087 52.4336 471.98 53.2149H474.604C474.521 52.4007 474.069 51.9484 473.345 51.9484ZM476.252 55.6656V49.7443H476.91V55.6656H476.252ZM478.228 55.6656V49.7443H478.886V55.6656H478.228ZM480.154 50.5174V49.7443H480.911V50.5174H480.154ZM480.204 55.6656V51.4714H480.862V55.6656H480.204ZM482.179 55.6656V51.4714H482.796V52.2691C483.1 51.7181 483.693 51.3891 484.383 51.3891C485.255 51.3891 485.839 51.9319 485.839 52.7461V55.6656H485.181V52.9188C485.181 52.2856 484.86 51.9648 484.235 51.9648C483.413 51.9648 482.837 52.5487 482.837 53.3958V55.6656H482.179ZM488.772 57.4338C487.769 57.4338 487.061 56.9322 486.922 56.1591H487.547C487.67 56.6032 488.089 56.8746 488.813 56.8746C489.669 56.8746 490.113 56.4058 490.113 55.5012V54.835C489.866 55.3531 489.315 55.6656 488.641 55.6656C487.53 55.6656 486.79 54.8103 486.79 53.5438C486.79 52.2609 487.555 51.3974 488.706 51.3974C489.405 51.3974 489.923 51.7099 490.154 52.2773V51.4714H490.771V55.5012C490.771 56.7019 490.014 57.4338 488.772 57.4338ZM488.805 55.0982C489.627 55.0982 490.146 54.4896 490.146 53.5109C490.146 52.5569 489.627 51.9648 488.805 51.9648C487.974 51.9648 487.464 52.5652 487.464 53.5356C487.464 54.4896 487.983 55.0982 488.805 55.0982ZM492.065 56.8499V56.5127C492.386 56.3894 492.518 56.1673 492.518 55.6656H492.065V54.8268H492.896V55.4929C492.896 56.192 492.641 56.669 492.065 56.8499ZM454.416 65.6656V59.7443H455.452L457.434 65.0324L459.4 59.7443H460.453V65.6656H459.787V60.3447L457.813 65.6656H457.007L455.033 60.3858V65.6656H454.416ZM462.955 65.7479C462.083 65.7479 461.54 65.2956 461.54 64.5636C461.54 63.8317 462.05 63.4451 463.021 63.2807L464.295 63.0668V62.8777C464.295 62.2444 464.016 61.9484 463.374 61.9484C462.741 61.9484 462.338 62.2198 462.297 62.6885H461.664C461.721 61.8826 462.387 61.3891 463.399 61.3891C464.435 61.3891 464.937 61.8826 464.937 62.8695V64.8844C464.937 65.1311 464.97 65.3778 465.027 65.6656H464.394C464.361 65.5012 464.345 65.312 464.337 65.0242C464.114 65.4847 463.613 65.7479 462.955 65.7479ZM462.182 64.539C462.182 64.9666 462.478 65.1887 463.045 65.1887C463.777 65.1887 464.295 64.8186 464.295 64.284V63.6096L463.119 63.7906C462.503 63.8892 462.182 64.1031 462.182 64.539ZM468.278 65.7397C467.62 65.7397 467.126 65.46 466.863 64.9666V67.3516H466.205V61.4714H466.822V62.2115C467.085 61.6934 467.661 61.3891 468.335 61.3891C469.445 61.3891 470.186 62.2527 470.186 63.5521C470.186 64.8679 469.429 65.7397 468.278 65.7397ZM468.179 65.164C469.009 65.164 469.511 64.5554 469.511 63.5521C469.511 62.5652 469.009 61.9648 468.179 61.9648C467.34 61.9648 466.83 62.5816 466.83 63.5767C466.83 64.5554 467.348 65.164 468.179 65.164ZM473.265 65.7397C472.607 65.7397 472.114 65.46 471.85 64.9666V67.3516H471.193V61.4714H471.809V62.2115C472.073 61.6934 472.648 61.3891 473.323 61.3891C474.433 61.3891 475.173 62.2527 475.173 63.5521C475.173 64.8679 474.416 65.7397 473.265 65.7397ZM473.166 65.164C473.997 65.164 474.499 64.5554 474.499 63.5521C474.499 62.5652 473.997 61.9648 473.166 61.9648C472.327 61.9648 471.818 62.5816 471.818 63.5767C471.818 64.5554 472.336 65.164 473.166 65.164ZM476.115 60.5174V59.7443H476.871V60.5174H476.115ZM476.164 65.6656V61.4714H476.822V65.6656H476.164ZM478.14 65.6656V61.4714H478.756V62.2691C479.061 61.7181 479.653 61.3891 480.344 61.3891C481.215 61.3891 481.799 61.9319 481.799 62.7461V65.6656H481.141V62.9188C481.141 62.2856 480.821 61.9648 480.196 61.9648C479.373 61.9648 478.798 62.5487 478.798 63.3958V65.6656H478.14ZM484.732 67.4338C483.729 67.4338 483.022 66.9322 482.882 66.1591H483.507C483.63 66.6032 484.05 66.8746 484.773 66.8746C485.629 66.8746 486.073 66.4058 486.073 65.5012V64.835C485.826 65.3531 485.275 65.6656 484.601 65.6656C483.49 65.6656 482.75 64.8103 482.75 63.5438C482.75 62.2609 483.515 61.3974 484.667 61.3974C485.366 61.3974 485.884 61.7099 486.114 62.2773V61.4714H486.731V65.5012C486.731 66.7019 485.974 67.4338 484.732 67.4338ZM484.765 65.0982C485.588 65.0982 486.106 64.4896 486.106 63.5109C486.106 62.5569 485.588 61.9648 484.765 61.9648C483.935 61.9648 483.425 62.5652 483.425 63.5356C483.425 64.4896 483.943 65.0982 484.765 65.0982Z" fill="#393939"/>
<rect width="68.534" height="68.534" transform="translate(4.81055 79.6591)" fill="#212121"/>
<rect width="68.534" height="68.534" transform="translate(78.4844 79.6591)" fill="#212121"/>
<rect width="68.534" height="68.534" transform="translate(152.158 79.6591)" fill="#212121"/>
<rect width="68.534" height="68.534" transform="translate(225.832 79.6591)" fill="#212121"/>
<rect width="68.534" height="68.534" transform="translate(299.508 79.6591)" fill="#212121"/>
<rect width="68.534" height="68.534" transform="translate(373.182 79.6591)" fill="#212121"/>
<rect width="68.534" height="68.534" transform="translate(446.855 79.6591)" fill="#212121"/>
<rect width="68.534" height="68.534" transform="translate(520.529 79.6591)" fill="#212121"/>
<path d="M566.388 99.5125V89.6436H572.665V90.6304H567.512V94.2902H572.282V95.2771H567.512V99.5125H566.388ZM574.633 99.5125V89.6436H580.911V90.6304H575.757V94.2902H580.527V95.2771H575.757V99.5125H574.633Z" fill="#393939"/>
<path d="M539.203 129.34V123.418H542.969V124.01H539.877V126.206H542.739V126.798H539.877V129.34H539.203ZM545.563 129.422C544.321 129.422 543.491 128.476 543.491 127.226C543.491 125.968 544.33 125.063 545.563 125.063C546.805 125.063 547.636 125.968 547.636 127.226C547.636 128.476 546.813 129.422 545.563 129.422ZM545.563 128.863C546.41 128.863 546.961 128.188 546.961 127.218C546.961 126.256 546.41 125.622 545.563 125.622C544.724 125.622 544.165 126.256 544.165 127.218C544.165 128.188 544.724 128.863 545.563 128.863ZM548.622 129.34V125.145H549.239V125.96C549.478 125.376 549.979 125.063 550.571 125.063C550.711 125.063 550.794 125.071 550.851 125.096V125.729C550.794 125.713 550.695 125.705 550.555 125.705C549.724 125.705 549.28 126.223 549.28 127.152V129.34H548.622ZM553.281 129.422C552.08 129.422 551.233 128.509 551.233 127.226C551.233 125.943 552.072 125.063 553.297 125.063C554.465 125.063 555.213 125.869 555.213 127.119C555.213 127.234 555.205 127.325 555.189 127.44H551.915C551.998 128.312 552.524 128.863 553.314 128.863C553.848 128.863 554.276 128.616 554.465 128.18H555.09C554.819 128.953 554.136 129.422 553.281 129.422ZM553.297 125.622C552.557 125.622 552.039 126.108 551.932 126.889H554.555C554.473 126.075 554.021 125.622 553.297 125.622ZM557.627 129.422C556.599 129.422 555.949 128.928 555.867 128.048H556.5C556.574 128.591 556.985 128.879 557.643 128.879C558.227 128.879 558.572 128.649 558.572 128.246C558.572 127.958 558.433 127.744 557.873 127.604L557.199 127.432C556.426 127.234 556.048 126.815 556.048 126.239C556.048 125.515 556.623 125.063 557.544 125.063C558.457 125.063 559.058 125.524 559.14 126.305H558.507C558.433 125.853 558.079 125.606 557.52 125.606C556.977 125.606 556.673 125.82 556.673 126.19C556.673 126.478 556.862 126.683 557.372 126.823L558.03 127.004C558.811 127.218 559.206 127.654 559.206 128.254C559.206 128.986 558.614 129.422 557.627 129.422ZM560.106 124.191V123.418H560.863V124.191H560.106ZM560.155 129.34V125.145H560.813V129.34H560.155ZM563.784 131.108C562.781 131.108 562.074 130.606 561.934 129.833H562.559C562.682 130.277 563.102 130.549 563.826 130.549C564.681 130.549 565.125 130.08 565.125 129.175V128.509C564.878 129.027 564.327 129.34 563.653 129.34C562.543 129.34 561.802 128.484 561.802 127.218C561.802 125.935 562.567 125.071 563.719 125.071C564.418 125.071 564.936 125.384 565.166 125.951V125.145H565.783V129.175C565.783 130.376 565.026 131.108 563.784 131.108ZM563.817 128.772C564.64 128.772 565.158 128.164 565.158 127.185C565.158 126.231 564.64 125.639 563.817 125.639C562.987 125.639 562.477 126.239 562.477 127.21C562.477 128.164 562.995 128.772 563.817 128.772ZM567.102 129.34V123.418H567.76V125.877C568.073 125.367 568.64 125.063 569.306 125.063C570.178 125.063 570.762 125.606 570.762 126.42V129.34H570.104V126.593C570.104 125.96 569.783 125.639 569.158 125.639C568.336 125.639 567.76 126.223 567.76 127.07V129.34H567.102ZM573.591 129.414C572.653 129.414 572.259 128.986 572.259 128.18V125.705H571.395V125.145H572.259V124.167L572.917 123.92V125.145H574.167V125.705H572.917V128.172C572.917 128.649 573.139 128.854 573.69 128.854C573.903 128.854 574.068 128.822 574.167 128.78V129.34C574.051 129.381 573.846 129.414 573.591 129.414ZM578.543 129.422C577.252 129.422 576.397 128.706 576.397 127.637C576.397 126.848 576.923 126.198 577.795 125.91C577.359 125.425 577.17 125.047 577.17 124.635C577.17 123.879 577.803 123.336 578.691 123.336C579.538 123.336 580.221 123.838 580.221 124.635C580.221 125.261 579.777 125.754 578.831 126.099L580.418 127.728C580.624 127.308 580.731 126.774 580.731 126.149H581.38C581.38 126.963 581.199 127.654 580.87 128.188L581.997 129.34H581.134L580.484 128.674C579.999 129.159 579.333 129.422 578.543 129.422ZM577.828 124.652C577.828 124.956 577.959 125.187 578.444 125.705C579.185 125.491 579.579 125.129 579.579 124.66C579.579 124.175 579.168 123.887 578.675 123.887C578.189 123.887 577.828 124.158 577.828 124.652ZM577.063 127.58C577.063 128.386 577.63 128.854 578.568 128.854C579.201 128.854 579.703 128.641 580.073 128.246L578.181 126.313C577.449 126.543 577.063 126.971 577.063 127.58ZM550.752 139.34V133.418H554.518V134.01H551.426V136.206H554.288V136.798H551.426V139.34H550.752ZM556.613 139.422C555.783 139.422 555.199 138.879 555.199 138.065V135.145H555.857V137.892C555.857 138.525 556.178 138.846 556.761 138.846C557.543 138.846 558.118 138.262 558.118 137.415V135.145H558.776V139.34H558.16V138.542C557.855 139.093 557.271 139.422 556.613 139.422ZM561.745 139.414C560.807 139.414 560.412 138.986 560.412 138.18V135.705H559.549V135.145H560.412V134.167L561.07 133.92V135.145H562.32V135.705H561.07V138.172C561.07 138.649 561.292 138.854 561.843 138.854C562.057 138.854 562.222 138.822 562.32 138.78V139.34C562.205 139.381 562 139.414 561.745 139.414ZM564.492 139.422C563.661 139.422 563.078 138.879 563.078 138.065V135.145H563.736V137.892C563.736 138.525 564.056 138.846 564.64 138.846C565.421 138.846 565.997 138.262 565.997 137.415V135.145H566.655V139.34H566.038V138.542C565.734 139.093 565.15 139.422 564.492 139.422ZM567.97 139.34V135.145H568.587V135.96C568.825 135.376 569.327 135.063 569.919 135.063C570.059 135.063 570.141 135.071 570.199 135.096V135.729C570.141 135.713 570.042 135.705 569.902 135.705C569.072 135.705 568.628 136.223 568.628 137.152V139.34H567.97ZM570.932 134.191V133.418H571.689V134.191H570.932ZM570.982 139.34V135.145H571.639V139.34H570.982ZM572.957 139.34V135.145H573.574V135.943C573.878 135.392 574.47 135.063 575.161 135.063C576.033 135.063 576.617 135.606 576.617 136.42V139.34H575.959V136.593C575.959 135.96 575.638 135.639 575.013 135.639C574.191 135.639 573.615 136.223 573.615 137.07V139.34H572.957ZM579.55 141.108C578.547 141.108 577.839 140.606 577.7 139.833H578.325C578.448 140.277 578.867 140.549 579.591 140.549C580.446 140.549 580.89 140.08 580.89 139.175V138.509C580.644 139.027 580.093 139.34 579.418 139.34C578.308 139.34 577.568 138.484 577.568 137.218C577.568 135.935 578.333 135.071 579.484 135.071C580.183 135.071 580.701 135.384 580.932 135.951V135.145H581.548V139.175C581.548 140.376 580.792 141.108 579.55 141.108ZM579.583 138.772C580.405 138.772 580.923 138.164 580.923 137.185C580.923 136.231 580.405 135.639 579.583 135.639C578.752 135.639 578.242 136.239 578.242 137.21C578.242 138.164 578.76 138.772 579.583 138.772Z" fill="#393939"/>
<rect width="68.534" height="68.534" transform="translate(4.81055 153.333)" fill="#212121"/>
<rect width="68.534" height="68.534" transform="translate(78.4844 153.333)" fill="#212121"/>
<rect width="68.534" height="68.534" transform="translate(152.158 153.333)" fill="#212121"/>
<rect width="68.534" height="68.534" transform="translate(225.832 153.333)" fill="#212121"/>
<rect width="68.534" height="68.534" transform="translate(299.508 153.333)" fill="#212121"/>
<rect width="68.534" height="68.534" transform="translate(373.182 153.333)" fill="#212121"/>
<rect width="68.534" height="68.534" transform="translate(446.855 153.333)" fill="#212121"/>
<rect width="68.534" height="68.534" transform="translate(520.529 153.333)" fill="#212121"/>
<path d="M566.568 173.324C563.854 173.324 561.894 171.199 561.894 168.252C561.894 165.305 563.841 163.181 566.555 163.181C568.761 163.181 570.42 164.633 570.708 166.827H569.584C569.365 165.195 568.227 164.195 566.568 164.195C564.444 164.195 563.046 165.853 563.046 168.252C563.046 170.664 564.457 172.309 566.555 172.309C568.254 172.309 569.406 171.295 569.611 169.678H570.735C570.447 171.884 568.803 173.324 566.568 173.324ZM572.547 173.187V163.318H575.864C578.962 163.318 580.991 165.278 580.991 168.225C580.991 171.172 578.935 173.187 575.878 173.187H572.547ZM575.864 164.305H573.671V172.2H575.864C578.318 172.2 579.839 170.596 579.839 168.197C579.839 165.84 578.345 164.305 575.864 164.305Z" fill="#393939"/>
<path d="M533.35 203.096C531.722 203.096 530.546 201.821 530.546 200.053C530.546 198.285 531.714 197.01 533.342 197.01C534.666 197.01 535.661 197.882 535.834 199.198H535.16C535.028 198.219 534.346 197.619 533.35 197.619C532.076 197.619 531.237 198.614 531.237 200.053C531.237 201.501 532.084 202.487 533.342 202.487C534.362 202.487 535.053 201.879 535.176 200.908H535.851C535.678 202.232 534.691 203.096 533.35 203.096ZM538.608 203.096C537.366 203.096 536.536 202.15 536.536 200.9C536.536 199.642 537.374 198.737 538.608 198.737C539.85 198.737 540.68 199.642 540.68 200.9C540.68 202.15 539.858 203.096 538.608 203.096ZM538.608 202.537C539.455 202.537 540.006 201.862 540.006 200.892C540.006 199.93 539.455 199.296 538.608 199.296C537.769 199.296 537.21 199.93 537.21 200.892C537.21 201.862 537.769 202.537 538.608 202.537ZM541.667 203.014V198.819H542.284V199.617C542.588 199.066 543.18 198.737 543.871 198.737C544.743 198.737 545.327 199.28 545.327 200.094V203.014H544.669V200.267C544.669 199.634 544.348 199.313 543.723 199.313C542.901 199.313 542.325 199.897 542.325 200.744V203.014H541.667ZM547.655 203.014L545.92 198.819H546.627L547.943 202.224L549.251 198.819H549.925L548.19 203.014H547.655ZM552.349 203.096C551.148 203.096 550.301 202.183 550.301 200.9C550.301 199.617 551.14 198.737 552.365 198.737C553.533 198.737 554.282 199.543 554.282 200.793C554.282 200.908 554.273 200.999 554.257 201.114H550.984C551.066 201.986 551.592 202.537 552.382 202.537C552.916 202.537 553.344 202.29 553.533 201.854H554.158C553.887 202.627 553.204 203.096 552.349 203.096ZM552.365 199.296C551.625 199.296 551.107 199.782 551 200.563H553.624C553.542 199.749 553.089 199.296 552.365 199.296ZM555.272 203.014V198.819H555.889V199.634C556.128 199.05 556.629 198.737 557.221 198.737C557.361 198.737 557.443 198.745 557.501 198.77V199.403C557.443 199.387 557.345 199.379 557.205 199.379C556.374 199.379 555.93 199.897 555.93 200.826V203.014H555.272ZM559.659 203.096C558.631 203.096 557.981 202.603 557.899 201.723H558.532C558.606 202.265 559.017 202.553 559.675 202.553C560.259 202.553 560.604 202.323 560.604 201.92C560.604 201.632 560.465 201.418 559.905 201.278L559.231 201.106C558.458 200.908 558.08 200.489 558.08 199.913C558.08 199.19 558.655 198.737 559.576 198.737C560.489 198.737 561.09 199.198 561.172 199.979H560.539C560.465 199.527 560.111 199.28 559.552 199.28C559.009 199.28 558.705 199.494 558.705 199.864C558.705 200.152 558.894 200.357 559.404 200.497L560.062 200.678C560.843 200.892 561.238 201.328 561.238 201.928C561.238 202.66 560.646 203.096 559.659 203.096ZM563.394 203.096C562.523 203.096 561.98 202.644 561.98 201.912C561.98 201.18 562.49 200.793 563.46 200.629L564.735 200.415V200.226C564.735 199.593 564.455 199.296 563.814 199.296C563.181 199.296 562.778 199.568 562.737 200.037H562.103C562.161 199.231 562.827 198.737 563.839 198.737C564.875 198.737 565.376 199.231 565.376 200.218V202.232C565.376 202.479 565.409 202.726 565.467 203.014H564.834C564.801 202.849 564.784 202.66 564.776 202.372C564.554 202.833 564.052 203.096 563.394 203.096ZM562.621 201.887C562.621 202.315 562.917 202.537 563.485 202.537C564.217 202.537 564.735 202.167 564.735 201.632V200.958L563.559 201.139C562.942 201.237 562.621 201.451 562.621 201.887ZM568.21 203.088C567.272 203.088 566.878 202.66 566.878 201.854V199.379H566.014V198.819H566.878V197.841L567.536 197.594V198.819H568.786V199.379H567.536V201.846C567.536 202.323 567.758 202.529 568.309 202.529C568.522 202.529 568.687 202.496 568.786 202.454V203.014C568.67 203.055 568.465 203.088 568.21 203.088ZM569.583 197.865V197.092H570.34V197.865H569.583ZM569.632 203.014V198.819H570.29V203.014H569.632ZM571.608 203.014V198.819H572.225V199.617C572.529 199.066 573.121 198.737 573.812 198.737C574.684 198.737 575.268 199.28 575.268 200.094V203.014H574.61V200.267C574.61 199.634 574.289 199.313 573.664 199.313C572.842 199.313 572.266 199.897 572.266 200.744V203.014H571.608ZM577.642 203.096C576.77 203.096 576.227 202.644 576.227 201.912C576.227 201.18 576.737 200.793 577.708 200.629L578.983 200.415V200.226C578.983 199.593 578.703 199.296 578.061 199.296C577.428 199.296 577.025 199.568 576.984 200.037H576.351C576.408 199.231 577.075 198.737 578.086 198.737C579.122 198.737 579.624 199.231 579.624 200.218V202.232C579.624 202.479 579.657 202.726 579.715 203.014H579.081C579.048 202.849 579.032 202.66 579.024 202.372C578.802 202.833 578.3 203.096 577.642 203.096ZM576.869 201.887C576.869 202.315 577.165 202.537 577.733 202.537C578.464 202.537 578.983 202.167 578.983 201.632V200.958L577.807 201.139C577.19 201.237 576.869 201.451 576.869 201.887ZM580.892 203.014V197.092H581.55V203.014H580.892ZM556.301 213.014V207.092H558.292C560.15 207.092 561.367 208.268 561.367 210.037C561.367 211.805 560.134 213.014 558.3 213.014H556.301ZM558.292 207.685H556.976V212.422H558.292C559.764 212.422 560.677 211.459 560.677 210.02C560.677 208.606 559.78 207.685 558.292 207.685ZM564.123 213.096C562.922 213.096 562.075 212.183 562.075 210.9C562.075 209.617 562.914 208.737 564.139 208.737C565.307 208.737 566.056 209.543 566.056 210.793C566.056 210.908 566.047 210.999 566.031 211.114H562.758C562.84 211.986 563.366 212.537 564.156 212.537C564.69 212.537 565.118 212.29 565.307 211.854H565.932C565.661 212.627 564.978 213.096 564.123 213.096ZM564.139 209.296C563.399 209.296 562.881 209.782 562.774 210.563H565.398C565.315 209.749 564.863 209.296 564.139 209.296ZM568.469 213.096C567.441 213.096 566.791 212.603 566.709 211.723H567.342C567.416 212.265 567.828 212.553 568.485 212.553C569.069 212.553 569.415 212.323 569.415 211.92C569.415 211.632 569.275 211.418 568.716 211.278L568.041 211.106C567.268 210.908 566.89 210.489 566.89 209.913C566.89 209.19 567.466 208.737 568.387 208.737C569.3 208.737 569.9 209.198 569.982 209.979H569.349C569.275 209.527 568.921 209.28 568.362 209.28C567.819 209.28 567.515 209.494 567.515 209.864C567.515 210.152 567.704 210.357 568.214 210.497L568.872 210.678C569.653 210.892 570.048 211.328 570.048 211.928C570.048 212.66 569.456 213.096 568.469 213.096ZM570.948 207.865V207.092H571.705V207.865H570.948ZM570.998 213.014V208.819H571.656V213.014H570.998ZM574.627 214.782C573.623 214.782 572.916 214.28 572.776 213.507H573.401C573.525 213.951 573.944 214.223 574.668 214.223C575.523 214.223 575.967 213.754 575.967 212.849V212.183C575.721 212.701 575.17 213.014 574.495 213.014C573.385 213.014 572.645 212.158 572.645 210.892C572.645 209.609 573.41 208.745 574.561 208.745C575.26 208.745 575.778 209.058 576.008 209.625V208.819H576.625V212.849C576.625 214.05 575.869 214.782 574.627 214.782ZM574.66 212.446C575.482 212.446 576 211.838 576 210.859C576 209.905 575.482 209.313 574.66 209.313C573.829 209.313 573.319 209.913 573.319 210.884C573.319 211.838 573.837 212.446 574.66 212.446ZM577.945 213.014V208.819H578.562V209.617C578.866 209.066 579.458 208.737 580.149 208.737C581.021 208.737 581.604 209.28 581.604 210.094V213.014H580.947V210.267C580.947 209.634 580.626 209.313 580.001 209.313C579.178 209.313 578.603 209.897 578.603 210.744V213.014H577.945Z" fill="#393939"/>
<rect width="68.534" height="68.534" transform="translate(4.81055 227.007)" fill="#212121"/>
<rect width="68.534" height="68.534" transform="translate(78.4844 227.007)" fill="#212121"/>
<rect width="68.534" height="68.534" transform="translate(152.158 227.007)" fill="#212121"/>
<rect width="68.534" height="68.534" transform="translate(225.832 227.007)" fill="#212121"/>
<rect width="68.534" height="68.534" transform="translate(299.508 227.007)" fill="#212121"/>
<rect width="68.534" height="68.534" transform="translate(373.182 227.007)" fill="#212121"/>
<rect width="68.534" height="68.534" transform="translate(446.855 227.007)" fill="#212121"/>
<rect width="68.534" height="68.534" transform="translate(520.529 227.007)" fill="#212121"/>
<path d="M568.568 246.998C565.854 246.998 563.894 244.873 563.894 241.926C563.894 238.979 565.841 236.855 568.555 236.855C570.761 236.855 572.42 238.307 572.708 240.501H571.584C571.365 238.869 570.227 237.869 568.568 237.869C566.444 237.869 565.046 239.527 565.046 241.926C565.046 244.338 566.457 245.983 568.555 245.983C570.254 245.983 571.406 244.969 571.611 243.352H572.735C572.447 245.558 570.803 246.998 568.568 246.998ZM576.605 246.861V237.979H573.22V236.992H581.115V237.979H577.729V246.861H576.605Z" fill="#393939"/>
<path d="M566.865 276.77C565.237 276.77 564.061 275.495 564.061 273.727C564.061 271.959 565.229 270.684 566.857 270.684C568.181 270.684 569.176 271.556 569.349 272.872H568.675C568.543 271.893 567.86 271.293 566.865 271.293C565.59 271.293 564.752 272.288 564.752 273.727C564.752 275.175 565.599 276.161 566.857 276.161C567.877 276.161 568.568 275.553 568.691 274.582H569.365C569.193 275.906 568.206 276.77 566.865 276.77ZM570.306 271.539V270.766H571.062V271.539H570.306ZM570.355 276.688V272.493H571.013V276.688H570.355ZM573.5 276.688L571.765 272.493H572.472L573.788 275.898L575.095 272.493H575.77L574.035 276.688H573.5ZM576.474 271.539V270.766H577.23V271.539H576.474ZM576.523 276.688V272.493H577.181V276.688H576.523ZM580.144 276.77C578.993 276.77 578.154 275.841 578.154 274.574C578.154 273.316 578.993 272.411 580.136 272.411C581.073 272.411 581.772 272.995 581.904 273.883H581.295C581.18 273.349 580.777 272.97 580.152 272.97C579.346 272.97 578.828 273.604 578.828 274.574C578.828 275.545 579.355 276.211 580.161 276.211C580.761 276.211 581.189 275.849 581.304 275.306H581.912C581.764 276.186 581.041 276.77 580.144 276.77ZM566.13 286.688V281.359H564.098V280.766H568.835V281.359H566.804V286.688H566.13ZM570.636 286.77C569.436 286.77 568.589 285.857 568.589 284.574C568.589 283.291 569.427 282.411 570.653 282.411C571.821 282.411 572.569 283.217 572.569 284.467C572.569 284.582 572.561 284.673 572.544 284.788H569.271C569.353 285.66 569.88 286.211 570.669 286.211C571.204 286.211 571.631 285.964 571.821 285.528H572.446C572.174 286.301 571.492 286.77 570.636 286.77ZM570.653 282.97C569.913 282.97 569.395 283.456 569.288 284.237H571.911C571.829 283.423 571.377 282.97 570.653 282.97ZM575.221 286.77C574.07 286.77 573.231 285.841 573.231 284.574C573.231 283.316 574.07 282.411 575.213 282.411C576.15 282.411 576.849 282.995 576.981 283.883H576.372C576.257 283.349 575.854 282.97 575.229 282.97C574.423 282.97 573.905 283.604 573.905 284.574C573.905 285.545 574.431 286.211 575.237 286.211C575.838 286.211 576.265 285.849 576.38 285.306H576.989C576.841 286.186 576.117 286.77 575.221 286.77ZM577.945 286.688V280.766H578.603V283.225C578.915 282.716 579.483 282.411 580.149 282.411C581.021 282.411 581.604 282.954 581.604 283.768V286.688H580.947V283.941C580.947 283.308 580.626 282.987 580.001 282.987C579.178 282.987 578.603 283.571 578.603 284.418V286.688H577.945Z" fill="#393939"/>
<rect width="68.534" height="68.534" transform="translate(4.81055 300.681)" fill="#212121"/>
<rect width="68.534" height="68.534" transform="translate(78.4844 300.681)" fill="#212121"/>
<rect width="68.534" height="68.534" transform="translate(152.158 300.681)" fill="#212121"/>
<rect width="68.534" height="68.534" transform="translate(225.832 300.681)" fill="#212121"/>
<rect width="68.534" height="68.534" transform="translate(299.508 300.681)" fill="#212121"/>
<rect width="68.534" height="68.534" transform="translate(373.182 300.681)" fill="#212121"/>
<rect width="68.534" height="68.534" transform="translate(446.855 300.681)" fill="#212121"/>
<rect width="68.534" height="68.534" transform="translate(520.529 300.681)" fill="#212121"/>
<path d="M557.465 341.499C554.737 341.499 552.763 339.347 552.763 336.386C552.763 333.453 554.724 331.356 557.451 331.356C560.206 331.356 562.166 333.453 562.166 336.4C562.166 339.347 560.179 341.499 557.465 341.499ZM557.451 340.485C559.562 340.485 561.015 338.771 561.015 336.372C561.015 334.015 559.589 332.37 557.451 332.37C555.313 332.37 553.915 334.001 553.915 336.372C553.915 338.785 555.34 340.485 557.451 340.485ZM564.032 341.362V331.493H567.678C569.789 331.493 570.995 332.576 570.995 334.234C570.995 335.906 569.775 337.017 567.678 337.017H566.705L571.516 341.362H569.817L565.156 337.017V341.362H564.032ZM567.637 332.48H565.156V336.03H567.637C569.09 336.03 569.871 335.344 569.871 334.234C569.871 333.138 569.117 332.48 567.637 332.48ZM577.348 341.499C574.332 341.499 572.413 339.552 572.413 336.51C572.413 333.48 574.346 331.356 577.115 331.356C579.281 331.356 580.966 332.672 581.227 334.591H580.103C579.925 333.247 578.76 332.37 577.156 332.37C574.99 332.37 573.565 334.001 573.565 336.482C573.565 338.99 575.004 340.485 577.444 340.485C578.554 340.485 579.418 340.169 580.13 339.498V337.14H577.43V336.153H581.254V339.909C580.254 340.964 578.938 341.499 577.348 341.499ZM554.636 358.362V348.493H557.953C561.05 348.493 563.079 350.453 563.079 353.4C563.079 356.347 561.023 358.362 557.966 358.362H554.636ZM557.953 349.48H555.76V357.375H557.953C560.406 357.375 561.928 355.771 561.928 353.372C561.928 351.015 560.434 349.48 557.953 349.48ZM564.942 358.362V348.493H571.44V349.48H566.066V352.728H571.056V353.715H566.066V357.375H571.549V358.362H564.942ZM576.541 358.362L572.73 348.493H573.936L577.267 357.32L580.584 348.493H581.722L577.911 358.362H576.541Z" fill="#393939"/>
<rect width="68.534" height="68.534" transform="translate(4.81055 374.355)" fill="#212121"/>
<rect width="68.534" height="68.534" transform="translate(78.4844 374.355)" fill="#212121"/>
<rect width="68.534" height="68.534" transform="translate(152.158 374.355)" fill="#212121"/>
<rect width="68.534" height="68.534" transform="translate(225.832 374.355)" fill="#212121"/>
<rect width="68.534" height="68.534" transform="translate(299.508 374.355)" fill="#212121"/>
<rect width="68.534" height="68.534" transform="translate(373.182 374.355)" fill="#212121"/>
<rect width="68.534" height="68.534" transform="translate(446.855 374.355)" fill="#212121"/>
<rect width="68.534" height="68.534" transform="translate(4.81055 448.029)" fill="#212121"/>
<rect width="68.534" height="68.534" transform="translate(78.4844 448.029)" fill="#212121"/>
<rect width="68.534" height="68.534" transform="translate(152.158 448.029)" fill="#212121"/>
<rect width="68.534" height="68.534" transform="translate(225.832 448.029)" fill="#212121"/>
<rect width="68.534" height="68.534" transform="translate(299.508 448.029)" fill="#212121"/>
<rect width="68.534" height="68.534" transform="translate(373.182 448.029)" fill="#212121"/>
<rect width="68.534" height="68.534" transform="translate(446.855 448.029)" fill="#212121"/>
<rect width="68.534" height="68.534" transform="translate(4.81055 521.703)" fill="#212121"/>
<rect width="68.534" height="68.534" transform="translate(78.4844 521.703)" fill="#212121"/>
<rect width="68.534" height="68.534" transform="translate(152.158 521.703)" fill="#212121"/>
<rect width="68.534" height="68.534" transform="translate(225.832 521.703)" fill="#212121"/>
<rect width="68.534" height="68.534" transform="translate(299.508 521.703)" fill="#212121"/>
<rect width="68.534" height="68.534" transform="translate(373.182 521.703)" fill="#212121"/>
<rect width="68.534" height="68.534" transform="translate(446.855 521.703)" fill="#212121"/>
<rect width="68.534" height="68.534" transform="translate(4.81055 595.377)" fill="#212121"/>
<rect width="68.534" height="68.534" transform="translate(78.4844 595.377)" fill="#212121"/>
<rect width="68.534" height="68.534" transform="translate(152.158 595.377)" fill="#212121"/>
<rect width="68.534" height="68.534" transform="translate(225.832 595.377)" fill="#212121"/>
<rect width="68.534" height="68.534" transform="translate(299.508 595.377)" fill="#212121"/>
<rect width="68.534" height="68.534" transform="translate(373.182 595.377)" fill="#212121"/>
<rect width="68.534" height="68.534" transform="translate(446.855 595.377)" fill="#212121"/>
<rect width="68.534" height="68.534" transform="translate(4.81055 669.051)" fill="#212121"/>
<rect width="68.534" height="68.534" transform="translate(78.4844 669.051)" fill="#212121"/>
<rect width="68.534" height="68.534" transform="translate(152.158 669.051)" fill="#212121"/>
<rect width="68.534" height="68.534" transform="translate(225.832 669.051)" fill="#212121"/>
<rect width="68.534" height="68.534" transform="translate(299.508 669.051)" fill="#212121"/>
<rect width="68.534" height="68.534" transform="translate(373.182 669.051)" fill="#212121"/>
<rect width="68.534" height="68.534" transform="translate(446.855 669.051)" fill="#212121"/>
<rect width="657.926" height="657.926" transform="translate(-142.314 79.6508)" fill="#212121"/>
</g>
</g>
<defs>
<linearGradient id="paint0_linear_1355_9999" x1="366.395" y1="52.2645" x2="12.2404" y2="630.911" gradientUnits="userSpaceOnUse">
<stop stop-color="#D9D9D9"/>
<stop offset="1" stop-color="#737373" stop-opacity="0"/>
</linearGradient>
<clipPath id="clip0_1355_9999">
<rect width="999" height="943" fill="white" transform="translate(-331)"/>
</clipPath>
</defs>
</svg>
