<svg width="129" height="123" viewBox="0 0 129 123" fill="none" xmlns="http://www.w3.org/2000/svg">
<path d="M94.1586 15.127V4.07717H95.5628V13.999L101.548 13.999V15.127L94.1586 15.127ZM104.171 9.56369H102.92V9.33349C103.081 7.96761 104.332 7.12353 106.212 7.12353C108.092 7.12353 109.328 7.96761 109.328 9.91667V13.5385C109.328 13.9376 109.52 14.1371 109.919 14.1371H110.356V15.127H109.696C108.752 15.127 108.299 14.6435 108.253 13.9145H108.1C107.693 14.6665 106.934 15.2958 105.376 15.2958C103.695 15.2958 102.521 14.3519 102.521 12.9477C102.521 11.413 103.718 10.7761 105.238 10.6303L107.049 10.4615C107.693 10.4001 108.039 10.2236 108.039 9.62508C108.039 8.62753 107.371 8.12876 106.189 8.12876C105.008 8.12876 104.217 8.61218 104.171 9.56369ZM103.856 12.9016C103.856 13.7381 104.555 14.2905 105.591 14.2905C106.834 14.2905 108.046 13.5616 108.046 11.6739V11.1521H107.893C107.655 11.2979 107.425 11.3823 106.734 11.4514L105.545 11.5665C104.47 11.6816 103.856 12.0499 103.856 12.9016ZM111.818 15.127V4.07717H113.168V8.36663H113.322C113.667 7.79112 114.419 7.13121 115.9 7.13121C117.933 7.13121 119.483 8.51243 119.483 11.2212C119.483 13.9222 117.933 15.3034 115.9 15.3034C114.419 15.3034 113.644 14.6435 113.283 14.0143H113.13V15.127H111.818ZM113.114 11.2212C113.114 13.1625 114.127 14.2368 115.624 14.2368C117.112 14.2368 118.125 13.1625 118.125 11.2212C118.125 9.2721 117.112 8.19782 115.624 8.19782C114.127 8.19782 113.114 9.2721 113.114 11.2212ZM120.929 9.37953C120.929 7.95994 122.126 7.13121 124.06 7.13121C126.001 7.13121 127.198 8.00598 127.352 9.33349V9.56369H126.101C126.04 8.55847 125.265 8.12108 124.083 8.12108C122.924 8.12108 122.218 8.56614 122.218 9.32582C122.218 10.0932 122.878 10.3617 123.699 10.4999L124.958 10.707C126.508 10.9679 127.605 11.4821 127.605 12.9323C127.605 14.398 126.454 15.3111 124.352 15.3111C122.241 15.3111 120.96 14.398 120.768 12.9707V12.7405H122.034C122.126 13.7764 123.055 14.3212 124.352 14.3212C125.648 14.3212 126.316 13.7764 126.316 13.0168C126.316 12.2264 125.633 11.9578 124.643 11.7967L123.385 11.5895C121.957 11.3439 120.929 10.7377 120.929 9.37953Z" fill="#A8A8A8"/>
<path d="M41.1026 31.799C39.332 31.799 38.3445 30.5051 38.3445 28.7458C38.3445 26.8957 39.4341 25.7039 41.1026 25.7039C42.7711 25.7039 43.7132 26.873 43.7132 28.4847C43.7132 28.6436 43.7132 28.8025 43.7019 28.8933H39.1163C39.1277 30.0624 39.7519 31.1634 41.114 31.1634C42.3058 31.1634 42.7711 30.3462 42.8847 29.8695H43.6338C43.35 30.9251 42.5555 31.799 41.1026 31.799ZM39.1163 28.2464H42.9301C42.9301 27.2135 42.2604 26.3395 41.0686 26.3395C39.9449 26.3395 39.1731 27.1681 39.1163 28.2464ZM43.7211 31.6401L45.9912 28.6777L43.9027 25.8514H44.7994L46.4339 28.1556H46.4566L48.0797 25.8514H48.965L46.8879 28.6777L49.1693 31.6401H48.2726L46.4452 29.1771H46.4225L44.6065 31.6401H43.7211ZM52.4813 31.7763C51.4711 31.7763 50.8696 31.2769 50.5291 30.664H50.5064V33.6492H49.7686V25.8514H50.5064V26.7822H50.5291C50.8696 26.226 51.4711 25.7039 52.4813 25.7039C53.9001 25.7039 55.0352 26.8389 55.0352 28.7458C55.0352 30.6413 53.9001 31.7763 52.4813 31.7763ZM50.5064 28.7458C50.5064 30.1986 51.2895 31.1294 52.4019 31.1294C53.605 31.1294 54.2633 30.0397 54.2633 28.7458C54.2633 27.4405 53.605 26.3508 52.4019 26.3508C51.2895 26.3508 50.5064 27.2816 50.5064 28.7458ZM56.0867 31.6401V23.5246H56.8245V31.6401H56.0867ZM60.6447 31.799C58.9081 31.799 57.8638 30.5505 57.8638 28.7571C57.8638 26.9524 58.9081 25.7039 60.6447 25.7039C62.3813 25.7039 63.4255 26.9524 63.4255 28.7571C63.4255 30.5505 62.3813 31.799 60.6447 31.799ZM58.6356 28.7571C58.6356 30.0851 59.294 31.1521 60.6447 31.1521C61.9954 31.1521 62.6537 30.0851 62.6537 28.7571C62.6537 27.4178 61.9954 26.3508 60.6447 26.3508C59.294 26.3508 58.6356 27.4178 58.6356 28.7571ZM65.2043 28.4053V31.6401H64.4665V25.8514H65.2043V27.0319H65.227C65.5221 26.2714 66.0555 25.7152 66.8728 25.7152C67.0771 25.7152 67.236 25.7266 67.3722 25.7493V26.4757C67.2587 26.453 67.1338 26.4416 67.0203 26.4416C65.9761 26.4416 65.2043 27.2816 65.2043 28.4053ZM68.1576 31.6401V25.8514H68.8953V31.6401H68.1576ZM68.0441 24.6937V23.7403H68.9975V24.6937H68.0441ZM74.1571 27.7356C74.1571 26.9978 73.8166 26.3622 72.8177 26.3622C71.7167 26.3622 70.9903 27.134 70.9903 27.9853V31.6401H70.2525V25.8514H70.9903V26.68H71.013C71.3422 26.2033 71.9664 25.7152 72.9993 25.7152C74.0322 25.7152 74.8948 26.2941 74.8948 27.5767V31.6401H74.1571V27.7356ZM78.5768 33.7173C77.0104 33.7173 76.1819 32.9568 76.0911 31.9466H76.8629C76.9764 32.5595 77.4645 33.0703 78.5882 33.0703C79.7572 33.0703 80.4496 32.5595 80.4496 31.3791V30.3008H80.4269C80.0864 30.9024 79.4508 31.3677 78.4747 31.3677C77.0899 31.3677 75.9322 30.4597 75.9322 28.5301C75.9322 26.6233 77.0899 25.7152 78.4747 25.7152C79.4508 25.7152 80.0864 26.1806 80.4269 26.7595H80.4496V25.8514H81.1874V31.2769C81.1874 32.9114 80.1659 33.7173 78.5768 33.7173ZM76.704 28.5301C76.704 29.8581 77.385 30.7208 78.5768 30.7208C79.6437 30.7208 80.4496 30.017 80.4496 28.5301C80.4496 27.0659 79.6437 26.3622 78.5768 26.3622C77.385 26.3622 76.704 27.2248 76.704 28.5301ZM87.1508 31.7877C85.5277 31.7877 84.6424 30.9024 84.6083 29.7446H85.3801C85.4255 30.5391 85.9476 31.1407 87.1621 31.1407C88.2631 31.1407 88.6377 30.63 88.6377 30.0624C88.6377 29.2111 87.7751 29.1203 86.9692 28.9274C85.9022 28.655 84.824 28.3939 84.824 27.2702C84.824 26.3281 85.5731 25.7152 86.8784 25.7152C88.388 25.7152 89.0917 26.5211 89.1939 27.4745H88.422C88.3199 26.9638 88.0134 26.3622 86.8897 26.3622C86.0612 26.3622 85.5958 26.68 85.5958 27.2248C85.5958 27.9513 86.379 28.0534 87.2529 28.2691C88.3426 28.5301 89.4209 28.8366 89.4209 30.0397C89.4209 31.0953 88.5809 31.7877 87.1508 31.7877ZM91.9951 31.6855C91.1552 31.6855 90.6331 31.4018 90.6331 30.1419V26.4984H89.7818V25.8514H90.6331V23.9219H91.3708V25.8514H92.5399V26.4984H91.3708V30.1532C91.3708 30.8683 91.5297 31.0386 92.0973 31.0386C92.2789 31.0386 92.3697 31.0272 92.5399 31.0159V31.6401C92.3129 31.6742 92.1767 31.6855 91.9951 31.6855ZM94.2342 28.4053V31.6401H93.4965V25.8514H94.2342V27.0319H94.2569C94.5521 26.2714 95.0855 25.7152 95.9028 25.7152C96.1071 25.7152 96.266 25.7266 96.4022 25.7493V26.4757C96.2887 26.453 96.1638 26.4416 96.0503 26.4416C95.0061 26.4416 94.2342 27.2816 94.2342 28.4053ZM99.0377 31.7763C98.0048 31.7763 97.1422 31.1975 97.1422 29.9149V25.8514H97.8799V29.756C97.8799 30.4937 98.2205 31.1294 99.2193 31.1294C100.32 31.1294 101.047 30.3575 101.047 29.5063V25.8514H101.784V31.6401H101.047V30.8229H101.024C100.695 31.2996 100.071 31.7763 99.0377 31.7763ZM105.603 31.7877C103.946 31.7877 102.833 30.5618 102.833 28.7458C102.833 26.9411 103.946 25.7152 105.603 25.7152C107.01 25.7152 107.964 26.6573 108.088 27.8832H107.317C107.271 27.2362 106.806 26.3622 105.603 26.3622C104.184 26.3622 103.605 27.5653 103.605 28.7458C103.605 29.9376 104.184 31.1521 105.603 31.1521C106.817 31.1521 107.271 30.2781 107.317 29.5744H108.088C108.009 30.8229 107.01 31.7877 105.603 31.7877ZM110.728 31.6855C109.888 31.6855 109.366 31.4018 109.366 30.1419V26.4984H108.514V25.8514H109.366V23.9219H110.103V25.8514H111.273V26.4984H110.103V30.1532C110.103 30.8683 110.262 31.0386 110.83 31.0386C111.011 31.0386 111.102 31.0272 111.273 31.0159V31.6401C111.046 31.6742 110.909 31.6855 110.728 31.6855ZM114.079 31.7763C113.046 31.7763 112.184 31.1975 112.184 29.9149V25.8514H112.921V29.756C112.921 30.4937 113.262 31.1294 114.261 31.1294C115.362 31.1294 116.088 30.3575 116.088 29.5063V25.8514H116.826V31.6401H116.088V30.8229H116.066C115.736 31.2996 115.112 31.7763 114.079 31.7763ZM118.93 28.4053V31.6401H118.192V25.8514H118.93V27.0319H118.953C119.248 26.2714 119.782 25.7152 120.599 25.7152C120.803 25.7152 120.962 25.7266 121.098 25.7493V26.4757C120.985 26.453 120.86 26.4416 120.746 26.4416C119.702 26.4416 118.93 27.2816 118.93 28.4053ZM123.229 31.7877C122.071 31.7877 121.333 31.1407 121.333 30.1759C121.333 28.9274 122.219 28.5301 123.717 28.2691C124.67 28.0988 125.283 28.0307 125.283 27.3383C125.283 26.7481 124.897 26.3508 123.967 26.3508C122.843 26.3508 122.446 26.7481 122.389 27.5994H121.606C121.662 26.5779 122.309 25.7039 123.989 25.7039C125.056 25.7039 125.998 26.1579 125.998 27.5426V30.437C125.998 30.9024 126.066 31.118 126.327 31.118C126.373 31.118 126.418 31.118 126.486 31.1067V31.6401C126.361 31.6628 126.237 31.6855 126.1 31.6855C125.612 31.6855 125.329 31.4926 125.283 30.7662H125.26C124.863 31.4245 124.171 31.7877 123.229 31.7877ZM122.105 30.1078C122.105 30.7775 122.48 31.1407 123.32 31.1407C124.5 31.1407 125.283 30.5164 125.283 29.4722V28.3939C125.113 28.6323 124.5 28.7685 123.808 28.882C122.684 29.0863 122.105 29.3701 122.105 30.1078ZM127.47 31.6401V23.5246H128.208V31.6401H127.47ZM47.2897 44.7877C46.1319 44.7877 45.3942 44.1407 45.3942 43.1759C45.3942 41.9274 46.2795 41.5301 47.7777 41.2691C48.7312 41.0988 49.3441 41.0307 49.3441 40.3383C49.3441 39.7481 48.9582 39.3508 48.0275 39.3508C46.9038 39.3508 46.5065 39.7481 46.4497 40.5994H45.6666C45.7233 39.5779 46.3703 38.7039 48.0502 38.7039C49.1171 38.7039 50.0592 39.1579 50.0592 40.5426V43.437C50.0592 43.9024 50.1273 44.118 50.3883 44.118C50.4337 44.118 50.4791 44.118 50.5472 44.1067V44.6401C50.4224 44.6628 50.2975 44.6855 50.1613 44.6855C49.6733 44.6855 49.3895 44.4926 49.3441 43.7662H49.3214C48.9241 44.4245 48.2318 44.7877 47.2897 44.7877ZM46.166 43.1078C46.166 43.7775 46.5405 44.1407 47.3805 44.1407C48.5609 44.1407 49.3441 43.5164 49.3441 42.4722V41.3939C49.1738 41.6323 48.5609 41.7685 47.8685 41.882C46.7449 42.0863 46.166 42.3701 46.166 43.1078ZM51.531 44.6401V36.5246H52.2688V44.6401H51.531ZM55.3058 44.6855C54.4659 44.6855 53.9438 44.4018 53.9438 43.1419V39.4984H53.0925V38.8514H53.9438V36.9219H54.6815V38.8514H55.8506V39.4984H54.6815V43.1532C54.6815 43.8683 54.8404 44.0386 55.408 44.0386C55.5896 44.0386 55.6804 44.0272 55.8506 44.0159V44.6401C55.6236 44.6742 55.4874 44.6855 55.3058 44.6855ZM59.1258 44.799C57.3552 44.799 56.3677 43.5051 56.3677 41.7458C56.3677 39.8957 57.4573 38.7039 59.1258 38.7039C60.7944 38.7039 61.7364 39.873 61.7364 41.4847C61.7364 41.6436 61.7364 41.8025 61.7251 41.8933H57.1395C57.1509 43.0624 57.7751 44.1634 59.1372 44.1634C60.329 44.1634 60.7944 43.3462 60.9079 42.8695H61.657C61.3732 43.9251 60.5787 44.799 59.1258 44.799ZM57.1395 41.2464H60.9533C60.9533 40.2135 60.2836 39.3395 59.0918 39.3395C57.9681 39.3395 57.1963 40.1681 57.1395 41.2464ZM63.5083 41.4053V44.6401H62.7706V38.8514H63.5083V40.0319H63.531C63.8262 39.2714 64.3596 38.7152 65.1768 38.7152C65.3812 38.7152 65.5401 38.7266 65.6763 38.7493V39.4757C65.5628 39.453 65.4379 39.4416 65.3244 39.4416C64.2802 39.4416 63.5083 40.2816 63.5083 41.4053ZM70.3662 40.7356C70.3662 39.9978 70.0257 39.3622 69.0269 39.3622C67.9259 39.3622 67.1994 40.134 67.1994 40.9853V44.6401H66.4617V38.8514H67.1994V39.68H67.2221C67.5513 39.2033 68.1756 38.7152 69.2085 38.7152C70.2413 38.7152 71.104 39.2941 71.104 40.5767V44.6401H70.3662V40.7356ZM74.0141 44.7877C72.8564 44.7877 72.1186 44.1407 72.1186 43.1759C72.1186 41.9274 73.0039 41.5301 74.5022 41.2691C75.4556 41.0988 76.0685 41.0307 76.0685 40.3383C76.0685 39.7481 75.6826 39.3508 74.7519 39.3508C73.6282 39.3508 73.2309 39.7481 73.1742 40.5994H72.391C72.4478 39.5779 73.0947 38.7039 74.7746 38.7039C75.8415 38.7039 76.7836 39.1579 76.7836 40.5426V43.437C76.7836 43.9024 76.8517 44.118 77.1128 44.118C77.1582 44.118 77.2036 44.118 77.2717 44.1067V44.6401C77.1468 44.6628 77.022 44.6855 76.8858 44.6855C76.3977 44.6855 76.1139 44.4926 76.0685 43.7662H76.0458C75.6486 44.4245 74.9562 44.7877 74.0141 44.7877ZM72.8904 43.1078C72.8904 43.7775 73.265 44.1407 74.1049 44.1407C75.2854 44.1407 76.0685 43.5164 76.0685 42.4722V41.3939C75.8983 41.6323 75.2854 41.7685 74.593 41.882C73.4693 42.0863 72.8904 42.3701 72.8904 43.1078ZM79.8355 44.6855C78.9956 44.6855 78.4735 44.4018 78.4735 43.1419V39.4984H77.6222V38.8514H78.4735V36.9219H79.2113V38.8514H80.3804V39.4984H79.2113V43.1532C79.2113 43.8683 79.3702 44.0386 79.9377 44.0386C80.1193 44.0386 80.2101 44.0272 80.3804 44.0159V44.6401C80.1534 44.6742 80.0172 44.6855 79.8355 44.6855ZM81.3369 44.6401V38.8514H82.0747V44.6401H81.3369ZM81.2234 37.6937V36.7403H82.1768V37.6937H81.2234ZM84.9869 44.6401L82.8643 38.8514H83.6816L85.4182 43.891H85.4295L87.1548 38.8514H87.9493L85.8268 44.6401H84.9869ZM91.0267 44.799C89.256 44.799 88.2685 43.5051 88.2685 41.7458C88.2685 39.8957 89.3582 38.7039 91.0267 38.7039C92.6952 38.7039 93.6373 39.873 93.6373 41.4847C93.6373 41.6436 93.6373 41.8025 93.6259 41.8933H89.0404C89.0517 43.0624 89.676 44.1634 91.038 44.1634C92.2298 44.1634 92.6952 43.3462 92.8087 42.8695H93.5578C93.2741 43.9251 92.4795 44.799 91.0267 44.799ZM89.0404 41.2464H92.8541C92.8541 40.2135 92.1844 39.3395 90.9926 39.3395C89.869 39.3395 89.0971 40.1681 89.0404 41.2464ZM96.8053 44.7877C95.1822 44.7877 94.2969 43.9024 94.2628 42.7446H95.0346C95.08 43.5391 95.6022 44.1407 96.8166 44.1407C97.9176 44.1407 98.2922 43.63 98.2922 43.0624C98.2922 42.2111 97.4296 42.1203 96.6237 41.9274C95.5568 41.655 94.4785 41.3939 94.4785 40.2702C94.4785 39.3281 95.2276 38.7152 96.5329 38.7152C98.0425 38.7152 98.7462 39.5211 98.8484 40.4745H98.0765C97.9744 39.9638 97.6679 39.3622 96.5442 39.3622C95.7157 39.3622 95.2503 39.68 95.2503 40.2248C95.2503 40.9513 96.0335 41.0534 96.9074 41.2691C97.9971 41.5301 99.0754 41.8366 99.0754 43.0397C99.0754 44.0953 98.2354 44.7877 96.8053 44.7877ZM104.188 44.6855C103.348 44.6855 102.826 44.4018 102.826 43.1419V39.4984H101.975V38.8514H102.826V36.9219H103.564V38.8514H104.733V39.4984H103.564V43.1532C103.564 43.8683 103.723 44.0386 104.29 44.0386C104.472 44.0386 104.563 44.0272 104.733 44.0159V44.6401C104.506 44.6742 104.37 44.6855 104.188 44.6855ZM108.019 44.799C106.283 44.799 105.238 43.5505 105.238 41.7571C105.238 39.9524 106.283 38.7039 108.019 38.7039C109.756 38.7039 110.8 39.9524 110.8 41.7571C110.8 43.5505 109.756 44.799 108.019 44.799ZM106.01 41.7571C106.01 43.0851 106.669 44.1521 108.019 44.1521C109.37 44.1521 110.028 43.0851 110.028 41.7571C110.028 40.4178 109.37 39.3508 108.019 39.3508C106.669 39.3508 106.01 40.4178 106.01 41.7571ZM116.004 44.6855C115.164 44.6855 114.642 44.4018 114.642 43.1419V39.4984H113.791V38.8514H114.642V36.9219H115.38V38.8514H116.549V39.4984H115.38V43.1532C115.38 43.8683 115.539 44.0386 116.106 44.0386C116.288 44.0386 116.378 44.0272 116.549 44.0159V44.6401C116.322 44.6742 116.185 44.6855 116.004 44.6855ZM121.41 40.7356C121.41 39.9978 121.069 39.3622 120.07 39.3622C118.969 39.3622 118.243 40.134 118.243 40.9853V44.6401H117.505V36.5246H118.243V39.68H118.266C118.595 39.2033 119.219 38.7152 120.252 38.7152C121.285 38.7152 122.148 39.2941 122.148 40.5767V44.6401H121.41V40.7356ZM125.92 44.799C124.15 44.799 123.162 43.5051 123.162 41.7458C123.162 39.8957 124.252 38.7039 125.92 38.7039C127.589 38.7039 128.531 39.873 128.531 41.4847C128.531 41.6436 128.531 41.8025 128.52 41.8933H123.934C123.945 43.0624 124.57 44.1634 125.932 44.1634C127.123 44.1634 127.589 43.3462 127.702 42.8695H128.451C128.168 43.9251 127.373 44.799 125.92 44.799ZM123.934 41.2464H127.748C127.748 40.2135 127.078 39.3395 125.886 39.3395C124.763 39.3395 123.991 40.1681 123.934 41.2464ZM7.97142 57.799C6.20076 57.799 5.21327 56.5051 5.21327 54.7458C5.21327 52.8957 6.30291 51.7039 7.97142 51.7039C9.63993 51.7039 10.582 52.873 10.582 54.4847C10.582 54.6436 10.582 54.8025 10.5707 54.8933H5.9851C5.99645 56.0624 6.62072 57.1634 7.98277 57.1634C9.17456 57.1634 9.63993 56.3462 9.75343 55.8695H10.5026C10.2188 56.9251 9.42427 57.799 7.97142 57.799ZM5.9851 54.2464H9.79884C9.79884 53.2135 9.12916 52.3395 7.93737 52.3395C6.81368 52.3395 6.04185 53.1681 5.9851 54.2464ZM13.0271 57.6401L10.9045 51.8514H11.7218L13.4584 56.891H13.4697L15.195 51.8514H15.9895L13.867 57.6401H13.0271ZM19.0669 57.799C17.2962 57.799 16.3087 56.5051 16.3087 54.7458C16.3087 52.8957 17.3984 51.7039 19.0669 51.7039C20.7354 51.7039 21.6775 52.873 21.6775 54.4847C21.6775 54.6436 21.6775 54.8025 21.6661 54.8933H17.0806C17.0919 56.0624 17.7162 57.1634 19.0782 57.1634C20.27 57.1634 20.7354 56.3462 20.8489 55.8695H21.598C21.3143 56.9251 20.5197 57.799 19.0669 57.799ZM17.0806 54.2464H20.8943C20.8943 53.2135 20.2246 52.3395 19.0328 52.3395C17.9091 52.3395 17.1373 53.1681 17.0806 54.2464ZM23.4494 54.4053V57.6401H22.7116V51.8514H23.4494V53.0319H23.4721C23.7672 52.2714 24.3007 51.7152 25.1179 51.7152C25.3222 51.7152 25.4811 51.7266 25.6173 51.7493V52.4757C25.5038 52.453 25.379 52.4416 25.2655 52.4416C24.2212 52.4416 23.4494 53.2816 23.4494 54.4053ZM26.9135 59.6719C26.7319 59.6719 26.5957 59.6605 26.3573 59.6265V58.9908C26.5276 59.0135 26.6184 59.0249 26.8 59.0249C27.3448 59.0249 27.7875 58.673 28.1053 57.6061L25.7671 51.8514H26.5843L28.4685 56.6754H28.4912L30.2845 51.8514H31.0791L28.7636 57.8104C28.1961 59.2519 27.6853 59.6719 26.9135 59.6719ZM33.9371 57.7877C32.5296 57.7877 31.3946 56.6527 31.3946 54.7458C31.3946 52.8503 32.5296 51.7152 33.9371 51.7152C34.9473 51.7152 35.5488 52.2146 35.8893 52.8276H35.912V49.5246H36.6498V57.6401H35.912V56.6981H35.8893C35.5602 57.2656 34.9473 57.7877 33.9371 57.7877ZM32.1664 54.7458C32.1664 56.0511 32.8247 57.1407 34.0279 57.1407C35.1402 57.1407 35.912 56.21 35.912 54.7458C35.912 53.2929 35.1402 52.3622 34.0279 52.3622C32.8247 52.3622 32.1664 53.4518 32.1664 54.7458ZM39.6082 57.7877C38.4505 57.7877 37.7127 57.1407 37.7127 56.1759C37.7127 54.9274 38.598 54.5301 40.0963 54.2691C41.0497 54.0988 41.6626 54.0307 41.6626 53.3383C41.6626 52.7481 41.2767 52.3508 40.346 52.3508C39.2223 52.3508 38.825 52.7481 38.7683 53.5994H37.9851C38.0418 52.5779 38.6888 51.7039 40.3687 51.7039C41.4356 51.7039 42.3777 52.1579 42.3777 53.5426V56.437C42.3777 56.9024 42.4458 57.118 42.7069 57.118C42.7523 57.118 42.7977 57.118 42.8658 57.1067V57.6401C42.7409 57.6628 42.6161 57.6855 42.4799 57.6855C41.9918 57.6855 41.708 57.4926 41.6626 56.7662H41.6399C41.2427 57.4245 40.5503 57.7877 39.6082 57.7877ZM38.4845 56.1078C38.4845 56.7775 38.8591 57.1407 39.699 57.1407C40.8794 57.1407 41.6626 56.5164 41.6626 55.4722V54.3939C41.4924 54.6323 40.8794 54.7685 40.1871 54.882C39.0634 55.0863 38.4845 55.3701 38.4845 56.1078ZM44.194 59.6719C44.0124 59.6719 43.8762 59.6605 43.6379 59.6265V58.9908C43.8081 59.0135 43.8989 59.0249 44.0805 59.0249C44.6253 59.0249 45.068 58.673 45.3858 57.6061L43.0476 51.8514H43.8649L45.749 56.6754H45.7717L47.5651 51.8514H48.3596L46.0441 57.8104C45.4766 59.2519 44.9659 59.6719 44.194 59.6719ZM53.8164 57.7877C52.1593 57.7877 51.0469 56.5618 51.0469 54.7458C51.0469 52.9411 52.1593 51.7152 53.8164 51.7152C55.2239 51.7152 56.1773 52.6573 56.3022 53.8832H55.5303C55.4849 53.2362 55.0196 52.3622 53.8164 52.3622C52.3976 52.3622 51.8188 53.5653 51.8188 54.7458C51.8188 55.9376 52.3976 57.1521 53.8164 57.1521C55.0309 57.1521 55.4849 56.2781 55.5303 55.5744H56.3022C56.2227 56.8229 55.2239 57.7877 53.8164 57.7877ZM59.7579 57.799C58.0213 57.799 56.9771 56.5505 56.9771 54.7571C56.9771 52.9524 58.0213 51.7039 59.7579 51.7039C61.4945 51.7039 62.5388 52.9524 62.5388 54.7571C62.5388 56.5505 61.4945 57.799 59.7579 57.799ZM57.7489 54.7571C57.7489 56.0851 58.4072 57.1521 59.7579 57.1521C61.1086 57.1521 61.7669 56.0851 61.7669 54.7571C61.7669 53.4178 61.1086 52.3508 59.7579 52.3508C58.4072 52.3508 57.7489 53.4178 57.7489 54.7571ZM65.8158 57.7877C64.4083 57.7877 63.2733 56.6527 63.2733 54.7458C63.2733 52.8503 64.4083 51.7152 65.8158 51.7152C66.8259 51.7152 67.4275 52.2146 67.768 52.8276H67.7907V49.5246H68.5285V57.6401H67.7907V56.6981H67.768C67.4389 57.2656 66.8259 57.7877 65.8158 57.7877ZM64.0451 54.7458C64.0451 56.0511 64.7034 57.1407 65.9066 57.1407C67.0189 57.1407 67.7907 56.21 67.7907 54.7458C67.7907 53.2929 67.0189 52.3622 65.9066 52.3622C64.7034 52.3622 64.0451 53.4518 64.0451 54.7458ZM72.3495 57.799C70.5788 57.799 69.5914 56.5051 69.5914 54.7458C69.5914 52.8957 70.681 51.7039 72.3495 51.7039C74.018 51.7039 74.9601 52.873 74.9601 54.4847C74.9601 54.6436 74.9601 54.8025 74.9488 54.8933H70.3632C70.3745 56.0624 70.9988 57.1634 72.3609 57.1634C73.5527 57.1634 74.018 56.3462 74.1315 55.8695H74.8807C74.5969 56.9251 73.8024 57.799 72.3495 57.799ZM70.3632 54.2464H74.1769C74.1769 53.2135 73.5073 52.3395 72.3155 52.3395C71.1918 52.3395 70.4199 53.1681 70.3632 54.2464ZM78.1281 57.7877C76.505 57.7877 75.6197 56.9024 75.5856 55.7446H76.3574C76.4028 56.5391 76.925 57.1407 78.1395 57.1407C79.2405 57.1407 79.615 56.63 79.615 56.0624C79.615 55.2111 78.7524 55.1203 77.9465 54.9274C76.8796 54.655 75.8013 54.3939 75.8013 53.2702C75.8013 52.3281 76.5504 51.7152 77.8557 51.7152C79.3653 51.7152 80.069 52.5211 80.1712 53.4745H79.3994C79.2972 52.9638 78.9907 52.3622 77.8671 52.3622C77.0385 52.3622 76.5731 52.68 76.5731 53.2248C76.5731 53.9513 77.3563 54.0534 78.2303 54.2691C79.3199 54.5301 80.3982 54.8366 80.3982 56.0397C80.3982 57.0953 79.5583 57.7877 78.1281 57.7877ZM86.2939 57.799C84.5573 57.799 83.5131 56.5505 83.5131 54.7571C83.5131 52.9524 84.5573 51.7039 86.2939 51.7039C88.0305 51.7039 89.0748 52.9524 89.0748 54.7571C89.0748 56.5505 88.0305 57.799 86.2939 57.799ZM84.2849 54.7571C84.2849 56.0851 84.9432 57.1521 86.2939 57.1521C87.6446 57.1521 88.303 56.0851 88.303 54.7571C88.303 53.4178 87.6446 52.3508 86.2939 52.3508C84.9432 52.3508 84.2849 53.4178 84.2849 54.7571ZM90.3346 51.0001C90.3346 49.7403 90.834 49.4565 91.6626 49.4565C91.8215 49.4565 91.9577 49.4678 92.2188 49.5019V50.1262C92.0145 50.1148 91.9236 50.1035 91.7647 50.1035C91.2086 50.1035 91.0724 50.2737 91.0724 50.9888V51.8514H92.2188V52.4984H91.0724V57.6401H90.3346V52.4984H89.5174V51.8514H90.3346V51.0001ZM97.3706 57.7877C95.7475 57.7877 94.8622 56.9024 94.8281 55.7446H95.5999C95.6453 56.5391 96.1675 57.1407 97.382 57.1407C98.4829 57.1407 98.8575 56.63 98.8575 56.0624C98.8575 55.2111 97.9949 55.1203 97.189 54.9274C96.1221 54.655 95.0438 54.3939 95.0438 53.2702C95.0438 52.3281 95.7929 51.7152 97.0982 51.7152C98.6078 51.7152 99.3115 52.5211 99.4137 53.4745H98.6418C98.5397 52.9638 98.2332 52.3622 97.1095 52.3622C96.281 52.3622 95.8156 52.68 95.8156 53.2248C95.8156 53.9513 96.5988 54.0534 97.4728 54.2691C98.5624 54.5301 99.6407 54.8366 99.6407 56.0397C99.6407 57.0953 98.8008 57.7877 97.3706 57.7877ZM103.054 57.799C101.317 57.799 100.273 56.5505 100.273 54.7571C100.273 52.9524 101.317 51.7039 103.054 51.7039C104.79 51.7039 105.834 52.9524 105.834 54.7571C105.834 56.5505 104.79 57.799 103.054 57.799ZM101.044 54.7571C101.044 56.0851 101.703 57.1521 103.054 57.1521C104.404 57.1521 105.063 56.0851 105.063 54.7571C105.063 53.4178 104.404 52.3508 103.054 52.3508C101.703 52.3508 101.044 53.4178 101.044 54.7571ZM109.327 57.7877C107.67 57.7877 106.558 56.5618 106.558 54.7458C106.558 52.9411 107.67 51.7152 109.327 51.7152C110.734 51.7152 111.688 52.6573 111.813 53.8832H111.041C110.996 53.2362 110.53 52.3622 109.327 52.3622C107.908 52.3622 107.329 53.5653 107.329 54.7458C107.329 55.9376 107.908 57.1521 109.327 57.1521C110.542 57.1521 110.996 56.2781 111.041 55.5744H111.813C111.733 56.8229 110.734 57.7877 109.327 57.7877ZM112.805 57.6401V51.8514H113.543V57.6401H112.805ZM112.692 50.6937V49.7403H113.645V50.6937H112.692ZM117.352 57.799C115.581 57.799 114.594 56.5051 114.594 54.7458C114.594 52.8957 115.684 51.7039 117.352 51.7039C119.021 51.7039 119.963 52.873 119.963 54.4847C119.963 54.6436 119.963 54.8025 119.951 54.8933H115.366C115.377 56.0624 116.001 57.1634 117.363 57.1634C118.555 57.1634 119.021 56.3462 119.134 55.8695H119.883C119.599 56.9251 118.805 57.799 117.352 57.799ZM115.366 54.2464H119.18C119.18 53.2135 118.51 52.3395 117.318 52.3395C116.194 52.3395 115.423 53.1681 115.366 54.2464ZM122.599 57.6855C121.759 57.6855 121.237 57.4018 121.237 56.1419V52.4984H120.386V51.8514H121.237V49.9219H121.975V51.8514H123.144V52.4984H121.975V56.1532C121.975 56.8683 122.134 57.0386 122.701 57.0386C122.883 57.0386 122.974 57.0272 123.144 57.0159V57.6401C122.917 57.6742 122.781 57.6855 122.599 57.6855ZM124.611 59.6719C124.43 59.6719 124.293 59.6605 124.055 59.6265V58.9908C124.225 59.0135 124.316 59.0249 124.498 59.0249C125.043 59.0249 125.485 58.673 125.803 57.6061L123.465 51.8514H124.282L126.166 56.6754H126.189L127.982 51.8514H128.777L126.461 57.8104C125.894 59.2519 125.383 59.6719 124.611 59.6719Z" fill="#595959"/>
<path d="M113.09 75.9873L113.09 122.626" stroke="#595959" stroke-width="0.378347"/>
</svg>
