<svg width="474" height="61" viewBox="0 0 474 61" fill="none" xmlns="http://www.w3.org/2000/svg">
<path d="M0.787851 9.4878C0.787851 5.88128 2.92107 3.77875 6.0365 3.77875C9.14425 3.77875 11.2775 5.88128 11.2775 9.4878C11.2775 13.0943 9.14425 15.1969 6.0365 15.1969C2.92107 15.1969 0.787851 13.0943 0.787851 9.4878ZM2.19977 9.4878C2.19977 12.373 3.70377 14.0612 6.0365 14.0612C8.36923 14.0612 9.86556 12.373 9.86556 9.4878C9.86556 6.60258 8.36923 4.91442 6.0365 4.91442C3.70377 4.91442 2.19977 6.60258 2.19977 9.4878ZM13.1171 15.0127V7.19344L14.4292 7.19344V8.29842H14.5827C14.9127 7.63082 15.5572 6.96323 17.161 7.12438V8.29074C15.5419 8.12193 14.4676 8.68976 14.4676 10.6542V15.0127H13.1171ZM17.9844 10.9841C17.9844 8.34446 19.5422 7.01695 21.5603 7.01695C22.9952 7.01695 23.7472 7.66919 24.1002 8.23703H24.2537V7.19344L25.5658 7.19344L25.5658 14.7058C25.5658 16.9694 24.3764 18.2662 21.8902 18.2662C19.4577 18.2662 18.3221 17.0308 18.1916 15.711V15.4808H19.4424C19.5191 16.4016 20.2021 17.238 21.8672 17.238C23.54 17.238 24.2153 16.3786 24.2153 14.7595V13.7773H24.0618C23.6858 14.3374 22.9568 14.9436 21.5603 14.9436C19.5422 14.9436 17.9844 13.6238 17.9844 10.9841ZM19.3503 10.9841C19.3503 12.8565 20.3402 13.8847 21.8058 13.8847C23.2715 13.8847 24.2613 12.8565 24.2613 10.9841C24.2613 9.1118 23.2715 8.08356 21.8058 8.08356C20.3402 8.08356 19.3503 9.1118 19.3503 10.9841ZM32.2067 15.0127V3.96291L36.0665 3.96291C39.2586 3.96291 41.3458 6.06544 41.3458 9.4878C41.3458 12.9102 39.2586 15.0127 36.0665 15.0127H32.2067ZM36.0435 5.08324L33.611 5.08324V13.8924H36.0435C38.4376 13.8924 39.9339 12.2502 39.9339 9.4878C39.9339 6.72536 38.4376 5.08324 36.0435 5.08324ZM42.7134 11.0992C42.7134 8.44421 44.1637 7.00927 46.458 7.00927C48.7677 7.00927 50.0185 8.45956 50.0185 10.7616V11.3908L44.0255 11.3908C44.0562 13.1097 44.954 14.1763 46.458 14.1763C47.8853 14.1763 48.5222 13.3169 48.645 12.5649L49.8497 12.5649V12.7951C49.6809 13.7542 48.8061 15.1969 46.4657 15.1969C44.1713 15.1969 42.7134 13.7619 42.7134 11.0992ZM44.0486 10.4086H48.7217C48.7063 8.98135 47.9543 8.02984 46.4503 8.02984C44.977 8.02984 44.156 8.9967 44.0486 10.4086ZM50.7159 7.42364V7.19344H52.0358L54.4222 13.4933H54.5757L56.9545 7.19344L58.2743 7.19344V7.42364L55.251 15.0127H53.7393L50.7159 7.42364Z" fill="#A8A8A8"/>
<path d="M3.46799 31.6621C2.4578 31.6621 1.85623 31.1627 1.51572 30.5497H1.49302V33.5349H0.755243V25.7372H1.49302V26.6679H1.51572C1.85623 26.1117 2.4578 25.5896 3.46799 25.5896C4.88679 25.5896 6.02183 26.7247 6.02183 28.6315C6.02183 30.527 4.88679 31.6621 3.46799 31.6621ZM1.49302 28.6315C1.49302 30.0844 2.2762 31.0151 3.38854 31.0151C4.59168 31.0151 5.25 29.9255 5.25 28.6315C5.25 27.3262 4.59168 26.2366 3.38854 26.2366C2.2762 26.2366 1.49302 27.1673 1.49302 28.6315ZM7.81112 28.291V31.5259H7.07334V25.7372H7.81112V26.9176H7.83382C8.12893 26.1571 8.6624 25.601 9.47963 25.601C9.68394 25.601 9.84284 25.6123 9.97905 25.635V26.3614C9.86554 26.3387 9.74069 26.3274 9.62718 26.3274C8.58295 26.3274 7.81112 27.1673 7.81112 28.291ZM12.906 31.6848C11.1694 31.6848 10.1252 30.4362 10.1252 28.6429C10.1252 26.8382 11.1694 25.5896 12.906 25.5896C14.6426 25.5896 15.6869 26.8382 15.6869 28.6429C15.6869 30.4362 14.6426 31.6848 12.906 31.6848ZM10.897 28.6429C10.897 29.9709 11.5553 31.0378 12.906 31.0378C14.2567 31.0378 14.9151 29.9709 14.9151 28.6429C14.9151 27.3035 14.2567 26.2366 12.906 26.2366C11.5553 26.2366 10.897 27.3035 10.897 28.6429ZM18.1166 31.5259L15.9941 25.7372H16.8113L18.5479 30.7768H18.5592L20.2845 25.7372H21.079L18.9565 31.5259H18.1166ZM21.871 31.5259V25.7372H22.6088V31.5259H21.871ZM21.7575 24.5794V23.626H22.7109V24.5794H21.7575ZM26.202 31.6734C24.7945 31.6734 23.6595 30.5384 23.6595 28.6315C23.6595 26.736 24.7945 25.601 26.202 25.601C27.2122 25.601 27.8137 26.1004 28.1542 26.7133H28.1769V23.4103H28.9147V31.5259H28.1769V30.5838H28.1542C27.8251 31.1513 27.2122 31.6734 26.202 31.6734ZM24.4313 28.6315C24.4313 29.9368 25.0896 31.0265 26.2928 31.0265C27.4051 31.0265 28.1769 30.0957 28.1769 28.6315C28.1769 27.1787 27.4051 26.2479 26.2928 26.2479C25.0896 26.2479 24.4313 27.3376 24.4313 28.6315ZM30.284 31.5259V25.7372H31.0218V31.5259H30.284ZM30.1705 24.5794V23.626H31.124V24.5794H30.1705ZM36.2835 27.6213C36.2835 26.8836 35.943 26.2479 34.9442 26.2479C33.8432 26.2479 33.1168 27.0198 33.1168 27.871V31.5259H32.379V25.7372H33.1168V26.5658H33.1395C33.4686 26.089 34.0929 25.601 35.1258 25.601C36.1587 25.601 37.0213 26.1798 37.0213 27.4624V31.5259H36.2835V27.6213ZM40.7033 33.603C39.1369 33.603 38.3083 32.8425 38.2175 31.8323H38.9894C39.1029 32.4453 39.5909 32.956 40.7146 32.956C41.8837 32.956 42.5761 32.4453 42.5761 31.2648V30.1865H42.5534C42.2129 30.7881 41.5773 31.2535 40.6011 31.2535C39.2164 31.2535 38.0586 30.3454 38.0586 28.4159C38.0586 26.509 39.2164 25.601 40.6011 25.601C41.5773 25.601 42.2129 26.0663 42.5534 26.6452H42.5761V25.7372H43.3139V31.1627C43.3139 32.7971 42.2923 33.603 40.7033 33.603ZM38.8305 28.4159C38.8305 29.7439 39.5115 30.6065 40.7033 30.6065C41.7702 30.6065 42.5761 29.9028 42.5761 28.4159C42.5761 26.9517 41.7702 26.2479 40.7033 26.2479C39.5115 26.2479 38.8305 27.1106 38.8305 28.4159ZM48.8232 31.5713C47.9833 31.5713 47.4612 31.2875 47.4612 30.0276V26.3841H46.6099V25.7372H47.4612V23.8076H48.199V25.7372H49.3681V26.3841H48.199V30.039C48.199 30.7541 48.3579 30.9243 48.9254 30.9243C49.107 30.9243 49.1978 30.913 49.3681 30.9016V31.5259C49.1411 31.5599 49.0049 31.5713 48.8232 31.5713ZM54.2291 27.6213C54.2291 26.8836 53.8886 26.2479 52.8898 26.2479C51.7888 26.2479 51.0624 27.0198 51.0624 27.871V31.5259H50.3246V23.4103H51.0624V26.5658H51.0851C51.4142 26.089 52.0385 25.601 53.0714 25.601C54.1043 25.601 54.9669 26.1798 54.9669 27.4624V31.5259H54.2291V27.6213ZM58.7397 31.6848C56.969 31.6848 55.9815 30.3908 55.9815 28.6315C55.9815 26.7814 57.0712 25.5896 58.7397 25.5896C60.4082 25.5896 61.3503 26.7587 61.3503 28.3705C61.3503 28.5294 61.3503 28.6883 61.3389 28.7791H56.7534C56.7647 29.9482 57.389 31.0492 58.751 31.0492C59.9428 31.0492 60.4082 30.2319 60.5217 29.7552H61.2708C60.9871 30.8108 60.1925 31.6848 58.7397 31.6848ZM56.7534 28.1321H60.5671C60.5671 27.0992 59.8974 26.2252 58.7056 26.2252C57.5819 26.2252 56.8101 27.0538 56.7534 28.1321ZM65.2192 24.8859C65.2192 23.626 65.7186 23.3422 66.5472 23.3422C66.7061 23.3422 66.8423 23.3536 67.1033 23.3876V24.0119C66.899 24.0006 66.8082 23.9892 66.6493 23.9892C66.0932 23.9892 65.957 24.1595 65.957 24.8745V25.7372H67.1033V26.3841H65.957V31.5259H65.2192V26.3841H64.4019V25.7372H65.2192V24.8859ZM70.1569 31.6848C68.4203 31.6848 67.376 30.4362 67.376 28.6429C67.376 26.8382 68.4203 25.5896 70.1569 25.5896C71.8935 25.5896 72.9377 26.8382 72.9377 28.6429C72.9377 30.4362 71.8935 31.6848 70.1569 31.6848ZM68.1478 28.6429C68.1478 29.9709 68.8062 31.0378 70.1569 31.0378C71.5076 31.0378 72.1659 29.9709 72.1659 28.6429C72.1659 27.3035 71.5076 26.2366 70.1569 26.2366C68.8062 26.2366 68.1478 27.3035 68.1478 28.6429ZM75.8288 31.6621C74.7959 31.6621 73.9333 31.0832 73.9333 29.8006V25.7372H74.6711V29.6417C74.6711 30.3795 75.0116 31.0151 76.0104 31.0151C77.1114 31.0151 77.8378 30.2433 77.8378 29.392V25.7372H78.5756V31.5259H77.8378V30.7086H77.8151C77.486 31.1854 76.8617 31.6621 75.8288 31.6621ZM83.8466 27.6213C83.8466 26.8836 83.5061 26.2479 82.5073 26.2479C81.4063 26.2479 80.6798 27.0198 80.6798 27.871V31.5259H79.9421V25.7372H80.6798V26.5658H80.7025C81.0317 26.089 81.656 25.601 82.6889 25.601C83.7218 25.601 84.5844 26.1798 84.5844 27.4624V31.5259H83.8466V27.6213ZM88.1415 31.6734C86.734 31.6734 85.599 30.5384 85.599 28.6315C85.599 26.736 86.734 25.601 88.1415 25.601C89.1517 25.601 89.7533 26.1004 90.0938 26.7133H90.1165V23.4103H90.8542V31.5259H90.1165V30.5838H90.0938C89.7646 31.1513 89.1517 31.6734 88.1415 31.6734ZM86.3708 28.6315C86.3708 29.9368 87.0292 31.0265 88.2323 31.0265C89.3446 31.0265 90.1165 30.0957 90.1165 28.6315C90.1165 27.1787 89.3446 26.2479 88.2323 26.2479C87.0292 26.2479 86.3708 27.3376 86.3708 28.6315ZM93.8126 31.6734C92.6549 31.6734 91.9171 31.0265 91.9171 30.0617C91.9171 28.8131 92.8024 28.4159 94.3007 28.1548C95.2541 27.9846 95.867 27.9164 95.867 27.2241C95.867 26.6339 95.4811 26.2366 94.5504 26.2366C93.4267 26.2366 93.0294 26.6339 92.9727 27.4851H92.1895C92.2463 26.4636 92.8932 25.5896 94.5731 25.5896C95.64 25.5896 96.5821 26.0436 96.5821 27.4284V30.3227C96.5821 30.7881 96.6502 31.0038 96.9113 31.0038C96.9567 31.0038 97.0021 31.0038 97.0702 30.9924V31.5259C96.9453 31.5486 96.8205 31.5713 96.6843 31.5713C96.1962 31.5713 95.9124 31.3783 95.867 30.6519H95.8443C95.4471 31.3102 94.7547 31.6734 93.8126 31.6734ZM92.6889 29.9936C92.6889 30.6632 93.0635 31.0265 93.9034 31.0265C95.0839 31.0265 95.867 30.4022 95.867 29.358V28.2797C95.6968 28.518 95.0839 28.6542 94.3915 28.7677C93.2678 28.972 92.6889 29.2558 92.6889 29.9936ZM99.6341 31.5713C98.7941 31.5713 98.272 31.2875 98.272 30.0276V26.3841H97.4207V25.7372H98.272V23.8076H99.0098V25.7372H100.179V26.3841H99.0098V30.039C99.0098 30.7541 99.1687 30.9243 99.7362 30.9243C99.9178 30.9243 100.009 30.913 100.179 30.9016V31.5259C99.9519 31.5599 99.8157 31.5713 99.6341 31.5713ZM101.135 31.5259V25.7372H101.873V31.5259H101.135ZM101.022 24.5794V23.626H101.975V24.5794H101.022ZM105.693 31.6848C103.957 31.6848 102.913 30.4362 102.913 28.6429C102.913 26.8382 103.957 25.5896 105.693 25.5896C107.43 25.5896 108.474 26.8382 108.474 28.6429C108.474 30.4362 107.43 31.6848 105.693 31.6848ZM103.684 28.6429C103.684 29.9709 104.343 31.0378 105.693 31.0378C107.044 31.0378 107.702 29.9709 107.702 28.6429C107.702 27.3035 107.044 26.2366 105.693 26.2366C104.343 26.2366 103.684 27.3035 103.684 28.6429ZM113.42 27.6213C113.42 26.8836 113.079 26.2479 112.08 26.2479C110.979 26.2479 110.253 27.0198 110.253 27.871V31.5259H109.515V25.7372H110.253V26.5658H110.276C110.605 26.089 111.229 25.601 112.262 25.601C113.295 25.601 114.158 26.1798 114.158 27.4624V31.5259H113.42V27.6213ZM117.068 31.6734C115.91 31.6734 115.172 31.0265 115.172 30.0617C115.172 28.8131 116.057 28.4159 117.556 28.1548C118.509 27.9846 119.122 27.9164 119.122 27.2241C119.122 26.6339 118.736 26.2366 117.805 26.2366C116.682 26.2366 116.284 26.6339 116.228 27.4851H115.445C115.501 26.4636 116.148 25.5896 117.828 25.5896C118.895 25.5896 119.837 26.0436 119.837 27.4284V30.3227C119.837 30.7881 119.905 31.0038 120.166 31.0038C120.212 31.0038 120.257 31.0038 120.325 30.9924V31.5259C120.2 31.5486 120.076 31.5713 119.939 31.5713C119.451 31.5713 119.167 31.3783 119.122 30.6519H119.099C118.702 31.3102 118.01 31.6734 117.068 31.6734ZM115.944 29.9936C115.944 30.6632 116.319 31.0265 117.158 31.0265C118.339 31.0265 119.122 30.4022 119.122 29.358V28.2797C118.952 28.518 118.339 28.6542 117.647 28.7677C116.523 28.972 115.944 29.2558 115.944 29.9936ZM121.309 31.5259V23.4103H122.047V31.5259H121.309ZM0.755243 44.5259V38.7372H1.49302V44.5259H0.755243ZM0.641739 37.5794V36.626H1.59517V37.5794H0.641739ZM6.75473 40.6213C6.75473 39.8836 6.41422 39.2479 5.41538 39.2479C4.31439 39.2479 3.58797 40.0198 3.58797 40.871V44.5259H2.85019V38.7372H3.58797V39.5658H3.61067C3.93983 39.089 4.5641 38.601 5.59699 38.601C6.62988 38.601 7.49251 39.1798 7.49251 40.4624V44.5259H6.75473V40.6213ZM9.08786 37.8859C9.08786 36.626 9.58728 36.3422 10.4159 36.3422C10.5748 36.3422 10.711 36.3536 10.972 36.3876V37.0119C10.7677 37.0006 10.6769 36.9892 10.518 36.9892C9.96184 36.9892 9.82564 37.1595 9.82564 37.8745V38.7372H10.972V39.3841H9.82564V44.5259H9.08786V39.3841H8.27063V38.7372H9.08786V37.8859ZM12.4444 41.291V44.5259H11.7066V38.7372H12.4444V39.9176H12.4671C12.7622 39.1571 13.2957 38.601 14.1129 38.601C14.3172 38.601 14.4761 38.6123 14.6123 38.635V39.3614C14.4988 39.3387 14.374 39.3274 14.2605 39.3274C13.2162 39.3274 12.4444 40.1673 12.4444 41.291ZM16.7429 44.6734C15.5852 44.6734 14.8474 44.0265 14.8474 43.0617C14.8474 41.8131 15.7327 41.4159 17.231 41.1548C18.1844 40.9846 18.7973 40.9164 18.7973 40.2241C18.7973 39.6339 18.4114 39.2366 17.4807 39.2366C16.357 39.2366 15.9597 39.6339 15.903 40.4851H15.1198C15.1766 39.4636 15.8235 38.5896 17.5034 38.5896C18.5703 38.5896 19.5124 39.0436 19.5124 40.4284V43.3227C19.5124 43.7881 19.5805 44.0038 19.8416 44.0038C19.887 44.0038 19.9324 44.0038 20.0005 43.9924V44.5259C19.8756 44.5486 19.7508 44.5713 19.6146 44.5713C19.1265 44.5713 18.8427 44.3783 18.7973 43.6519H18.7746C18.3774 44.3102 17.685 44.6734 16.7429 44.6734ZM15.6192 42.9936C15.6192 43.6632 15.9938 44.0265 16.8337 44.0265C18.0142 44.0265 18.7973 43.4022 18.7973 42.358V41.2797C18.6271 41.518 18.0142 41.6542 17.3218 41.7677C16.1981 41.972 15.6192 42.2558 15.6192 42.9936ZM23.107 44.6734C21.4839 44.6734 20.5986 43.7881 20.5645 42.6304H21.3364C21.3818 43.4249 21.9039 44.0265 23.1184 44.0265C24.2194 44.0265 24.5939 43.5157 24.5939 42.9482C24.5939 42.0969 23.7313 42.0061 22.9254 41.8131C21.8585 41.5407 20.7802 41.2797 20.7802 40.156C20.7802 39.2139 21.5293 38.601 22.8346 38.601C24.3442 38.601 25.048 39.4068 25.1501 40.3603H24.3783C24.2761 39.8495 23.9697 39.2479 22.846 39.2479C22.0174 39.2479 21.552 39.5658 21.552 40.1106C21.552 40.837 22.3352 40.9391 23.2092 41.1548C24.2988 41.4159 25.3771 41.7223 25.3771 42.9255C25.3771 43.9811 24.5372 44.6734 23.107 44.6734ZM27.9514 44.5713C27.1114 44.5713 26.5893 44.2875 26.5893 43.0276V39.3841H25.738V38.7372H26.5893V36.8076H27.3271V38.7372H28.4962V39.3841H27.3271V43.039C27.3271 43.7541 27.486 43.9243 28.0535 43.9243C28.2351 43.9243 28.3259 43.913 28.4962 43.9016V44.5259C28.2692 44.5599 28.133 44.5713 27.9514 44.5713ZM30.1905 41.291V44.5259H29.4527V38.7372H30.1905V39.9176H30.2132C30.5083 39.1571 31.0418 38.601 31.859 38.601C32.0633 38.601 32.2222 38.6123 32.3584 38.635V39.3614C32.2449 39.3387 32.1201 39.3274 32.0066 39.3274C30.9623 39.3274 30.1905 40.1673 30.1905 41.291ZM34.9939 44.6621C33.961 44.6621 33.0984 44.0832 33.0984 42.8006V38.7372H33.8362V42.6417C33.8362 43.3795 34.1767 44.0151 35.1755 44.0151C36.2765 44.0151 37.0029 43.2433 37.0029 42.392V38.7372H37.7407V44.5259H37.0029V43.7086H36.9802C36.6511 44.1854 36.0268 44.6621 34.9939 44.6621ZM41.5589 44.6734C39.9017 44.6734 38.7894 43.4476 38.7894 41.6315C38.7894 39.8268 39.9017 38.601 41.5589 38.601C42.9663 38.601 43.9198 39.543 44.0446 40.7689H43.2728C43.2274 40.1219 42.762 39.2479 41.5589 39.2479C40.1401 39.2479 39.5612 40.4511 39.5612 41.6315C39.5612 42.8233 40.1401 44.0378 41.5589 44.0378C42.7734 44.0378 43.2274 43.1638 43.2728 42.4601H44.0446C43.9652 43.7086 42.9663 44.6734 41.5589 44.6734ZM46.684 44.5713C45.844 44.5713 45.3219 44.2875 45.3219 43.0276V39.3841H44.4706V38.7372H45.3219V36.8076H46.0597V38.7372H47.2288V39.3841H46.0597V43.039C46.0597 43.7541 46.2186 43.9243 46.7861 43.9243C46.9677 43.9243 47.0585 43.913 47.2288 43.9016V44.5259C47.0018 44.5599 46.8656 44.5713 46.684 44.5713ZM50.0354 44.6621C49.0025 44.6621 48.1399 44.0832 48.1399 42.8006V38.7372H48.8777V42.6417C48.8777 43.3795 49.2182 44.0151 50.217 44.0151C51.318 44.0151 52.0445 43.2433 52.0445 42.392V38.7372H52.7822V44.5259H52.0445V43.7086H52.0218C51.6926 44.1854 51.0683 44.6621 50.0354 44.6621ZM54.8865 41.291V44.5259H54.1487V38.7372H54.8865V39.9176H54.9092C55.2043 39.1571 55.7378 38.601 56.555 38.601C56.7593 38.601 56.9182 38.6123 57.0544 38.635V39.3614C56.9409 39.3387 56.8161 39.3274 56.7026 39.3274C55.6583 39.3274 54.8865 40.1673 54.8865 41.291ZM59.9701 44.6848C58.1994 44.6848 57.2119 43.3908 57.2119 41.6315C57.2119 39.7814 58.3015 38.5896 59.9701 38.5896C61.6386 38.5896 62.5806 39.7587 62.5806 41.3705C62.5806 41.5294 62.5806 41.6883 62.5693 41.7791H57.9837C57.9951 42.9482 58.6194 44.0492 59.9814 44.0492C61.1732 44.0492 61.6386 43.2319 61.7521 42.7552H62.5012C62.2174 43.8108 61.4229 44.6848 59.9701 44.6848ZM57.9837 41.1321H61.7975C61.7975 40.0992 61.1278 39.2252 59.936 39.2252C58.8123 39.2252 58.0405 40.0538 57.9837 41.1321ZM66.4495 37.8859C66.4495 36.626 66.949 36.3422 67.7775 36.3422C67.9364 36.3422 68.0727 36.3536 68.3337 36.3876V37.0119C68.1294 37.0006 68.0386 36.9892 67.8797 36.9892C67.3235 36.9892 67.1873 37.1595 67.1873 37.8745V38.7372H68.3337V39.3841H67.1873V44.5259H66.4495V39.3841H65.6323V38.7372H66.4495V37.8859ZM71.3872 44.6848C69.6506 44.6848 68.6064 43.4362 68.6064 41.6429C68.6064 39.8382 69.6506 38.5896 71.3872 38.5896C73.1238 38.5896 74.1681 39.8382 74.1681 41.6429C74.1681 43.4362 73.1238 44.6848 71.3872 44.6848ZM69.3782 41.6429C69.3782 42.9709 70.0365 44.0378 71.3872 44.0378C72.7379 44.0378 73.3963 42.9709 73.3963 41.6429C73.3963 40.3035 72.7379 39.2366 71.3872 39.2366C70.0365 39.2366 69.3782 40.3035 69.3782 41.6429ZM75.9468 41.291V44.5259H75.209V38.7372H75.9468V39.9176H75.9695C76.2646 39.1571 76.7981 38.601 77.6153 38.601C77.8196 38.601 77.9785 38.6123 78.1147 38.635V39.3614C78.0012 39.3387 77.8764 39.3274 77.7629 39.3274C76.7186 39.3274 75.9468 40.1673 75.9468 41.291ZM82.7969 44.5713C81.9569 44.5713 81.4348 44.2875 81.4348 43.0276V39.3841H80.5835V38.7372H81.4348V36.8076H82.1726V38.7372H83.3417V39.3841H82.1726V43.039C82.1726 43.7541 82.3315 43.9243 82.899 43.9243C83.0806 43.9243 83.1714 43.913 83.3417 43.9016V44.5259C83.1147 44.5599 82.9785 44.5713 82.7969 44.5713ZM88.2028 40.6213C88.2028 39.8836 87.8623 39.2479 86.8634 39.2479C85.7624 39.2479 85.036 40.0198 85.036 40.871V44.5259H84.2982V36.4103H85.036V39.5658H85.0587C85.3879 39.089 86.0121 38.601 87.045 38.601C88.0779 38.601 88.9406 39.1798 88.9406 40.4624V44.5259H88.2028V40.6213ZM92.7133 44.6848C90.9427 44.6848 89.9552 43.3908 89.9552 41.6315C89.9552 39.7814 91.0448 38.5896 92.7133 38.5896C94.3818 38.5896 95.3239 39.7587 95.3239 41.3705C95.3239 41.5294 95.3239 41.6883 95.3126 41.7791H90.727C90.7383 42.9482 91.3626 44.0492 92.7247 44.0492C93.9165 44.0492 94.3818 43.2319 94.4953 42.7552H95.2445C94.9607 43.8108 94.1662 44.6848 92.7133 44.6848ZM90.727 41.1321H94.5407C94.5407 40.0992 93.8711 39.2252 92.6793 39.2252C91.5556 39.2252 90.7837 40.0538 90.727 41.1321ZM99.1928 37.8859C99.1928 36.626 99.6922 36.3422 100.521 36.3422C100.68 36.3422 100.816 36.3536 101.077 36.3876V37.0119C100.873 37.0006 100.782 36.9892 100.623 36.9892C100.067 36.9892 99.9306 37.1595 99.9306 37.8745V38.7372H101.077V39.3841H99.9306V44.5259H99.1928V39.3841H98.3756V38.7372H99.1928V37.8859ZM103.662 44.6621C102.629 44.6621 101.766 44.0832 101.766 42.8006V38.7372H102.504V42.6417C102.504 43.3795 102.844 44.0151 103.843 44.0151C104.944 44.0151 105.671 43.2433 105.671 42.392V38.7372H106.408V44.5259H105.671V43.7086H105.648C105.319 44.1854 104.695 44.6621 103.662 44.6621ZM107.775 44.5259V36.4103H108.513V44.5259H107.775ZM109.87 44.5259V36.4103H110.608V44.5259H109.87ZM114.629 44.5259V36.4103H117.569C119.839 36.4103 121.099 37.9767 121.099 40.4851C121.099 42.9936 119.805 44.5259 117.535 44.5259H114.629ZM115.458 43.7995H117.535C119.567 43.7995 120.236 42.2785 120.236 40.4851C120.236 38.6804 119.601 37.1368 117.558 37.1368H115.458V43.7995ZM125.692 40.6213C125.692 39.8949 125.521 39.2479 124.557 39.2479C123.546 39.2479 122.934 40.0311 122.934 40.871V44.5259H122.196V38.7372H122.934V39.5544H122.956C123.263 39.089 123.807 38.601 124.716 38.601C125.533 38.601 126.055 38.9755 126.271 39.6679H126.293C126.668 39.089 127.292 38.601 128.211 38.601C129.312 38.601 129.914 39.2593 129.914 40.4624V44.5259H129.176V40.6213C129.176 39.8949 129.006 39.2479 128.053 39.2479C127.031 39.2479 126.429 40.0311 126.429 40.871V44.5259H125.692V40.6213ZM0.93685 57.5259V49.4103H6.4418V50.1368H1.76543V52.929H5.94238V53.6554H1.76543V56.7995H6.56665V57.5259H0.93685ZM9.83539 57.6734C8.17823 57.6734 7.06589 56.4476 7.06589 54.6315C7.06589 52.8268 8.17823 51.601 9.83539 51.601C11.2428 51.601 12.1963 52.543 12.3211 53.7689H11.5493C11.5039 53.1219 11.0385 52.2479 9.83539 52.2479C8.41659 52.2479 7.83772 53.4511 7.83772 54.6315C7.83772 55.8233 8.41659 57.0378 9.83539 57.0378C11.0499 57.0378 11.5039 56.1638 11.5493 55.4601H12.3211C12.2417 56.7086 11.2428 57.6734 9.83539 57.6734ZM15.7769 57.6848C14.0403 57.6848 12.996 56.4362 12.996 54.6429C12.996 52.8382 14.0403 51.5896 15.7769 51.5896C17.5135 51.5896 18.5577 52.8382 18.5577 54.6429C18.5577 56.4362 17.5135 57.6848 15.7769 57.6848ZM13.7679 54.6429C13.7679 55.9709 14.4262 57.0378 15.7769 57.0378C17.1276 57.0378 17.7859 55.9709 17.7859 54.6429C17.7859 53.3035 17.1276 52.2366 15.7769 52.2366C14.4262 52.2366 13.7679 53.3035 13.7679 54.6429ZM21.7326 57.6734C20.1095 57.6734 19.2241 56.7881 19.1901 55.6304H19.9619C20.0073 56.4249 20.5294 57.0265 21.7439 57.0265C22.8449 57.0265 23.2195 56.5157 23.2195 55.9482C23.2195 55.0969 22.3568 55.0061 21.551 54.8131C20.484 54.5407 19.4057 54.2797 19.4057 53.156C19.4057 52.2139 20.1549 51.601 21.4602 51.601C22.9698 51.601 23.6735 52.4068 23.7756 53.3603H23.0038C22.9017 52.8495 22.5952 52.2479 21.4715 52.2479C20.6429 52.2479 20.1776 52.5658 20.1776 53.1106C20.1776 53.837 20.9607 53.9391 21.8347 54.1548C22.9244 54.4159 24.0027 54.7223 24.0027 55.9255C24.0027 56.9811 23.1627 57.6734 21.7326 57.6734ZM25.3302 59.5576C25.1486 59.5576 25.0124 59.5463 24.774 59.5122V58.8766C24.9443 58.8993 25.0351 58.9106 25.2167 58.9106C25.7615 58.9106 26.2042 58.5588 26.522 57.4918L24.1838 51.7372H25.001L26.8852 56.5611H26.9079L28.7013 51.7372H29.4958L27.1803 57.6961C26.6128 59.1376 26.102 59.5576 25.3302 59.5576ZM32.2738 57.6734C30.6507 57.6734 29.7654 56.7881 29.7313 55.6304H30.5032C30.5486 56.4249 31.0707 57.0265 32.2852 57.0265C33.3862 57.0265 33.7607 56.5157 33.7607 55.9482C33.7607 55.0969 32.8981 55.0061 32.0922 54.8131C31.0253 54.5407 29.947 54.2797 29.947 53.156C29.947 52.2139 30.6961 51.601 32.0014 51.601C33.511 51.601 34.2147 52.4068 34.3169 53.3603H33.5451C33.4429 52.8495 33.1364 52.2479 32.0128 52.2479C31.1842 52.2479 30.7188 52.5658 30.7188 53.1106C30.7188 53.837 31.502 53.9391 32.376 54.1548C33.4656 54.4159 34.5439 54.7223 34.5439 55.9255C34.5439 56.9811 33.704 57.6734 32.2738 57.6734ZM37.1181 57.5713C36.2782 57.5713 35.7561 57.2875 35.7561 56.0276V52.3841H34.9048V51.7372H35.7561V49.8076H36.4939V51.7372H37.663V52.3841H36.4939V56.039C36.4939 56.7541 36.6528 56.9243 37.2203 56.9243C37.4019 56.9243 37.4927 56.913 37.663 56.9016V57.5259C37.4359 57.5599 37.2997 57.5713 37.1181 57.5713ZM40.9382 57.6848C39.1675 57.6848 38.18 56.3908 38.18 54.6315C38.18 52.7814 39.2697 51.5896 40.9382 51.5896C42.6067 51.5896 43.5488 52.7587 43.5488 54.3705C43.5488 54.5294 43.5488 54.6883 43.5374 54.7791H38.9518C38.9632 55.9482 39.5875 57.0492 40.9495 57.0492C42.1413 57.0492 42.6067 56.2319 42.7202 55.7552H43.4693C43.1856 56.8108 42.391 57.6848 40.9382 57.6848ZM38.9518 54.1321H42.7656C42.7656 53.0992 42.0959 52.2252 40.9041 52.2252C39.7804 52.2252 39.0086 53.0538 38.9518 54.1321ZM48.0788 53.6213C48.0788 52.8949 47.9086 52.2479 46.9438 52.2479C45.9336 52.2479 45.3207 53.0311 45.3207 53.871V57.5259H44.5829V51.7372H45.3207V52.5544H45.3434C45.6498 52.089 46.1946 51.601 47.1027 51.601C47.9199 51.601 48.442 51.9755 48.6577 52.6679H48.6804C49.055 52.089 49.6792 51.601 50.5986 51.601C51.6996 51.601 52.3012 52.2593 52.3012 53.4624V57.5259H51.5634V53.6213C51.5634 52.8949 51.3931 52.2479 50.4397 52.2479C49.4182 52.2479 48.8166 53.0311 48.8166 53.871V57.5259H48.0788V53.6213Z" fill="#595959"/>
<path d="M74.2012 10.2173L473.123 10.2173" stroke="#595959" stroke-width="0.378347"/>
</svg>
