<svg width="16" height="17" viewBox="0 0 16 17" fill="none" xmlns="http://www.w3.org/2000/svg">
<path fill-rule="evenodd" clip-rule="evenodd" d="M3.09963 2.89149C3.26933 2.08074 3.9842 1.5 4.81252 1.5H12.0002C12.2228 1.5 12.434 1.59897 12.5765 1.77011C12.719 1.94125 12.7781 2.16686 12.7377 2.38587L10.9877 11.8859C10.9134 12.2895 10.5288 12.5577 10.1255 12.4896C10.0847 12.4964 10.0428 12.5 10 12.5H3.25C2.83579 12.5 2.5 12.8358 2.5 13.25C2.5 13.6642 2.83579 14 3.25 14H10.595C11.1952 14 11.7106 13.5735 11.8229 12.9839L13.5132 4.10968C13.5908 3.70278 13.9834 3.43576 14.3903 3.51326C14.7972 3.59077 15.0643 3.98345 14.9868 4.39035L13.2964 13.2646C13.0494 14.5616 11.9154 15.5 10.595 15.5H3.25C2.00736 15.5 1 14.4927 1 13.25C1 13.1966 1.00186 13.1437 1.00552 13.0912C0.995775 13.0117 0.998723 12.9292 1.01606 12.8464L3.09963 2.89149ZM5.35954 3.5C5.14433 3.5 4.95326 3.63772 4.8852 3.84189L4.71853 4.34189C4.61061 4.66565 4.85159 5 5.19287 5H9.13878C9.354 5 9.54507 4.86228 9.61312 4.65811L9.77979 4.15811C9.88771 3.83435 9.64673 3.5 9.30545 3.5H5.35954Z" fill="#737EA5"/>
</svg>
