<svg width="113" height="94" viewBox="0 0 113 94" fill="none" xmlns="http://www.w3.org/2000/svg">
<path d="M57.1929 7.23296C57.1929 5.43737 58.7275 4.20195 61.2828 4.20195C63.8304 4.20195 65.4265 5.41435 65.5953 7.37876V7.60896L64.2524 7.60896C64.1604 5.95917 62.9096 5.29158 61.3058 5.29158C59.7021 5.29158 58.5818 5.97452 58.5818 7.1946C58.5818 8.39166 59.5793 8.8137 61.0449 9.10529L62.3724 9.36619C64.3675 9.76521 65.8255 10.4635 65.8255 12.4049C65.8255 14.377 64.2524 15.6047 61.6051 15.6047C58.9731 15.6047 57.1622 14.377 56.9627 12.3895V12.1593H58.3209C58.528 13.8398 59.9093 14.5151 61.5974 14.5151C63.2702 14.5151 64.4366 13.8398 64.4366 12.4893C64.4366 11.1695 63.3316 10.8165 61.843 10.5172L60.5155 10.2563C58.5741 9.87264 57.1929 9.0439 57.1929 7.23296ZM66.8163 8.59884V7.60896H68.374V5.45272H69.7169V7.60896L71.5202 7.60896V8.59884H69.7169V13.7017C69.7169 14.1391 69.9164 14.3846 70.4075 14.3846H71.4741V15.4282H70.162C69.0186 15.4282 68.374 14.8604 68.374 13.7247V8.59884H66.8163ZM79.9569 7.60896V15.4282H78.6447V14.3232H78.4913C78.2227 14.822 77.5705 15.6047 75.9897 15.6047C74.2862 15.6047 73.1505 14.6609 73.1505 12.8653V7.60896H74.5011V12.7732C74.5011 14.001 75.23 14.5458 76.312 14.5458C77.5398 14.5458 78.6064 13.7477 78.6064 12.121V7.60896H79.9569ZM89.41 4.37844V15.4282H88.0978V14.3156H87.9444C87.5837 14.9448 86.8087 15.6047 85.3277 15.6047C83.2943 15.6047 81.7365 14.2235 81.7365 11.5224C81.7365 8.8137 83.2943 7.43247 85.3277 7.43247C86.8087 7.43247 87.5607 8.09239 87.906 8.6679H88.0595V4.37844H89.41ZM88.1055 11.5224C88.1055 9.57337 87.0926 8.49909 85.604 8.49909C84.1153 8.49909 83.1024 9.57337 83.1024 11.5224C83.1024 13.4638 84.1153 14.5381 85.604 14.5381C87.0926 14.5381 88.1055 13.4638 88.1055 11.5224ZM91.6385 6.18937V4.57795L93.0274 4.57795V6.18937L91.6385 6.18937ZM91.6616 15.4282V7.60896L93.0121 7.60896V15.4282H91.6616ZM94.7904 11.5224C94.7904 8.88276 96.3712 7.4248 98.7039 7.4248C101.037 7.4248 102.617 8.88276 102.617 11.5224C102.617 14.1544 101.037 15.6124 98.7039 15.6124C96.3712 15.6124 94.7904 14.1544 94.7904 11.5224ZM96.164 11.5224C96.164 13.5022 97.1845 14.5611 98.7039 14.5611C100.223 14.5611 101.244 13.5022 101.244 11.5224C101.244 9.535 100.223 8.47607 98.7039 8.47607C97.1845 8.47607 96.164 9.535 96.164 11.5224ZM104.055 9.6808C104.055 8.26121 105.252 7.43247 107.186 7.43247C109.128 7.43247 110.325 8.30725 110.478 9.63476V9.86496H109.227C109.166 8.85974 108.391 8.42235 107.209 8.42235C106.051 8.42235 105.345 8.86741 105.345 9.62709C105.345 10.3944 106.004 10.663 106.826 10.8011L108.084 11.0083C109.634 11.2692 110.731 11.7833 110.731 13.2336C110.731 14.6992 109.58 15.6124 107.478 15.6124C105.368 15.6124 104.086 14.6992 103.894 13.272V13.0418H105.16C105.252 14.0777 106.181 14.6225 107.478 14.6225C108.775 14.6225 109.442 14.0777 109.442 13.318C109.442 12.5277 108.759 12.2591 107.769 12.0979L106.511 11.8908C105.084 11.6452 104.055 11.039 104.055 9.6808Z" fill="#A8A8A8"/>
<path d="M13.5954 32.089C11.9723 32.089 11.0869 31.2036 11.0529 30.0459H11.8247C11.8701 30.8404 12.3922 31.442 13.6067 31.442C14.7077 31.442 15.0823 30.9312 15.0823 30.3637C15.0823 29.5124 14.2197 29.4216 13.4138 29.2287C12.3468 28.9562 11.2686 28.6952 11.2686 27.5715C11.2686 26.6294 12.0177 26.0165 13.323 26.0165C14.8326 26.0165 15.5363 26.8224 15.6385 27.7758H14.8666C14.7645 27.265 14.458 26.6635 13.3343 26.6635C12.5057 26.6635 12.0404 26.9813 12.0404 27.5261C12.0404 28.2525 12.8236 28.3547 13.6975 28.5703C14.7872 28.8314 15.8655 29.1379 15.8655 30.341C15.8655 31.3966 15.0255 32.089 13.5954 32.089ZM18.6654 32.0776C17.6325 32.0776 16.7699 31.4987 16.7699 30.2161V26.1527H17.5076V30.0572C17.5076 30.795 17.8482 31.4306 18.847 31.4306C19.948 31.4306 20.6744 30.6588 20.6744 29.8075V26.1527H21.4122V31.9414H20.6744V31.1242H20.6517C20.3225 31.6009 19.6983 32.0776 18.6654 32.0776ZM25.4914 32.0776C24.4812 32.0776 23.8797 31.5782 23.5391 30.9653H23.5164V33.9504H22.7787V26.1527H23.5164V27.0834H23.5391C23.8797 26.5273 24.4812 26.0051 25.4914 26.0051C26.9102 26.0051 28.0453 27.1402 28.0453 29.0471C28.0453 30.9426 26.9102 32.0776 25.4914 32.0776ZM23.5164 29.0471C23.5164 30.4999 24.2996 31.4306 25.412 31.4306C26.6151 31.4306 27.2734 30.341 27.2734 29.0471C27.2734 27.7418 26.6151 26.6521 25.412 26.6521C24.2996 26.6521 23.5164 27.5828 23.5164 29.0471ZM31.8095 32.0776C30.7993 32.0776 30.1978 31.5782 29.8572 30.9653H29.8345V33.9504H29.0968V26.1527H29.8345V27.0834H29.8572C30.1978 26.5273 30.7993 26.0051 31.8095 26.0051C33.2283 26.0051 34.3634 27.1402 34.3634 29.0471C34.3634 30.9426 33.2283 32.0776 31.8095 32.0776ZM29.8345 29.0471C29.8345 30.4999 30.6177 31.4306 31.7301 31.4306C32.9332 31.4306 33.5915 30.341 33.5915 29.0471C33.5915 27.7418 32.9332 26.6521 31.7301 26.6521C30.6177 26.6521 29.8345 27.5828 29.8345 29.0471ZM37.8779 32.1003C36.1413 32.1003 35.0971 30.8518 35.0971 29.0584C35.0971 27.2537 36.1413 26.0051 37.8779 26.0051C39.6145 26.0051 40.6588 27.2537 40.6588 29.0584C40.6588 30.8518 39.6145 32.1003 37.8779 32.1003ZM35.8689 29.0584C35.8689 30.3864 36.5272 31.4533 37.8779 31.4533C39.2286 31.4533 39.8869 30.3864 39.8869 29.0584C39.8869 27.7191 39.2286 26.6521 37.8779 26.6521C36.5272 26.6521 35.8689 27.7191 35.8689 29.0584ZM42.4375 28.7065V31.9414H41.6997V26.1527H42.4375V27.3331H42.4602C42.7553 26.5727 43.2888 26.0165 44.106 26.0165C44.3103 26.0165 44.4692 26.0278 44.6054 26.0505V26.777C44.4919 26.7543 44.3671 26.7429 44.2536 26.7429C43.2093 26.7429 42.4375 27.5828 42.4375 28.7065ZM47.0707 31.9868C46.2307 31.9868 45.7086 31.703 45.7086 30.4432V26.7997H44.8573V26.1527H45.7086V24.2231H46.4464V26.1527H47.6155V26.7997H46.4464V30.4545C46.4464 31.1696 46.6053 31.3398 47.1728 31.3398C47.3544 31.3398 47.4452 31.3285 47.6155 31.3171V31.9414C47.3885 31.9755 47.2523 31.9868 47.0707 31.9868ZM52.7348 31.9868C51.8949 31.9868 51.3727 31.703 51.3727 30.4432V26.7997H50.5215V26.1527H51.3727V24.2231H52.1105V26.1527H53.2796V26.7997H52.1105V30.4545C52.1105 31.1696 52.2694 31.3398 52.8369 31.3398C53.0185 31.3398 53.1093 31.3285 53.2796 31.3171V31.9414C53.0526 31.9755 52.9164 31.9868 52.7348 31.9868ZM58.1407 28.0369C58.1407 27.2991 57.8002 26.6635 56.8013 26.6635C55.7003 26.6635 54.9739 27.4353 54.9739 28.2866V31.9414H54.2361V23.8259H54.9739V26.9813H54.9966C55.3258 26.5046 55.9501 26.0165 56.9829 26.0165C58.0158 26.0165 58.8785 26.5954 58.8785 27.878V31.9414H58.1407V28.0369ZM62.6512 32.1003C60.8806 32.1003 59.8931 30.8064 59.8931 29.0471C59.8931 27.1969 60.9827 26.0051 62.6512 26.0051C64.3197 26.0051 65.2618 27.1742 65.2618 28.786C65.2618 28.9449 65.2618 29.1038 65.2505 29.1946H60.6649C60.6763 30.3637 61.3005 31.4647 62.6626 31.4647C63.8544 31.4647 64.3197 30.6475 64.4332 30.1707H65.1824C64.8986 31.2263 64.1041 32.1003 62.6512 32.1003ZM60.6649 28.5476H64.4786C64.4786 27.5147 63.809 26.6408 62.6172 26.6408C61.4935 26.6408 60.7217 27.4693 60.6649 28.5476ZM68.9605 31.9414V23.8259H69.789V31.215H74.1703V31.9414H68.9605ZM76.4754 32.089C75.3177 32.089 74.5799 31.442 74.5799 30.4772C74.5799 29.2287 75.4652 28.8314 76.9635 28.5703C77.9169 28.4001 78.5298 28.332 78.5298 27.6396C78.5298 27.0494 78.1439 26.6521 77.2132 26.6521C76.0895 26.6521 75.6922 27.0494 75.6355 27.9007H74.8523C74.909 26.8791 75.556 26.0051 77.2359 26.0051C78.3028 26.0051 79.2449 26.4592 79.2449 27.8439V30.7383C79.2449 31.2036 79.313 31.4193 79.5741 31.4193C79.6195 31.4193 79.6649 31.4193 79.733 31.4079V31.9414C79.6081 31.9641 79.4833 31.9868 79.3471 31.9868C78.859 31.9868 78.5752 31.7939 78.5298 31.0674H78.5071C78.1099 31.7257 77.4175 32.089 76.4754 32.089ZM75.3517 30.4091C75.3517 31.0788 75.7263 31.442 76.5662 31.442C77.7466 31.442 78.5298 30.8177 78.5298 29.7735V28.6952C78.3596 28.9335 77.7466 29.0698 77.0543 29.1833C75.9306 29.3876 75.3517 29.6713 75.3517 30.4091ZM83.4295 32.0776C82.4193 32.0776 81.8177 31.5782 81.4772 30.9539H81.4545V31.9414H80.7167V23.8259H81.4545V27.0834H81.4772C81.8177 26.5273 82.4193 26.0051 83.4295 26.0051C84.8483 26.0051 85.9833 27.1402 85.9833 29.0471C85.9833 30.9426 84.8483 32.0776 83.4295 32.0776ZM81.4545 29.0471C81.4545 30.4999 82.2377 31.4306 83.35 31.4306C84.5532 31.4306 85.2115 30.341 85.2115 29.0471C85.2115 27.7418 84.5532 26.6408 83.35 26.6408C82.2377 26.6408 81.4545 27.5828 81.4545 29.0471ZM89.1687 32.089C87.5456 32.089 86.6603 31.2036 86.6262 30.0459H87.398C87.4434 30.8404 87.9656 31.442 89.1801 31.442C90.281 31.442 90.6556 30.9312 90.6556 30.3637C90.6556 29.5124 89.793 29.4216 88.9871 29.2287C87.9202 28.9562 86.8419 28.6952 86.8419 27.5715C86.8419 26.6294 87.591 26.0165 88.8963 26.0165C90.4059 26.0165 91.1096 26.8224 91.2118 27.7758H90.44C90.3378 27.265 90.0313 26.6635 88.9076 26.6635C88.0791 26.6635 87.6137 26.9813 87.6137 27.5261C87.6137 28.2525 88.3969 28.3547 89.2709 28.5703C90.3605 28.8314 91.4388 29.1379 91.4388 30.341C91.4388 31.3966 90.5989 32.089 89.1687 32.089ZM96.4605 32.089C95.3028 32.089 94.565 31.442 94.565 30.4772C94.565 29.2287 95.4504 28.8314 96.9486 28.5703C97.9021 28.4001 98.515 28.332 98.515 27.6396C98.515 27.0494 98.1291 26.6521 97.1983 26.6521C96.0746 26.6521 95.6774 27.0494 95.6206 27.9007H94.8374C94.8942 26.8791 95.5412 26.0051 97.221 26.0051C98.288 26.0051 99.23 26.4592 99.23 27.8439V30.7383C99.23 31.2036 99.2982 31.4193 99.5592 31.4193C99.6046 31.4193 99.65 31.4193 99.7181 31.4079V31.9414C99.5933 31.9641 99.4684 31.9868 99.3322 31.9868C98.8441 31.9868 98.5604 31.7939 98.515 31.0674H98.4923C98.095 31.7257 97.4026 32.089 96.4605 32.089ZM95.3369 30.4091C95.3369 31.0788 95.7114 31.442 96.5514 31.442C97.7318 31.442 98.515 30.8177 98.515 29.7735V28.6952C98.3447 28.9335 97.7318 29.0698 97.0394 29.1833C95.9157 29.3876 95.3369 29.6713 95.3369 30.4091ZM104.606 28.0369C104.606 27.2991 104.266 26.6635 103.267 26.6635C102.166 26.6635 101.44 27.4353 101.44 28.2866V31.9414H100.702V26.1527H101.44V26.9813H101.462C101.792 26.5046 102.416 26.0165 103.449 26.0165C104.482 26.0165 105.344 26.5954 105.344 27.878V31.9414H104.606V28.0369ZM108.901 32.089C107.494 32.089 106.359 30.9539 106.359 29.0471C106.359 27.1515 107.494 26.0165 108.901 26.0165C109.911 26.0165 110.513 26.5159 110.854 27.1288H110.876V23.8259H111.614V31.9414H110.876V30.9993H110.854C110.524 31.5668 109.911 32.089 108.901 32.089ZM107.131 29.0471C107.131 30.3523 107.789 31.442 108.992 31.442C110.104 31.442 110.876 30.5113 110.876 29.0471C110.876 27.5942 110.104 26.6635 108.992 26.6635C107.789 26.6635 107.131 27.7531 107.131 29.0471ZM30.2914 44.9414L33.322 36.8259H34.2527L37.3059 44.9414H36.4206L35.6034 42.694H31.9599L31.1427 44.9414H30.2914ZM32.2323 41.9562H35.3423L33.7987 37.609H33.776L32.2323 41.9562ZM38.8129 41.7065V44.9414H38.0751V39.1527H38.8129V40.3331H38.8356C39.1307 39.5727 39.6642 39.0165 40.4814 39.0165C40.6857 39.0165 40.8446 39.0278 40.9808 39.0505V39.777C40.8673 39.7543 40.7425 39.7429 40.629 39.7429C39.5847 39.7429 38.8129 40.5828 38.8129 41.7065ZM43.8965 45.089C42.2393 45.089 41.127 43.8631 41.127 42.0471C41.127 40.2423 42.2393 39.0165 43.8965 39.0165C45.3039 39.0165 46.2573 39.9586 46.3822 41.1844H45.6104C45.565 40.5374 45.0996 39.6635 43.8965 39.6635C42.4777 39.6635 41.8988 40.8666 41.8988 42.0471C41.8988 43.2388 42.4777 44.4533 43.8965 44.4533C45.1109 44.4533 45.565 43.5794 45.6104 42.8756H46.3822C46.3027 44.1242 45.3039 45.089 43.8965 45.089ZM49.5088 45.089C47.8857 45.089 47.0003 44.2036 46.9663 43.0459H47.7381C47.7835 43.8404 48.3056 44.442 49.5201 44.442C50.6211 44.442 50.9957 43.9312 50.9957 43.3637C50.9957 42.5124 50.1331 42.4216 49.3272 42.2287C48.2602 41.9562 47.182 41.6952 47.182 40.5715C47.182 39.6294 47.9311 39.0165 49.2364 39.0165C50.746 39.0165 51.4497 39.8224 51.5519 40.7758H50.78C50.6779 40.265 50.3714 39.6635 49.2477 39.6635C48.4191 39.6635 47.9538 39.9813 47.9538 40.5261C47.9538 41.2525 48.737 41.3547 49.6109 41.5703C50.7006 41.8314 51.7789 42.1379 51.7789 43.341C51.7789 44.3966 50.9389 45.089 49.5088 45.089ZM57.9243 45.0776C56.9141 45.0776 56.3126 44.5782 55.972 43.9539H55.9493V44.9414H55.2116V36.8259H55.9493V40.0834H55.972C56.3126 39.5273 56.9141 39.0051 57.9243 39.0051C59.3431 39.0051 60.4782 40.1402 60.4782 42.0471C60.4782 43.9426 59.3431 45.0776 57.9243 45.0776ZM55.9493 42.0471C55.9493 43.4999 56.7325 44.4306 57.8449 44.4306C59.048 44.4306 59.7063 43.341 59.7063 42.0471C59.7063 40.7418 59.048 39.6408 57.8449 39.6408C56.7325 39.6408 55.9493 40.5828 55.9493 42.0471ZM61.9074 46.9731C61.7258 46.9731 61.5896 46.9618 61.3513 46.9277V46.2921C61.5215 46.3148 61.6123 46.3262 61.7939 46.3262C62.3387 46.3262 62.7814 45.9743 63.0992 44.9074L60.761 39.1527H61.5783L63.4624 43.9766H63.4851L65.2785 39.1527H66.073L63.7575 45.1117C63.19 46.5532 62.6793 46.9731 61.9074 46.9731ZM71.7909 45.0776C70.7807 45.0776 70.1791 44.5782 69.8386 43.9653H69.8159V46.9504H69.0781V39.1527H69.8159V40.0834H69.8386C70.1791 39.5273 70.7807 39.0051 71.7909 39.0051C73.2097 39.0051 74.3447 40.1402 74.3447 42.0471C74.3447 43.9426 73.2097 45.0776 71.7909 45.0776ZM69.8159 42.0471C69.8159 43.4999 70.5991 44.4306 71.7114 44.4306C72.9146 44.4306 73.5729 43.341 73.5729 42.0471C73.5729 40.7418 72.9146 39.6521 71.7114 39.6521C70.5991 39.6521 69.8159 40.5828 69.8159 42.0471ZM76.134 41.7065V44.9414H75.3962V39.1527H76.134V40.3331H76.1567C76.4518 39.5727 76.9853 39.0165 77.8025 39.0165C78.0068 39.0165 78.1657 39.0278 78.3019 39.0505V39.777C78.1884 39.7543 78.0636 39.7429 77.9501 39.7429C76.9058 39.7429 76.134 40.5828 76.134 41.7065ZM81.2289 45.1003C79.4923 45.1003 78.4481 43.8518 78.4481 42.0584C78.4481 40.2537 79.4923 39.0051 81.2289 39.0051C82.9655 39.0051 84.0098 40.2537 84.0098 42.0584C84.0098 43.8518 82.9655 45.1003 81.2289 45.1003ZM79.2199 42.0584C79.2199 43.3864 79.8782 44.4533 81.2289 44.4533C82.5796 44.4533 83.2379 43.3864 83.2379 42.0584C83.2379 40.7191 82.5796 39.6521 81.2289 39.6521C79.8782 39.6521 79.2199 40.7191 79.2199 42.0584ZM86.4395 44.9414L84.3169 39.1527H85.1342L86.8708 44.1923H86.8821L88.6074 39.1527H89.4019L87.2794 44.9414H86.4395ZM90.1939 44.9414V39.1527H90.9317V44.9414H90.1939ZM90.0804 37.995V37.0415H91.0338V37.995H90.0804ZM94.5249 45.089C93.1174 45.089 91.9824 43.9539 91.9824 42.0471C91.9824 40.1515 93.1174 39.0165 94.5249 39.0165C95.535 39.0165 96.1366 39.5159 96.4771 40.1288H96.4998V36.8259H97.2376V44.9414H96.4998V43.9993H96.4771C96.148 44.5668 95.535 45.089 94.5249 45.089ZM92.7542 42.0471C92.7542 43.3523 93.4125 44.442 94.6157 44.442C95.728 44.442 96.4998 43.5113 96.4998 42.0471C96.4998 40.5942 95.728 39.6635 94.6157 39.6635C93.4125 39.6635 92.7542 40.7531 92.7542 42.0471ZM98.6069 44.9414V39.1527H99.3447V44.9414H98.6069ZM98.4934 37.995V37.0415H99.4469V37.995H98.4934ZM104.606 41.0369C104.606 40.2991 104.266 39.6635 103.267 39.6635C102.166 39.6635 101.44 40.4353 101.44 41.2866V44.9414H100.702V39.1527H101.44V39.9813H101.462C101.792 39.5046 102.416 39.0165 103.449 39.0165C104.482 39.0165 105.344 39.5954 105.344 40.878V44.9414H104.606V41.0369ZM109.026 47.0185C107.46 47.0185 106.631 46.2581 106.54 45.2479H107.312C107.426 45.8608 107.914 46.3716 109.038 46.3716C110.207 46.3716 110.899 45.8608 110.899 44.6803V43.6021H110.876C110.536 44.2036 109.9 44.669 108.924 44.669C107.539 44.669 106.382 43.761 106.382 41.8314C106.382 39.9245 107.539 39.0165 108.924 39.0165C109.9 39.0165 110.536 39.4819 110.876 40.0607H110.899V39.1527H111.637V44.5782C111.637 46.2127 110.615 47.0185 109.026 47.0185ZM107.153 41.8314C107.153 43.1594 107.834 44.022 109.026 44.022C110.093 44.022 110.899 43.3183 110.899 41.8314C110.899 40.3672 110.093 39.6635 109.026 39.6635C107.834 39.6635 107.153 40.5261 107.153 41.8314ZM9.11729 58.089C7.49418 58.089 6.60885 57.2036 6.5748 56.0459H7.34663C7.39203 56.8404 7.91415 57.442 9.12864 57.442C10.2296 57.442 10.6042 56.9312 10.6042 56.3637C10.6042 55.5124 9.74156 55.4216 8.93569 55.2287C7.86875 54.9562 6.79046 54.6952 6.79046 53.5715C6.79046 52.6294 7.53959 52.0165 8.84488 52.0165C10.3545 52.0165 11.0582 52.8224 11.1604 53.7758H10.3885C10.2864 53.265 9.97992 52.6635 8.85623 52.6635C8.02765 52.6635 7.56229 52.9813 7.56229 53.5261C7.56229 54.2525 8.34546 54.3547 9.21945 54.5703C10.3091 54.8314 11.3874 55.1379 11.3874 56.341C11.3874 57.3966 10.5474 58.089 9.11729 58.089ZM15.0499 58.0776C14.0397 58.0776 13.4382 57.5782 13.0976 56.9653H13.0749V59.9504H12.3372V52.1527H13.0749V53.0834H13.0976C13.4382 52.5273 14.0397 52.0051 15.0499 52.0051C16.4687 52.0051 17.6038 53.1402 17.6038 55.0471C17.6038 56.9426 16.4687 58.0776 15.0499 58.0776ZM13.0749 55.0471C13.0749 56.4999 13.8581 57.4306 14.9705 57.4306C16.1736 57.4306 16.8319 56.341 16.8319 55.0471C16.8319 53.7418 16.1736 52.6521 14.9705 52.6521C13.8581 52.6521 13.0749 53.5828 13.0749 55.0471ZM21.107 58.1003C19.3363 58.1003 18.3488 56.8064 18.3488 55.0471C18.3488 53.1969 19.4384 52.0051 21.107 52.0051C22.7755 52.0051 23.7176 53.1742 23.7176 54.786C23.7176 54.9449 23.7176 55.1038 23.7062 55.1946H19.1206C19.132 56.3637 19.7563 57.4647 21.1183 57.4647C22.3101 57.4647 22.7755 56.6475 22.889 56.1707H23.6381C23.3543 57.2263 22.5598 58.1003 21.107 58.1003ZM19.1206 54.5476H22.9344C22.9344 53.5147 22.2647 52.6408 21.0729 52.6408C19.9492 52.6408 19.1774 53.4693 19.1206 54.5476ZM27.2034 58.089C25.5462 58.089 24.4339 56.8631 24.4339 55.0471C24.4339 53.2423 25.5462 52.0165 27.2034 52.0165C28.6108 52.0165 29.5643 52.9586 29.6891 54.1844H28.9173C28.8719 53.5374 28.4065 52.6635 27.2034 52.6635C25.7846 52.6635 25.2057 53.8666 25.2057 55.0471C25.2057 56.2388 25.7846 57.4533 27.2034 57.4533C28.4179 57.4533 28.8719 56.5794 28.9173 55.8756H29.6891C29.6097 57.1242 28.6108 58.089 27.2034 58.089ZM30.6818 57.9414V52.1527H31.4196V57.9414H30.6818ZM30.5683 50.995V50.0415H31.5218V50.995H30.5683ZM33.1286 51.3014C33.1286 50.0415 33.6281 49.7578 34.4566 49.7578C34.6155 49.7578 34.7517 49.7691 35.0128 49.8032V50.4274C34.8085 50.4161 34.7177 50.4047 34.5588 50.4047C34.0026 50.4047 33.8664 50.575 33.8664 51.2901V52.1527H35.0128V52.7997H33.8664V57.9414H33.1286V52.7997H32.3114V52.1527H33.1286V51.3014ZM35.6825 50.995V50.0415H36.6359V50.995H35.6825ZM35.796 57.9414V52.1527H36.5338V57.9414H35.796ZM40.3494 58.089C38.6923 58.089 37.5799 56.8631 37.5799 55.0471C37.5799 53.2423 38.6923 52.0165 40.3494 52.0165C41.7569 52.0165 42.7103 52.9586 42.8352 54.1844H42.0634C42.018 53.5374 41.5526 52.6635 40.3494 52.6635C38.9306 52.6635 38.3518 53.8666 38.3518 55.0471C38.3518 56.2388 38.9306 57.4533 40.3494 57.4533C41.5639 57.4533 42.018 56.5794 42.0634 55.8756H42.8352C42.7557 57.1242 41.7569 58.089 40.3494 58.089ZM48.4447 58.089C46.8216 58.089 45.9362 57.2036 45.9022 56.0459H46.674C46.7194 56.8404 47.2415 57.442 48.456 57.442C49.557 57.442 49.9316 56.9312 49.9316 56.3637C49.9316 55.5124 49.069 55.4216 48.2631 55.2287C47.1961 54.9562 46.1178 54.6952 46.1178 53.5715C46.1178 52.6294 46.867 52.0165 48.1723 52.0165C49.6819 52.0165 50.3856 52.8224 50.4878 53.7758H49.7159C49.6138 53.265 49.3073 52.6635 48.1836 52.6635C47.355 52.6635 46.8897 52.9813 46.8897 53.5261C46.8897 54.2525 47.6729 54.3547 48.5468 54.5703C49.6365 54.8314 50.7148 55.1379 50.7148 56.341C50.7148 57.3966 49.8748 58.089 48.4447 58.089ZM51.6646 57.9414V49.8259H52.4023V54.8768L55.274 52.1527H56.182L53.9006 54.2752L56.4658 57.9414H55.5918L53.4012 54.7406L52.4023 55.6713V57.9414H51.6646ZM56.9961 57.9414V52.1527H57.7339V57.9414H56.9961ZM56.8826 50.995V50.0415H57.8361V50.995H56.8826ZM59.0911 57.9414V49.8259H59.8289V57.9414H59.0911ZM61.186 57.9414V49.8259H61.9238V57.9414H61.186ZM65.4149 58.089C63.7918 58.089 62.9064 57.2036 62.8724 56.0459H63.6442C63.6896 56.8404 64.2117 57.442 65.4262 57.442C66.5272 57.442 66.9018 56.9312 66.9018 56.3637C66.9018 55.5124 66.0391 55.4216 65.2333 55.2287C64.1663 54.9562 63.088 54.6952 63.088 53.5715C63.088 52.6294 63.8372 52.0165 65.1425 52.0165C66.6521 52.0165 67.3558 52.8224 67.4579 53.7758H66.6861C66.584 53.265 66.2775 52.6635 65.1538 52.6635C64.3252 52.6635 63.8599 52.9813 63.8599 53.5261C63.8599 54.2525 64.643 54.3547 65.517 54.5703C66.6067 54.8314 67.685 55.1379 67.685 56.341C67.685 57.3966 66.845 58.089 65.4149 58.089ZM72.7067 58.089C71.549 58.089 70.8112 57.442 70.8112 56.4772C70.8112 55.2287 71.6965 54.8314 73.1948 54.5703C74.1482 54.4001 74.7611 54.332 74.7611 53.6396C74.7611 53.0494 74.3752 52.6521 73.4445 52.6521C72.3208 52.6521 71.9235 53.0494 71.8668 53.9007H71.0836C71.1404 52.8791 71.7873 52.0051 73.4672 52.0051C74.5341 52.0051 75.4762 52.4592 75.4762 53.8439V56.7383C75.4762 57.2036 75.5443 57.4193 75.8054 57.4193C75.8508 57.4193 75.8962 57.4193 75.9643 57.4079V57.9414C75.8394 57.9641 75.7146 57.9868 75.5784 57.9868C75.0903 57.9868 74.8065 57.7939 74.7611 57.0674H74.7384C74.3412 57.7257 73.6488 58.089 72.7067 58.089ZM71.583 56.4091C71.583 57.0788 71.9576 57.442 72.7975 57.442C73.978 57.442 74.7611 56.8177 74.7611 55.7735V54.6952C74.5909 54.9335 73.978 55.0698 73.2856 55.1833C72.1619 55.3876 71.583 55.6713 71.583 56.4091ZM80.8526 54.0369C80.8526 53.2991 80.5121 52.6635 79.5132 52.6635C78.4122 52.6635 77.6858 53.4353 77.6858 54.2866V57.9414H76.948V52.1527H77.6858V52.9813H77.7085C78.0377 52.5046 78.6619 52.0165 79.6948 52.0165C80.7277 52.0165 81.5904 52.5954 81.5904 53.878V57.9414H80.8526V54.0369ZM85.1475 58.089C83.74 58.089 82.605 56.9539 82.605 55.0471C82.605 53.1515 83.74 52.0165 85.1475 52.0165C86.1577 52.0165 86.7592 52.5159 87.0997 53.1288H87.1224V49.8259H87.8602V57.9414H87.1224V56.9993H87.0997C86.7706 57.5668 86.1577 58.089 85.1475 58.089ZM83.3768 55.0471C83.3768 56.3523 84.0351 57.442 85.2383 57.442C86.3506 57.442 87.1224 56.5113 87.1224 55.0471C87.1224 53.5942 86.3506 52.6635 85.2383 52.6635C84.0351 52.6635 83.3768 53.7531 83.3768 55.0471ZM94.1641 58.089C92.507 58.089 91.3946 56.8631 91.3946 55.0471C91.3946 53.2423 92.507 52.0165 94.1641 52.0165C95.5716 52.0165 96.525 52.9586 96.6499 54.1844H95.878C95.8326 53.5374 95.3673 52.6635 94.1641 52.6635C92.7453 52.6635 92.1665 53.8666 92.1665 55.0471C92.1665 56.2388 92.7453 57.4533 94.1641 57.4533C95.3786 57.4533 95.8326 56.5794 95.878 55.8756H96.6499C96.5704 57.1242 95.5716 58.089 94.1641 58.089ZM98.3804 54.7065V57.9414H97.6426V52.1527H98.3804V53.3331H98.4031C98.6982 52.5727 99.2316 52.0165 100.049 52.0165C100.253 52.0165 100.412 52.0278 100.548 52.0505V52.777C100.435 52.7543 100.31 52.7429 100.196 52.7429C99.1522 52.7429 98.3804 53.5828 98.3804 54.7065ZM102.679 58.089C101.521 58.089 100.783 57.442 100.783 56.4772C100.783 55.2287 101.669 54.8314 103.167 54.5703C104.12 54.4001 104.733 54.332 104.733 53.6396C104.733 53.0494 104.347 52.6521 103.417 52.6521C102.293 52.6521 101.896 53.0494 101.839 53.9007H101.056C101.113 52.8791 101.759 52.0051 103.439 52.0051C104.506 52.0051 105.448 52.4592 105.448 53.8439V56.7383C105.448 57.2036 105.516 57.4193 105.778 57.4193C105.823 57.4193 105.868 57.4193 105.936 57.4079V57.9414C105.812 57.9641 105.687 57.9868 105.551 57.9868C105.062 57.9868 104.779 57.7939 104.733 57.0674H104.711C104.313 57.7257 103.621 58.089 102.679 58.089ZM101.555 56.4091C101.555 57.0788 101.93 57.442 102.77 57.442C103.95 57.442 104.733 56.8177 104.733 55.7735V54.6952C104.563 54.9335 103.95 55.0698 103.258 55.1833C102.134 55.3876 101.555 55.6713 101.555 56.4091ZM107.161 51.3014C107.161 50.0415 107.661 49.7578 108.489 49.7578C108.648 49.7578 108.784 49.7691 109.045 49.8032V50.4274C108.841 50.4161 108.75 50.4047 108.591 50.4047C108.035 50.4047 107.899 50.575 107.899 51.2901V52.1527H109.045V52.7997H107.899V57.9414H107.161V52.7997H106.344V52.1527H107.161V51.3014ZM111.482 57.9868C110.642 57.9868 110.12 57.703 110.12 56.4432V52.7997H109.269V52.1527H110.12V50.2231H110.858V52.1527H112.027V52.7997H110.858V56.4545C110.858 57.1696 111.017 57.3398 111.584 57.3398C111.766 57.3398 111.857 57.3285 112.027 57.3171V57.9414C111.8 57.9755 111.664 57.9868 111.482 57.9868Z" fill="#595959"/>
<path d="M98.0898 70.4624L98.0898 93.6899" stroke="#595959" stroke-width="0.378347"/>
</svg>
