<svg width="16" height="17" viewBox="0 0 16 17" fill="none" xmlns="http://www.w3.org/2000/svg">
<path fill-rule="evenodd" clip-rule="evenodd" d="M8 1.5C11.866 1.5 15 4.63401 15 8.5C15 12.366 11.866 15.5 8 15.5C4.13401 15.5 1 12.366 1 8.5C1 4.63401 4.13401 1.5 8 1.5ZM7.41189 13.9689C7.52699 13.9812 7.625 13.8892 7.625 13.7735V11.6019C7.625 11.486 7.52684 11.3941 7.41169 11.4065C6.86713 11.4653 6.36508 11.6031 5.93222 11.7936C5.84072 11.8339 5.79715 11.9379 5.83032 12.0322C5.96714 12.4212 6.12298 12.7792 6.29211 13.1C6.4321 13.3655 6.57839 13.6002 6.72659 13.8033C6.75438 13.8414 6.79526 13.8679 6.84136 13.8777C7.02819 13.9178 7.21855 13.9484 7.41189 13.9689ZM8.58831 11.4065C8.47316 11.3941 8.375 11.486 8.375 11.6019V13.7735C8.375 13.8892 8.47301 13.9812 8.58811 13.9689C8.78145 13.9484 8.97181 13.9178 9.15864 13.8777C9.20474 13.8679 9.24562 13.8414 9.27341 13.8033C9.42161 13.6002 9.5679 13.3655 9.70789 13.1C9.87702 12.7792 10.0329 12.4212 10.1697 12.0322C10.2028 11.9379 10.1593 11.8339 10.0678 11.7936C9.63492 11.6031 9.13287 11.4653 8.58831 11.4065ZM8.56285 10.6504C8.45748 10.6408 8.375 10.5537 8.375 10.4479V9.075C8.375 8.96454 8.46454 8.875 8.575 8.875H10.5372C10.6502 8.875 10.7409 8.96864 10.7352 9.08153C10.7024 9.72171 10.6169 10.3329 10.4908 10.9016C10.4636 11.024 10.3303 11.0883 10.2139 11.0415C9.7168 10.8416 9.15763 10.7042 8.56285 10.6504ZM7.425 8.125C7.53546 8.125 7.625 8.03546 7.625 7.925V6.55213C7.625 6.44633 7.54252 6.35918 7.43715 6.34964C6.84237 6.29581 6.2832 6.15843 5.78606 5.95852C5.66973 5.91173 5.53635 5.97596 5.50922 6.09838C5.38314 6.66714 5.29755 7.27829 5.26484 7.91847C5.25907 8.03136 5.34982 8.125 5.46285 8.125H7.425ZM8.56285 6.34964C8.45748 6.35918 8.375 6.44633 8.375 6.55213V7.925C8.375 8.03546 8.46454 8.125 8.575 8.125H10.5372C10.6502 8.125 10.7409 8.03136 10.7352 7.91847C10.7024 7.27829 10.6169 6.66714 10.4908 6.09838C10.4636 5.97596 10.3303 5.91173 10.2139 5.95851C9.7168 6.15842 9.15763 6.2958 8.56285 6.34964ZM8.58831 5.59348C8.47316 5.6059 8.375 5.51396 8.375 5.39814V3.2265C8.375 3.11076 8.47301 3.01884 8.58811 3.03107C8.78145 3.05163 8.97181 3.0822 9.15864 3.12226C9.20474 3.13214 9.24562 3.15858 9.27341 3.19667C9.42161 3.3998 9.5679 3.63454 9.70789 3.90005C9.87702 4.22083 10.0329 4.57879 10.1697 4.96775C10.2028 5.06206 10.1593 5.1661 10.0678 5.20638C9.63492 5.39694 9.13287 5.53473 8.58831 5.59348ZM7.41169 5.59348C7.52684 5.60591 7.625 5.51396 7.625 5.39814V3.2265C7.625 3.11076 7.52699 3.01884 7.41189 3.03107C7.21854 3.05163 7.02819 3.0822 6.84135 3.12226C6.79525 3.13214 6.75438 3.15858 6.72659 3.19667C6.57838 3.3998 6.4321 3.63454 6.29211 3.90005C6.12298 4.22083 5.96714 4.57879 5.83032 4.96775C5.79715 5.06206 5.84072 5.1661 5.93222 5.20639C6.36508 5.39694 6.86713 5.53473 7.41169 5.59348ZM7.43715 10.6504C7.54252 10.6408 7.625 10.5537 7.625 10.4479V9.075C7.625 8.96454 7.53546 8.875 7.425 8.875H5.46285C5.34982 8.875 5.25907 8.96864 5.26484 9.08153C5.29755 9.72171 5.38314 10.3329 5.50922 10.9016C5.53635 11.024 5.66973 11.0883 5.78606 11.0415C6.2832 10.8416 6.84237 10.7042 7.43715 10.6504ZM11.0911 12.4564C10.9923 12.3613 10.8327 12.4077 10.7836 12.5357C10.6555 12.8695 10.5137 13.1817 10.3613 13.4688C10.7322 13.2922 11.0803 13.0753 11.3997 12.8237C11.3189 12.7001 11.2161 12.5767 11.0911 12.4564ZM12.1226 12.1407C12.0402 12.234 11.8936 12.2234 11.8123 12.1291C11.6452 11.9354 11.4477 11.7569 11.2291 11.5971C11.1604 11.5469 11.1278 11.4603 11.1486 11.3779C11.3289 10.6639 11.4484 9.88616 11.4867 9.06879C11.4917 8.96086 11.5801 8.875 11.6881 8.875H13.2735C13.3892 8.875 13.4812 8.97307 13.4689 9.08816C13.3451 10.2528 12.8578 11.3088 12.1226 12.1407ZM4.77094 11.5971C4.83959 11.5469 4.87219 11.4603 4.85137 11.3779C4.67113 10.6639 4.55165 9.88616 4.51332 9.06879C4.50826 8.96086 4.41992 8.875 4.31186 8.875H2.7265C2.61076 8.875 2.51884 8.97307 2.53108 9.08816C2.65489 10.2528 3.14219 11.3088 3.87737 12.1407C3.95984 12.234 4.10639 12.2234 4.18773 12.1291C4.35478 11.9354 4.55231 11.7569 4.77094 11.5971ZM4.60026 12.8237C4.91975 13.0753 5.26779 13.2922 5.63874 13.4688C5.48631 13.1817 5.34454 12.8695 5.21641 12.5357C5.16725 12.4077 5.00769 12.3613 4.90888 12.4564C4.78391 12.5767 4.68112 12.7001 4.60026 12.8237ZM5.63874 3.53124C5.48631 3.81834 5.34454 4.13054 5.21641 4.46429C5.16725 4.59233 5.00769 4.63867 4.90888 4.54356C4.78391 4.42327 4.68112 4.29993 4.60026 4.17631C4.91975 3.92475 5.26779 3.70784 5.63874 3.53124ZM4.85137 5.62213C4.87219 5.53968 4.83959 5.45312 4.77094 5.40294C4.55231 5.2431 4.35478 5.06457 4.18773 4.87093C4.10639 4.77663 3.95984 4.76599 3.87737 4.85931C3.14219 5.69117 2.65489 6.74722 2.53108 7.91184C2.51884 8.02693 2.61076 8.125 2.7265 8.125H4.31186C4.41992 8.125 4.50826 8.03914 4.51332 7.93121C4.55165 7.11384 4.67113 6.3361 4.85137 5.62213ZM11.6881 8.125C11.5801 8.125 11.4917 8.03914 11.4867 7.93121C11.4484 7.11384 11.3289 6.3361 11.1486 5.62213C11.1278 5.53968 11.1604 5.45312 11.2291 5.40294C11.4477 5.2431 11.6452 5.06457 11.8123 4.87093C11.8936 4.77663 12.0402 4.76599 12.1226 4.85931C12.8578 5.69117 13.3451 6.74722 13.4689 7.91184C13.4812 8.02693 13.3892 8.125 13.2735 8.125H11.6881ZM11.3997 4.17631C11.3189 4.29993 11.2161 4.42327 11.0911 4.54356C10.9923 4.63867 10.8327 4.59233 10.7836 4.46429C10.6555 4.13054 10.5137 3.81834 10.3613 3.53124C10.7322 3.70783 11.0803 3.92474 11.3997 4.17631Z" fill="#737EA5"/>
</svg>
